<?xml version="1.0" encoding="UTF-8"?>
<!DOCTYPE svg PUBLIC "-//W3C//DTD SVG 1.1//EN" "http://www.w3.org/Graphics/SVG/1.1/DTD/svg11.dtd">
<svg version="1.2" width="51.18mm" height="67.05mm" viewBox="22530 19051 5118 6705" preserveAspectRatio="xMidYMid" fill-rule="evenodd" stroke-width="28.222" stroke-linejoin="round" xmlns="http://www.w3.org/2000/svg" xmlns:ooo="http://xml.openoffice.org/svg/export" xmlns:xlink="http://www.w3.org/1999/xlink" xmlns:presentation="http://sun.com/xmlns/staroffice/presentation" xmlns:smil="http://www.w3.org/2001/SMIL20/" xmlns:anim="urn:oasis:names:tc:opendocument:xmlns:animation:1.0" xmlns:svg="urn:oasis:names:tc:opendocument:xmlns:svg-compatible:1.0" xml:space="preserve">
 <defs class="EmbeddedBulletChars">
  <g id="bullet-char-template-57356" transform="scale(0.00048828125,-0.00048828125)">
   <path d="M 580,1141 L 1163,571 580,0 -4,571 580,1141 Z"/>
  </g>
  <g id="bullet-char-template-57354" transform="scale(0.00048828125,-0.00048828125)">
   <path d="M 8,1128 L 1137,1128 1137,0 8,0 8,1128 Z"/>
  </g>
  <g id="bullet-char-template-10146" transform="scale(0.00048828125,-0.00048828125)">
   <path d="M 174,0 L 602,739 174,1481 1456,739 174,0 Z M 1358,739 L 309,1346 659,739 1358,739 Z"/>
  </g>
  <g id="bullet-char-template-10132" transform="scale(0.00048828125,-0.00048828125)">
   <path d="M 2015,739 L 1276,0 717,0 1260,543 174,543 174,936 1260,936 717,1481 1274,1481 2015,739 Z"/>
  </g>
  <g id="bullet-char-template-10007" transform="scale(0.00048828125,-0.00048828125)">
   <path d="M 0,-2 C -7,14 -16,27 -25,37 L 356,567 C 262,823 215,952 215,954 215,979 228,992 255,992 264,992 276,990 289,987 310,991 331,999 354,1012 L 381,999 492,748 772,1049 836,1024 860,1049 C 881,1039 901,1025 922,1006 886,937 835,863 770,784 769,783 710,716 594,584 L 774,223 C 774,196 753,168 711,139 L 727,119 C 717,90 699,76 672,76 641,76 570,178 457,381 L 164,-76 C 142,-110 111,-127 72,-127 30,-127 9,-110 8,-76 1,-67 -2,-52 -2,-32 -2,-23 -1,-13 0,-2 Z"/>
  </g>
  <g id="bullet-char-template-10004" transform="scale(0.00048828125,-0.00048828125)">
   <path d="M 285,-33 C 182,-33 111,30 74,156 52,228 41,333 41,471 41,549 55,616 82,672 116,743 169,778 240,778 293,778 328,747 346,684 L 369,508 C 377,444 397,411 428,410 L 1163,1116 C 1174,1127 1196,1133 1229,1133 1271,1133 1292,1118 1292,1087 L 1292,965 C 1292,929 1282,901 1262,881 L 442,47 C 390,-6 338,-33 285,-33 Z"/>
  </g>
  <g id="bullet-char-template-9679" transform="scale(0.00048828125,-0.00048828125)">
   <path d="M 813,0 C 632,0 489,54 383,161 276,268 223,411 223,592 223,773 276,916 383,1023 489,1130 632,1184 813,1184 992,1184 1136,1130 1245,1023 1353,916 1407,772 1407,592 1407,412 1353,268 1245,161 1136,54 992,0 813,0 Z"/>
  </g>
  <g id="bullet-char-template-8226" transform="scale(0.00048828125,-0.00048828125)">
   <path d="M 346,457 C 273,457 209,483 155,535 101,586 74,649 74,723 74,796 101,859 155,911 209,963 273,989 346,989 419,989 480,963 531,910 582,859 608,796 608,723 608,648 583,586 532,535 482,483 420,457 346,457 Z"/>
  </g>
  <g id="bullet-char-template-8211" transform="scale(0.00048828125,-0.00048828125)">
   <path d="M -4,459 L 1135,459 1135,606 -4,606 -4,459 Z"/>
  </g>
  <g id="bullet-char-template-61548" transform="scale(0.00048828125,-0.00048828125)">
   <path d="M 173,740 C 173,903 231,1043 346,1159 462,1274 601,1332 765,1332 928,1332 1067,1274 1183,1159 1299,1043 1357,903 1357,740 1357,577 1299,437 1183,322 1067,206 928,148 765,148 601,148 462,206 346,322 231,437 173,577 173,740 Z"/>
  </g>
 </defs>
 <g class="Page">
  <g class="com.sun.star.drawing.CustomShape">
   <g id="id3">
    <rect class="BoundingBox" stroke="none" fill="none" x="22530" y="19051" width="5118" height="6705"/>
    <path fill="rgb(235, 199, 230)" stroke="none" d="M 23394,19069 L 23395,19069 C 23246,19069 23100,19108 22971,19182 22843,19257 22736,19364 22661,19492 22587,19621 22548,19767 22548,19916 L 22548,24890 22548,24890 C 22548,25039 22587,25185 22661,25314 22736,25442 22843,25549 22971,25624 23100,25698 23246,25737 23395,25737 L 26782,25737 26782,25737 C 26931,25737 27077,25698 27206,25624 27334,25549 27441,25442 27516,25314 27590,25185 27629,25039 27629,24890 L 27629,19915 27629,19916 27629,19916 C 27629,19767 27590,19621 27516,19492 27441,19364 27334,19257 27206,19182 27077,19108 26931,19069 26782,19069 L 23394,19069 Z"/>
    <path fill="none" stroke="rgb(100, 92, 187)" stroke-width="100" stroke-linejoin="round" stroke-dasharray="300" stroke-dashoffset="500" d="M 23394,19069 L 23395,19069 C 23246,19069 23100,19108 22971,19182 22843,19257 22736,19364 22661,19492 22587,19621 22548,19767 22548,19916 L 22548,24890 22548,24890 C 22548,25039 22587,25185 22661,25314 22736,25442 22843,25549 22971,25624 23100,25698 23246,25737 23395,25737 L 26782,25737 26782,25737 C 26931,25737 27077,25698 27206,25624 27334,25549 27441,25442 27516,25314 27590,25185 27629,25039 27629,24890 L 27629,19915 27629,19916 27629,19916 C 27629,19767 27590,19621 27516,19492 27441,19364 27334,19257 27206,19182 27077,19108 26931,19069 26782,19069 L 23394,19069 Z">
    <animate attributeName="stroke-dashoffset" from="500" to="0" dur="0.2s" repeatCount="indefinite"/>
    </path>
   </g>
  </g>
  <g class="com.sun.star.drawing.CustomShape">
   <g id="id4">
    <rect class="BoundingBox" stroke="none" fill="none" x="22811" y="21557" width="4553" height="1696"/>
    <path fill="none" stroke="rgb(42,96,153)" stroke-width="106" stroke-linejoin="round" d="M 23658,21610 L 23659,21610 C 23519,21610 23382,21647 23261,21716 23140,21786 23040,21886 22970,22007 22901,22128 22864,22265 22864,22405 L 22864,22404 22864,22405 C 22864,22544 22901,22681 22970,22802 23040,22923 23140,23023 23261,23093 23382,23162 23519,23199 23659,23199 L 26515,23199 26516,23199 C 26655,23199 26792,23162 26913,23093 27034,23023 27134,22923 27204,22802 27273,22681 27310,22544 27310,22405 L 27310,22404 27310,22405 27310,22405 C 27310,22265 27273,22128 27204,22007 27134,21886 27034,21786 26913,21716 26792,21647 26655,21610 26516,21610 L 23658,21610 Z"/>
   </g>
  </g>
 </g>
</svg>