<?xml version="1.0" encoding="UTF-8"?>
<!DOCTYPE svg PUBLIC "-//W3C//DTD SVG 1.1//EN" "http://www.w3.org/Graphics/SVG/1.1/DTD/svg11.dtd">
<svg version="1.2" width="51.18mm" height="67.05mm" viewBox="28231 19051 5118 6705" preserveAspectRatio="xMidYMid" fill-rule="evenodd" stroke-width="28.222" stroke-linejoin="round" xmlns="http://www.w3.org/2000/svg" xmlns:ooo="http://xml.openoffice.org/svg/export" xmlns:xlink="http://www.w3.org/1999/xlink" xmlns:presentation="http://sun.com/xmlns/staroffice/presentation" xmlns:smil="http://www.w3.org/2001/SMIL20/" xmlns:anim="urn:oasis:names:tc:opendocument:xmlns:animation:1.0" xmlns:svg="urn:oasis:names:tc:opendocument:xmlns:svg-compatible:1.0" xml:space="preserve">
 <defs class="EmbeddedBulletChars">
  <g id="bullet-char-template-57356" transform="scale(0.00048828125,-0.00048828125)">
   <path d="M 580,1141 L 1163,571 580,0 -4,571 580,1141 Z"/>
  </g>
  <g id="bullet-char-template-57354" transform="scale(0.00048828125,-0.00048828125)">
   <path d="M 8,1128 L 1137,1128 1137,0 8,0 8,1128 Z"/>
  </g>
  <g id="bullet-char-template-10146" transform="scale(0.00048828125,-0.00048828125)">
   <path d="M 174,0 L 602,739 174,1481 1456,739 174,0 Z M 1358,739 L 309,1346 659,739 1358,739 Z"/>
  </g>
  <g id="bullet-char-template-10132" transform="scale(0.00048828125,-0.00048828125)">
   <path d="M 2015,739 L 1276,0 717,0 1260,543 174,543 174,936 1260,936 717,1481 1274,1481 2015,739 Z"/>
  </g>
  <g id="bullet-char-template-10007" transform="scale(0.00048828125,-0.00048828125)">
   <path d="M 0,-2 C -7,14 -16,27 -25,37 L 356,567 C 262,823 215,952 215,954 215,979 228,992 255,992 264,992 276,990 289,987 310,991 331,999 354,1012 L 381,999 492,748 772,1049 836,1024 860,1049 C 881,1039 901,1025 922,1006 886,937 835,863 770,784 769,783 710,716 594,584 L 774,223 C 774,196 753,168 711,139 L 727,119 C 717,90 699,76 672,76 641,76 570,178 457,381 L 164,-76 C 142,-110 111,-127 72,-127 30,-127 9,-110 8,-76 1,-67 -2,-52 -2,-32 -2,-23 -1,-13 0,-2 Z"/>
  </g>
  <g id="bullet-char-template-10004" transform="scale(0.00048828125,-0.00048828125)">
   <path d="M 285,-33 C 182,-33 111,30 74,156 52,228 41,333 41,471 41,549 55,616 82,672 116,743 169,778 240,778 293,778 328,747 346,684 L 369,508 C 377,444 397,411 428,410 L 1163,1116 C 1174,1127 1196,1133 1229,1133 1271,1133 1292,1118 1292,1087 L 1292,965 C 1292,929 1282,901 1262,881 L 442,47 C 390,-6 338,-33 285,-33 Z"/>
  </g>
  <g id="bullet-char-template-9679" transform="scale(0.00048828125,-0.00048828125)">
   <path d="M 813,0 C 632,0 489,54 383,161 276,268 223,411 223,592 223,773 276,916 383,1023 489,1130 632,1184 813,1184 992,1184 1136,1130 1245,1023 1353,916 1407,772 1407,592 1407,412 1353,268 1245,161 1136,54 992,0 813,0 Z"/>
  </g>
  <g id="bullet-char-template-8226" transform="scale(0.00048828125,-0.00048828125)">
   <path d="M 346,457 C 273,457 209,483 155,535 101,586 74,649 74,723 74,796 101,859 155,911 209,963 273,989 346,989 419,989 480,963 531,910 582,859 608,796 608,723 608,648 583,586 532,535 482,483 420,457 346,457 Z"/>
  </g>
  <g id="bullet-char-template-8211" transform="scale(0.00048828125,-0.00048828125)">
   <path d="M -4,459 L 1135,459 1135,606 -4,606 -4,459 Z"/>
  </g>
  <g id="bullet-char-template-61548" transform="scale(0.00048828125,-0.00048828125)">
   <path d="M 173,740 C 173,903 231,1043 346,1159 462,1274 601,1332 765,1332 928,1332 1067,1274 1183,1159 1299,1043 1357,903 1357,740 1357,577 1299,437 1183,322 1067,206 928,148 765,148 601,148 462,206 346,322 231,437 173,577 173,740 Z"/>
  </g>
 </defs>
 <g class="Page">
  <g class="com.sun.star.drawing.CustomShape">
   <g id="id3">
    <rect class="BoundingBox" stroke="none" fill="none" x="28231" y="19051" width="5118" height="6705"/>
    <path fill="rgb(235, 199, 230)" stroke="none" d="M 29095,19069 L 29096,19069 C 28947,19069 28801,19108 28672,19182 28544,19257 28437,19364 28362,19492 28288,19621 28249,19767 28249,19916 L 28249,24890 28249,24890 C 28249,25039 28288,25185 28362,25314 28437,25442 28544,25549 28672,25624 28801,25698 28947,25737 29096,25737 L 32483,25737 32483,25737 C 32632,25737 32778,25698 32907,25624 33035,25549 33142,25442 33217,25314 33291,25185 33330,25039 33330,24890 L 33330,19915 33330,19916 33330,19916 C 33330,19767 33291,19621 33217,19492 33142,19364 33035,19257 32907,19182 32778,19108 32632,19069 32483,19069 L 29095,19069 Z"/>
    <path fill="none" stroke="rgb(100, 92, 187)" stroke-width="100" stroke-linejoin="round" stroke-dasharray="300" stroke-dashoffset="500" d="M 29095,19069 L 29096,19069 C 28947,19069 28801,19108 28672,19182 28544,19257 28437,19364 28362,19492 28288,19621 28249,19767 28249,19916 L 28249,24890 28249,24890 C 28249,25039 28288,25185 28362,25314 28437,25442 28544,25549 28672,25624 28801,25698 28947,25737 29096,25737 L 32483,25737 32483,25737 C 32632,25737 32778,25698 32907,25624 33035,25549 33142,25442 33217,25314 33291,25185 33330,25039 33330,24890 L 33330,19915 33330,19916 33330,19916 C 33330,19767 33291,19621 33217,19492 33142,19364 33035,19257 32907,19182 32778,19108 32632,19069 32483,19069 L 29095,19069 Z">
    <animate attributeName="stroke-dashoffset" from="500" to="0" dur="0.2s" repeatCount="indefinite"/>
    </path>
   </g>
  </g>
  <g class="com.sun.star.drawing.CustomShape">
   <g id="id4">
    <rect class="BoundingBox" stroke="none" fill="none" x="28512" y="21557" width="4553" height="1696"/>
    <g>
     <defs>
      <pattern id="pattern1" x="28565" y="21610" width="4447" height="1590" patternUnits="userSpaceOnUse">
       <g transform="translate(-28565,-21610)">
        <line fill="rgb(42,96,153)" stroke="rgb(42,96,153)" x1="28804" y1="21837" x2="28804" y2="22972"/>
        <line fill="rgb(42,96,153)" stroke="rgb(42,96,153)" x1="29069" y1="21665" x2="29069" y2="23144"/>
        <line fill="rgb(42,96,153)" stroke="rgb(42,96,153)" x1="29334" y1="21611" x2="29334" y2="23198"/>
        <line fill="rgb(42,96,153)" stroke="rgb(42,96,153)" x1="29599" y1="21610" x2="29599" y2="23199"/>
        <line fill="rgb(42,96,153)" stroke="rgb(42,96,153)" x1="29864" y1="21610" x2="29864" y2="23199"/>
        <line fill="rgb(42,96,153)" stroke="rgb(42,96,153)" x1="30129" y1="21610" x2="30129" y2="23199"/>
        <line fill="rgb(42,96,153)" stroke="rgb(42,96,153)" x1="30394" y1="21610" x2="30394" y2="23199"/>
        <line fill="rgb(42,96,153)" stroke="rgb(42,96,153)" x1="30659" y1="21610" x2="30659" y2="23199"/>
        <line fill="rgb(42,96,153)" stroke="rgb(42,96,153)" x1="30924" y1="21610" x2="30924" y2="23199"/>
        <line fill="rgb(42,96,153)" stroke="rgb(42,96,153)" x1="31189" y1="21610" x2="31189" y2="23199"/>
        <line fill="rgb(42,96,153)" stroke="rgb(42,96,153)" x1="31454" y1="21610" x2="31454" y2="23199"/>
        <line fill="rgb(42,96,153)" stroke="rgb(42,96,153)" x1="31719" y1="21610" x2="31719" y2="23199"/>
        <line fill="rgb(42,96,153)" stroke="rgb(42,96,153)" x1="31984" y1="21610" x2="31984" y2="23199"/>
        <line fill="rgb(42,96,153)" stroke="rgb(42,96,153)" x1="32249" y1="21611" x2="32249" y2="23198"/>
        <line fill="rgb(42,96,153)" stroke="rgb(42,96,153)" x1="32514" y1="21668" x2="32514" y2="23141"/>
        <line fill="rgb(42,96,153)" stroke="rgb(42,96,153)" x1="32779" y1="21844" x2="32779" y2="22965"/>
       </g>
      </pattern>
     </defs>
     <path style="fill:url(#pattern1)" d="M 29359,21610 L 29359,21610 29307,21612 29256,21617 29204,21625 29154,21637 29104,21652 29056,21670 29008,21692 28962,21716 28918,21744 28876,21774 28836,21807 28798,21843 28762,21881 28729,21921 28699,21963 28671,22007 28647,22053 28625,22101 28607,22149 28592,22199 28580,22249 28572,22301 28567,22352 28565,22405 28565,22404 28565,22405 28567,22457 28572,22508 28580,22560 28592,22610 28607,22660 28625,22708 28647,22756 28671,22802 28699,22846 28729,22888 28762,22928 28798,22966 28836,23002 28876,23035 28918,23065 28962,23093 29008,23117 29056,23139 29104,23157 29154,23172 29204,23184 29256,23192 29307,23197 29359,23199 32216,23199 32217,23199 32269,23197 32320,23192 32372,23184 32422,23172 32472,23157 32520,23139 32568,23117 32614,23093 32658,23065 32700,23035 32740,23002 32778,22966 32814,22928 32847,22888 32877,22846 32905,22802 32929,22756 32951,22708 32969,22660 32984,22610 32996,22560 33004,22508 33009,22457 33011,22405 33011,22404 33011,22405 33011,22405 33009,22352 33004,22301 32996,22249 32984,22199 32969,22149 32951,22101 32929,22053 32905,22007 32877,21963 32847,21921 32814,21881 32778,21843 32740,21807 32700,21774 32658,21744 32614,21716 32568,21692 32520,21670 32472,21652 32422,21637 32372,21625 32320,21617 32269,21612 32217,21610 29359,21610 Z"/>
    </g>
    <path fill="none" stroke="rgb(42,96,153)" stroke-width="106" stroke-linejoin="round" d="M 29359,21610 L 29359,21610 C 29220,21610 29083,21647 28962,21716 28841,21786 28741,21886 28671,22007 28602,22128 28565,22265 28565,22405 L 28565,22404 28565,22405 C 28565,22544 28602,22681 28671,22802 28741,22923 28841,23023 28962,23093 29083,23162 29220,23199 29359,23199 L 32216,23199 32217,23199 C 32356,23199 32493,23162 32614,23093 32735,23023 32835,22923 32905,22802 32974,22681 33011,22544 33011,22405 L 33011,22404 33011,22405 33011,22405 C 33011,22265 32974,22128 32905,22007 32835,21886 32735,21786 32614,21716 32493,21647 32356,21610 32217,21610 L 29359,21610 Z"/>
   </g>
  </g>
 </g>
</svg>