<?xml version="1.0" encoding="UTF-8"?>
<!DOCTYPE svg PUBLIC "-//W3C//DTD SVG 1.1//EN" "http://www.w3.org/Graphics/SVG/1.1/DTD/svg11.dtd">
<svg version="1.2" width="51.18mm" height="67.05mm" viewBox="11130 19051 5118 6705" preserveAspectRatio="xMidYMid" fill-rule="evenodd" stroke-width="28.222" stroke-linejoin="round" xmlns="http://www.w3.org/2000/svg" xmlns:ooo="http://xml.openoffice.org/svg/export" xmlns:xlink="http://www.w3.org/1999/xlink" xmlns:presentation="http://sun.com/xmlns/staroffice/presentation" xmlns:smil="http://www.w3.org/2001/SMIL20/" xmlns:anim="urn:oasis:names:tc:opendocument:xmlns:animation:1.0" xmlns:svg="urn:oasis:names:tc:opendocument:xmlns:svg-compatible:1.0" xml:space="preserve">
 <defs class="EmbeddedBulletChars">
  <g id="bullet-char-template-57356" transform="scale(0.00048828125,-0.00048828125)">
   <path d="M 580,1141 L 1163,571 580,0 -4,571 580,1141 Z"/>
  </g>
  <g id="bullet-char-template-57354" transform="scale(0.00048828125,-0.00048828125)">
   <path d="M 8,1128 L 1137,1128 1137,0 8,0 8,1128 Z"/>
  </g>
  <g id="bullet-char-template-10146" transform="scale(0.00048828125,-0.00048828125)">
   <path d="M 174,0 L 602,739 174,1481 1456,739 174,0 Z M 1358,739 L 309,1346 659,739 1358,739 Z"/>
  </g>
  <g id="bullet-char-template-10132" transform="scale(0.00048828125,-0.00048828125)">
   <path d="M 2015,739 L 1276,0 717,0 1260,543 174,543 174,936 1260,936 717,1481 1274,1481 2015,739 Z"/>
  </g>
  <g id="bullet-char-template-10007" transform="scale(0.00048828125,-0.00048828125)">
   <path d="M 0,-2 C -7,14 -16,27 -25,37 L 356,567 C 262,823 215,952 215,954 215,979 228,992 255,992 264,992 276,990 289,987 310,991 331,999 354,1012 L 381,999 492,748 772,1049 836,1024 860,1049 C 881,1039 901,1025 922,1006 886,937 835,863 770,784 769,783 710,716 594,584 L 774,223 C 774,196 753,168 711,139 L 727,119 C 717,90 699,76 672,76 641,76 570,178 457,381 L 164,-76 C 142,-110 111,-127 72,-127 30,-127 9,-110 8,-76 1,-67 -2,-52 -2,-32 -2,-23 -1,-13 0,-2 Z"/>
  </g>
  <g id="bullet-char-template-10004" transform="scale(0.00048828125,-0.00048828125)">
   <path d="M 285,-33 C 182,-33 111,30 74,156 52,228 41,333 41,471 41,549 55,616 82,672 116,743 169,778 240,778 293,778 328,747 346,684 L 369,508 C 377,444 397,411 428,410 L 1163,1116 C 1174,1127 1196,1133 1229,1133 1271,1133 1292,1118 1292,1087 L 1292,965 C 1292,929 1282,901 1262,881 L 442,47 C 390,-6 338,-33 285,-33 Z"/>
  </g>
  <g id="bullet-char-template-9679" transform="scale(0.00048828125,-0.00048828125)">
   <path d="M 813,0 C 632,0 489,54 383,161 276,268 223,411 223,592 223,773 276,916 383,1023 489,1130 632,1184 813,1184 992,1184 1136,1130 1245,1023 1353,916 1407,772 1407,592 1407,412 1353,268 1245,161 1136,54 992,0 813,0 Z"/>
  </g>
  <g id="bullet-char-template-8226" transform="scale(0.00048828125,-0.00048828125)">
   <path d="M 346,457 C 273,457 209,483 155,535 101,586 74,649 74,723 74,796 101,859 155,911 209,963 273,989 346,989 419,989 480,963 531,910 582,859 608,796 608,723 608,648 583,586 532,535 482,483 420,457 346,457 Z"/>
  </g>
  <g id="bullet-char-template-8211" transform="scale(0.00048828125,-0.00048828125)">
   <path d="M -4,459 L 1135,459 1135,606 -4,606 -4,459 Z"/>
  </g>
  <g id="bullet-char-template-61548" transform="scale(0.00048828125,-0.00048828125)">
   <path d="M 173,740 C 173,903 231,1043 346,1159 462,1274 601,1332 765,1332 928,1332 1067,1274 1183,1159 1299,1043 1357,903 1357,740 1357,577 1299,437 1183,322 1067,206 928,148 765,148 601,148 462,206 346,322 231,437 173,577 173,740 Z"/>
  </g>
 </defs>
 <g class="Page">
  <g class="com.sun.star.drawing.CustomShape">
   <g id="id3">
    <rect class="BoundingBox" stroke="none" fill="none" x="11130" y="19051" width="5118" height="6705"/>
    <path fill="rgb(235, 199, 230)" stroke="none" d="M 11994,19069 L 11995,19069 C 11846,19069 11700,19108 11571,19182 11443,19257 11336,19364 11261,19492 11187,19621 11148,19767 11148,19916 L 11148,24890 11148,24890 C 11148,25039 11187,25185 11261,25314 11336,25442 11443,25549 11571,25624 11700,25698 11846,25737 11995,25737 L 15382,25737 15382,25737 C 15531,25737 15677,25698 15806,25624 15934,25549 16041,25442 16116,25314 16190,25185 16229,25039 16229,24890 L 16229,19915 16229,19916 16229,19916 C 16229,19767 16190,19621 16116,19492 16041,19364 15934,19257 15806,19182 15677,19108 15531,19069 15382,19069 L 11994,19069 Z"/>
    <path fill="none" stroke="rgb(100, 92, 187)" stroke-width="100" stroke-linejoin="round" stroke-dasharray="300" stroke-dashoffset="500" d="M 11994,19069 L 11995,19069 C 11846,19069 11700,19108 11571,19182 11443,19257 11336,19364 11261,19492 11187,19621 11148,19767 11148,19916 L 11148,24890 11148,24890 C 11148,25039 11187,25185 11261,25314 11336,25442 11443,25549 11571,25624 11700,25698 11846,25737 11995,25737 L 15382,25737 15382,25737 C 15531,25737 15677,25698 15806,25624 15934,25549 16041,25442 16116,25314 16190,25185 16229,25039 16229,24890 L 16229,19915 16229,19916 16229,19916 C 16229,19767 16190,19621 16116,19492 16041,19364 15934,19257 15806,19182 15677,19108 15531,19069 15382,19069 L 11994,19069 Z">
    <animate attributeName="stroke-dashoffset" from="500" to="0" dur="0.2s" repeatCount="indefinite"/>
    </path>
   </g>
  </g>
  <g class="com.sun.star.drawing.CustomShape">
   <g id="id4">
    <rect class="BoundingBox" stroke="none" fill="none" x="11412" y="21556" width="4553" height="1696"/>
    <g>
     <defs>
      <pattern id="pattern1" x="11465" y="21609" width="4447" height="1590" patternUnits="userSpaceOnUse">
       <g transform="translate(-11465,-21609)">
        <line fill="rgb(129,212,26)" stroke="rgb(129,212,26)" x1="11704" y1="21836" x2="11704" y2="22971"/>
        <line fill="rgb(129,212,26)" stroke="rgb(129,212,26)" x1="11969" y1="21664" x2="11969" y2="23143"/>
        <line fill="rgb(129,212,26)" stroke="rgb(129,212,26)" x1="12234" y1="21610" x2="12234" y2="23197"/>
        <line fill="rgb(129,212,26)" stroke="rgb(129,212,26)" x1="12499" y1="21609" x2="12499" y2="23198"/>
        <line fill="rgb(129,212,26)" stroke="rgb(129,212,26)" x1="12764" y1="21609" x2="12764" y2="23198"/>
        <line fill="rgb(129,212,26)" stroke="rgb(129,212,26)" x1="13029" y1="21609" x2="13029" y2="23198"/>
        <line fill="rgb(129,212,26)" stroke="rgb(129,212,26)" x1="13294" y1="21609" x2="13294" y2="23198"/>
        <line fill="rgb(129,212,26)" stroke="rgb(129,212,26)" x1="13559" y1="21609" x2="13559" y2="23198"/>
        <line fill="rgb(129,212,26)" stroke="rgb(129,212,26)" x1="13824" y1="21609" x2="13824" y2="23198"/>
        <line fill="rgb(129,212,26)" stroke="rgb(129,212,26)" x1="14089" y1="21609" x2="14089" y2="23198"/>
        <line fill="rgb(129,212,26)" stroke="rgb(129,212,26)" x1="14354" y1="21609" x2="14354" y2="23198"/>
        <line fill="rgb(129,212,26)" stroke="rgb(129,212,26)" x1="14619" y1="21609" x2="14619" y2="23198"/>
        <line fill="rgb(129,212,26)" stroke="rgb(129,212,26)" x1="14884" y1="21609" x2="14884" y2="23198"/>
        <line fill="rgb(129,212,26)" stroke="rgb(129,212,26)" x1="15149" y1="21610" x2="15149" y2="23197"/>
        <line fill="rgb(129,212,26)" stroke="rgb(129,212,26)" x1="15414" y1="21667" x2="15414" y2="23140"/>
        <line fill="rgb(129,212,26)" stroke="rgb(129,212,26)" x1="15679" y1="21843" x2="15679" y2="22964"/>
       </g>
      </pattern>
     </defs>
     <path style="fill:url(#pattern1)" d="M 12259,21609 L 12260,21609 12207,21611 12156,21616 12104,21624 12054,21636 12004,21651 11956,21669 11908,21691 11862,21715 11818,21743 11776,21773 11736,21806 11698,21842 11662,21880 11629,21920 11599,21962 11571,22006 11547,22052 11525,22100 11507,22148 11492,22198 11480,22248 11472,22300 11467,22351 11465,22404 11465,22403 11465,22404 11467,22456 11472,22507 11480,22559 11492,22609 11507,22659 11525,22707 11547,22755 11571,22801 11599,22845 11629,22887 11662,22927 11698,22965 11736,23001 11776,23034 11818,23064 11862,23092 11908,23116 11956,23138 12004,23156 12054,23171 12104,23183 12156,23191 12207,23196 12260,23198 15116,23198 15117,23198 15169,23196 15220,23191 15272,23183 15322,23171 15372,23156 15420,23138 15468,23116 15514,23092 15558,23064 15600,23034 15640,23001 15678,22965 15714,22927 15747,22887 15777,22845 15805,22801 15829,22755 15851,22707 15869,22659 15884,22609 15896,22559 15904,22507 15909,22456 15911,22404 15911,22403 15911,22404 15911,22404 15909,22351 15904,22300 15896,22248 15884,22198 15869,22148 15851,22100 15829,22052 15805,22006 15777,21962 15747,21920 15714,21880 15678,21842 15640,21806 15600,21773 15558,21743 15514,21715 15468,21691 15420,21669 15372,21651 15322,21636 15272,21624 15220,21616 15169,21611 15117,21609 12259,21609 Z"/>
    </g>
    <path fill="none" stroke="rgb(129,212,26)" stroke-width="106" stroke-linejoin="round" d="M 12259,21609 L 12260,21609 C 12120,21609 11983,21646 11862,21715 11741,21785 11641,21885 11571,22006 11502,22127 11465,22264 11465,22404 L 11465,22403 11465,22404 C 11465,22543 11502,22680 11571,22801 11641,22922 11741,23022 11862,23092 11983,23161 12120,23198 12260,23198 L 15116,23198 15117,23198 C 15256,23198 15393,23161 15514,23092 15635,23022 15735,22922 15805,22801 15874,22680 15911,22543 15911,22404 L 15911,22403 15911,22404 15911,22404 C 15911,22264 15874,22127 15805,22006 15735,21885 15635,21785 15514,21715 15393,21646 15256,21609 15117,21609 L 12259,21609 Z"/>
   </g>
  </g>
 </g>
</svg>