<?xml version="1.0" encoding="UTF-8"?>
<!DOCTYPE svg PUBLIC "-//W3C//DTD SVG 1.1//EN" "http://www.w3.org/Graphics/SVG/1.1/DTD/svg11.dtd">
<svg version="1.2" width="51.18mm" height="67.05mm" viewBox="45432 19051 5118 6705" preserveAspectRatio="xMidYMid" fill-rule="evenodd" stroke-width="28.222" stroke-linejoin="round" xmlns="http://www.w3.org/2000/svg" xmlns:ooo="http://xml.openoffice.org/svg/export" xmlns:xlink="http://www.w3.org/1999/xlink" xmlns:presentation="http://sun.com/xmlns/staroffice/presentation" xmlns:smil="http://www.w3.org/2001/SMIL20/" xmlns:anim="urn:oasis:names:tc:opendocument:xmlns:animation:1.0" xmlns:svg="urn:oasis:names:tc:opendocument:xmlns:svg-compatible:1.0" xml:space="preserve">
 <defs class="EmbeddedBulletChars">
  <g id="bullet-char-template-57356" transform="scale(0.00048828125,-0.00048828125)">
   <path d="M 580,1141 L 1163,571 580,0 -4,571 580,1141 Z"/>
  </g>
  <g id="bullet-char-template-57354" transform="scale(0.00048828125,-0.00048828125)">
   <path d="M 8,1128 L 1137,1128 1137,0 8,0 8,1128 Z"/>
  </g>
  <g id="bullet-char-template-10146" transform="scale(0.00048828125,-0.00048828125)">
   <path d="M 174,0 L 602,739 174,1481 1456,739 174,0 Z M 1358,739 L 309,1346 659,739 1358,739 Z"/>
  </g>
  <g id="bullet-char-template-10132" transform="scale(0.00048828125,-0.00048828125)">
   <path d="M 2015,739 L 1276,0 717,0 1260,543 174,543 174,936 1260,936 717,1481 1274,1481 2015,739 Z"/>
  </g>
  <g id="bullet-char-template-10007" transform="scale(0.00048828125,-0.00048828125)">
   <path d="M 0,-2 C -7,14 -16,27 -25,37 L 356,567 C 262,823 215,952 215,954 215,979 228,992 255,992 264,992 276,990 289,987 310,991 331,999 354,1012 L 381,999 492,748 772,1049 836,1024 860,1049 C 881,1039 901,1025 922,1006 886,937 835,863 770,784 769,783 710,716 594,584 L 774,223 C 774,196 753,168 711,139 L 727,119 C 717,90 699,76 672,76 641,76 570,178 457,381 L 164,-76 C 142,-110 111,-127 72,-127 30,-127 9,-110 8,-76 1,-67 -2,-52 -2,-32 -2,-23 -1,-13 0,-2 Z"/>
  </g>
  <g id="bullet-char-template-10004" transform="scale(0.00048828125,-0.00048828125)">
   <path d="M 285,-33 C 182,-33 111,30 74,156 52,228 41,333 41,471 41,549 55,616 82,672 116,743 169,778 240,778 293,778 328,747 346,684 L 369,508 C 377,444 397,411 428,410 L 1163,1116 C 1174,1127 1196,1133 1229,1133 1271,1133 1292,1118 1292,1087 L 1292,965 C 1292,929 1282,901 1262,881 L 442,47 C 390,-6 338,-33 285,-33 Z"/>
  </g>
  <g id="bullet-char-template-9679" transform="scale(0.00048828125,-0.00048828125)">
   <path d="M 813,0 C 632,0 489,54 383,161 276,268 223,411 223,592 223,773 276,916 383,1023 489,1130 632,1184 813,1184 992,1184 1136,1130 1245,1023 1353,916 1407,772 1407,592 1407,412 1353,268 1245,161 1136,54 992,0 813,0 Z"/>
  </g>
  <g id="bullet-char-template-8226" transform="scale(0.00048828125,-0.00048828125)">
   <path d="M 346,457 C 273,457 209,483 155,535 101,586 74,649 74,723 74,796 101,859 155,911 209,963 273,989 346,989 419,989 480,963 531,910 582,859 608,796 608,723 608,648 583,586 532,535 482,483 420,457 346,457 Z"/>
  </g>
  <g id="bullet-char-template-8211" transform="scale(0.00048828125,-0.00048828125)">
   <path d="M -4,459 L 1135,459 1135,606 -4,606 -4,459 Z"/>
  </g>
  <g id="bullet-char-template-61548" transform="scale(0.00048828125,-0.00048828125)">
   <path d="M 173,740 C 173,903 231,1043 346,1159 462,1274 601,1332 765,1332 928,1332 1067,1274 1183,1159 1299,1043 1357,903 1357,740 1357,577 1299,437 1183,322 1067,206 928,148 765,148 601,148 462,206 346,322 231,437 173,577 173,740 Z"/>
  </g>
 </defs>
 <g class="Page">
  <g class="com.sun.star.drawing.CustomShape">
   <g id="id3">
    <rect class="BoundingBox" stroke="none" fill="none" x="45432" y="19051" width="5118" height="6705"/>
    <path fill="rgb(235, 199, 230)" stroke="none" d="M 46296,19069 L 46297,19069 C 46148,19069 46002,19108 45873,19182 45745,19257 45638,19364 45563,19492 45489,19621 45450,19767 45450,19916 L 45450,24890 45450,24890 C 45450,25039 45489,25185 45563,25314 45638,25442 45745,25549 45873,25624 46002,25698 46148,25737 46297,25737 L 49684,25737 49684,25737 C 49833,25737 49979,25698 50108,25624 50236,25549 50343,25442 50418,25314 50492,25185 50531,25039 50531,24890 L 50531,19915 50531,19916 50531,19916 C 50531,19767 50492,19621 50418,19492 50343,19364 50236,19257 50108,19182 49979,19108 49833,19069 49684,19069 L 46296,19069 Z"/>
    <path fill="none" stroke="rgb(100, 92, 187)" stroke-width="100" stroke-linejoin="round" stroke-dasharray="300" stroke-dashoffset="500" d="M 46296,19069 L 46297,19069 C 46148,19069 46002,19108 45873,19182 45745,19257 45638,19364 45563,19492 45489,19621 45450,19767 45450,19916 L 45450,24890 45450,24890 C 45450,25039 45489,25185 45563,25314 45638,25442 45745,25549 45873,25624 46002,25698 46148,25737 46297,25737 L 49684,25737 49684,25737 C 49833,25737 49979,25698 50108,25624 50236,25549 50343,25442 50418,25314 50492,25185 50531,25039 50531,24890 L 50531,19915 50531,19916 50531,19916 C 50531,19767 50492,19621 50418,19492 50343,19364 50236,19257 50108,19182 49979,19108 49833,19069 49684,19069 L 46296,19069 Z">
    <animate attributeName="stroke-dashoffset" from="500" to="0" dur="0.2s" repeatCount="indefinite"/>
    </path>
   </g>
  </g>
  <g class="com.sun.star.drawing.CustomShape">
   <g id="id4">
    <rect class="BoundingBox" stroke="none" fill="none" x="45712" y="21557" width="4553" height="1697"/>
    <g>
     <defs>
      <pattern id="pattern1" x="45765" y="21611" width="4447" height="1590" patternUnits="userSpaceOnUse">
       <g transform="translate(-45765,-21611)">
        <line fill="rgb(255,64,0)" stroke="rgb(255,64,0)" x1="46004" y1="21838" x2="46004" y2="22973"/>
        <line fill="rgb(255,64,0)" stroke="rgb(255,64,0)" x1="46269" y1="21666" x2="46269" y2="23145"/>
        <line fill="rgb(255,64,0)" stroke="rgb(255,64,0)" x1="46534" y1="21612" x2="46534" y2="23199"/>
        <line fill="rgb(255,64,0)" stroke="rgb(255,64,0)" x1="46799" y1="21611" x2="46799" y2="23200"/>
        <line fill="rgb(255,64,0)" stroke="rgb(255,64,0)" x1="47064" y1="21611" x2="47064" y2="23200"/>
        <line fill="rgb(255,64,0)" stroke="rgb(255,64,0)" x1="47329" y1="21611" x2="47329" y2="23200"/>
        <line fill="rgb(255,64,0)" stroke="rgb(255,64,0)" x1="47594" y1="21611" x2="47594" y2="23200"/>
        <line fill="rgb(255,64,0)" stroke="rgb(255,64,0)" x1="47859" y1="21611" x2="47859" y2="23200"/>
        <line fill="rgb(255,64,0)" stroke="rgb(255,64,0)" x1="48124" y1="21611" x2="48124" y2="23200"/>
        <line fill="rgb(255,64,0)" stroke="rgb(255,64,0)" x1="48389" y1="21611" x2="48389" y2="23200"/>
        <line fill="rgb(255,64,0)" stroke="rgb(255,64,0)" x1="48654" y1="21611" x2="48654" y2="23200"/>
        <line fill="rgb(255,64,0)" stroke="rgb(255,64,0)" x1="48919" y1="21611" x2="48919" y2="23200"/>
        <line fill="rgb(255,64,0)" stroke="rgb(255,64,0)" x1="49184" y1="21611" x2="49184" y2="23200"/>
        <line fill="rgb(255,64,0)" stroke="rgb(255,64,0)" x1="49449" y1="21612" x2="49449" y2="23199"/>
        <line fill="rgb(255,64,0)" stroke="rgb(255,64,0)" x1="49714" y1="21669" x2="49714" y2="23142"/>
        <line fill="rgb(255,64,0)" stroke="rgb(255,64,0)" x1="49979" y1="21845" x2="49979" y2="22966"/>
       </g>
      </pattern>
     </defs>
     <path style="fill:url(#pattern1)" d="M 46559,21611 L 46560,21611 46507,21613 46456,21618 46404,21626 46354,21638 46304,21653 46256,21671 46208,21693 46162,21717 46118,21745 46076,21775 46036,21808 45998,21844 45962,21882 45929,21922 45899,21964 45871,22008 45847,22054 45825,22102 45807,22150 45792,22200 45780,22250 45772,22302 45767,22353 45765,22405 45765,22405 45765,22405 45767,22458 45772,22509 45780,22561 45792,22611 45807,22661 45825,22709 45847,22757 45871,22803 45899,22847 45929,22889 45962,22929 45998,22967 46036,23003 46076,23036 46118,23066 46162,23094 46208,23118 46256,23140 46304,23158 46354,23173 46404,23185 46456,23193 46507,23198 46560,23200 49416,23200 49417,23200 49469,23198 49520,23193 49572,23185 49622,23173 49672,23158 49720,23140 49768,23118 49814,23094 49858,23066 49900,23036 49940,23003 49978,22967 50014,22929 50047,22889 50077,22847 50105,22803 50129,22757 50151,22709 50169,22661 50184,22611 50196,22561 50204,22509 50209,22458 50211,22405 50211,22405 50211,22405 50211,22405 50209,22353 50204,22302 50196,22250 50184,22200 50169,22150 50151,22102 50129,22054 50105,22008 50077,21964 50047,21922 50014,21882 49978,21844 49940,21808 49900,21775 49858,21745 49814,21717 49768,21693 49720,21671 49672,21653 49622,21638 49572,21626 49520,21618 49469,21613 49417,21611 46559,21611 Z"/>
    </g>
    <path fill="none" stroke="rgb(255,64,0)" stroke-width="106" stroke-linejoin="round" d="M 46559,21611 L 46560,21611 C 46420,21611 46283,21648 46162,21717 46041,21787 45941,21887 45871,22008 45802,22129 45765,22266 45765,22405 L 45765,22405 45765,22405 C 45765,22545 45802,22682 45871,22803 45941,22924 46041,23024 46162,23094 46283,23163 46420,23200 46560,23200 L 49416,23200 49417,23200 C 49556,23200 49693,23163 49814,23094 49935,23024 50035,22924 50105,22803 50174,22682 50211,22545 50211,22405 L 50211,22405 50211,22405 50211,22405 C 50211,22266 50174,22129 50105,22008 50035,21887 49935,21787 49814,21717 49693,21648 49556,21611 49417,21611 L 46559,21611 Z"/>
   </g>
  </g>
 </g>
</svg>