<?xml version="1.0" encoding="UTF-8"?>
<!DOCTYPE svg PUBLIC "-//W3C//DTD SVG 1.1//EN" "http://www.w3.org/Graphics/SVG/1.1/DTD/svg11.dtd">
<svg version="1.2" width="51.18mm" height="67.05mm" viewBox="28231 11751 5118 6705" preserveAspectRatio="xMidYMid" fill-rule="evenodd" stroke-width="28.222" stroke-linejoin="round" xmlns="http://www.w3.org/2000/svg" xmlns:ooo="http://xml.openoffice.org/svg/export" xmlns:xlink="http://www.w3.org/1999/xlink" xmlns:presentation="http://sun.com/xmlns/staroffice/presentation" xmlns:smil="http://www.w3.org/2001/SMIL20/" xmlns:anim="urn:oasis:names:tc:opendocument:xmlns:animation:1.0" xmlns:svg="urn:oasis:names:tc:opendocument:xmlns:svg-compatible:1.0" xml:space="preserve">
 <defs class="EmbeddedBulletChars">
  <g id="bullet-char-template-57356" transform="scale(0.00048828125,-0.00048828125)">
   <path d="M 580,1141 L 1163,571 580,0 -4,571 580,1141 Z"/>
  </g>
  <g id="bullet-char-template-57354" transform="scale(0.00048828125,-0.00048828125)">
   <path d="M 8,1128 L 1137,1128 1137,0 8,0 8,1128 Z"/>
  </g>
  <g id="bullet-char-template-10146" transform="scale(0.00048828125,-0.00048828125)">
   <path d="M 174,0 L 602,739 174,1481 1456,739 174,0 Z M 1358,739 L 309,1346 659,739 1358,739 Z"/>
  </g>
  <g id="bullet-char-template-10132" transform="scale(0.00048828125,-0.00048828125)">
   <path d="M 2015,739 L 1276,0 717,0 1260,543 174,543 174,936 1260,936 717,1481 1274,1481 2015,739 Z"/>
  </g>
  <g id="bullet-char-template-10007" transform="scale(0.00048828125,-0.00048828125)">
   <path d="M 0,-2 C -7,14 -16,27 -25,37 L 356,567 C 262,823 215,952 215,954 215,979 228,992 255,992 264,992 276,990 289,987 310,991 331,999 354,1012 L 381,999 492,748 772,1049 836,1024 860,1049 C 881,1039 901,1025 922,1006 886,937 835,863 770,784 769,783 710,716 594,584 L 774,223 C 774,196 753,168 711,139 L 727,119 C 717,90 699,76 672,76 641,76 570,178 457,381 L 164,-76 C 142,-110 111,-127 72,-127 30,-127 9,-110 8,-76 1,-67 -2,-52 -2,-32 -2,-23 -1,-13 0,-2 Z"/>
  </g>
  <g id="bullet-char-template-10004" transform="scale(0.00048828125,-0.00048828125)">
   <path d="M 285,-33 C 182,-33 111,30 74,156 52,228 41,333 41,471 41,549 55,616 82,672 116,743 169,778 240,778 293,778 328,747 346,684 L 369,508 C 377,444 397,411 428,410 L 1163,1116 C 1174,1127 1196,1133 1229,1133 1271,1133 1292,1118 1292,1087 L 1292,965 C 1292,929 1282,901 1262,881 L 442,47 C 390,-6 338,-33 285,-33 Z"/>
  </g>
  <g id="bullet-char-template-9679" transform="scale(0.00048828125,-0.00048828125)">
   <path d="M 813,0 C 632,0 489,54 383,161 276,268 223,411 223,592 223,773 276,916 383,1023 489,1130 632,1184 813,1184 992,1184 1136,1130 1245,1023 1353,916 1407,772 1407,592 1407,412 1353,268 1245,161 1136,54 992,0 813,0 Z"/>
  </g>
  <g id="bullet-char-template-8226" transform="scale(0.00048828125,-0.00048828125)">
   <path d="M 346,457 C 273,457 209,483 155,535 101,586 74,649 74,723 74,796 101,859 155,911 209,963 273,989 346,989 419,989 480,963 531,910 582,859 608,796 608,723 608,648 583,586 532,535 482,483 420,457 346,457 Z"/>
  </g>
  <g id="bullet-char-template-8211" transform="scale(0.00048828125,-0.00048828125)">
   <path d="M -4,459 L 1135,459 1135,606 -4,606 -4,459 Z"/>
  </g>
  <g id="bullet-char-template-61548" transform="scale(0.00048828125,-0.00048828125)">
   <path d="M 173,740 C 173,903 231,1043 346,1159 462,1274 601,1332 765,1332 928,1332 1067,1274 1183,1159 1299,1043 1357,903 1357,740 1357,577 1299,437 1183,322 1067,206 928,148 765,148 601,148 462,206 346,322 231,437 173,577 173,740 Z"/>
  </g>
 </defs>
 <g class="Page">
  <g class="com.sun.star.drawing.CustomShape">
   <g id="id3">
    <rect class="BoundingBox" stroke="none" fill="none" x="28231" y="11751" width="5118" height="6705"/>
    <path fill="rgb(235, 199, 230)" stroke="none" d="M 29095,11769 L 29096,11769 C 28947,11769 28801,11808 28672,11882 28544,11957 28437,12064 28362,12192 28288,12321 28249,12467 28249,12616 L 28249,17590 28249,17590 C 28249,17739 28288,17885 28362,18014 28437,18142 28544,18249 28672,18324 28801,18398 28947,18437 29096,18437 L 32483,18437 32483,18437 C 32632,18437 32778,18398 32907,18324 33035,18249 33142,18142 33217,18014 33291,17885 33330,17739 33330,17590 L 33330,12615 33330,12616 33330,12616 C 33330,12467 33291,12321 33217,12192 33142,12064 33035,11957 32907,11882 32778,11808 32632,11769 32483,11769 L 29095,11769 Z"/>
    <path fill="none" stroke="rgb(100, 92, 187)" stroke-width="100" stroke-linejoin="round" stroke-dasharray="300" stroke-dashoffset="500" d="M 29095,11769 L 29096,11769 C 28947,11769 28801,11808 28672,11882 28544,11957 28437,12064 28362,12192 28288,12321 28249,12467 28249,12616 L 28249,17590 28249,17590 C 28249,17739 28288,17885 28362,18014 28437,18142 28544,18249 28672,18324 28801,18398 28947,18437 29096,18437 L 32483,18437 32483,18437 C 32632,18437 32778,18398 32907,18324 33035,18249 33142,18142 33217,18014 33291,17885 33330,17739 33330,17590 L 33330,12615 33330,12616 33330,12616 C 33330,12467 33291,12321 33217,12192 33142,12064 33035,11957 32907,11882 32778,11808 32632,11769 32483,11769 L 29095,11769 Z">
    <animate attributeName="stroke-dashoffset" from="500" to="0" dur="0.2s" repeatCount="indefinite"/>
    </path>
   </g>
  </g>
  <g class="com.sun.star.drawing.CustomShape">
   <g id="id4">
    <rect class="BoundingBox" stroke="none" fill="none" x="28512" y="14286" width="4552" height="1636"/>
    <g>
     <defs>
      <pattern id="pattern1" x="28565" y="14339" width="4446" height="1530" patternUnits="userSpaceOnUse">
       <g transform="translate(-28565,-14339)">
        <line fill="rgb(42,96,153)" stroke="rgb(42,96,153)" x1="28804" y1="14406" x2="28804" y2="15627"/>
        <line fill="rgb(42,96,153)" stroke="rgb(42,96,153)" x1="29069" y1="14367" x2="29069" y2="15590"/>
        <line fill="rgb(42,96,153)" stroke="rgb(42,96,153)" x1="29334" y1="14350" x2="29334" y2="15573"/>
        <line fill="rgb(42,96,153)" stroke="rgb(42,96,153)" x1="29599" y1="14342" x2="29599" y2="15562"/>
        <line fill="rgb(42,96,153)" stroke="rgb(42,96,153)" x1="29864" y1="14344" x2="29864" y2="15565"/>
        <line fill="rgb(42,96,153)" stroke="rgb(42,96,153)" x1="30129" y1="14357" x2="30129" y2="15578"/>
        <line fill="rgb(42,96,153)" stroke="rgb(42,96,153)" x1="30394" y1="14378" x2="30394" y2="15599"/>
        <line fill="rgb(42,96,153)" stroke="rgb(42,96,153)" x1="30659" y1="14427" x2="30659" y2="15645"/>
        <line fill="rgb(42,96,153)" stroke="rgb(42,96,153)" x1="30924" y1="14554" x2="30924" y2="15776"/>
        <line fill="rgb(42,96,153)" stroke="rgb(42,96,153)" x1="31189" y1="14601" x2="31189" y2="15822"/>
        <line fill="rgb(42,96,153)" stroke="rgb(42,96,153)" x1="31454" y1="14622" x2="31454" y2="15843"/>
        <line fill="rgb(42,96,153)" stroke="rgb(42,96,153)" x1="31719" y1="14638" x2="31719" y2="15858"/>
        <line fill="rgb(42,96,153)" stroke="rgb(42,96,153)" x1="31984" y1="14642" x2="31984" y2="15865"/>
        <line fill="rgb(42,96,153)" stroke="rgb(42,96,153)" x1="32249" y1="14626" x2="32249" y2="15850"/>
        <line fill="rgb(42,96,153)" stroke="rgb(42,96,153)" x1="32514" y1="14610" x2="32514" y2="15832"/>
        <line fill="rgb(42,96,153)" stroke="rgb(42,96,153)" x1="32779" y1="14577" x2="32779" y2="15798"/>
       </g>
      </pattern>
     </defs>
     <path style="fill:url(#pattern1)" d="M 33010,14496 L 32993,14507 32974,14518 32931,14537 32880,14554 32823,14569 32693,14592 32546,14608 31905,14647 31572,14630 31244,14608 31098,14590 30973,14567 30920,14553 30875,14537 30838,14519 30823,14509 30811,14499 30795,14486 30777,14474 30735,14453 30684,14434 30626,14417 30493,14390 30341,14371 30010,14349 29687,14339 29319,14350 29153,14360 29002,14373 28866,14392 28747,14418 28694,14434 28646,14452 28603,14473 28565,14496 28565,15713 28605,15689 28652,15668 28704,15650 28761,15635 28889,15610 29033,15592 29352,15572 29689,15559 29970,15568 30310,15589 30473,15608 30616,15634 30676,15650 30727,15669 30748,15679 30767,15690 30782,15702 30794,15714 30807,15725 30823,15736 30862,15755 30909,15772 30964,15786 31094,15811 31245,15829 31582,15852 31922,15868 32254,15850 32579,15827 32723,15809 32847,15785 32900,15770 32945,15753 32982,15734 32997,15724 33010,15713 33010,14496 Z"/>
    </g>
    <path fill="none" stroke="rgb(42,96,153)" stroke-width="106" stroke-linejoin="round" d="M 33010,14496 C 32842,14621 32309,14620 31905,14647 31482,14624 30930,14614 30811,14499 30656,14360 30088,14350 29687,14339 29168,14351 28753,14366 28565,14496 L 28565,15713 C 28763,15578 29240,15577 29689,15559 29983,15568 30683,15578 30794,15714 30922,15836 31492,15846 31922,15868 32348,15843 32885,15834 33010,15713 L 33010,14496 Z"/>
   </g>
  </g>
 </g>
</svg>