<?xml version="1.0" encoding="UTF-8"?>
<!DOCTYPE svg PUBLIC "-//W3C//DTD SVG 1.1//EN" "http://www.w3.org/Graphics/SVG/1.1/DTD/svg11.dtd">
<svg version="1.2" width="51.18mm" height="67.05mm" viewBox="11130 11751 5118 6705" preserveAspectRatio="xMidYMid" fill-rule="evenodd" stroke-width="28.222" stroke-linejoin="round" xmlns="http://www.w3.org/2000/svg" xmlns:ooo="http://xml.openoffice.org/svg/export" xmlns:xlink="http://www.w3.org/1999/xlink" xmlns:presentation="http://sun.com/xmlns/staroffice/presentation" xmlns:smil="http://www.w3.org/2001/SMIL20/" xmlns:anim="urn:oasis:names:tc:opendocument:xmlns:animation:1.0" xmlns:svg="urn:oasis:names:tc:opendocument:xmlns:svg-compatible:1.0" xml:space="preserve">
 <defs class="EmbeddedBulletChars">
  <g id="bullet-char-template-57356" transform="scale(0.00048828125,-0.00048828125)">
   <path d="M 580,1141 L 1163,571 580,0 -4,571 580,1141 Z"/>
  </g>
  <g id="bullet-char-template-57354" transform="scale(0.00048828125,-0.00048828125)">
   <path d="M 8,1128 L 1137,1128 1137,0 8,0 8,1128 Z"/>
  </g>
  <g id="bullet-char-template-10146" transform="scale(0.00048828125,-0.00048828125)">
   <path d="M 174,0 L 602,739 174,1481 1456,739 174,0 Z M 1358,739 L 309,1346 659,739 1358,739 Z"/>
  </g>
  <g id="bullet-char-template-10132" transform="scale(0.00048828125,-0.00048828125)">
   <path d="M 2015,739 L 1276,0 717,0 1260,543 174,543 174,936 1260,936 717,1481 1274,1481 2015,739 Z"/>
  </g>
  <g id="bullet-char-template-10007" transform="scale(0.00048828125,-0.00048828125)">
   <path d="M 0,-2 C -7,14 -16,27 -25,37 L 356,567 C 262,823 215,952 215,954 215,979 228,992 255,992 264,992 276,990 289,987 310,991 331,999 354,1012 L 381,999 492,748 772,1049 836,1024 860,1049 C 881,1039 901,1025 922,1006 886,937 835,863 770,784 769,783 710,716 594,584 L 774,223 C 774,196 753,168 711,139 L 727,119 C 717,90 699,76 672,76 641,76 570,178 457,381 L 164,-76 C 142,-110 111,-127 72,-127 30,-127 9,-110 8,-76 1,-67 -2,-52 -2,-32 -2,-23 -1,-13 0,-2 Z"/>
  </g>
  <g id="bullet-char-template-10004" transform="scale(0.00048828125,-0.00048828125)">
   <path d="M 285,-33 C 182,-33 111,30 74,156 52,228 41,333 41,471 41,549 55,616 82,672 116,743 169,778 240,778 293,778 328,747 346,684 L 369,508 C 377,444 397,411 428,410 L 1163,1116 C 1174,1127 1196,1133 1229,1133 1271,1133 1292,1118 1292,1087 L 1292,965 C 1292,929 1282,901 1262,881 L 442,47 C 390,-6 338,-33 285,-33 Z"/>
  </g>
  <g id="bullet-char-template-9679" transform="scale(0.00048828125,-0.00048828125)">
   <path d="M 813,0 C 632,0 489,54 383,161 276,268 223,411 223,592 223,773 276,916 383,1023 489,1130 632,1184 813,1184 992,1184 1136,1130 1245,1023 1353,916 1407,772 1407,592 1407,412 1353,268 1245,161 1136,54 992,0 813,0 Z"/>
  </g>
  <g id="bullet-char-template-8226" transform="scale(0.00048828125,-0.00048828125)">
   <path d="M 346,457 C 273,457 209,483 155,535 101,586 74,649 74,723 74,796 101,859 155,911 209,963 273,989 346,989 419,989 480,963 531,910 582,859 608,796 608,723 608,648 583,586 532,535 482,483 420,457 346,457 Z"/>
  </g>
  <g id="bullet-char-template-8211" transform="scale(0.00048828125,-0.00048828125)">
   <path d="M -4,459 L 1135,459 1135,606 -4,606 -4,459 Z"/>
  </g>
  <g id="bullet-char-template-61548" transform="scale(0.00048828125,-0.00048828125)">
   <path d="M 173,740 C 173,903 231,1043 346,1159 462,1274 601,1332 765,1332 928,1332 1067,1274 1183,1159 1299,1043 1357,903 1357,740 1357,577 1299,437 1183,322 1067,206 928,148 765,148 601,148 462,206 346,322 231,437 173,577 173,740 Z"/>
  </g>
 </defs>
 <g class="Page">
  <g class="com.sun.star.drawing.CustomShape">
   <g id="id3">
    <rect class="BoundingBox" stroke="none" fill="none" x="11130" y="11751" width="5118" height="6705"/>
    <path fill="rgb(235, 199, 230)" stroke="none" d="M 11994,11769 L 11995,11769 C 11846,11769 11700,11808 11571,11882 11443,11957 11336,12064 11261,12192 11187,12321 11148,12467 11148,12616 L 11148,17590 11148,17590 C 11148,17739 11187,17885 11261,18014 11336,18142 11443,18249 11571,18324 11700,18398 11846,18437 11995,18437 L 15382,18437 15382,18437 C 15531,18437 15677,18398 15806,18324 15934,18249 16041,18142 16116,18014 16190,17885 16229,17739 16229,17590 L 16229,12615 16229,12616 16229,12616 C 16229,12467 16190,12321 16116,12192 16041,12064 15934,11957 15806,11882 15677,11808 15531,11769 15382,11769 L 11994,11769 Z"/>
    <path fill="none" stroke="rgb(100, 92, 187)" stroke-width="100" stroke-linejoin="round" stroke-dasharray="300" stroke-dashoffset="500" d="M 11994,11769 L 11995,11769 C 11846,11769 11700,11808 11571,11882 11443,11957 11336,12064 11261,12192 11187,12321 11148,12467 11148,12616 L 11148,17590 11148,17590 C 11148,17739 11187,17885 11261,18014 11336,18142 11443,18249 11571,18324 11700,18398 11846,18437 11995,18437 L 15382,18437 15382,18437 C 15531,18437 15677,18398 15806,18324 15934,18249 16041,18142 16116,18014 16190,17885 16229,17739 16229,17590 L 16229,12615 16229,12616 16229,12616 C 16229,12467 16190,12321 16116,12192 16041,12064 15934,11957 15806,11882 15677,11808 15531,11769 15382,11769 L 11994,11769 Z">
    <animate attributeName="stroke-dashoffset" from="500" to="0" dur="0.2s" repeatCount="indefinite"/>
    </path>
   </g>
  </g>
  <g class="com.sun.star.drawing.CustomShape">
   <g id="id4">
    <rect class="BoundingBox" stroke="none" fill="none" x="11412" y="14286" width="4552" height="1636"/>
    <g>
     <defs>
      <pattern id="pattern1" x="11465" y="14339" width="4446" height="1530" patternUnits="userSpaceOnUse">
       <g transform="translate(-11465,-14339)">
        <line fill="rgb(129,212,26)" stroke="rgb(129,212,26)" x1="11704" y1="14406" x2="11704" y2="15627"/>
        <line fill="rgb(129,212,26)" stroke="rgb(129,212,26)" x1="11969" y1="14367" x2="11969" y2="15590"/>
        <line fill="rgb(129,212,26)" stroke="rgb(129,212,26)" x1="12234" y1="14350" x2="12234" y2="15573"/>
        <line fill="rgb(129,212,26)" stroke="rgb(129,212,26)" x1="12499" y1="14342" x2="12499" y2="15562"/>
        <line fill="rgb(129,212,26)" stroke="rgb(129,212,26)" x1="12764" y1="14344" x2="12764" y2="15565"/>
        <line fill="rgb(129,212,26)" stroke="rgb(129,212,26)" x1="13029" y1="14357" x2="13029" y2="15578"/>
        <line fill="rgb(129,212,26)" stroke="rgb(129,212,26)" x1="13294" y1="14378" x2="13294" y2="15599"/>
        <line fill="rgb(129,212,26)" stroke="rgb(129,212,26)" x1="13559" y1="14427" x2="13559" y2="15645"/>
        <line fill="rgb(129,212,26)" stroke="rgb(129,212,26)" x1="13824" y1="14554" x2="13824" y2="15776"/>
        <line fill="rgb(129,212,26)" stroke="rgb(129,212,26)" x1="14089" y1="14601" x2="14089" y2="15822"/>
        <line fill="rgb(129,212,26)" stroke="rgb(129,212,26)" x1="14354" y1="14622" x2="14354" y2="15843"/>
        <line fill="rgb(129,212,26)" stroke="rgb(129,212,26)" x1="14619" y1="14638" x2="14619" y2="15858"/>
        <line fill="rgb(129,212,26)" stroke="rgb(129,212,26)" x1="14884" y1="14642" x2="14884" y2="15865"/>
        <line fill="rgb(129,212,26)" stroke="rgb(129,212,26)" x1="15149" y1="14626" x2="15149" y2="15850"/>
        <line fill="rgb(129,212,26)" stroke="rgb(129,212,26)" x1="15414" y1="14610" x2="15414" y2="15832"/>
        <line fill="rgb(129,212,26)" stroke="rgb(129,212,26)" x1="15679" y1="14577" x2="15679" y2="15798"/>
       </g>
      </pattern>
     </defs>
     <path style="fill:url(#pattern1)" d="M 15910,14496 L 15893,14507 15874,14518 15831,14537 15780,14554 15723,14569 15593,14592 15446,14608 14805,14647 14472,14630 14144,14608 13998,14590 13873,14567 13820,14553 13775,14537 13738,14519 13723,14509 13711,14499 13695,14486 13677,14474 13635,14453 13584,14434 13526,14417 13393,14390 13241,14371 12910,14349 12587,14339 12219,14350 12053,14360 11902,14373 11766,14392 11647,14418 11594,14434 11546,14452 11503,14473 11465,14496 11465,15713 11505,15689 11552,15668 11604,15650 11661,15635 11789,15610 11933,15592 12252,15572 12589,15559 12870,15568 13210,15589 13373,15608 13516,15634 13576,15650 13627,15669 13648,15679 13667,15690 13682,15702 13694,15714 13707,15725 13723,15736 13762,15755 13809,15772 13864,15786 13994,15811 14145,15829 14482,15852 14822,15868 15154,15850 15479,15827 15623,15809 15747,15785 15800,15770 15845,15753 15882,15734 15897,15724 15910,15713 15910,14496 Z"/>
    </g>
    <path fill="none" stroke="rgb(129,212,26)" stroke-width="106" stroke-linejoin="round" d="M 15910,14496 C 15742,14621 15209,14620 14805,14647 14382,14624 13830,14614 13711,14499 13556,14360 12988,14350 12587,14339 12068,14351 11653,14366 11465,14496 L 11465,15713 C 11663,15578 12140,15577 12589,15559 12883,15568 13583,15578 13694,15714 13822,15836 14392,15846 14822,15868 15248,15843 15785,15834 15910,15713 L 15910,14496 Z"/>
   </g>
  </g>
 </g>
</svg>