<?xml version="1.0" encoding="UTF-8"?>
<!DOCTYPE svg PUBLIC "-//W3C//DTD SVG 1.1//EN" "http://www.w3.org/Graphics/SVG/1.1/DTD/svg11.dtd">
<svg version="1.2" width="51.18mm" height="67.05mm" viewBox="11129 27051 5118 6705" preserveAspectRatio="xMidYMid" fill-rule="evenodd" stroke-width="28.222" stroke-linejoin="round" xmlns="http://www.w3.org/2000/svg" xmlns:ooo="http://xml.openoffice.org/svg/export" xmlns:xlink="http://www.w3.org/1999/xlink" xmlns:presentation="http://sun.com/xmlns/staroffice/presentation" xmlns:smil="http://www.w3.org/2001/SMIL20/" xmlns:anim="urn:oasis:names:tc:opendocument:xmlns:animation:1.0" xmlns:svg="urn:oasis:names:tc:opendocument:xmlns:svg-compatible:1.0" xml:space="preserve">
 <defs class="EmbeddedBulletChars">
  <g id="bullet-char-template-57356" transform="scale(0.00048828125,-0.00048828125)">
   <path d="M 580,1141 L 1163,571 580,0 -4,571 580,1141 Z"/>
  </g>
  <g id="bullet-char-template-57354" transform="scale(0.00048828125,-0.00048828125)">
   <path d="M 8,1128 L 1137,1128 1137,0 8,0 8,1128 Z"/>
  </g>
  <g id="bullet-char-template-10146" transform="scale(0.00048828125,-0.00048828125)">
   <path d="M 174,0 L 602,739 174,1481 1456,739 174,0 Z M 1358,739 L 309,1346 659,739 1358,739 Z"/>
  </g>
  <g id="bullet-char-template-10132" transform="scale(0.00048828125,-0.00048828125)">
   <path d="M 2015,739 L 1276,0 717,0 1260,543 174,543 174,936 1260,936 717,1481 1274,1481 2015,739 Z"/>
  </g>
  <g id="bullet-char-template-10007" transform="scale(0.00048828125,-0.00048828125)">
   <path d="M 0,-2 C -7,14 -16,27 -25,37 L 356,567 C 262,823 215,952 215,954 215,979 228,992 255,992 264,992 276,990 289,987 310,991 331,999 354,1012 L 381,999 492,748 772,1049 836,1024 860,1049 C 881,1039 901,1025 922,1006 886,937 835,863 770,784 769,783 710,716 594,584 L 774,223 C 774,196 753,168 711,139 L 727,119 C 717,90 699,76 672,76 641,76 570,178 457,381 L 164,-76 C 142,-110 111,-127 72,-127 30,-127 9,-110 8,-76 1,-67 -2,-52 -2,-32 -2,-23 -1,-13 0,-2 Z"/>
  </g>
  <g id="bullet-char-template-10004" transform="scale(0.00048828125,-0.00048828125)">
   <path d="M 285,-33 C 182,-33 111,30 74,156 52,228 41,333 41,471 41,549 55,616 82,672 116,743 169,778 240,778 293,778 328,747 346,684 L 369,508 C 377,444 397,411 428,410 L 1163,1116 C 1174,1127 1196,1133 1229,1133 1271,1133 1292,1118 1292,1087 L 1292,965 C 1292,929 1282,901 1262,881 L 442,47 C 390,-6 338,-33 285,-33 Z"/>
  </g>
  <g id="bullet-char-template-9679" transform="scale(0.00048828125,-0.00048828125)">
   <path d="M 813,0 C 632,0 489,54 383,161 276,268 223,411 223,592 223,773 276,916 383,1023 489,1130 632,1184 813,1184 992,1184 1136,1130 1245,1023 1353,916 1407,772 1407,592 1407,412 1353,268 1245,161 1136,54 992,0 813,0 Z"/>
  </g>
  <g id="bullet-char-template-8226" transform="scale(0.00048828125,-0.00048828125)">
   <path d="M 346,457 C 273,457 209,483 155,535 101,586 74,649 74,723 74,796 101,859 155,911 209,963 273,989 346,989 419,989 480,963 531,910 582,859 608,796 608,723 608,648 583,586 532,535 482,483 420,457 346,457 Z"/>
  </g>
  <g id="bullet-char-template-8211" transform="scale(0.00048828125,-0.00048828125)">
   <path d="M -4,459 L 1135,459 1135,606 -4,606 -4,459 Z"/>
  </g>
  <g id="bullet-char-template-61548" transform="scale(0.00048828125,-0.00048828125)">
   <path d="M 173,740 C 173,903 231,1043 346,1159 462,1274 601,1332 765,1332 928,1332 1067,1274 1183,1159 1299,1043 1357,903 1357,740 1357,577 1299,437 1183,322 1067,206 928,148 765,148 601,148 462,206 346,322 231,437 173,577 173,740 Z"/>
  </g>
 </defs>
 <g class="Page">
  <g class="com.sun.star.drawing.CustomShape">
   <g id="id3">
    <rect class="BoundingBox" stroke="none" fill="none" x="11129" y="27051" width="5118" height="6705"/>
    <path fill="rgb(235, 199, 230)" stroke="none" d="M 11993,27069 L 11994,27069 C 11845,27069 11699,27108 11570,27182 11442,27257 11335,27364 11260,27492 11186,27621 11147,27767 11147,27916 L 11147,32890 11147,32890 C 11147,33039 11186,33185 11260,33314 11335,33442 11442,33549 11570,33624 11699,33698 11845,33737 11994,33737 L 15381,33737 15381,33737 C 15530,33737 15676,33698 15805,33624 15933,33549 16040,33442 16115,33314 16189,33185 16228,33039 16228,32890 L 16228,27915 16228,27916 16228,27916 C 16228,27767 16189,27621 16115,27492 16040,27364 15933,27257 15805,27182 15676,27108 15530,27069 15381,27069 L 11993,27069 Z"/>
    <path fill="none" stroke="rgb(100, 92, 187)" stroke-width="100" stroke-linejoin="round" stroke-dasharray="300" stroke-dashoffset="500" d="M 11993,27069 L 11994,27069 C 11845,27069 11699,27108 11570,27182 11442,27257 11335,27364 11260,27492 11186,27621 11147,27767 11147,27916 L 11147,32890 11147,32890 C 11147,33039 11186,33185 11260,33314 11335,33442 11442,33549 11570,33624 11699,33698 11845,33737 11994,33737 L 15381,33737 15381,33737 C 15530,33737 15676,33698 15805,33624 15933,33549 16040,33442 16115,33314 16189,33185 16228,33039 16228,32890 L 16228,27915 16228,27916 16228,27916 C 16228,27767 16189,27621 16115,27492 16040,27364 15933,27257 15805,27182 15676,27108 15530,27069 15381,27069 L 11993,27069 Z">
    <animate attributeName="stroke-dashoffset" from="500" to="0" dur="0.2s" repeatCount="indefinite"/>
    </path>
   </g>
  </g>
  <g class="com.sun.star.drawing.CustomShape">
   <g id="id4">
    <rect class="BoundingBox" stroke="none" fill="none" x="11411" y="28606" width="4553" height="1696"/>
    <g>
     <defs>
      <pattern id="pattern1" x="11464" y="28659" width="4447" height="1590" patternUnits="userSpaceOnUse">
       <g transform="translate(-11464,-28659)">
        <line fill="rgb(129,212,26)" stroke="rgb(129,212,26)" x1="11703" y1="29368" x2="11703" y2="29538"/>
        <line fill="rgb(129,212,26)" stroke="rgb(129,212,26)" x1="11968" y1="29273" x2="11968" y2="29633"/>
        <line fill="rgb(129,212,26)" stroke="rgb(129,212,26)" x1="12233" y1="29178" x2="12233" y2="29728"/>
        <line fill="rgb(129,212,26)" stroke="rgb(129,212,26)" x1="12498" y1="29084" x2="12498" y2="29823"/>
        <line fill="rgb(129,212,26)" stroke="rgb(129,212,26)" x1="12763" y1="28989" x2="12763" y2="29918"/>
        <line fill="rgb(129,212,26)" stroke="rgb(129,212,26)" x1="13028" y1="28894" x2="13028" y2="30012"/>
        <line fill="rgb(129,212,26)" stroke="rgb(129,212,26)" x1="13293" y1="28800" x2="13293" y2="30107"/>
        <line fill="rgb(129,212,26)" stroke="rgb(129,212,26)" x1="13558" y1="28705" x2="13558" y2="30202"/>
        <line fill="rgb(129,212,26)" stroke="rgb(129,212,26)" x1="13823" y1="28708" x2="13823" y2="30199"/>
        <line fill="rgb(129,212,26)" stroke="rgb(129,212,26)" x1="14088" y1="28802" x2="14088" y2="30105"/>
        <line fill="rgb(129,212,26)" stroke="rgb(129,212,26)" x1="14353" y1="28897" x2="14353" y2="30010"/>
        <line fill="rgb(129,212,26)" stroke="rgb(129,212,26)" x1="14618" y1="28992" x2="14618" y2="29915"/>
        <line fill="rgb(129,212,26)" stroke="rgb(129,212,26)" x1="14883" y1="29086" x2="14883" y2="29820"/>
        <line fill="rgb(129,212,26)" stroke="rgb(129,212,26)" x1="15148" y1="29181" x2="15148" y2="29726"/>
        <line fill="rgb(129,212,26)" stroke="rgb(129,212,26)" x1="15413" y1="29275" x2="15413" y2="29631"/>
        <line fill="rgb(129,212,26)" stroke="rgb(129,212,26)" x1="15678" y1="29370" x2="15678" y2="29536"/>
       </g>
      </pattern>
     </defs>
     <path style="fill:url(#pattern1)" d="M 13687,28659 L 15910,29453 13687,30248 11464,29453 13687,28659 13687,28659 Z"/>
    </g>
    <path fill="none" stroke="rgb(129,212,26)" stroke-width="106" stroke-linejoin="round" d="M 13687,28659 L 15910,29453 13687,30248 11464,29453 13687,28659 13687,28659 Z"/>
   </g>
  </g>
  <g class="com.sun.star.drawing.CustomShape">
   <g id="id5">
    <rect class="BoundingBox" stroke="none" fill="none" x="11411" y="30507" width="4553" height="1696"/>
    <g>
     <defs>
      <pattern id="pattern2" x="11464" y="30560" width="4447" height="1590" patternUnits="userSpaceOnUse">
       <g transform="translate(-11464,-30560)">
        <line fill="rgb(129,212,26)" stroke="rgb(129,212,26)" x1="11703" y1="31269" x2="11703" y2="31439"/>
        <line fill="rgb(129,212,26)" stroke="rgb(129,212,26)" x1="11968" y1="31174" x2="11968" y2="31534"/>
        <line fill="rgb(129,212,26)" stroke="rgb(129,212,26)" x1="12233" y1="31079" x2="12233" y2="31629"/>
        <line fill="rgb(129,212,26)" stroke="rgb(129,212,26)" x1="12498" y1="30985" x2="12498" y2="31724"/>
        <line fill="rgb(129,212,26)" stroke="rgb(129,212,26)" x1="12763" y1="30890" x2="12763" y2="31819"/>
        <line fill="rgb(129,212,26)" stroke="rgb(129,212,26)" x1="13028" y1="30795" x2="13028" y2="31913"/>
        <line fill="rgb(129,212,26)" stroke="rgb(129,212,26)" x1="13293" y1="30701" x2="13293" y2="32008"/>
        <line fill="rgb(129,212,26)" stroke="rgb(129,212,26)" x1="13558" y1="30606" x2="13558" y2="32103"/>
        <line fill="rgb(129,212,26)" stroke="rgb(129,212,26)" x1="13823" y1="30609" x2="13823" y2="32100"/>
        <line fill="rgb(129,212,26)" stroke="rgb(129,212,26)" x1="14088" y1="30703" x2="14088" y2="32006"/>
        <line fill="rgb(129,212,26)" stroke="rgb(129,212,26)" x1="14353" y1="30798" x2="14353" y2="31911"/>
        <line fill="rgb(129,212,26)" stroke="rgb(129,212,26)" x1="14618" y1="30893" x2="14618" y2="31816"/>
        <line fill="rgb(129,212,26)" stroke="rgb(129,212,26)" x1="14883" y1="30987" x2="14883" y2="31721"/>
        <line fill="rgb(129,212,26)" stroke="rgb(129,212,26)" x1="15148" y1="31082" x2="15148" y2="31627"/>
        <line fill="rgb(129,212,26)" stroke="rgb(129,212,26)" x1="15413" y1="31176" x2="15413" y2="31532"/>
        <line fill="rgb(129,212,26)" stroke="rgb(129,212,26)" x1="15678" y1="31271" x2="15678" y2="31437"/>
       </g>
      </pattern>
     </defs>
     <path style="fill:url(#pattern2)" d="M 13687,30560 L 15910,31354 13687,32149 11464,31354 13687,30560 13687,30560 Z"/>
    </g>
    <path fill="none" stroke="rgb(129,212,26)" stroke-width="106" stroke-linejoin="round" d="M 13687,30560 L 15910,31354 13687,32149 11464,31354 13687,30560 13687,30560 Z"/>
   </g>
  </g>
 </g>
</svg>