<?xml version="1.0" encoding="UTF-8"?>
<!DOCTYPE svg PUBLIC "-//W3C//DTD SVG 1.1//EN" "http://www.w3.org/Graphics/SVG/1.1/DTD/svg11.dtd">
<svg version="1.2" width="51.18mm" height="67.05mm" viewBox="39732 41651 5118 6705" preserveAspectRatio="xMidYMid" fill-rule="evenodd" stroke-width="28.222" stroke-linejoin="round" xmlns="http://www.w3.org/2000/svg" xmlns:ooo="http://xml.openoffice.org/svg/export" xmlns:xlink="http://www.w3.org/1999/xlink" xmlns:presentation="http://sun.com/xmlns/staroffice/presentation" xmlns:smil="http://www.w3.org/2001/SMIL20/" xmlns:anim="urn:oasis:names:tc:opendocument:xmlns:animation:1.0" xmlns:svg="urn:oasis:names:tc:opendocument:xmlns:svg-compatible:1.0" xml:space="preserve">
 <defs class="EmbeddedBulletChars">
  <g id="bullet-char-template-57356" transform="scale(0.00048828125,-0.00048828125)">
   <path d="M 580,1141 L 1163,571 580,0 -4,571 580,1141 Z"/>
  </g>
  <g id="bullet-char-template-57354" transform="scale(0.00048828125,-0.00048828125)">
   <path d="M 8,1128 L 1137,1128 1137,0 8,0 8,1128 Z"/>
  </g>
  <g id="bullet-char-template-10146" transform="scale(0.00048828125,-0.00048828125)">
   <path d="M 174,0 L 602,739 174,1481 1456,739 174,0 Z M 1358,739 L 309,1346 659,739 1358,739 Z"/>
  </g>
  <g id="bullet-char-template-10132" transform="scale(0.00048828125,-0.00048828125)">
   <path d="M 2015,739 L 1276,0 717,0 1260,543 174,543 174,936 1260,936 717,1481 1274,1481 2015,739 Z"/>
  </g>
  <g id="bullet-char-template-10007" transform="scale(0.00048828125,-0.00048828125)">
   <path d="M 0,-2 C -7,14 -16,27 -25,37 L 356,567 C 262,823 215,952 215,954 215,979 228,992 255,992 264,992 276,990 289,987 310,991 331,999 354,1012 L 381,999 492,748 772,1049 836,1024 860,1049 C 881,1039 901,1025 922,1006 886,937 835,863 770,784 769,783 710,716 594,584 L 774,223 C 774,196 753,168 711,139 L 727,119 C 717,90 699,76 672,76 641,76 570,178 457,381 L 164,-76 C 142,-110 111,-127 72,-127 30,-127 9,-110 8,-76 1,-67 -2,-52 -2,-32 -2,-23 -1,-13 0,-2 Z"/>
  </g>
  <g id="bullet-char-template-10004" transform="scale(0.00048828125,-0.00048828125)">
   <path d="M 285,-33 C 182,-33 111,30 74,156 52,228 41,333 41,471 41,549 55,616 82,672 116,743 169,778 240,778 293,778 328,747 346,684 L 369,508 C 377,444 397,411 428,410 L 1163,1116 C 1174,1127 1196,1133 1229,1133 1271,1133 1292,1118 1292,1087 L 1292,965 C 1292,929 1282,901 1262,881 L 442,47 C 390,-6 338,-33 285,-33 Z"/>
  </g>
  <g id="bullet-char-template-9679" transform="scale(0.00048828125,-0.00048828125)">
   <path d="M 813,0 C 632,0 489,54 383,161 276,268 223,411 223,592 223,773 276,916 383,1023 489,1130 632,1184 813,1184 992,1184 1136,1130 1245,1023 1353,916 1407,772 1407,592 1407,412 1353,268 1245,161 1136,54 992,0 813,0 Z"/>
  </g>
  <g id="bullet-char-template-8226" transform="scale(0.00048828125,-0.00048828125)">
   <path d="M 346,457 C 273,457 209,483 155,535 101,586 74,649 74,723 74,796 101,859 155,911 209,963 273,989 346,989 419,989 480,963 531,910 582,859 608,796 608,723 608,648 583,586 532,535 482,483 420,457 346,457 Z"/>
  </g>
  <g id="bullet-char-template-8211" transform="scale(0.00048828125,-0.00048828125)">
   <path d="M -4,459 L 1135,459 1135,606 -4,606 -4,459 Z"/>
  </g>
  <g id="bullet-char-template-61548" transform="scale(0.00048828125,-0.00048828125)">
   <path d="M 173,740 C 173,903 231,1043 346,1159 462,1274 601,1332 765,1332 928,1332 1067,1274 1183,1159 1299,1043 1357,903 1357,740 1357,577 1299,437 1183,322 1067,206 928,148 765,148 601,148 462,206 346,322 231,437 173,577 173,740 Z"/>
  </g>
 </defs>
 <g class="Page">
  <g class="com.sun.star.drawing.CustomShape">
   <g id="id3">
    <rect class="BoundingBox" stroke="none" fill="none" x="39732" y="41651" width="5118" height="6705"/>
    <path fill="rgb(235, 199, 230)" stroke="none" d="M 40596,41669 L 40597,41669 C 40448,41669 40302,41708 40173,41782 40045,41857 39938,41964 39863,42092 39789,42221 39750,42367 39750,42516 L 39750,47490 39750,47490 C 39750,47639 39789,47785 39863,47914 39938,48042 40045,48149 40173,48224 40302,48298 40448,48337 40597,48337 L 43984,48337 43984,48337 C 44133,48337 44279,48298 44408,48224 44536,48149 44643,48042 44718,47914 44792,47785 44831,47639 44831,47490 L 44831,42515 44831,42516 44831,42516 C 44831,42367 44792,42221 44718,42092 44643,41964 44536,41857 44408,41782 44279,41708 44133,41669 43984,41669 L 40596,41669 Z"/>
    <path fill="none" stroke="rgb(100, 92, 187)" stroke-width="100" stroke-linejoin="round" stroke-dasharray="300" stroke-dashoffset="500" d="M 40596,41669 L 40597,41669 C 40448,41669 40302,41708 40173,41782 40045,41857 39938,41964 39863,42092 39789,42221 39750,42367 39750,42516 L 39750,47490 39750,47490 C 39750,47639 39789,47785 39863,47914 39938,48042 40045,48149 40173,48224 40302,48298 40448,48337 40597,48337 L 43984,48337 43984,48337 C 44133,48337 44279,48298 44408,48224 44536,48149 44643,48042 44718,47914 44792,47785 44831,47639 44831,47490 L 44831,42515 44831,42516 44831,42516 C 44831,42367 44792,42221 44718,42092 44643,41964 44536,41857 44408,41782 44279,41708 44133,41669 43984,41669 L 40596,41669 Z">
    <animate attributeName="stroke-dashoffset" from="500" to="0" dur="0.2s" repeatCount="indefinite"/>
    </path>
   </g>
  </g>
  <g class="com.sun.star.drawing.CustomShape">
   <g id="id4">
    <rect class="BoundingBox" stroke="none" fill="none" x="40012" y="43155" width="4553" height="1697"/>
    <path fill="none" stroke="rgb(255,64,0)" stroke-width="106" stroke-linejoin="round" d="M 40859,43209 L 40859,43209 C 40720,43209 40583,43246 40462,43315 40341,43385 40241,43485 40171,43606 40102,43727 40065,43864 40065,44003 L 40065,44003 40065,44003 C 40065,44143 40102,44280 40171,44401 40241,44522 40341,44622 40462,44692 40583,44761 40720,44798 40859,44798 L 43716,44798 43717,44798 C 43856,44798 43993,44761 44114,44692 44235,44622 44335,44522 44405,44401 44474,44280 44511,44143 44511,44003 L 44511,44003 44511,44003 44511,44003 C 44511,43864 44474,43727 44405,43606 44335,43485 44235,43385 44114,43315 43993,43246 43856,43209 43717,43209 L 40859,43209 Z"/>
   </g>
  </g>
  <g class="com.sun.star.drawing.CustomShape">
   <g id="id5">
    <rect class="BoundingBox" stroke="none" fill="none" x="40012" y="45156" width="4553" height="1697"/>
    <path fill="none" stroke="rgb(255,64,0)" stroke-width="106" stroke-linejoin="round" d="M 40859,45210 L 40859,45210 C 40720,45210 40583,45247 40462,45316 40341,45386 40241,45486 40171,45607 40102,45728 40065,45865 40065,46004 L 40065,46004 40065,46004 C 40065,46144 40102,46281 40171,46402 40241,46523 40341,46623 40462,46693 40583,46762 40720,46799 40859,46799 L 43716,46799 43717,46799 C 43856,46799 43993,46762 44114,46693 44235,46623 44335,46523 44405,46402 44474,46281 44511,46144 44511,46004 L 44511,46004 44511,46004 44511,46004 C 44511,45865 44474,45728 44405,45607 44335,45486 44235,45386 44114,45316 43993,45247 43856,45210 43717,45210 L 40859,45210 Z"/>
   </g>
  </g>
 </g>
</svg>