<?xml version="1.0" encoding="UTF-8"?>
<!DOCTYPE svg PUBLIC "-//W3C//DTD SVG 1.1//EN" "http://www.w3.org/Graphics/SVG/1.1/DTD/svg11.dtd">
<svg version="1.2" width="51.18mm" height="67.05mm" viewBox="16832 41651 5118 6705" preserveAspectRatio="xMidYMid" fill-rule="evenodd" stroke-width="28.222" stroke-linejoin="round" xmlns="http://www.w3.org/2000/svg" xmlns:ooo="http://xml.openoffice.org/svg/export" xmlns:xlink="http://www.w3.org/1999/xlink" xmlns:presentation="http://sun.com/xmlns/staroffice/presentation" xmlns:smil="http://www.w3.org/2001/SMIL20/" xmlns:anim="urn:oasis:names:tc:opendocument:xmlns:animation:1.0" xmlns:svg="urn:oasis:names:tc:opendocument:xmlns:svg-compatible:1.0" xml:space="preserve">
 <defs class="EmbeddedBulletChars">
  <g id="bullet-char-template-57356" transform="scale(0.00048828125,-0.00048828125)">
   <path d="M 580,1141 L 1163,571 580,0 -4,571 580,1141 Z"/>
  </g>
  <g id="bullet-char-template-57354" transform="scale(0.00048828125,-0.00048828125)">
   <path d="M 8,1128 L 1137,1128 1137,0 8,0 8,1128 Z"/>
  </g>
  <g id="bullet-char-template-10146" transform="scale(0.00048828125,-0.00048828125)">
   <path d="M 174,0 L 602,739 174,1481 1456,739 174,0 Z M 1358,739 L 309,1346 659,739 1358,739 Z"/>
  </g>
  <g id="bullet-char-template-10132" transform="scale(0.00048828125,-0.00048828125)">
   <path d="M 2015,739 L 1276,0 717,0 1260,543 174,543 174,936 1260,936 717,1481 1274,1481 2015,739 Z"/>
  </g>
  <g id="bullet-char-template-10007" transform="scale(0.00048828125,-0.00048828125)">
   <path d="M 0,-2 C -7,14 -16,27 -25,37 L 356,567 C 262,823 215,952 215,954 215,979 228,992 255,992 264,992 276,990 289,987 310,991 331,999 354,1012 L 381,999 492,748 772,1049 836,1024 860,1049 C 881,1039 901,1025 922,1006 886,937 835,863 770,784 769,783 710,716 594,584 L 774,223 C 774,196 753,168 711,139 L 727,119 C 717,90 699,76 672,76 641,76 570,178 457,381 L 164,-76 C 142,-110 111,-127 72,-127 30,-127 9,-110 8,-76 1,-67 -2,-52 -2,-32 -2,-23 -1,-13 0,-2 Z"/>
  </g>
  <g id="bullet-char-template-10004" transform="scale(0.00048828125,-0.00048828125)">
   <path d="M 285,-33 C 182,-33 111,30 74,156 52,228 41,333 41,471 41,549 55,616 82,672 116,743 169,778 240,778 293,778 328,747 346,684 L 369,508 C 377,444 397,411 428,410 L 1163,1116 C 1174,1127 1196,1133 1229,1133 1271,1133 1292,1118 1292,1087 L 1292,965 C 1292,929 1282,901 1262,881 L 442,47 C 390,-6 338,-33 285,-33 Z"/>
  </g>
  <g id="bullet-char-template-9679" transform="scale(0.00048828125,-0.00048828125)">
   <path d="M 813,0 C 632,0 489,54 383,161 276,268 223,411 223,592 223,773 276,916 383,1023 489,1130 632,1184 813,1184 992,1184 1136,1130 1245,1023 1353,916 1407,772 1407,592 1407,412 1353,268 1245,161 1136,54 992,0 813,0 Z"/>
  </g>
  <g id="bullet-char-template-8226" transform="scale(0.00048828125,-0.00048828125)">
   <path d="M 346,457 C 273,457 209,483 155,535 101,586 74,649 74,723 74,796 101,859 155,911 209,963 273,989 346,989 419,989 480,963 531,910 582,859 608,796 608,723 608,648 583,586 532,535 482,483 420,457 346,457 Z"/>
  </g>
  <g id="bullet-char-template-8211" transform="scale(0.00048828125,-0.00048828125)">
   <path d="M -4,459 L 1135,459 1135,606 -4,606 -4,459 Z"/>
  </g>
  <g id="bullet-char-template-61548" transform="scale(0.00048828125,-0.00048828125)">
   <path d="M 173,740 C 173,903 231,1043 346,1159 462,1274 601,1332 765,1332 928,1332 1067,1274 1183,1159 1299,1043 1357,903 1357,740 1357,577 1299,437 1183,322 1067,206 928,148 765,148 601,148 462,206 346,322 231,437 173,577 173,740 Z"/>
  </g>
 </defs>
 <g class="Page">
  <g class="com.sun.star.drawing.CustomShape">
   <g id="id3">
    <rect class="BoundingBox" stroke="none" fill="none" x="16832" y="41651" width="5118" height="6705"/>
    <path fill="rgb(235, 199, 230)" stroke="none" d="M 17696,41669 L 17697,41669 C 17548,41669 17402,41708 17273,41782 17145,41857 17038,41964 16963,42092 16889,42221 16850,42367 16850,42516 L 16850,47490 16850,47490 C 16850,47639 16889,47785 16963,47914 17038,48042 17145,48149 17273,48224 17402,48298 17548,48337 17697,48337 L 21084,48337 21084,48337 C 21233,48337 21379,48298 21508,48224 21636,48149 21743,48042 21818,47914 21892,47785 21931,47639 21931,47490 L 21931,42515 21931,42516 21931,42516 C 21931,42367 21892,42221 21818,42092 21743,41964 21636,41857 21508,41782 21379,41708 21233,41669 21084,41669 L 17696,41669 Z"/>
    <path fill="none" stroke="rgb(100, 92, 187)" stroke-width="100" stroke-linejoin="round" stroke-dasharray="300" stroke-dashoffset="500" d="M 17696,41669 L 17697,41669 C 17548,41669 17402,41708 17273,41782 17145,41857 17038,41964 16963,42092 16889,42221 16850,42367 16850,42516 L 16850,47490 16850,47490 C 16850,47639 16889,47785 16963,47914 17038,48042 17145,48149 17273,48224 17402,48298 17548,48337 17697,48337 L 21084,48337 21084,48337 C 21233,48337 21379,48298 21508,48224 21636,48149 21743,48042 21818,47914 21892,47785 21931,47639 21931,47490 L 21931,42515 21931,42516 21931,42516 C 21931,42367 21892,42221 21818,42092 21743,41964 21636,41857 21508,41782 21379,41708 21233,41669 21084,41669 L 17696,41669 Z">
    <animate attributeName="stroke-dashoffset" from="500" to="0" dur="0.2s" repeatCount="indefinite"/>
    </path>
   </g>
  </g>
  <g class="com.sun.star.drawing.CustomShape">
   <g id="id4">
    <rect class="BoundingBox" stroke="none" fill="none" x="17114" y="43155" width="4553" height="1697"/>
    <path fill="rgb(129,212,26)" stroke="none" d="M 17961,43209 L 17962,43209 C 17822,43209 17685,43246 17564,43315 17443,43385 17343,43485 17273,43606 17204,43727 17167,43864 17167,44003 L 17167,44003 17167,44003 C 17167,44143 17204,44280 17273,44401 17343,44522 17443,44622 17564,44692 17685,44761 17822,44798 17962,44798 L 20818,44798 20819,44798 C 20958,44798 21095,44761 21216,44692 21337,44622 21437,44522 21507,44401 21576,44280 21613,44143 21613,44003 L 21613,44003 21613,44003 21613,44003 C 21613,43864 21576,43727 21507,43606 21437,43485 21337,43385 21216,43315 21095,43246 20958,43209 20819,43209 L 17961,43209 Z"/>
    <path fill="none" stroke="rgb(129,212,26)" stroke-width="106" stroke-linejoin="round" d="M 17961,43209 L 17962,43209 C 17822,43209 17685,43246 17564,43315 17443,43385 17343,43485 17273,43606 17204,43727 17167,43864 17167,44003 L 17167,44003 17167,44003 C 17167,44143 17204,44280 17273,44401 17343,44522 17443,44622 17564,44692 17685,44761 17822,44798 17962,44798 L 20818,44798 20819,44798 C 20958,44798 21095,44761 21216,44692 21337,44622 21437,44522 21507,44401 21576,44280 21613,44143 21613,44003 L 21613,44003 21613,44003 21613,44003 C 21613,43864 21576,43727 21507,43606 21437,43485 21337,43385 21216,43315 21095,43246 20958,43209 20819,43209 L 17961,43209 Z"/>
   </g>
  </g>
  <g class="com.sun.star.drawing.CustomShape">
   <g id="id5">
    <rect class="BoundingBox" stroke="none" fill="none" x="17114" y="45156" width="4553" height="1697"/>
    <path fill="rgb(129,212,26)" stroke="none" d="M 17961,45210 L 17962,45210 C 17822,45210 17685,45247 17564,45316 17443,45386 17343,45486 17273,45607 17204,45728 17167,45865 17167,46004 L 17167,46004 17167,46004 C 17167,46144 17204,46281 17273,46402 17343,46523 17443,46623 17564,46693 17685,46762 17822,46799 17962,46799 L 20818,46799 20819,46799 C 20958,46799 21095,46762 21216,46693 21337,46623 21437,46523 21507,46402 21576,46281 21613,46144 21613,46004 L 21613,46004 21613,46004 21613,46004 C 21613,45865 21576,45728 21507,45607 21437,45486 21337,45386 21216,45316 21095,45247 20958,45210 20819,45210 L 17961,45210 Z"/>
    <path fill="none" stroke="rgb(129,212,26)" stroke-width="106" stroke-linejoin="round" d="M 17961,45210 L 17962,45210 C 17822,45210 17685,45247 17564,45316 17443,45386 17343,45486 17273,45607 17204,45728 17167,45865 17167,46004 L 17167,46004 17167,46004 C 17167,46144 17204,46281 17273,46402 17343,46523 17443,46623 17564,46693 17685,46762 17822,46799 17962,46799 L 20818,46799 20819,46799 C 20958,46799 21095,46762 21216,46693 21337,46623 21437,46523 21507,46402 21576,46281 21613,46144 21613,46004 L 21613,46004 21613,46004 21613,46004 C 21613,45865 21576,45728 21507,45607 21437,45486 21337,45386 21216,45316 21095,45247 20958,45210 20819,45210 L 17961,45210 Z"/>
   </g>
  </g>
 </g>
</svg>