<?xml version="1.0" encoding="UTF-8"?>
<!DOCTYPE svg PUBLIC "-//W3C//DTD SVG 1.1//EN" "http://www.w3.org/Graphics/SVG/1.1/DTD/svg11.dtd">
<svg version="1.2" width="51.18mm" height="67.05mm" viewBox="51134 41651 5118 6705" preserveAspectRatio="xMidYMid" fill-rule="evenodd" stroke-width="28.222" stroke-linejoin="round" xmlns="http://www.w3.org/2000/svg" xmlns:ooo="http://xml.openoffice.org/svg/export" xmlns:xlink="http://www.w3.org/1999/xlink" xmlns:presentation="http://sun.com/xmlns/staroffice/presentation" xmlns:smil="http://www.w3.org/2001/SMIL20/" xmlns:anim="urn:oasis:names:tc:opendocument:xmlns:animation:1.0" xmlns:svg="urn:oasis:names:tc:opendocument:xmlns:svg-compatible:1.0" xml:space="preserve">
 <defs class="EmbeddedBulletChars">
  <g id="bullet-char-template-57356" transform="scale(0.00048828125,-0.00048828125)">
   <path d="M 580,1141 L 1163,571 580,0 -4,571 580,1141 Z"/>
  </g>
  <g id="bullet-char-template-57354" transform="scale(0.00048828125,-0.00048828125)">
   <path d="M 8,1128 L 1137,1128 1137,0 8,0 8,1128 Z"/>
  </g>
  <g id="bullet-char-template-10146" transform="scale(0.00048828125,-0.00048828125)">
   <path d="M 174,0 L 602,739 174,1481 1456,739 174,0 Z M 1358,739 L 309,1346 659,739 1358,739 Z"/>
  </g>
  <g id="bullet-char-template-10132" transform="scale(0.00048828125,-0.00048828125)">
   <path d="M 2015,739 L 1276,0 717,0 1260,543 174,543 174,936 1260,936 717,1481 1274,1481 2015,739 Z"/>
  </g>
  <g id="bullet-char-template-10007" transform="scale(0.00048828125,-0.00048828125)">
   <path d="M 0,-2 C -7,14 -16,27 -25,37 L 356,567 C 262,823 215,952 215,954 215,979 228,992 255,992 264,992 276,990 289,987 310,991 331,999 354,1012 L 381,999 492,748 772,1049 836,1024 860,1049 C 881,1039 901,1025 922,1006 886,937 835,863 770,784 769,783 710,716 594,584 L 774,223 C 774,196 753,168 711,139 L 727,119 C 717,90 699,76 672,76 641,76 570,178 457,381 L 164,-76 C 142,-110 111,-127 72,-127 30,-127 9,-110 8,-76 1,-67 -2,-52 -2,-32 -2,-23 -1,-13 0,-2 Z"/>
  </g>
  <g id="bullet-char-template-10004" transform="scale(0.00048828125,-0.00048828125)">
   <path d="M 285,-33 C 182,-33 111,30 74,156 52,228 41,333 41,471 41,549 55,616 82,672 116,743 169,778 240,778 293,778 328,747 346,684 L 369,508 C 377,444 397,411 428,410 L 1163,1116 C 1174,1127 1196,1133 1229,1133 1271,1133 1292,1118 1292,1087 L 1292,965 C 1292,929 1282,901 1262,881 L 442,47 C 390,-6 338,-33 285,-33 Z"/>
  </g>
  <g id="bullet-char-template-9679" transform="scale(0.00048828125,-0.00048828125)">
   <path d="M 813,0 C 632,0 489,54 383,161 276,268 223,411 223,592 223,773 276,916 383,1023 489,1130 632,1184 813,1184 992,1184 1136,1130 1245,1023 1353,916 1407,772 1407,592 1407,412 1353,268 1245,161 1136,54 992,0 813,0 Z"/>
  </g>
  <g id="bullet-char-template-8226" transform="scale(0.00048828125,-0.00048828125)">
   <path d="M 346,457 C 273,457 209,483 155,535 101,586 74,649 74,723 74,796 101,859 155,911 209,963 273,989 346,989 419,989 480,963 531,910 582,859 608,796 608,723 608,648 583,586 532,535 482,483 420,457 346,457 Z"/>
  </g>
  <g id="bullet-char-template-8211" transform="scale(0.00048828125,-0.00048828125)">
   <path d="M -4,459 L 1135,459 1135,606 -4,606 -4,459 Z"/>
  </g>
  <g id="bullet-char-template-61548" transform="scale(0.00048828125,-0.00048828125)">
   <path d="M 173,740 C 173,903 231,1043 346,1159 462,1274 601,1332 765,1332 928,1332 1067,1274 1183,1159 1299,1043 1357,903 1357,740 1357,577 1299,437 1183,322 1067,206 928,148 765,148 601,148 462,206 346,322 231,437 173,577 173,740 Z"/>
  </g>
 </defs>
 <g class="Page">
  <g class="com.sun.star.drawing.CustomShape">
   <g id="id3">
    <rect class="BoundingBox" stroke="none" fill="none" x="51134" y="41651" width="5118" height="6705"/>
    <path fill="rgb(235, 199, 230)" stroke="none" d="M 51998,41669 L 51999,41669 C 51850,41669 51704,41708 51575,41782 51447,41857 51340,41964 51265,42092 51191,42221 51152,42367 51152,42516 L 51152,47490 51152,47490 C 51152,47639 51191,47785 51265,47914 51340,48042 51447,48149 51575,48224 51704,48298 51850,48337 51999,48337 L 55386,48337 55386,48337 C 55535,48337 55681,48298 55810,48224 55938,48149 56045,48042 56120,47914 56194,47785 56233,47639 56233,47490 L 56233,42515 56233,42516 56233,42516 C 56233,42367 56194,42221 56120,42092 56045,41964 55938,41857 55810,41782 55681,41708 55535,41669 55386,41669 L 51998,41669 Z"/>
    <path fill="none" stroke="rgb(100, 92, 187)" stroke-width="100" stroke-linejoin="round" stroke-dasharray="300" stroke-dashoffset="500" d="M 51998,41669 L 51999,41669 C 51850,41669 51704,41708 51575,41782 51447,41857 51340,41964 51265,42092 51191,42221 51152,42367 51152,42516 L 51152,47490 51152,47490 C 51152,47639 51191,47785 51265,47914 51340,48042 51447,48149 51575,48224 51704,48298 51850,48337 51999,48337 L 55386,48337 55386,48337 C 55535,48337 55681,48298 55810,48224 55938,48149 56045,48042 56120,47914 56194,47785 56233,47639 56233,47490 L 56233,42515 56233,42516 56233,42516 C 56233,42367 56194,42221 56120,42092 56045,41964 55938,41857 55810,41782 55681,41708 55535,41669 55386,41669 L 51998,41669 Z">
    <animate attributeName="stroke-dashoffset" from="500" to="0" dur="0.2s" repeatCount="indefinite"/>
    </path>
   </g>
  </g>
  <g class="com.sun.star.drawing.CustomShape">
   <g id="id4">
    <rect class="BoundingBox" stroke="none" fill="none" x="51413" y="43155" width="4554" height="1697"/>
    <path fill="rgb(255,64,0)" stroke="none" d="M 52261,43209 L 52261,43209 C 52122,43209 51985,43246 51864,43315 51743,43385 51643,43485 51573,43606 51504,43727 51467,43864 51467,44003 L 51467,44003 51467,44003 C 51467,44143 51504,44280 51573,44401 51643,44522 51743,44622 51864,44692 51985,44761 52122,44798 52261,44798 L 55118,44798 55118,44798 C 55258,44798 55395,44761 55516,44692 55637,44622 55737,44522 55807,44401 55876,44280 55913,44143 55913,44003 L 55913,44003 55913,44003 55913,44003 C 55913,43864 55876,43727 55807,43606 55737,43485 55637,43385 55516,43315 55395,43246 55258,43209 55118,43209 L 52261,43209 Z"/>
    <path fill="none" stroke="rgb(255,64,0)" stroke-width="106" stroke-linejoin="round" d="M 52261,43209 L 52261,43209 C 52122,43209 51985,43246 51864,43315 51743,43385 51643,43485 51573,43606 51504,43727 51467,43864 51467,44003 L 51467,44003 51467,44003 C 51467,44143 51504,44280 51573,44401 51643,44522 51743,44622 51864,44692 51985,44761 52122,44798 52261,44798 L 55118,44798 55118,44798 C 55258,44798 55395,44761 55516,44692 55637,44622 55737,44522 55807,44401 55876,44280 55913,44143 55913,44003 L 55913,44003 55913,44003 55913,44003 C 55913,43864 55876,43727 55807,43606 55737,43485 55637,43385 55516,43315 55395,43246 55258,43209 55118,43209 L 52261,43209 Z"/>
   </g>
  </g>
  <g class="com.sun.star.drawing.CustomShape">
   <g id="id5">
    <rect class="BoundingBox" stroke="none" fill="none" x="51413" y="45156" width="4554" height="1697"/>
    <path fill="rgb(255,64,0)" stroke="none" d="M 52261,45210 L 52261,45210 C 52122,45210 51985,45247 51864,45316 51743,45386 51643,45486 51573,45607 51504,45728 51467,45865 51467,46004 L 51467,46004 51467,46004 C 51467,46144 51504,46281 51573,46402 51643,46523 51743,46623 51864,46693 51985,46762 52122,46799 52261,46799 L 55118,46799 55118,46799 C 55258,46799 55395,46762 55516,46693 55637,46623 55737,46523 55807,46402 55876,46281 55913,46144 55913,46004 L 55913,46004 55913,46004 55913,46004 C 55913,45865 55876,45728 55807,45607 55737,45486 55637,45386 55516,45316 55395,45247 55258,45210 55118,45210 L 52261,45210 Z"/>
    <path fill="none" stroke="rgb(255,64,0)" stroke-width="106" stroke-linejoin="round" d="M 52261,45210 L 52261,45210 C 52122,45210 51985,45247 51864,45316 51743,45386 51643,45486 51573,45607 51504,45728 51467,45865 51467,46004 L 51467,46004 51467,46004 C 51467,46144 51504,46281 51573,46402 51643,46523 51743,46623 51864,46693 51985,46762 52122,46799 52261,46799 L 55118,46799 55118,46799 C 55258,46799 55395,46762 55516,46693 55637,46623 55737,46523 55807,46402 55876,46281 55913,46144 55913,46004 L 55913,46004 55913,46004 55913,46004 C 55913,45865 55876,45728 55807,45607 55737,45486 55637,45386 55516,45316 55395,45247 55258,45210 55118,45210 L 52261,45210 Z"/>
   </g>
  </g>
 </g>
</svg>