<?xml version="1.0" encoding="UTF-8"?>
<!DOCTYPE svg PUBLIC "-//W3C//DTD SVG 1.1//EN" "http://www.w3.org/Graphics/SVG/1.1/DTD/svg11.dtd">
<svg version="1.2" width="51.18mm" height="67.05mm" viewBox="11131 41651 5118 6705" preserveAspectRatio="xMidYMid" fill-rule="evenodd" stroke-width="28.222" stroke-linejoin="round" xmlns="http://www.w3.org/2000/svg" xmlns:ooo="http://xml.openoffice.org/svg/export" xmlns:xlink="http://www.w3.org/1999/xlink" xmlns:presentation="http://sun.com/xmlns/staroffice/presentation" xmlns:smil="http://www.w3.org/2001/SMIL20/" xmlns:anim="urn:oasis:names:tc:opendocument:xmlns:animation:1.0" xmlns:svg="urn:oasis:names:tc:opendocument:xmlns:svg-compatible:1.0" xml:space="preserve">
 <defs class="EmbeddedBulletChars">
  <g id="bullet-char-template-57356" transform="scale(0.00048828125,-0.00048828125)">
   <path d="M 580,1141 L 1163,571 580,0 -4,571 580,1141 Z"/>
  </g>
  <g id="bullet-char-template-57354" transform="scale(0.00048828125,-0.00048828125)">
   <path d="M 8,1128 L 1137,1128 1137,0 8,0 8,1128 Z"/>
  </g>
  <g id="bullet-char-template-10146" transform="scale(0.00048828125,-0.00048828125)">
   <path d="M 174,0 L 602,739 174,1481 1456,739 174,0 Z M 1358,739 L 309,1346 659,739 1358,739 Z"/>
  </g>
  <g id="bullet-char-template-10132" transform="scale(0.00048828125,-0.00048828125)">
   <path d="M 2015,739 L 1276,0 717,0 1260,543 174,543 174,936 1260,936 717,1481 1274,1481 2015,739 Z"/>
  </g>
  <g id="bullet-char-template-10007" transform="scale(0.00048828125,-0.00048828125)">
   <path d="M 0,-2 C -7,14 -16,27 -25,37 L 356,567 C 262,823 215,952 215,954 215,979 228,992 255,992 264,992 276,990 289,987 310,991 331,999 354,1012 L 381,999 492,748 772,1049 836,1024 860,1049 C 881,1039 901,1025 922,1006 886,937 835,863 770,784 769,783 710,716 594,584 L 774,223 C 774,196 753,168 711,139 L 727,119 C 717,90 699,76 672,76 641,76 570,178 457,381 L 164,-76 C 142,-110 111,-127 72,-127 30,-127 9,-110 8,-76 1,-67 -2,-52 -2,-32 -2,-23 -1,-13 0,-2 Z"/>
  </g>
  <g id="bullet-char-template-10004" transform="scale(0.00048828125,-0.00048828125)">
   <path d="M 285,-33 C 182,-33 111,30 74,156 52,228 41,333 41,471 41,549 55,616 82,672 116,743 169,778 240,778 293,778 328,747 346,684 L 369,508 C 377,444 397,411 428,410 L 1163,1116 C 1174,1127 1196,1133 1229,1133 1271,1133 1292,1118 1292,1087 L 1292,965 C 1292,929 1282,901 1262,881 L 442,47 C 390,-6 338,-33 285,-33 Z"/>
  </g>
  <g id="bullet-char-template-9679" transform="scale(0.00048828125,-0.00048828125)">
   <path d="M 813,0 C 632,0 489,54 383,161 276,268 223,411 223,592 223,773 276,916 383,1023 489,1130 632,1184 813,1184 992,1184 1136,1130 1245,1023 1353,916 1407,772 1407,592 1407,412 1353,268 1245,161 1136,54 992,0 813,0 Z"/>
  </g>
  <g id="bullet-char-template-8226" transform="scale(0.00048828125,-0.00048828125)">
   <path d="M 346,457 C 273,457 209,483 155,535 101,586 74,649 74,723 74,796 101,859 155,911 209,963 273,989 346,989 419,989 480,963 531,910 582,859 608,796 608,723 608,648 583,586 532,535 482,483 420,457 346,457 Z"/>
  </g>
  <g id="bullet-char-template-8211" transform="scale(0.00048828125,-0.00048828125)">
   <path d="M -4,459 L 1135,459 1135,606 -4,606 -4,459 Z"/>
  </g>
  <g id="bullet-char-template-61548" transform="scale(0.00048828125,-0.00048828125)">
   <path d="M 173,740 C 173,903 231,1043 346,1159 462,1274 601,1332 765,1332 928,1332 1067,1274 1183,1159 1299,1043 1357,903 1357,740 1357,577 1299,437 1183,322 1067,206 928,148 765,148 601,148 462,206 346,322 231,437 173,577 173,740 Z"/>
  </g>
 </defs>
 <g class="Page">
  <g class="com.sun.star.drawing.CustomShape">
   <g id="id3">
    <rect class="BoundingBox" stroke="none" fill="none" x="11131" y="41651" width="5118" height="6705"/>
    <path fill="rgb(235, 199, 230)" stroke="none" d="M 11995,41669 L 11996,41669 C 11847,41669 11701,41708 11572,41782 11444,41857 11337,41964 11262,42092 11188,42221 11149,42367 11149,42516 L 11149,47490 11149,47490 C 11149,47639 11188,47785 11262,47914 11337,48042 11444,48149 11572,48224 11701,48298 11847,48337 11996,48337 L 15383,48337 15383,48337 C 15532,48337 15678,48298 15807,48224 15935,48149 16042,48042 16117,47914 16191,47785 16230,47639 16230,47490 L 16230,42515 16230,42516 16230,42516 C 16230,42367 16191,42221 16117,42092 16042,41964 15935,41857 15807,41782 15678,41708 15532,41669 15383,41669 L 11995,41669 Z"/>
    <path fill="none" stroke="rgb(100, 92, 187)" stroke-width="100" stroke-linejoin="round" stroke-dasharray="300" stroke-dashoffset="500" d="M 11995,41669 L 11996,41669 C 11847,41669 11701,41708 11572,41782 11444,41857 11337,41964 11262,42092 11188,42221 11149,42367 11149,42516 L 11149,47490 11149,47490 C 11149,47639 11188,47785 11262,47914 11337,48042 11444,48149 11572,48224 11701,48298 11847,48337 11996,48337 L 15383,48337 15383,48337 C 15532,48337 15678,48298 15807,48224 15935,48149 16042,48042 16117,47914 16191,47785 16230,47639 16230,47490 L 16230,42515 16230,42516 16230,42516 C 16230,42367 16191,42221 16117,42092 16042,41964 15935,41857 15807,41782 15678,41708 15532,41669 15383,41669 L 11995,41669 Z">
    <animate attributeName="stroke-dashoffset" from="500" to="0" dur="0.2s" repeatCount="indefinite"/>
    </path>
   </g>
  </g>
  <g class="com.sun.star.drawing.CustomShape">
   <g id="id4">
    <rect class="BoundingBox" stroke="none" fill="none" x="11412" y="43155" width="4554" height="1697"/>
    <g>
     <defs>
      <pattern id="pattern1" x="11466" y="43209" width="4447" height="1590" patternUnits="userSpaceOnUse">
       <g transform="translate(-11466,-43209)">
        <line fill="rgb(129,212,26)" stroke="rgb(129,212,26)" x1="11705" y1="43436" x2="11705" y2="44571"/>
        <line fill="rgb(129,212,26)" stroke="rgb(129,212,26)" x1="11970" y1="43264" x2="11970" y2="44743"/>
        <line fill="rgb(129,212,26)" stroke="rgb(129,212,26)" x1="12235" y1="43210" x2="12235" y2="44797"/>
        <line fill="rgb(129,212,26)" stroke="rgb(129,212,26)" x1="12500" y1="43209" x2="12500" y2="44798"/>
        <line fill="rgb(129,212,26)" stroke="rgb(129,212,26)" x1="12765" y1="43209" x2="12765" y2="44798"/>
        <line fill="rgb(129,212,26)" stroke="rgb(129,212,26)" x1="13030" y1="43209" x2="13030" y2="44798"/>
        <line fill="rgb(129,212,26)" stroke="rgb(129,212,26)" x1="13295" y1="43209" x2="13295" y2="44798"/>
        <line fill="rgb(129,212,26)" stroke="rgb(129,212,26)" x1="13560" y1="43209" x2="13560" y2="44798"/>
        <line fill="rgb(129,212,26)" stroke="rgb(129,212,26)" x1="13825" y1="43209" x2="13825" y2="44798"/>
        <line fill="rgb(129,212,26)" stroke="rgb(129,212,26)" x1="14090" y1="43209" x2="14090" y2="44798"/>
        <line fill="rgb(129,212,26)" stroke="rgb(129,212,26)" x1="14355" y1="43209" x2="14355" y2="44798"/>
        <line fill="rgb(129,212,26)" stroke="rgb(129,212,26)" x1="14620" y1="43209" x2="14620" y2="44798"/>
        <line fill="rgb(129,212,26)" stroke="rgb(129,212,26)" x1="14885" y1="43209" x2="14885" y2="44798"/>
        <line fill="rgb(129,212,26)" stroke="rgb(129,212,26)" x1="15150" y1="43210" x2="15150" y2="44797"/>
        <line fill="rgb(129,212,26)" stroke="rgb(129,212,26)" x1="15415" y1="43267" x2="15415" y2="44740"/>
        <line fill="rgb(129,212,26)" stroke="rgb(129,212,26)" x1="15680" y1="43443" x2="15680" y2="44564"/>
       </g>
      </pattern>
     </defs>
     <path style="fill:url(#pattern1)" d="M 12260,43209 L 12260,43209 12208,43211 12157,43216 12105,43224 12055,43236 12005,43251 11957,43269 11909,43291 11863,43315 11819,43343 11777,43373 11737,43406 11699,43442 11663,43480 11630,43520 11600,43562 11572,43606 11548,43652 11526,43700 11508,43748 11493,43798 11481,43848 11473,43900 11468,43951 11466,44003 11466,44003 11466,44003 11468,44056 11473,44107 11481,44159 11493,44209 11508,44259 11526,44307 11548,44355 11572,44401 11600,44445 11630,44487 11663,44527 11699,44565 11737,44601 11777,44634 11819,44664 11863,44692 11909,44716 11957,44738 12005,44756 12055,44771 12105,44783 12157,44791 12208,44796 12260,44798 15117,44798 15118,44798 15170,44796 15221,44791 15273,44783 15323,44771 15373,44756 15421,44738 15469,44716 15515,44692 15559,44664 15601,44634 15641,44601 15679,44565 15715,44527 15748,44487 15778,44445 15806,44401 15830,44355 15852,44307 15870,44259 15885,44209 15897,44159 15905,44107 15910,44056 15912,44003 15912,44003 15912,44003 15912,44003 15910,43951 15905,43900 15897,43848 15885,43798 15870,43748 15852,43700 15830,43652 15806,43606 15778,43562 15748,43520 15715,43480 15679,43442 15641,43406 15601,43373 15559,43343 15515,43315 15469,43291 15421,43269 15373,43251 15323,43236 15273,43224 15221,43216 15170,43211 15118,43209 12260,43209 Z"/>
    </g>
    <path fill="none" stroke="rgb(129,212,26)" stroke-width="106" stroke-linejoin="round" d="M 12260,43209 L 12260,43209 C 12121,43209 11984,43246 11863,43315 11742,43385 11642,43485 11572,43606 11503,43727 11466,43864 11466,44003 L 11466,44003 11466,44003 C 11466,44143 11503,44280 11572,44401 11642,44522 11742,44622 11863,44692 11984,44761 12121,44798 12260,44798 L 15117,44798 15118,44798 C 15257,44798 15394,44761 15515,44692 15636,44622 15736,44522 15806,44401 15875,44280 15912,44143 15912,44003 L 15912,44003 15912,44003 15912,44003 C 15912,43864 15875,43727 15806,43606 15736,43485 15636,43385 15515,43315 15394,43246 15257,43209 15118,43209 L 12260,43209 Z"/>
   </g>
  </g>
  <g class="com.sun.star.drawing.CustomShape">
   <g id="id5">
    <rect class="BoundingBox" stroke="none" fill="none" x="11412" y="45156" width="4554" height="1697"/>
    <g>
     <defs>
      <pattern id="pattern2" x="11466" y="45210" width="4447" height="1590" patternUnits="userSpaceOnUse">
       <g transform="translate(-11466,-45210)">
        <line fill="rgb(129,212,26)" stroke="rgb(129,212,26)" x1="11705" y1="45437" x2="11705" y2="46572"/>
        <line fill="rgb(129,212,26)" stroke="rgb(129,212,26)" x1="11970" y1="45265" x2="11970" y2="46744"/>
        <line fill="rgb(129,212,26)" stroke="rgb(129,212,26)" x1="12235" y1="45211" x2="12235" y2="46798"/>
        <line fill="rgb(129,212,26)" stroke="rgb(129,212,26)" x1="12500" y1="45210" x2="12500" y2="46799"/>
        <line fill="rgb(129,212,26)" stroke="rgb(129,212,26)" x1="12765" y1="45210" x2="12765" y2="46799"/>
        <line fill="rgb(129,212,26)" stroke="rgb(129,212,26)" x1="13030" y1="45210" x2="13030" y2="46799"/>
        <line fill="rgb(129,212,26)" stroke="rgb(129,212,26)" x1="13295" y1="45210" x2="13295" y2="46799"/>
        <line fill="rgb(129,212,26)" stroke="rgb(129,212,26)" x1="13560" y1="45210" x2="13560" y2="46799"/>
        <line fill="rgb(129,212,26)" stroke="rgb(129,212,26)" x1="13825" y1="45210" x2="13825" y2="46799"/>
        <line fill="rgb(129,212,26)" stroke="rgb(129,212,26)" x1="14090" y1="45210" x2="14090" y2="46799"/>
        <line fill="rgb(129,212,26)" stroke="rgb(129,212,26)" x1="14355" y1="45210" x2="14355" y2="46799"/>
        <line fill="rgb(129,212,26)" stroke="rgb(129,212,26)" x1="14620" y1="45210" x2="14620" y2="46799"/>
        <line fill="rgb(129,212,26)" stroke="rgb(129,212,26)" x1="14885" y1="45210" x2="14885" y2="46799"/>
        <line fill="rgb(129,212,26)" stroke="rgb(129,212,26)" x1="15150" y1="45211" x2="15150" y2="46798"/>
        <line fill="rgb(129,212,26)" stroke="rgb(129,212,26)" x1="15415" y1="45268" x2="15415" y2="46741"/>
        <line fill="rgb(129,212,26)" stroke="rgb(129,212,26)" x1="15680" y1="45444" x2="15680" y2="46565"/>
       </g>
      </pattern>
     </defs>
     <path style="fill:url(#pattern2)" d="M 12260,45210 L 12260,45210 12208,45212 12157,45217 12105,45225 12055,45237 12005,45252 11957,45270 11909,45292 11863,45316 11819,45344 11777,45374 11737,45407 11699,45443 11663,45481 11630,45521 11600,45563 11572,45607 11548,45653 11526,45701 11508,45749 11493,45799 11481,45849 11473,45901 11468,45952 11466,46004 11466,46004 11466,46004 11468,46057 11473,46108 11481,46160 11493,46210 11508,46260 11526,46308 11548,46356 11572,46402 11600,46446 11630,46488 11663,46528 11699,46566 11737,46602 11777,46635 11819,46665 11863,46693 11909,46717 11957,46739 12005,46757 12055,46772 12105,46784 12157,46792 12208,46797 12260,46799 15117,46799 15118,46799 15170,46797 15221,46792 15273,46784 15323,46772 15373,46757 15421,46739 15469,46717 15515,46693 15559,46665 15601,46635 15641,46602 15679,46566 15715,46528 15748,46488 15778,46446 15806,46402 15830,46356 15852,46308 15870,46260 15885,46210 15897,46160 15905,46108 15910,46057 15912,46004 15912,46004 15912,46004 15912,46004 15910,45952 15905,45901 15897,45849 15885,45799 15870,45749 15852,45701 15830,45653 15806,45607 15778,45563 15748,45521 15715,45481 15679,45443 15641,45407 15601,45374 15559,45344 15515,45316 15469,45292 15421,45270 15373,45252 15323,45237 15273,45225 15221,45217 15170,45212 15118,45210 12260,45210 Z"/>
    </g>
    <path fill="none" stroke="rgb(129,212,26)" stroke-width="106" stroke-linejoin="round" d="M 12260,45210 L 12260,45210 C 12121,45210 11984,45247 11863,45316 11742,45386 11642,45486 11572,45607 11503,45728 11466,45865 11466,46004 L 11466,46004 11466,46004 C 11466,46144 11503,46281 11572,46402 11642,46523 11742,46623 11863,46693 11984,46762 12121,46799 12260,46799 L 15117,46799 15118,46799 C 15257,46799 15394,46762 15515,46693 15636,46623 15736,46523 15806,46402 15875,46281 15912,46144 15912,46004 L 15912,46004 15912,46004 15912,46004 C 15912,45865 15875,45728 15806,45607 15736,45486 15636,45386 15515,45316 15394,45247 15257,45210 15118,45210 L 12260,45210 Z"/>
   </g>
  </g>
 </g>
</svg>