<?xml version="1.0" encoding="UTF-8"?>
<!DOCTYPE svg PUBLIC "-//W3C//DTD SVG 1.1//EN" "http://www.w3.org/Graphics/SVG/1.1/DTD/svg11.dtd">
<svg version="1.2" width="51.18mm" height="67.05mm" viewBox="22531 34351 5118 6705" preserveAspectRatio="xMidYMid" fill-rule="evenodd" stroke-width="28.222" stroke-linejoin="round" xmlns="http://www.w3.org/2000/svg" xmlns:ooo="http://xml.openoffice.org/svg/export" xmlns:xlink="http://www.w3.org/1999/xlink" xmlns:presentation="http://sun.com/xmlns/staroffice/presentation" xmlns:smil="http://www.w3.org/2001/SMIL20/" xmlns:anim="urn:oasis:names:tc:opendocument:xmlns:animation:1.0" xmlns:svg="urn:oasis:names:tc:opendocument:xmlns:svg-compatible:1.0" xml:space="preserve">
 <defs class="EmbeddedBulletChars">
  <g id="bullet-char-template-57356" transform="scale(0.00048828125,-0.00048828125)">
   <path d="M 580,1141 L 1163,571 580,0 -4,571 580,1141 Z"/>
  </g>
  <g id="bullet-char-template-57354" transform="scale(0.00048828125,-0.00048828125)">
   <path d="M 8,1128 L 1137,1128 1137,0 8,0 8,1128 Z"/>
  </g>
  <g id="bullet-char-template-10146" transform="scale(0.00048828125,-0.00048828125)">
   <path d="M 174,0 L 602,739 174,1481 1456,739 174,0 Z M 1358,739 L 309,1346 659,739 1358,739 Z"/>
  </g>
  <g id="bullet-char-template-10132" transform="scale(0.00048828125,-0.00048828125)">
   <path d="M 2015,739 L 1276,0 717,0 1260,543 174,543 174,936 1260,936 717,1481 1274,1481 2015,739 Z"/>
  </g>
  <g id="bullet-char-template-10007" transform="scale(0.00048828125,-0.00048828125)">
   <path d="M 0,-2 C -7,14 -16,27 -25,37 L 356,567 C 262,823 215,952 215,954 215,979 228,992 255,992 264,992 276,990 289,987 310,991 331,999 354,1012 L 381,999 492,748 772,1049 836,1024 860,1049 C 881,1039 901,1025 922,1006 886,937 835,863 770,784 769,783 710,716 594,584 L 774,223 C 774,196 753,168 711,139 L 727,119 C 717,90 699,76 672,76 641,76 570,178 457,381 L 164,-76 C 142,-110 111,-127 72,-127 30,-127 9,-110 8,-76 1,-67 -2,-52 -2,-32 -2,-23 -1,-13 0,-2 Z"/>
  </g>
  <g id="bullet-char-template-10004" transform="scale(0.00048828125,-0.00048828125)">
   <path d="M 285,-33 C 182,-33 111,30 74,156 52,228 41,333 41,471 41,549 55,616 82,672 116,743 169,778 240,778 293,778 328,747 346,684 L 369,508 C 377,444 397,411 428,410 L 1163,1116 C 1174,1127 1196,1133 1229,1133 1271,1133 1292,1118 1292,1087 L 1292,965 C 1292,929 1282,901 1262,881 L 442,47 C 390,-6 338,-33 285,-33 Z"/>
  </g>
  <g id="bullet-char-template-9679" transform="scale(0.00048828125,-0.00048828125)">
   <path d="M 813,0 C 632,0 489,54 383,161 276,268 223,411 223,592 223,773 276,916 383,1023 489,1130 632,1184 813,1184 992,1184 1136,1130 1245,1023 1353,916 1407,772 1407,592 1407,412 1353,268 1245,161 1136,54 992,0 813,0 Z"/>
  </g>
  <g id="bullet-char-template-8226" transform="scale(0.00048828125,-0.00048828125)">
   <path d="M 346,457 C 273,457 209,483 155,535 101,586 74,649 74,723 74,796 101,859 155,911 209,963 273,989 346,989 419,989 480,963 531,910 582,859 608,796 608,723 608,648 583,586 532,535 482,483 420,457 346,457 Z"/>
  </g>
  <g id="bullet-char-template-8211" transform="scale(0.00048828125,-0.00048828125)">
   <path d="M -4,459 L 1135,459 1135,606 -4,606 -4,459 Z"/>
  </g>
  <g id="bullet-char-template-61548" transform="scale(0.00048828125,-0.00048828125)">
   <path d="M 173,740 C 173,903 231,1043 346,1159 462,1274 601,1332 765,1332 928,1332 1067,1274 1183,1159 1299,1043 1357,903 1357,740 1357,577 1299,437 1183,322 1067,206 928,148 765,148 601,148 462,206 346,322 231,437 173,577 173,740 Z"/>
  </g>
 </defs>
 <g class="Page">
  <g class="com.sun.star.drawing.CustomShape">
   <g id="id3">
    <rect class="BoundingBox" stroke="none" fill="none" x="22531" y="34351" width="5118" height="6705"/>
    <path fill="rgb(235, 199, 230)" stroke="none" d="M 23395,34369 L 23396,34369 C 23247,34369 23101,34408 22972,34482 22844,34557 22737,34664 22662,34792 22588,34921 22549,35067 22549,35216 L 22549,40190 22549,40190 C 22549,40339 22588,40485 22662,40614 22737,40742 22844,40849 22972,40924 23101,40998 23247,41037 23396,41037 L 26783,41037 26783,41037 C 26932,41037 27078,40998 27207,40924 27335,40849 27442,40742 27517,40614 27591,40485 27630,40339 27630,40190 L 27630,35215 27630,35216 27630,35216 C 27630,35067 27591,34921 27517,34792 27442,34664 27335,34557 27207,34482 27078,34408 26932,34369 26783,34369 L 23395,34369 Z"/>
    <path fill="none" stroke="rgb(100, 92, 187)" stroke-width="100" stroke-linejoin="round" stroke-dasharray="300" stroke-dashoffset="500" d="M 23395,34369 L 23396,34369 C 23247,34369 23101,34408 22972,34482 22844,34557 22737,34664 22662,34792 22588,34921 22549,35067 22549,35216 L 22549,40190 22549,40190 C 22549,40339 22588,40485 22662,40614 22737,40742 22844,40849 22972,40924 23101,40998 23247,41037 23396,41037 L 26783,41037 26783,41037 C 26932,41037 27078,40998 27207,40924 27335,40849 27442,40742 27517,40614 27591,40485 27630,40339 27630,40190 L 27630,35215 27630,35216 27630,35216 C 27630,35067 27591,34921 27517,34792 27442,34664 27335,34557 27207,34482 27078,34408 26932,34369 26783,34369 L 23395,34369 Z">
    <animate attributeName="stroke-dashoffset" from="500" to="0" dur="0.2s" repeatCount="indefinite"/>
    </path>
   </g>
  </g>
  <g class="com.sun.star.drawing.CustomShape">
   <g id="id4">
    <rect class="BoundingBox" stroke="none" fill="none" x="22812" y="35986" width="4552" height="1636"/>
    <path fill="none" stroke="rgb(42,96,153)" stroke-width="106" stroke-linejoin="round" d="M 27310,36196 C 27142,36321 26609,36320 26205,36347 25782,36324 25230,36314 25111,36199 24956,36060 24388,36050 23987,36039 23468,36051 23053,36066 22865,36196 L 22865,37413 C 23063,37278 23540,37277 23989,37259 24283,37268 24983,37278 25094,37414 25222,37536 25792,37546 26222,37568 26648,37543 27185,37534 27310,37413 L 27310,36196 Z"/>
   </g>
  </g>
  <g class="com.sun.star.drawing.CustomShape">
   <g id="id5">
    <rect class="BoundingBox" stroke="none" fill="none" x="22812" y="37787" width="4552" height="1636"/>
    <path fill="none" stroke="rgb(42,96,153)" stroke-width="106" stroke-linejoin="round" d="M 27310,37997 C 27142,38122 26609,38121 26205,38148 25782,38125 25230,38115 25111,38000 24956,37861 24388,37851 23987,37840 23468,37852 23053,37867 22865,37997 L 22865,39214 C 23063,39079 23540,39078 23989,39060 24283,39069 24983,39079 25094,39215 25222,39337 25792,39347 26222,39369 26648,39344 27185,39335 27310,39214 L 27310,37997 Z"/>
   </g>
  </g>
 </g>
</svg>