<?xml version="1.0" encoding="UTF-8"?>
<!DOCTYPE svg PUBLIC "-//W3C//DTD SVG 1.1//EN" "http://www.w3.org/Graphics/SVG/1.1/DTD/svg11.dtd">
<svg version="1.2" width="51.18mm" height="67.05mm" viewBox="39732 34351 5118 6705" preserveAspectRatio="xMidYMid" fill-rule="evenodd" stroke-width="28.222" stroke-linejoin="round" xmlns="http://www.w3.org/2000/svg" xmlns:ooo="http://xml.openoffice.org/svg/export" xmlns:xlink="http://www.w3.org/1999/xlink" xmlns:presentation="http://sun.com/xmlns/staroffice/presentation" xmlns:smil="http://www.w3.org/2001/SMIL20/" xmlns:anim="urn:oasis:names:tc:opendocument:xmlns:animation:1.0" xmlns:svg="urn:oasis:names:tc:opendocument:xmlns:svg-compatible:1.0" xml:space="preserve">
 <defs class="EmbeddedBulletChars">
  <g id="bullet-char-template-57356" transform="scale(0.00048828125,-0.00048828125)">
   <path d="M 580,1141 L 1163,571 580,0 -4,571 580,1141 Z"/>
  </g>
  <g id="bullet-char-template-57354" transform="scale(0.00048828125,-0.00048828125)">
   <path d="M 8,1128 L 1137,1128 1137,0 8,0 8,1128 Z"/>
  </g>
  <g id="bullet-char-template-10146" transform="scale(0.00048828125,-0.00048828125)">
   <path d="M 174,0 L 602,739 174,1481 1456,739 174,0 Z M 1358,739 L 309,1346 659,739 1358,739 Z"/>
  </g>
  <g id="bullet-char-template-10132" transform="scale(0.00048828125,-0.00048828125)">
   <path d="M 2015,739 L 1276,0 717,0 1260,543 174,543 174,936 1260,936 717,1481 1274,1481 2015,739 Z"/>
  </g>
  <g id="bullet-char-template-10007" transform="scale(0.00048828125,-0.00048828125)">
   <path d="M 0,-2 C -7,14 -16,27 -25,37 L 356,567 C 262,823 215,952 215,954 215,979 228,992 255,992 264,992 276,990 289,987 310,991 331,999 354,1012 L 381,999 492,748 772,1049 836,1024 860,1049 C 881,1039 901,1025 922,1006 886,937 835,863 770,784 769,783 710,716 594,584 L 774,223 C 774,196 753,168 711,139 L 727,119 C 717,90 699,76 672,76 641,76 570,178 457,381 L 164,-76 C 142,-110 111,-127 72,-127 30,-127 9,-110 8,-76 1,-67 -2,-52 -2,-32 -2,-23 -1,-13 0,-2 Z"/>
  </g>
  <g id="bullet-char-template-10004" transform="scale(0.00048828125,-0.00048828125)">
   <path d="M 285,-33 C 182,-33 111,30 74,156 52,228 41,333 41,471 41,549 55,616 82,672 116,743 169,778 240,778 293,778 328,747 346,684 L 369,508 C 377,444 397,411 428,410 L 1163,1116 C 1174,1127 1196,1133 1229,1133 1271,1133 1292,1118 1292,1087 L 1292,965 C 1292,929 1282,901 1262,881 L 442,47 C 390,-6 338,-33 285,-33 Z"/>
  </g>
  <g id="bullet-char-template-9679" transform="scale(0.00048828125,-0.00048828125)">
   <path d="M 813,0 C 632,0 489,54 383,161 276,268 223,411 223,592 223,773 276,916 383,1023 489,1130 632,1184 813,1184 992,1184 1136,1130 1245,1023 1353,916 1407,772 1407,592 1407,412 1353,268 1245,161 1136,54 992,0 813,0 Z"/>
  </g>
  <g id="bullet-char-template-8226" transform="scale(0.00048828125,-0.00048828125)">
   <path d="M 346,457 C 273,457 209,483 155,535 101,586 74,649 74,723 74,796 101,859 155,911 209,963 273,989 346,989 419,989 480,963 531,910 582,859 608,796 608,723 608,648 583,586 532,535 482,483 420,457 346,457 Z"/>
  </g>
  <g id="bullet-char-template-8211" transform="scale(0.00048828125,-0.00048828125)">
   <path d="M -4,459 L 1135,459 1135,606 -4,606 -4,459 Z"/>
  </g>
  <g id="bullet-char-template-61548" transform="scale(0.00048828125,-0.00048828125)">
   <path d="M 173,740 C 173,903 231,1043 346,1159 462,1274 601,1332 765,1332 928,1332 1067,1274 1183,1159 1299,1043 1357,903 1357,740 1357,577 1299,437 1183,322 1067,206 928,148 765,148 601,148 462,206 346,322 231,437 173,577 173,740 Z"/>
  </g>
 </defs>
 <g class="Page">
  <g class="com.sun.star.drawing.CustomShape">
   <g id="id3">
    <rect class="BoundingBox" stroke="none" fill="none" x="39732" y="34351" width="5118" height="6705"/>
    <path fill="rgb(235, 199, 230)" stroke="none" d="M 40596,34369 L 40597,34369 C 40448,34369 40302,34408 40173,34482 40045,34557 39938,34664 39863,34792 39789,34921 39750,35067 39750,35216 L 39750,40190 39750,40190 C 39750,40339 39789,40485 39863,40614 39938,40742 40045,40849 40173,40924 40302,40998 40448,41037 40597,41037 L 43984,41037 43984,41037 C 44133,41037 44279,40998 44408,40924 44536,40849 44643,40742 44718,40614 44792,40485 44831,40339 44831,40190 L 44831,35215 44831,35216 44831,35216 C 44831,35067 44792,34921 44718,34792 44643,34664 44536,34557 44408,34482 44279,34408 44133,34369 43984,34369 L 40596,34369 Z"/>
    <path fill="none" stroke="rgb(100, 92, 187)" stroke-width="100" stroke-linejoin="round" stroke-dasharray="300" stroke-dashoffset="500" d="M 40596,34369 L 40597,34369 C 40448,34369 40302,34408 40173,34482 40045,34557 39938,34664 39863,34792 39789,34921 39750,35067 39750,35216 L 39750,40190 39750,40190 C 39750,40339 39789,40485 39863,40614 39938,40742 40045,40849 40173,40924 40302,40998 40448,41037 40597,41037 L 43984,41037 43984,41037 C 44133,41037 44279,40998 44408,40924 44536,40849 44643,40742 44718,40614 44792,40485 44831,40339 44831,40190 L 44831,35215 44831,35216 44831,35216 C 44831,35067 44792,34921 44718,34792 44643,34664 44536,34557 44408,34482 44279,34408 44133,34369 43984,34369 L 40596,34369 Z">
    <animate attributeName="stroke-dashoffset" from="500" to="0" dur="0.2s" repeatCount="indefinite"/>
    </path>
   </g>
  </g>
  <g class="com.sun.star.drawing.CustomShape">
   <g id="id4">
    <rect class="BoundingBox" stroke="none" fill="none" x="40012" y="35986" width="4552" height="1636"/>
    <path fill="none" stroke="rgb(255,64,0)" stroke-width="106" stroke-linejoin="round" d="M 44510,36196 C 44342,36321 43809,36320 43405,36347 42982,36324 42430,36314 42311,36199 42156,36060 41588,36050 41187,36039 40668,36051 40253,36066 40065,36196 L 40065,37413 C 40263,37278 40740,37277 41189,37259 41483,37268 42183,37278 42294,37414 42422,37536 42992,37546 43422,37568 43848,37543 44385,37534 44510,37413 L 44510,36196 Z"/>
   </g>
  </g>
  <g class="com.sun.star.drawing.CustomShape">
   <g id="id5">
    <rect class="BoundingBox" stroke="none" fill="none" x="40012" y="37787" width="4552" height="1636"/>
    <path fill="none" stroke="rgb(255,64,0)" stroke-width="106" stroke-linejoin="round" d="M 44510,37997 C 44342,38122 43809,38121 43405,38148 42982,38125 42430,38115 42311,38000 42156,37861 41588,37851 41187,37840 40668,37852 40253,37867 40065,37997 L 40065,39214 C 40263,39079 40740,39078 41189,39060 41483,39069 42183,39079 42294,39215 42422,39337 42992,39347 43422,39369 43848,39344 44385,39335 44510,39214 L 44510,37997 Z"/>
   </g>
  </g>
 </g>
</svg>