<?xml version="1.0" encoding="UTF-8"?>
<!DOCTYPE svg PUBLIC "-//W3C//DTD SVG 1.1//EN" "http://www.w3.org/Graphics/SVG/1.1/DTD/svg11.dtd">
<svg version="1.2" width="51.18mm" height="67.05mm" viewBox="33933 34351 5118 6705" preserveAspectRatio="xMidYMid" fill-rule="evenodd" stroke-width="28.222" stroke-linejoin="round" xmlns="http://www.w3.org/2000/svg" xmlns:ooo="http://xml.openoffice.org/svg/export" xmlns:xlink="http://www.w3.org/1999/xlink" xmlns:presentation="http://sun.com/xmlns/staroffice/presentation" xmlns:smil="http://www.w3.org/2001/SMIL20/" xmlns:anim="urn:oasis:names:tc:opendocument:xmlns:animation:1.0" xmlns:svg="urn:oasis:names:tc:opendocument:xmlns:svg-compatible:1.0" xml:space="preserve">
 <defs class="EmbeddedBulletChars">
  <g id="bullet-char-template-57356" transform="scale(0.00048828125,-0.00048828125)">
   <path d="M 580,1141 L 1163,571 580,0 -4,571 580,1141 Z"/>
  </g>
  <g id="bullet-char-template-57354" transform="scale(0.00048828125,-0.00048828125)">
   <path d="M 8,1128 L 1137,1128 1137,0 8,0 8,1128 Z"/>
  </g>
  <g id="bullet-char-template-10146" transform="scale(0.00048828125,-0.00048828125)">
   <path d="M 174,0 L 602,739 174,1481 1456,739 174,0 Z M 1358,739 L 309,1346 659,739 1358,739 Z"/>
  </g>
  <g id="bullet-char-template-10132" transform="scale(0.00048828125,-0.00048828125)">
   <path d="M 2015,739 L 1276,0 717,0 1260,543 174,543 174,936 1260,936 717,1481 1274,1481 2015,739 Z"/>
  </g>
  <g id="bullet-char-template-10007" transform="scale(0.00048828125,-0.00048828125)">
   <path d="M 0,-2 C -7,14 -16,27 -25,37 L 356,567 C 262,823 215,952 215,954 215,979 228,992 255,992 264,992 276,990 289,987 310,991 331,999 354,1012 L 381,999 492,748 772,1049 836,1024 860,1049 C 881,1039 901,1025 922,1006 886,937 835,863 770,784 769,783 710,716 594,584 L 774,223 C 774,196 753,168 711,139 L 727,119 C 717,90 699,76 672,76 641,76 570,178 457,381 L 164,-76 C 142,-110 111,-127 72,-127 30,-127 9,-110 8,-76 1,-67 -2,-52 -2,-32 -2,-23 -1,-13 0,-2 Z"/>
  </g>
  <g id="bullet-char-template-10004" transform="scale(0.00048828125,-0.00048828125)">
   <path d="M 285,-33 C 182,-33 111,30 74,156 52,228 41,333 41,471 41,549 55,616 82,672 116,743 169,778 240,778 293,778 328,747 346,684 L 369,508 C 377,444 397,411 428,410 L 1163,1116 C 1174,1127 1196,1133 1229,1133 1271,1133 1292,1118 1292,1087 L 1292,965 C 1292,929 1282,901 1262,881 L 442,47 C 390,-6 338,-33 285,-33 Z"/>
  </g>
  <g id="bullet-char-template-9679" transform="scale(0.00048828125,-0.00048828125)">
   <path d="M 813,0 C 632,0 489,54 383,161 276,268 223,411 223,592 223,773 276,916 383,1023 489,1130 632,1184 813,1184 992,1184 1136,1130 1245,1023 1353,916 1407,772 1407,592 1407,412 1353,268 1245,161 1136,54 992,0 813,0 Z"/>
  </g>
  <g id="bullet-char-template-8226" transform="scale(0.00048828125,-0.00048828125)">
   <path d="M 346,457 C 273,457 209,483 155,535 101,586 74,649 74,723 74,796 101,859 155,911 209,963 273,989 346,989 419,989 480,963 531,910 582,859 608,796 608,723 608,648 583,586 532,535 482,483 420,457 346,457 Z"/>
  </g>
  <g id="bullet-char-template-8211" transform="scale(0.00048828125,-0.00048828125)">
   <path d="M -4,459 L 1135,459 1135,606 -4,606 -4,459 Z"/>
  </g>
  <g id="bullet-char-template-61548" transform="scale(0.00048828125,-0.00048828125)">
   <path d="M 173,740 C 173,903 231,1043 346,1159 462,1274 601,1332 765,1332 928,1332 1067,1274 1183,1159 1299,1043 1357,903 1357,740 1357,577 1299,437 1183,322 1067,206 928,148 765,148 601,148 462,206 346,322 231,437 173,577 173,740 Z"/>
  </g>
 </defs>
 <g class="Page">
  <g class="com.sun.star.drawing.CustomShape">
   <g id="id3">
    <rect class="BoundingBox" stroke="none" fill="none" x="33933" y="34351" width="5118" height="6705"/>
    <path fill="rgb(235, 199, 230)" stroke="none" d="M 34797,34369 L 34798,34369 C 34649,34369 34503,34408 34374,34482 34246,34557 34139,34664 34064,34792 33990,34921 33951,35067 33951,35216 L 33951,40190 33951,40190 C 33951,40339 33990,40485 34064,40614 34139,40742 34246,40849 34374,40924 34503,40998 34649,41037 34798,41037 L 38185,41037 38185,41037 C 38334,41037 38480,40998 38609,40924 38737,40849 38844,40742 38919,40614 38993,40485 39032,40339 39032,40190 L 39032,35215 39032,35216 39032,35216 C 39032,35067 38993,34921 38919,34792 38844,34664 38737,34557 38609,34482 38480,34408 38334,34369 38185,34369 L 34797,34369 Z"/>
    <path fill="none" stroke="rgb(100, 92, 187)" stroke-width="100" stroke-linejoin="round" stroke-dasharray="300" stroke-dashoffset="500" d="M 34797,34369 L 34798,34369 C 34649,34369 34503,34408 34374,34482 34246,34557 34139,34664 34064,34792 33990,34921 33951,35067 33951,35216 L 33951,40190 33951,40190 C 33951,40339 33990,40485 34064,40614 34139,40742 34246,40849 34374,40924 34503,40998 34649,41037 34798,41037 L 38185,41037 38185,41037 C 38334,41037 38480,40998 38609,40924 38737,40849 38844,40742 38919,40614 38993,40485 39032,40339 39032,40190 L 39032,35215 39032,35216 39032,35216 C 39032,35067 38993,34921 38919,34792 38844,34664 38737,34557 38609,34482 38480,34408 38334,34369 38185,34369 L 34797,34369 Z">
    <animate attributeName="stroke-dashoffset" from="500" to="0" dur="0.2s" repeatCount="indefinite"/>
    </path>
   </g>
  </g>
  <g class="com.sun.star.drawing.CustomShape">
   <g id="id4">
    <rect class="BoundingBox" stroke="none" fill="none" x="34214" y="35986" width="4552" height="1636"/>
    <path fill="rgb(42,96,153)" stroke="none" d="M 38712,36196 C 38544,36321 38011,36320 37607,36347 37184,36324 36632,36314 36513,36199 36358,36060 35790,36050 35389,36039 34870,36051 34455,36066 34267,36196 L 34267,37413 C 34465,37278 34942,37277 35391,37259 35685,37268 36385,37278 36496,37414 36624,37536 37194,37546 37624,37568 38050,37543 38587,37534 38712,37413 L 38712,36196 Z"/>
    <path fill="none" stroke="rgb(42,96,153)" stroke-width="106" stroke-linejoin="round" d="M 38712,36196 C 38544,36321 38011,36320 37607,36347 37184,36324 36632,36314 36513,36199 36358,36060 35790,36050 35389,36039 34870,36051 34455,36066 34267,36196 L 34267,37413 C 34465,37278 34942,37277 35391,37259 35685,37268 36385,37278 36496,37414 36624,37536 37194,37546 37624,37568 38050,37543 38587,37534 38712,37413 L 38712,36196 Z"/>
   </g>
  </g>
  <g class="com.sun.star.drawing.CustomShape">
   <g id="id5">
    <rect class="BoundingBox" stroke="none" fill="none" x="34214" y="37787" width="4552" height="1636"/>
    <path fill="rgb(42,96,153)" stroke="none" d="M 38712,37997 C 38544,38122 38011,38121 37607,38148 37184,38125 36632,38115 36513,38000 36358,37861 35790,37851 35389,37840 34870,37852 34455,37867 34267,37997 L 34267,39214 C 34465,39079 34942,39078 35391,39060 35685,39069 36385,39079 36496,39215 36624,39337 37194,39347 37624,39369 38050,39344 38587,39335 38712,39214 L 38712,37997 Z"/>
    <path fill="none" stroke="rgb(42,96,153)" stroke-width="106" stroke-linejoin="round" d="M 38712,37997 C 38544,38122 38011,38121 37607,38148 37184,38125 36632,38115 36513,38000 36358,37861 35790,37851 35389,37840 34870,37852 34455,37867 34267,37997 L 34267,39214 C 34465,39079 34942,39078 35391,39060 35685,39069 36385,39079 36496,39215 36624,39337 37194,39347 37624,39369 38050,39344 38587,39335 38712,39214 L 38712,37997 Z"/>
   </g>
  </g>
 </g>
</svg>