<?xml version="1.0" encoding="UTF-8"?>
<!DOCTYPE svg PUBLIC "-//W3C//DTD SVG 1.1//EN" "http://www.w3.org/Graphics/SVG/1.1/DTD/svg11.dtd">
<svg version="1.2" width="51.18mm" height="67.05mm" viewBox="28231 49551 5118 6705" preserveAspectRatio="xMidYMid" fill-rule="evenodd" stroke-width="28.222" stroke-linejoin="round" xmlns="http://www.w3.org/2000/svg" xmlns:ooo="http://xml.openoffice.org/svg/export" xmlns:xlink="http://www.w3.org/1999/xlink" xmlns:presentation="http://sun.com/xmlns/staroffice/presentation" xmlns:smil="http://www.w3.org/2001/SMIL20/" xmlns:anim="urn:oasis:names:tc:opendocument:xmlns:animation:1.0" xmlns:svg="urn:oasis:names:tc:opendocument:xmlns:svg-compatible:1.0" xml:space="preserve">
 <defs class="EmbeddedBulletChars">
  <g id="bullet-char-template-57356" transform="scale(0.00048828125,-0.00048828125)">
   <path d="M 580,1141 L 1163,571 580,0 -4,571 580,1141 Z"/>
  </g>
  <g id="bullet-char-template-57354" transform="scale(0.00048828125,-0.00048828125)">
   <path d="M 8,1128 L 1137,1128 1137,0 8,0 8,1128 Z"/>
  </g>
  <g id="bullet-char-template-10146" transform="scale(0.00048828125,-0.00048828125)">
   <path d="M 174,0 L 602,739 174,1481 1456,739 174,0 Z M 1358,739 L 309,1346 659,739 1358,739 Z"/>
  </g>
  <g id="bullet-char-template-10132" transform="scale(0.00048828125,-0.00048828125)">
   <path d="M 2015,739 L 1276,0 717,0 1260,543 174,543 174,936 1260,936 717,1481 1274,1481 2015,739 Z"/>
  </g>
  <g id="bullet-char-template-10007" transform="scale(0.00048828125,-0.00048828125)">
   <path d="M 0,-2 C -7,14 -16,27 -25,37 L 356,567 C 262,823 215,952 215,954 215,979 228,992 255,992 264,992 276,990 289,987 310,991 331,999 354,1012 L 381,999 492,748 772,1049 836,1024 860,1049 C 881,1039 901,1025 922,1006 886,937 835,863 770,784 769,783 710,716 594,584 L 774,223 C 774,196 753,168 711,139 L 727,119 C 717,90 699,76 672,76 641,76 570,178 457,381 L 164,-76 C 142,-110 111,-127 72,-127 30,-127 9,-110 8,-76 1,-67 -2,-52 -2,-32 -2,-23 -1,-13 0,-2 Z"/>
  </g>
  <g id="bullet-char-template-10004" transform="scale(0.00048828125,-0.00048828125)">
   <path d="M 285,-33 C 182,-33 111,30 74,156 52,228 41,333 41,471 41,549 55,616 82,672 116,743 169,778 240,778 293,778 328,747 346,684 L 369,508 C 377,444 397,411 428,410 L 1163,1116 C 1174,1127 1196,1133 1229,1133 1271,1133 1292,1118 1292,1087 L 1292,965 C 1292,929 1282,901 1262,881 L 442,47 C 390,-6 338,-33 285,-33 Z"/>
  </g>
  <g id="bullet-char-template-9679" transform="scale(0.00048828125,-0.00048828125)">
   <path d="M 813,0 C 632,0 489,54 383,161 276,268 223,411 223,592 223,773 276,916 383,1023 489,1130 632,1184 813,1184 992,1184 1136,1130 1245,1023 1353,916 1407,772 1407,592 1407,412 1353,268 1245,161 1136,54 992,0 813,0 Z"/>
  </g>
  <g id="bullet-char-template-8226" transform="scale(0.00048828125,-0.00048828125)">
   <path d="M 346,457 C 273,457 209,483 155,535 101,586 74,649 74,723 74,796 101,859 155,911 209,963 273,989 346,989 419,989 480,963 531,910 582,859 608,796 608,723 608,648 583,586 532,535 482,483 420,457 346,457 Z"/>
  </g>
  <g id="bullet-char-template-8211" transform="scale(0.00048828125,-0.00048828125)">
   <path d="M -4,459 L 1135,459 1135,606 -4,606 -4,459 Z"/>
  </g>
  <g id="bullet-char-template-61548" transform="scale(0.00048828125,-0.00048828125)">
   <path d="M 173,740 C 173,903 231,1043 346,1159 462,1274 601,1332 765,1332 928,1332 1067,1274 1183,1159 1299,1043 1357,903 1357,740 1357,577 1299,437 1183,322 1067,206 928,148 765,148 601,148 462,206 346,322 231,437 173,577 173,740 Z"/>
  </g>
 </defs>
 <g class="Page">
  <g class="com.sun.star.drawing.CustomShape">
   <g id="id3">
    <rect class="BoundingBox" stroke="none" fill="none" x="28231" y="49551" width="5118" height="6705"/>
    <path fill="rgb(235, 199, 230)" stroke="none" d="M 29095,49569 L 29096,49569 C 28947,49569 28801,49608 28672,49682 28544,49757 28437,49864 28362,49992 28288,50121 28249,50267 28249,50416 L 28249,55390 28249,55390 C 28249,55539 28288,55685 28362,55814 28437,55942 28544,56049 28672,56124 28801,56198 28947,56237 29096,56237 L 32483,56237 32483,56237 C 32632,56237 32778,56198 32907,56124 33035,56049 33142,55942 33217,55814 33291,55685 33330,55539 33330,55390 L 33330,50415 33330,50416 33330,50416 C 33330,50267 33291,50121 33217,49992 33142,49864 33035,49757 32907,49682 32778,49608 32632,49569 32483,49569 L 29095,49569 Z"/>
    <path fill="none" stroke="rgb(100, 92, 187)" stroke-width="100" stroke-linejoin="round" stroke-dasharray="300" stroke-dashoffset="500" d="M 29095,49569 L 29096,49569 C 28947,49569 28801,49608 28672,49682 28544,49757 28437,49864 28362,49992 28288,50121 28249,50267 28249,50416 L 28249,55390 28249,55390 C 28249,55539 28288,55685 28362,55814 28437,55942 28544,56049 28672,56124 28801,56198 28947,56237 29096,56237 L 32483,56237 32483,56237 C 32632,56237 32778,56198 32907,56124 33035,56049 33142,55942 33217,55814 33291,55685 33330,55539 33330,55390 L 33330,50415 33330,50416 33330,50416 C 33330,50267 33291,50121 33217,49992 33142,49864 33035,49757 32907,49682 32778,49608 32632,49569 32483,49569 L 29095,49569 Z">
    <animate attributeName="stroke-dashoffset" from="500" to="0" dur="0.2s" repeatCount="indefinite"/>
    </path>
   </g>
  </g>
  <g class="com.sun.star.drawing.CustomShape">
   <g id="id4">
    <rect class="BoundingBox" stroke="none" fill="none" x="28512" y="50306" width="4554" height="1696"/>
    <g>
     <defs>
      <pattern id="pattern1" x="28566" y="50359" width="4447" height="1590" patternUnits="userSpaceOnUse">
       <g transform="translate(-28566,-50359)">
        <line fill="rgb(42,96,153)" stroke="rgb(42,96,153)" x1="28805" y1="51068" x2="28805" y2="51238"/>
        <line fill="rgb(42,96,153)" stroke="rgb(42,96,153)" x1="29070" y1="50973" x2="29070" y2="51333"/>
        <line fill="rgb(42,96,153)" stroke="rgb(42,96,153)" x1="29335" y1="50878" x2="29335" y2="51428"/>
        <line fill="rgb(42,96,153)" stroke="rgb(42,96,153)" x1="29600" y1="50784" x2="29600" y2="51523"/>
        <line fill="rgb(42,96,153)" stroke="rgb(42,96,153)" x1="29865" y1="50689" x2="29865" y2="51618"/>
        <line fill="rgb(42,96,153)" stroke="rgb(42,96,153)" x1="30130" y1="50594" x2="30130" y2="51712"/>
        <line fill="rgb(42,96,153)" stroke="rgb(42,96,153)" x1="30395" y1="50500" x2="30395" y2="51807"/>
        <line fill="rgb(42,96,153)" stroke="rgb(42,96,153)" x1="30660" y1="50405" x2="30660" y2="51902"/>
        <line fill="rgb(42,96,153)" stroke="rgb(42,96,153)" x1="30925" y1="50408" x2="30925" y2="51899"/>
        <line fill="rgb(42,96,153)" stroke="rgb(42,96,153)" x1="31190" y1="50502" x2="31190" y2="51805"/>
        <line fill="rgb(42,96,153)" stroke="rgb(42,96,153)" x1="31455" y1="50597" x2="31455" y2="51710"/>
        <line fill="rgb(42,96,153)" stroke="rgb(42,96,153)" x1="31720" y1="50692" x2="31720" y2="51615"/>
        <line fill="rgb(42,96,153)" stroke="rgb(42,96,153)" x1="31985" y1="50786" x2="31985" y2="51520"/>
        <line fill="rgb(42,96,153)" stroke="rgb(42,96,153)" x1="32250" y1="50881" x2="32250" y2="51426"/>
        <line fill="rgb(42,96,153)" stroke="rgb(42,96,153)" x1="32515" y1="50975" x2="32515" y2="51331"/>
        <line fill="rgb(42,96,153)" stroke="rgb(42,96,153)" x1="32780" y1="51070" x2="32780" y2="51236"/>
       </g>
      </pattern>
     </defs>
     <path style="fill:url(#pattern1)" d="M 30789,50359 L 33012,51153 30789,51948 28566,51153 30789,50359 30789,50359 Z"/>
    </g>
    <path fill="none" stroke="rgb(42,96,153)" stroke-width="106" stroke-linejoin="round" d="M 30789,50359 L 33012,51153 30789,51948 28566,51153 30789,50359 30789,50359 Z"/>
   </g>
  </g>
  <g class="com.sun.star.drawing.CustomShape">
   <g id="id5">
    <rect class="BoundingBox" stroke="none" fill="none" x="28512" y="52207" width="4554" height="1696"/>
    <g>
     <defs>
      <pattern id="pattern2" x="28566" y="52260" width="4447" height="1590" patternUnits="userSpaceOnUse">
       <g transform="translate(-28566,-52260)">
        <line fill="rgb(42,96,153)" stroke="rgb(42,96,153)" x1="28805" y1="52969" x2="28805" y2="53139"/>
        <line fill="rgb(42,96,153)" stroke="rgb(42,96,153)" x1="29070" y1="52874" x2="29070" y2="53234"/>
        <line fill="rgb(42,96,153)" stroke="rgb(42,96,153)" x1="29335" y1="52779" x2="29335" y2="53329"/>
        <line fill="rgb(42,96,153)" stroke="rgb(42,96,153)" x1="29600" y1="52685" x2="29600" y2="53424"/>
        <line fill="rgb(42,96,153)" stroke="rgb(42,96,153)" x1="29865" y1="52590" x2="29865" y2="53519"/>
        <line fill="rgb(42,96,153)" stroke="rgb(42,96,153)" x1="30130" y1="52495" x2="30130" y2="53613"/>
        <line fill="rgb(42,96,153)" stroke="rgb(42,96,153)" x1="30395" y1="52401" x2="30395" y2="53708"/>
        <line fill="rgb(42,96,153)" stroke="rgb(42,96,153)" x1="30660" y1="52306" x2="30660" y2="53803"/>
        <line fill="rgb(42,96,153)" stroke="rgb(42,96,153)" x1="30925" y1="52309" x2="30925" y2="53800"/>
        <line fill="rgb(42,96,153)" stroke="rgb(42,96,153)" x1="31190" y1="52403" x2="31190" y2="53706"/>
        <line fill="rgb(42,96,153)" stroke="rgb(42,96,153)" x1="31455" y1="52498" x2="31455" y2="53611"/>
        <line fill="rgb(42,96,153)" stroke="rgb(42,96,153)" x1="31720" y1="52593" x2="31720" y2="53516"/>
        <line fill="rgb(42,96,153)" stroke="rgb(42,96,153)" x1="31985" y1="52687" x2="31985" y2="53421"/>
        <line fill="rgb(42,96,153)" stroke="rgb(42,96,153)" x1="32250" y1="52782" x2="32250" y2="53327"/>
        <line fill="rgb(42,96,153)" stroke="rgb(42,96,153)" x1="32515" y1="52876" x2="32515" y2="53232"/>
        <line fill="rgb(42,96,153)" stroke="rgb(42,96,153)" x1="32780" y1="52971" x2="32780" y2="53137"/>
       </g>
      </pattern>
     </defs>
     <path style="fill:url(#pattern2)" d="M 30789,52260 L 33012,53054 30789,53849 28566,53054 30789,52260 30789,52260 Z"/>
    </g>
    <path fill="none" stroke="rgb(42,96,153)" stroke-width="106" stroke-linejoin="round" d="M 30789,52260 L 33012,53054 30789,53849 28566,53054 30789,52260 30789,52260 Z"/>
   </g>
  </g>
  <g class="com.sun.star.drawing.CustomShape">
   <g id="id6">
    <rect class="BoundingBox" stroke="none" fill="none" x="28512" y="54008" width="4554" height="1696"/>
    <g>
     <defs>
      <pattern id="pattern3" x="28566" y="54061" width="4447" height="1590" patternUnits="userSpaceOnUse">
       <g transform="translate(-28566,-54061)">
        <line fill="rgb(42,96,153)" stroke="rgb(42,96,153)" x1="28805" y1="54770" x2="28805" y2="54940"/>
        <line fill="rgb(42,96,153)" stroke="rgb(42,96,153)" x1="29070" y1="54675" x2="29070" y2="55035"/>
        <line fill="rgb(42,96,153)" stroke="rgb(42,96,153)" x1="29335" y1="54580" x2="29335" y2="55130"/>
        <line fill="rgb(42,96,153)" stroke="rgb(42,96,153)" x1="29600" y1="54486" x2="29600" y2="55225"/>
        <line fill="rgb(42,96,153)" stroke="rgb(42,96,153)" x1="29865" y1="54391" x2="29865" y2="55320"/>
        <line fill="rgb(42,96,153)" stroke="rgb(42,96,153)" x1="30130" y1="54296" x2="30130" y2="55414"/>
        <line fill="rgb(42,96,153)" stroke="rgb(42,96,153)" x1="30395" y1="54202" x2="30395" y2="55509"/>
        <line fill="rgb(42,96,153)" stroke="rgb(42,96,153)" x1="30660" y1="54107" x2="30660" y2="55604"/>
        <line fill="rgb(42,96,153)" stroke="rgb(42,96,153)" x1="30925" y1="54110" x2="30925" y2="55601"/>
        <line fill="rgb(42,96,153)" stroke="rgb(42,96,153)" x1="31190" y1="54204" x2="31190" y2="55507"/>
        <line fill="rgb(42,96,153)" stroke="rgb(42,96,153)" x1="31455" y1="54299" x2="31455" y2="55412"/>
        <line fill="rgb(42,96,153)" stroke="rgb(42,96,153)" x1="31720" y1="54394" x2="31720" y2="55317"/>
        <line fill="rgb(42,96,153)" stroke="rgb(42,96,153)" x1="31985" y1="54488" x2="31985" y2="55222"/>
        <line fill="rgb(42,96,153)" stroke="rgb(42,96,153)" x1="32250" y1="54583" x2="32250" y2="55128"/>
        <line fill="rgb(42,96,153)" stroke="rgb(42,96,153)" x1="32515" y1="54677" x2="32515" y2="55033"/>
        <line fill="rgb(42,96,153)" stroke="rgb(42,96,153)" x1="32780" y1="54772" x2="32780" y2="54938"/>
       </g>
      </pattern>
     </defs>
     <path style="fill:url(#pattern3)" d="M 30789,54061 L 33012,54855 30789,55650 28566,54855 30789,54061 30789,54061 Z"/>
    </g>
    <path fill="none" stroke="rgb(42,96,153)" stroke-width="106" stroke-linejoin="round" d="M 30789,54061 L 33012,54855 30789,55650 28566,54855 30789,54061 30789,54061 Z"/>
   </g>
  </g>
 </g>
</svg>