<?xml version="1.0" encoding="UTF-8"?>
<!DOCTYPE svg PUBLIC "-//W3C//DTD SVG 1.1//EN" "http://www.w3.org/Graphics/SVG/1.1/DTD/svg11.dtd">
<svg version="1.2" width="51.18mm" height="67.05mm" viewBox="5431 64151 5118 6705" preserveAspectRatio="xMidYMid" fill-rule="evenodd" stroke-width="28.222" stroke-linejoin="round" xmlns="http://www.w3.org/2000/svg" xmlns:ooo="http://xml.openoffice.org/svg/export" xmlns:xlink="http://www.w3.org/1999/xlink" xmlns:presentation="http://sun.com/xmlns/staroffice/presentation" xmlns:smil="http://www.w3.org/2001/SMIL20/" xmlns:anim="urn:oasis:names:tc:opendocument:xmlns:animation:1.0" xmlns:svg="urn:oasis:names:tc:opendocument:xmlns:svg-compatible:1.0" xml:space="preserve">
 <defs class="EmbeddedBulletChars">
  <g id="bullet-char-template-57356" transform="scale(0.00048828125,-0.00048828125)">
   <path d="M 580,1141 L 1163,571 580,0 -4,571 580,1141 Z"/>
  </g>
  <g id="bullet-char-template-57354" transform="scale(0.00048828125,-0.00048828125)">
   <path d="M 8,1128 L 1137,1128 1137,0 8,0 8,1128 Z"/>
  </g>
  <g id="bullet-char-template-10146" transform="scale(0.00048828125,-0.00048828125)">
   <path d="M 174,0 L 602,739 174,1481 1456,739 174,0 Z M 1358,739 L 309,1346 659,739 1358,739 Z"/>
  </g>
  <g id="bullet-char-template-10132" transform="scale(0.00048828125,-0.00048828125)">
   <path d="M 2015,739 L 1276,0 717,0 1260,543 174,543 174,936 1260,936 717,1481 1274,1481 2015,739 Z"/>
  </g>
  <g id="bullet-char-template-10007" transform="scale(0.00048828125,-0.00048828125)">
   <path d="M 0,-2 C -7,14 -16,27 -25,37 L 356,567 C 262,823 215,952 215,954 215,979 228,992 255,992 264,992 276,990 289,987 310,991 331,999 354,1012 L 381,999 492,748 772,1049 836,1024 860,1049 C 881,1039 901,1025 922,1006 886,937 835,863 770,784 769,783 710,716 594,584 L 774,223 C 774,196 753,168 711,139 L 727,119 C 717,90 699,76 672,76 641,76 570,178 457,381 L 164,-76 C 142,-110 111,-127 72,-127 30,-127 9,-110 8,-76 1,-67 -2,-52 -2,-32 -2,-23 -1,-13 0,-2 Z"/>
  </g>
  <g id="bullet-char-template-10004" transform="scale(0.00048828125,-0.00048828125)">
   <path d="M 285,-33 C 182,-33 111,30 74,156 52,228 41,333 41,471 41,549 55,616 82,672 116,743 169,778 240,778 293,778 328,747 346,684 L 369,508 C 377,444 397,411 428,410 L 1163,1116 C 1174,1127 1196,1133 1229,1133 1271,1133 1292,1118 1292,1087 L 1292,965 C 1292,929 1282,901 1262,881 L 442,47 C 390,-6 338,-33 285,-33 Z"/>
  </g>
  <g id="bullet-char-template-9679" transform="scale(0.00048828125,-0.00048828125)">
   <path d="M 813,0 C 632,0 489,54 383,161 276,268 223,411 223,592 223,773 276,916 383,1023 489,1130 632,1184 813,1184 992,1184 1136,1130 1245,1023 1353,916 1407,772 1407,592 1407,412 1353,268 1245,161 1136,54 992,0 813,0 Z"/>
  </g>
  <g id="bullet-char-template-8226" transform="scale(0.00048828125,-0.00048828125)">
   <path d="M 346,457 C 273,457 209,483 155,535 101,586 74,649 74,723 74,796 101,859 155,911 209,963 273,989 346,989 419,989 480,963 531,910 582,859 608,796 608,723 608,648 583,586 532,535 482,483 420,457 346,457 Z"/>
  </g>
  <g id="bullet-char-template-8211" transform="scale(0.00048828125,-0.00048828125)">
   <path d="M -4,459 L 1135,459 1135,606 -4,606 -4,459 Z"/>
  </g>
  <g id="bullet-char-template-61548" transform="scale(0.00048828125,-0.00048828125)">
   <path d="M 173,740 C 173,903 231,1043 346,1159 462,1274 601,1332 765,1332 928,1332 1067,1274 1183,1159 1299,1043 1357,903 1357,740 1357,577 1299,437 1183,322 1067,206 928,148 765,148 601,148 462,206 346,322 231,437 173,577 173,740 Z"/>
  </g>
 </defs>
 <g class="Page">
  <g class="com.sun.star.drawing.CustomShape">
   <g id="id3">
    <rect class="BoundingBox" stroke="none" fill="none" x="5431" y="64151" width="5118" height="6705"/>
    <path fill="rgb(235, 199, 230)" stroke="none" d="M 6295,64169 L 6296,64169 C 6147,64169 6001,64208 5872,64282 5744,64357 5637,64464 5562,64592 5488,64721 5449,64867 5449,65016 L 5449,69990 5449,69990 C 5449,70139 5488,70285 5562,70414 5637,70542 5744,70649 5872,70724 6001,70798 6147,70837 6296,70837 L 9683,70837 9683,70837 C 9832,70837 9978,70798 10107,70724 10235,70649 10342,70542 10417,70414 10491,70285 10530,70139 10530,69990 L 10530,65015 10530,65016 10530,65016 C 10530,64867 10491,64721 10417,64592 10342,64464 10235,64357 10107,64282 9978,64208 9832,64169 9683,64169 L 6295,64169 Z"/>
    <path fill="none" stroke="rgb(100, 92, 187)" stroke-width="100" stroke-linejoin="round" stroke-dasharray="300" stroke-dashoffset="500" d="M 6295,64169 L 6296,64169 C 6147,64169 6001,64208 5872,64282 5744,64357 5637,64464 5562,64592 5488,64721 5449,64867 5449,65016 L 5449,69990 5449,69990 C 5449,70139 5488,70285 5562,70414 5637,70542 5744,70649 5872,70724 6001,70798 6147,70837 6296,70837 L 9683,70837 9683,70837 C 9832,70837 9978,70798 10107,70724 10235,70649 10342,70542 10417,70414 10491,70285 10530,70139 10530,69990 L 10530,65015 10530,65016 10530,65016 C 10530,64867 10491,64721 10417,64592 10342,64464 10235,64357 10107,64282 9978,64208 9832,64169 9683,64169 L 6295,64169 Z">
    <animate attributeName="stroke-dashoffset" from="500" to="0" dur="0.2s" repeatCount="indefinite"/>
    </path>
   </g>
  </g>
  <g class="com.sun.star.drawing.CustomShape">
   <g id="id4">
    <rect class="BoundingBox" stroke="none" fill="none" x="5713" y="64756" width="4553" height="1696"/>
    <path fill="none" stroke="rgb(129,212,26)" stroke-width="106" stroke-linejoin="round" d="M 6560,64809 L 6561,64809 C 6421,64809 6284,64846 6163,64915 6042,64985 5942,65085 5872,65206 5803,65327 5766,65464 5766,65604 L 5766,65603 5766,65604 C 5766,65743 5803,65880 5872,66001 5942,66122 6042,66222 6163,66292 6284,66361 6421,66398 6561,66398 L 9417,66398 9418,66398 C 9557,66398 9694,66361 9815,66292 9936,66222 10036,66122 10106,66001 10175,65880 10212,65743 10212,65604 L 10212,65603 10212,65604 10212,65604 C 10212,65464 10175,65327 10106,65206 10036,65085 9936,64985 9815,64915 9694,64846 9557,64809 9418,64809 L 6560,64809 Z"/>
   </g>
  </g>
  <g class="com.sun.star.drawing.CustomShape">
   <g id="id5">
    <rect class="BoundingBox" stroke="none" fill="none" x="5713" y="66757" width="4553" height="1696"/>
    <path fill="none" stroke="rgb(129,212,26)" stroke-width="106" stroke-linejoin="round" d="M 6560,66810 L 6561,66810 C 6421,66810 6284,66847 6163,66916 6042,66986 5942,67086 5872,67207 5803,67328 5766,67465 5766,67605 L 5766,67604 5766,67605 C 5766,67744 5803,67881 5872,68002 5942,68123 6042,68223 6163,68293 6284,68362 6421,68399 6561,68399 L 9417,68399 9418,68399 C 9557,68399 9694,68362 9815,68293 9936,68223 10036,68123 10106,68002 10175,67881 10212,67744 10212,67605 L 10212,67604 10212,67605 10212,67605 C 10212,67465 10175,67328 10106,67207 10036,67086 9936,66986 9815,66916 9694,66847 9557,66810 9418,66810 L 6560,66810 Z"/>
   </g>
  </g>
  <g class="com.sun.star.drawing.CustomShape">
   <g id="id6">
    <rect class="BoundingBox" stroke="none" fill="none" x="5713" y="68758" width="4553" height="1696"/>
    <path fill="none" stroke="rgb(129,212,26)" stroke-width="106" stroke-linejoin="round" d="M 6560,68811 L 6561,68811 C 6421,68811 6284,68848 6163,68917 6042,68987 5942,69087 5872,69208 5803,69329 5766,69466 5766,69606 L 5766,69605 5766,69606 C 5766,69745 5803,69882 5872,70003 5942,70124 6042,70224 6163,70294 6284,70363 6421,70400 6561,70400 L 9417,70400 9418,70400 C 9557,70400 9694,70363 9815,70294 9936,70224 10036,70124 10106,70003 10175,69882 10212,69745 10212,69606 L 10212,69605 10212,69606 10212,69606 C 10212,69466 10175,69329 10106,69208 10036,69087 9936,68987 9815,68917 9694,68848 9557,68811 9418,68811 L 6560,68811 Z"/>
   </g>
  </g>
 </g>
</svg>