<?xml version="1.0" encoding="UTF-8"?>
<!DOCTYPE svg PUBLIC "-//W3C//DTD SVG 1.1//EN" "http://www.w3.org/Graphics/SVG/1.1/DTD/svg11.dtd">
<svg version="1.2" width="51.18mm" height="67.05mm" viewBox="39733 64151 5118 6705" preserveAspectRatio="xMidYMid" fill-rule="evenodd" stroke-width="28.222" stroke-linejoin="round" xmlns="http://www.w3.org/2000/svg" xmlns:ooo="http://xml.openoffice.org/svg/export" xmlns:xlink="http://www.w3.org/1999/xlink" xmlns:presentation="http://sun.com/xmlns/staroffice/presentation" xmlns:smil="http://www.w3.org/2001/SMIL20/" xmlns:anim="urn:oasis:names:tc:opendocument:xmlns:animation:1.0" xmlns:svg="urn:oasis:names:tc:opendocument:xmlns:svg-compatible:1.0" xml:space="preserve">
 <defs class="EmbeddedBulletChars">
  <g id="bullet-char-template-57356" transform="scale(0.00048828125,-0.00048828125)">
   <path d="M 580,1141 L 1163,571 580,0 -4,571 580,1141 Z"/>
  </g>
  <g id="bullet-char-template-57354" transform="scale(0.00048828125,-0.00048828125)">
   <path d="M 8,1128 L 1137,1128 1137,0 8,0 8,1128 Z"/>
  </g>
  <g id="bullet-char-template-10146" transform="scale(0.00048828125,-0.00048828125)">
   <path d="M 174,0 L 602,739 174,1481 1456,739 174,0 Z M 1358,739 L 309,1346 659,739 1358,739 Z"/>
  </g>
  <g id="bullet-char-template-10132" transform="scale(0.00048828125,-0.00048828125)">
   <path d="M 2015,739 L 1276,0 717,0 1260,543 174,543 174,936 1260,936 717,1481 1274,1481 2015,739 Z"/>
  </g>
  <g id="bullet-char-template-10007" transform="scale(0.00048828125,-0.00048828125)">
   <path d="M 0,-2 C -7,14 -16,27 -25,37 L 356,567 C 262,823 215,952 215,954 215,979 228,992 255,992 264,992 276,990 289,987 310,991 331,999 354,1012 L 381,999 492,748 772,1049 836,1024 860,1049 C 881,1039 901,1025 922,1006 886,937 835,863 770,784 769,783 710,716 594,584 L 774,223 C 774,196 753,168 711,139 L 727,119 C 717,90 699,76 672,76 641,76 570,178 457,381 L 164,-76 C 142,-110 111,-127 72,-127 30,-127 9,-110 8,-76 1,-67 -2,-52 -2,-32 -2,-23 -1,-13 0,-2 Z"/>
  </g>
  <g id="bullet-char-template-10004" transform="scale(0.00048828125,-0.00048828125)">
   <path d="M 285,-33 C 182,-33 111,30 74,156 52,228 41,333 41,471 41,549 55,616 82,672 116,743 169,778 240,778 293,778 328,747 346,684 L 369,508 C 377,444 397,411 428,410 L 1163,1116 C 1174,1127 1196,1133 1229,1133 1271,1133 1292,1118 1292,1087 L 1292,965 C 1292,929 1282,901 1262,881 L 442,47 C 390,-6 338,-33 285,-33 Z"/>
  </g>
  <g id="bullet-char-template-9679" transform="scale(0.00048828125,-0.00048828125)">
   <path d="M 813,0 C 632,0 489,54 383,161 276,268 223,411 223,592 223,773 276,916 383,1023 489,1130 632,1184 813,1184 992,1184 1136,1130 1245,1023 1353,916 1407,772 1407,592 1407,412 1353,268 1245,161 1136,54 992,0 813,0 Z"/>
  </g>
  <g id="bullet-char-template-8226" transform="scale(0.00048828125,-0.00048828125)">
   <path d="M 346,457 C 273,457 209,483 155,535 101,586 74,649 74,723 74,796 101,859 155,911 209,963 273,989 346,989 419,989 480,963 531,910 582,859 608,796 608,723 608,648 583,586 532,535 482,483 420,457 346,457 Z"/>
  </g>
  <g id="bullet-char-template-8211" transform="scale(0.00048828125,-0.00048828125)">
   <path d="M -4,459 L 1135,459 1135,606 -4,606 -4,459 Z"/>
  </g>
  <g id="bullet-char-template-61548" transform="scale(0.00048828125,-0.00048828125)">
   <path d="M 173,740 C 173,903 231,1043 346,1159 462,1274 601,1332 765,1332 928,1332 1067,1274 1183,1159 1299,1043 1357,903 1357,740 1357,577 1299,437 1183,322 1067,206 928,148 765,148 601,148 462,206 346,322 231,437 173,577 173,740 Z"/>
  </g>
 </defs>
 <g class="Page">
  <g class="com.sun.star.drawing.CustomShape">
   <g id="id3">
    <rect class="BoundingBox" stroke="none" fill="none" x="39733" y="64151" width="5118" height="6705"/>
    <path fill="rgb(235, 199, 230)" stroke="none" d="M 40597,64169 L 40598,64169 C 40449,64169 40303,64208 40174,64282 40046,64357 39939,64464 39864,64592 39790,64721 39751,64867 39751,65016 L 39751,69990 39751,69990 C 39751,70139 39790,70285 39864,70414 39939,70542 40046,70649 40174,70724 40303,70798 40449,70837 40598,70837 L 43985,70837 43985,70837 C 44134,70837 44280,70798 44409,70724 44537,70649 44644,70542 44719,70414 44793,70285 44832,70139 44832,69990 L 44832,65015 44832,65016 44832,65016 C 44832,64867 44793,64721 44719,64592 44644,64464 44537,64357 44409,64282 44280,64208 44134,64169 43985,64169 L 40597,64169 Z"/>
    <path fill="none" stroke="rgb(100, 92, 187)" stroke-width="100" stroke-linejoin="round" stroke-dasharray="300" stroke-dashoffset="500" d="M 40597,64169 L 40598,64169 C 40449,64169 40303,64208 40174,64282 40046,64357 39939,64464 39864,64592 39790,64721 39751,64867 39751,65016 L 39751,69990 39751,69990 C 39751,70139 39790,70285 39864,70414 39939,70542 40046,70649 40174,70724 40303,70798 40449,70837 40598,70837 L 43985,70837 43985,70837 C 44134,70837 44280,70798 44409,70724 44537,70649 44644,70542 44719,70414 44793,70285 44832,70139 44832,69990 L 44832,65015 44832,65016 44832,65016 C 44832,64867 44793,64721 44719,64592 44644,64464 44537,64357 44409,64282 44280,64208 44134,64169 43985,64169 L 40597,64169 Z">
    <animate attributeName="stroke-dashoffset" from="500" to="0" dur="0.2s" repeatCount="indefinite"/>
    </path>
   </g>
  </g>
  <g class="com.sun.star.drawing.CustomShape">
   <g id="id4">
    <rect class="BoundingBox" stroke="none" fill="none" x="40012" y="64756" width="4554" height="1696"/>
    <path fill="none" stroke="rgb(255,64,0)" stroke-width="106" stroke-linejoin="round" d="M 40860,64809 L 40860,64809 C 40721,64809 40584,64846 40463,64915 40342,64985 40242,65085 40172,65206 40103,65327 40066,65464 40066,65604 L 40066,65603 40066,65604 C 40066,65743 40103,65880 40172,66001 40242,66122 40342,66222 40463,66292 40584,66361 40721,66398 40860,66398 L 43717,66398 43717,66398 C 43857,66398 43994,66361 44115,66292 44236,66222 44336,66122 44406,66001 44475,65880 44512,65743 44512,65604 L 44512,65603 44512,65604 44512,65604 C 44512,65464 44475,65327 44406,65206 44336,65085 44236,64985 44115,64915 43994,64846 43857,64809 43717,64809 L 40860,64809 Z"/>
   </g>
  </g>
  <g class="com.sun.star.drawing.CustomShape">
   <g id="id5">
    <rect class="BoundingBox" stroke="none" fill="none" x="40012" y="66757" width="4554" height="1696"/>
    <path fill="none" stroke="rgb(255,64,0)" stroke-width="106" stroke-linejoin="round" d="M 40860,66810 L 40860,66810 C 40721,66810 40584,66847 40463,66916 40342,66986 40242,67086 40172,67207 40103,67328 40066,67465 40066,67605 L 40066,67604 40066,67605 C 40066,67744 40103,67881 40172,68002 40242,68123 40342,68223 40463,68293 40584,68362 40721,68399 40860,68399 L 43717,68399 43717,68399 C 43857,68399 43994,68362 44115,68293 44236,68223 44336,68123 44406,68002 44475,67881 44512,67744 44512,67605 L 44512,67604 44512,67605 44512,67605 C 44512,67465 44475,67328 44406,67207 44336,67086 44236,66986 44115,66916 43994,66847 43857,66810 43717,66810 L 40860,66810 Z"/>
   </g>
  </g>
  <g class="com.sun.star.drawing.CustomShape">
   <g id="id6">
    <rect class="BoundingBox" stroke="none" fill="none" x="40012" y="68758" width="4554" height="1696"/>
    <path fill="none" stroke="rgb(255,64,0)" stroke-width="106" stroke-linejoin="round" d="M 40860,68811 L 40860,68811 C 40721,68811 40584,68848 40463,68917 40342,68987 40242,69087 40172,69208 40103,69329 40066,69466 40066,69606 L 40066,69605 40066,69606 C 40066,69745 40103,69882 40172,70003 40242,70124 40342,70224 40463,70294 40584,70363 40721,70400 40860,70400 L 43717,70400 43717,70400 C 43857,70400 43994,70363 44115,70294 44236,70224 44336,70124 44406,70003 44475,69882 44512,69745 44512,69606 L 44512,69605 44512,69606 44512,69606 C 44512,69466 44475,69329 44406,69208 44336,69087 44236,68987 44115,68917 43994,68848 43857,68811 43717,68811 L 40860,68811 Z"/>
   </g>
  </g>
 </g>
</svg>