<?xml version="1.0" encoding="UTF-8"?>
<!DOCTYPE svg PUBLIC "-//W3C//DTD SVG 1.1//EN" "http://www.w3.org/Graphics/SVG/1.1/DTD/svg11.dtd">
<svg version="1.2" width="51.18mm" height="67.05mm" viewBox="51135 64151 5118 6705" preserveAspectRatio="xMidYMid" fill-rule="evenodd" stroke-width="28.222" stroke-linejoin="round" xmlns="http://www.w3.org/2000/svg" xmlns:ooo="http://xml.openoffice.org/svg/export" xmlns:xlink="http://www.w3.org/1999/xlink" xmlns:presentation="http://sun.com/xmlns/staroffice/presentation" xmlns:smil="http://www.w3.org/2001/SMIL20/" xmlns:anim="urn:oasis:names:tc:opendocument:xmlns:animation:1.0" xmlns:svg="urn:oasis:names:tc:opendocument:xmlns:svg-compatible:1.0" xml:space="preserve">
 <defs class="EmbeddedBulletChars">
  <g id="bullet-char-template-57356" transform="scale(0.00048828125,-0.00048828125)">
   <path d="M 580,1141 L 1163,571 580,0 -4,571 580,1141 Z"/>
  </g>
  <g id="bullet-char-template-57354" transform="scale(0.00048828125,-0.00048828125)">
   <path d="M 8,1128 L 1137,1128 1137,0 8,0 8,1128 Z"/>
  </g>
  <g id="bullet-char-template-10146" transform="scale(0.00048828125,-0.00048828125)">
   <path d="M 174,0 L 602,739 174,1481 1456,739 174,0 Z M 1358,739 L 309,1346 659,739 1358,739 Z"/>
  </g>
  <g id="bullet-char-template-10132" transform="scale(0.00048828125,-0.00048828125)">
   <path d="M 2015,739 L 1276,0 717,0 1260,543 174,543 174,936 1260,936 717,1481 1274,1481 2015,739 Z"/>
  </g>
  <g id="bullet-char-template-10007" transform="scale(0.00048828125,-0.00048828125)">
   <path d="M 0,-2 C -7,14 -16,27 -25,37 L 356,567 C 262,823 215,952 215,954 215,979 228,992 255,992 264,992 276,990 289,987 310,991 331,999 354,1012 L 381,999 492,748 772,1049 836,1024 860,1049 C 881,1039 901,1025 922,1006 886,937 835,863 770,784 769,783 710,716 594,584 L 774,223 C 774,196 753,168 711,139 L 727,119 C 717,90 699,76 672,76 641,76 570,178 457,381 L 164,-76 C 142,-110 111,-127 72,-127 30,-127 9,-110 8,-76 1,-67 -2,-52 -2,-32 -2,-23 -1,-13 0,-2 Z"/>
  </g>
  <g id="bullet-char-template-10004" transform="scale(0.00048828125,-0.00048828125)">
   <path d="M 285,-33 C 182,-33 111,30 74,156 52,228 41,333 41,471 41,549 55,616 82,672 116,743 169,778 240,778 293,778 328,747 346,684 L 369,508 C 377,444 397,411 428,410 L 1163,1116 C 1174,1127 1196,1133 1229,1133 1271,1133 1292,1118 1292,1087 L 1292,965 C 1292,929 1282,901 1262,881 L 442,47 C 390,-6 338,-33 285,-33 Z"/>
  </g>
  <g id="bullet-char-template-9679" transform="scale(0.00048828125,-0.00048828125)">
   <path d="M 813,0 C 632,0 489,54 383,161 276,268 223,411 223,592 223,773 276,916 383,1023 489,1130 632,1184 813,1184 992,1184 1136,1130 1245,1023 1353,916 1407,772 1407,592 1407,412 1353,268 1245,161 1136,54 992,0 813,0 Z"/>
  </g>
  <g id="bullet-char-template-8226" transform="scale(0.00048828125,-0.00048828125)">
   <path d="M 346,457 C 273,457 209,483 155,535 101,586 74,649 74,723 74,796 101,859 155,911 209,963 273,989 346,989 419,989 480,963 531,910 582,859 608,796 608,723 608,648 583,586 532,535 482,483 420,457 346,457 Z"/>
  </g>
  <g id="bullet-char-template-8211" transform="scale(0.00048828125,-0.00048828125)">
   <path d="M -4,459 L 1135,459 1135,606 -4,606 -4,459 Z"/>
  </g>
  <g id="bullet-char-template-61548" transform="scale(0.00048828125,-0.00048828125)">
   <path d="M 173,740 C 173,903 231,1043 346,1159 462,1274 601,1332 765,1332 928,1332 1067,1274 1183,1159 1299,1043 1357,903 1357,740 1357,577 1299,437 1183,322 1067,206 928,148 765,148 601,148 462,206 346,322 231,437 173,577 173,740 Z"/>
  </g>
 </defs>
 <g class="Page">
  <g class="com.sun.star.drawing.CustomShape">
   <g id="id3">
    <rect class="BoundingBox" stroke="none" fill="none" x="51135" y="64151" width="5118" height="6705"/>
    <path fill="rgb(235, 199, 230)" stroke="none" d="M 51999,64169 L 52000,64169 C 51851,64169 51705,64208 51576,64282 51448,64357 51341,64464 51266,64592 51192,64721 51153,64867 51153,65016 L 51153,69990 51153,69990 C 51153,70139 51192,70285 51266,70414 51341,70542 51448,70649 51576,70724 51705,70798 51851,70837 52000,70837 L 55387,70837 55387,70837 C 55536,70837 55682,70798 55811,70724 55939,70649 56046,70542 56121,70414 56195,70285 56234,70139 56234,69990 L 56234,65015 56234,65016 56234,65016 C 56234,64867 56195,64721 56121,64592 56046,64464 55939,64357 55811,64282 55682,64208 55536,64169 55387,64169 L 51999,64169 Z"/>
    <path fill="none" stroke="rgb(100, 92, 187)" stroke-width="100" stroke-linejoin="round" stroke-dasharray="300" stroke-dashoffset="500" d="M 51999,64169 L 52000,64169 C 51851,64169 51705,64208 51576,64282 51448,64357 51341,64464 51266,64592 51192,64721 51153,64867 51153,65016 L 51153,69990 51153,69990 C 51153,70139 51192,70285 51266,70414 51341,70542 51448,70649 51576,70724 51705,70798 51851,70837 52000,70837 L 55387,70837 55387,70837 C 55536,70837 55682,70798 55811,70724 55939,70649 56046,70542 56121,70414 56195,70285 56234,70139 56234,69990 L 56234,65015 56234,65016 56234,65016 C 56234,64867 56195,64721 56121,64592 56046,64464 55939,64357 55811,64282 55682,64208 55536,64169 55387,64169 L 51999,64169 Z">
    <animate attributeName="stroke-dashoffset" from="500" to="0" dur="0.2s" repeatCount="indefinite"/>
    </path>
   </g>
  </g>
  <g class="com.sun.star.drawing.CustomShape">
   <g id="id4">
    <rect class="BoundingBox" stroke="none" fill="none" x="51415" y="64756" width="4553" height="1696"/>
    <path fill="rgb(255,64,0)" stroke="none" d="M 52262,64809 L 52263,64809 C 52123,64809 51986,64846 51865,64915 51744,64985 51644,65085 51574,65206 51505,65327 51468,65464 51468,65604 L 51468,65603 51468,65604 C 51468,65743 51505,65880 51574,66001 51644,66122 51744,66222 51865,66292 51986,66361 52123,66398 52263,66398 L 55119,66398 55120,66398 C 55259,66398 55396,66361 55517,66292 55638,66222 55738,66122 55808,66001 55877,65880 55914,65743 55914,65604 L 55914,65603 55914,65604 55914,65604 C 55914,65464 55877,65327 55808,65206 55738,65085 55638,64985 55517,64915 55396,64846 55259,64809 55120,64809 L 52262,64809 Z"/>
    <path fill="none" stroke="rgb(255,64,0)" stroke-width="106" stroke-linejoin="round" d="M 52262,64809 L 52263,64809 C 52123,64809 51986,64846 51865,64915 51744,64985 51644,65085 51574,65206 51505,65327 51468,65464 51468,65604 L 51468,65603 51468,65604 C 51468,65743 51505,65880 51574,66001 51644,66122 51744,66222 51865,66292 51986,66361 52123,66398 52263,66398 L 55119,66398 55120,66398 C 55259,66398 55396,66361 55517,66292 55638,66222 55738,66122 55808,66001 55877,65880 55914,65743 55914,65604 L 55914,65603 55914,65604 55914,65604 C 55914,65464 55877,65327 55808,65206 55738,65085 55638,64985 55517,64915 55396,64846 55259,64809 55120,64809 L 52262,64809 Z"/>
   </g>
  </g>
  <g class="com.sun.star.drawing.CustomShape">
   <g id="id5">
    <rect class="BoundingBox" stroke="none" fill="none" x="51415" y="66757" width="4553" height="1696"/>
    <path fill="rgb(255,64,0)" stroke="none" d="M 52262,66810 L 52263,66810 C 52123,66810 51986,66847 51865,66916 51744,66986 51644,67086 51574,67207 51505,67328 51468,67465 51468,67605 L 51468,67604 51468,67605 C 51468,67744 51505,67881 51574,68002 51644,68123 51744,68223 51865,68293 51986,68362 52123,68399 52263,68399 L 55119,68399 55120,68399 C 55259,68399 55396,68362 55517,68293 55638,68223 55738,68123 55808,68002 55877,67881 55914,67744 55914,67605 L 55914,67604 55914,67605 55914,67605 C 55914,67465 55877,67328 55808,67207 55738,67086 55638,66986 55517,66916 55396,66847 55259,66810 55120,66810 L 52262,66810 Z"/>
    <path fill="none" stroke="rgb(255,64,0)" stroke-width="106" stroke-linejoin="round" d="M 52262,66810 L 52263,66810 C 52123,66810 51986,66847 51865,66916 51744,66986 51644,67086 51574,67207 51505,67328 51468,67465 51468,67605 L 51468,67604 51468,67605 C 51468,67744 51505,67881 51574,68002 51644,68123 51744,68223 51865,68293 51986,68362 52123,68399 52263,68399 L 55119,68399 55120,68399 C 55259,68399 55396,68362 55517,68293 55638,68223 55738,68123 55808,68002 55877,67881 55914,67744 55914,67605 L 55914,67604 55914,67605 55914,67605 C 55914,67465 55877,67328 55808,67207 55738,67086 55638,66986 55517,66916 55396,66847 55259,66810 55120,66810 L 52262,66810 Z"/>
   </g>
  </g>
  <g class="com.sun.star.drawing.CustomShape">
   <g id="id6">
    <rect class="BoundingBox" stroke="none" fill="none" x="51415" y="68758" width="4553" height="1696"/>
    <path fill="rgb(255,64,0)" stroke="none" d="M 52262,68811 L 52263,68811 C 52123,68811 51986,68848 51865,68917 51744,68987 51644,69087 51574,69208 51505,69329 51468,69466 51468,69606 L 51468,69605 51468,69606 C 51468,69745 51505,69882 51574,70003 51644,70124 51744,70224 51865,70294 51986,70363 52123,70400 52263,70400 L 55119,70400 55120,70400 C 55259,70400 55396,70363 55517,70294 55638,70224 55738,70124 55808,70003 55877,69882 55914,69745 55914,69606 L 55914,69605 55914,69606 55914,69606 C 55914,69466 55877,69329 55808,69208 55738,69087 55638,68987 55517,68917 55396,68848 55259,68811 55120,68811 L 52262,68811 Z"/>
    <path fill="none" stroke="rgb(255,64,0)" stroke-width="106" stroke-linejoin="round" d="M 52262,68811 L 52263,68811 C 52123,68811 51986,68848 51865,68917 51744,68987 51644,69087 51574,69208 51505,69329 51468,69466 51468,69606 L 51468,69605 51468,69606 C 51468,69745 51505,69882 51574,70003 51644,70124 51744,70224 51865,70294 51986,70363 52123,70400 52263,70400 L 55119,70400 55120,70400 C 55259,70400 55396,70363 55517,70294 55638,70224 55738,70124 55808,70003 55877,69882 55914,69745 55914,69606 L 55914,69605 55914,69606 55914,69606 C 55914,69466 55877,69329 55808,69208 55738,69087 55638,68987 55517,68917 55396,68848 55259,68811 55120,68811 L 52262,68811 Z"/>
   </g>
  </g>
 </g>
</svg>