<?xml version="1.0" encoding="UTF-8"?>
<!DOCTYPE svg PUBLIC "-//W3C//DTD SVG 1.1//EN" "http://www.w3.org/Graphics/SVG/1.1/DTD/svg11.dtd">
<svg version="1.2" width="51.18mm" height="67.05mm" viewBox="45434 64151 5118 6705" preserveAspectRatio="xMidYMid" fill-rule="evenodd" stroke-width="28.222" stroke-linejoin="round" xmlns="http://www.w3.org/2000/svg" xmlns:ooo="http://xml.openoffice.org/svg/export" xmlns:xlink="http://www.w3.org/1999/xlink" xmlns:presentation="http://sun.com/xmlns/staroffice/presentation" xmlns:smil="http://www.w3.org/2001/SMIL20/" xmlns:anim="urn:oasis:names:tc:opendocument:xmlns:animation:1.0" xmlns:svg="urn:oasis:names:tc:opendocument:xmlns:svg-compatible:1.0" xml:space="preserve">
 <defs class="EmbeddedBulletChars">
  <g id="bullet-char-template-57356" transform="scale(0.00048828125,-0.00048828125)">
   <path d="M 580,1141 L 1163,571 580,0 -4,571 580,1141 Z"/>
  </g>
  <g id="bullet-char-template-57354" transform="scale(0.00048828125,-0.00048828125)">
   <path d="M 8,1128 L 1137,1128 1137,0 8,0 8,1128 Z"/>
  </g>
  <g id="bullet-char-template-10146" transform="scale(0.00048828125,-0.00048828125)">
   <path d="M 174,0 L 602,739 174,1481 1456,739 174,0 Z M 1358,739 L 309,1346 659,739 1358,739 Z"/>
  </g>
  <g id="bullet-char-template-10132" transform="scale(0.00048828125,-0.00048828125)">
   <path d="M 2015,739 L 1276,0 717,0 1260,543 174,543 174,936 1260,936 717,1481 1274,1481 2015,739 Z"/>
  </g>
  <g id="bullet-char-template-10007" transform="scale(0.00048828125,-0.00048828125)">
   <path d="M 0,-2 C -7,14 -16,27 -25,37 L 356,567 C 262,823 215,952 215,954 215,979 228,992 255,992 264,992 276,990 289,987 310,991 331,999 354,1012 L 381,999 492,748 772,1049 836,1024 860,1049 C 881,1039 901,1025 922,1006 886,937 835,863 770,784 769,783 710,716 594,584 L 774,223 C 774,196 753,168 711,139 L 727,119 C 717,90 699,76 672,76 641,76 570,178 457,381 L 164,-76 C 142,-110 111,-127 72,-127 30,-127 9,-110 8,-76 1,-67 -2,-52 -2,-32 -2,-23 -1,-13 0,-2 Z"/>
  </g>
  <g id="bullet-char-template-10004" transform="scale(0.00048828125,-0.00048828125)">
   <path d="M 285,-33 C 182,-33 111,30 74,156 52,228 41,333 41,471 41,549 55,616 82,672 116,743 169,778 240,778 293,778 328,747 346,684 L 369,508 C 377,444 397,411 428,410 L 1163,1116 C 1174,1127 1196,1133 1229,1133 1271,1133 1292,1118 1292,1087 L 1292,965 C 1292,929 1282,901 1262,881 L 442,47 C 390,-6 338,-33 285,-33 Z"/>
  </g>
  <g id="bullet-char-template-9679" transform="scale(0.00048828125,-0.00048828125)">
   <path d="M 813,0 C 632,0 489,54 383,161 276,268 223,411 223,592 223,773 276,916 383,1023 489,1130 632,1184 813,1184 992,1184 1136,1130 1245,1023 1353,916 1407,772 1407,592 1407,412 1353,268 1245,161 1136,54 992,0 813,0 Z"/>
  </g>
  <g id="bullet-char-template-8226" transform="scale(0.00048828125,-0.00048828125)">
   <path d="M 346,457 C 273,457 209,483 155,535 101,586 74,649 74,723 74,796 101,859 155,911 209,963 273,989 346,989 419,989 480,963 531,910 582,859 608,796 608,723 608,648 583,586 532,535 482,483 420,457 346,457 Z"/>
  </g>
  <g id="bullet-char-template-8211" transform="scale(0.00048828125,-0.00048828125)">
   <path d="M -4,459 L 1135,459 1135,606 -4,606 -4,459 Z"/>
  </g>
  <g id="bullet-char-template-61548" transform="scale(0.00048828125,-0.00048828125)">
   <path d="M 173,740 C 173,903 231,1043 346,1159 462,1274 601,1332 765,1332 928,1332 1067,1274 1183,1159 1299,1043 1357,903 1357,740 1357,577 1299,437 1183,322 1067,206 928,148 765,148 601,148 462,206 346,322 231,437 173,577 173,740 Z"/>
  </g>
 </defs>
 <g class="Page">
  <g class="com.sun.star.drawing.CustomShape">
   <g id="id3">
    <rect class="BoundingBox" stroke="none" fill="none" x="45434" y="64151" width="5118" height="6705"/>
    <path fill="rgb(235, 199, 230)" stroke="none" d="M 46298,64169 L 46299,64169 C 46150,64169 46004,64208 45875,64282 45747,64357 45640,64464 45565,64592 45491,64721 45452,64867 45452,65016 L 45452,69990 45452,69990 C 45452,70139 45491,70285 45565,70414 45640,70542 45747,70649 45875,70724 46004,70798 46150,70837 46299,70837 L 49686,70837 49686,70837 C 49835,70837 49981,70798 50110,70724 50238,70649 50345,70542 50420,70414 50494,70285 50533,70139 50533,69990 L 50533,65015 50533,65016 50533,65016 C 50533,64867 50494,64721 50420,64592 50345,64464 50238,64357 50110,64282 49981,64208 49835,64169 49686,64169 L 46298,64169 Z"/>
    <path fill="none" stroke="rgb(100, 92, 187)" stroke-width="100" stroke-linejoin="round" stroke-dasharray="300" stroke-dashoffset="500" d="M 46298,64169 L 46299,64169 C 46150,64169 46004,64208 45875,64282 45747,64357 45640,64464 45565,64592 45491,64721 45452,64867 45452,65016 L 45452,69990 45452,69990 C 45452,70139 45491,70285 45565,70414 45640,70542 45747,70649 45875,70724 46004,70798 46150,70837 46299,70837 L 49686,70837 49686,70837 C 49835,70837 49981,70798 50110,70724 50238,70649 50345,70542 50420,70414 50494,70285 50533,70139 50533,69990 L 50533,65015 50533,65016 50533,65016 C 50533,64867 50494,64721 50420,64592 50345,64464 50238,64357 50110,64282 49981,64208 49835,64169 49686,64169 L 46298,64169 Z">
    <animate attributeName="stroke-dashoffset" from="500" to="0" dur="0.2s" repeatCount="indefinite"/>
    </path>
   </g>
  </g>
  <g class="com.sun.star.drawing.CustomShape">
   <g id="id4">
    <rect class="BoundingBox" stroke="none" fill="none" x="45714" y="64756" width="4553" height="1696"/>
    <g>
     <defs>
      <pattern id="pattern1" x="45767" y="64809" width="4447" height="1590" patternUnits="userSpaceOnUse">
       <g transform="translate(-45767,-64809)">
        <line fill="rgb(255,64,0)" stroke="rgb(255,64,0)" x1="46006" y1="65036" x2="46006" y2="66171"/>
        <line fill="rgb(255,64,0)" stroke="rgb(255,64,0)" x1="46271" y1="64864" x2="46271" y2="66343"/>
        <line fill="rgb(255,64,0)" stroke="rgb(255,64,0)" x1="46536" y1="64810" x2="46536" y2="66397"/>
        <line fill="rgb(255,64,0)" stroke="rgb(255,64,0)" x1="46801" y1="64809" x2="46801" y2="66398"/>
        <line fill="rgb(255,64,0)" stroke="rgb(255,64,0)" x1="47066" y1="64809" x2="47066" y2="66398"/>
        <line fill="rgb(255,64,0)" stroke="rgb(255,64,0)" x1="47331" y1="64809" x2="47331" y2="66398"/>
        <line fill="rgb(255,64,0)" stroke="rgb(255,64,0)" x1="47596" y1="64809" x2="47596" y2="66398"/>
        <line fill="rgb(255,64,0)" stroke="rgb(255,64,0)" x1="47861" y1="64809" x2="47861" y2="66398"/>
        <line fill="rgb(255,64,0)" stroke="rgb(255,64,0)" x1="48126" y1="64809" x2="48126" y2="66398"/>
        <line fill="rgb(255,64,0)" stroke="rgb(255,64,0)" x1="48391" y1="64809" x2="48391" y2="66398"/>
        <line fill="rgb(255,64,0)" stroke="rgb(255,64,0)" x1="48656" y1="64809" x2="48656" y2="66398"/>
        <line fill="rgb(255,64,0)" stroke="rgb(255,64,0)" x1="48921" y1="64809" x2="48921" y2="66398"/>
        <line fill="rgb(255,64,0)" stroke="rgb(255,64,0)" x1="49186" y1="64809" x2="49186" y2="66398"/>
        <line fill="rgb(255,64,0)" stroke="rgb(255,64,0)" x1="49451" y1="64810" x2="49451" y2="66397"/>
        <line fill="rgb(255,64,0)" stroke="rgb(255,64,0)" x1="49716" y1="64867" x2="49716" y2="66340"/>
        <line fill="rgb(255,64,0)" stroke="rgb(255,64,0)" x1="49981" y1="65043" x2="49981" y2="66164"/>
       </g>
      </pattern>
     </defs>
     <path style="fill:url(#pattern1)" d="M 46561,64809 L 46562,64809 46509,64811 46458,64816 46406,64824 46356,64836 46306,64851 46258,64869 46210,64891 46164,64915 46120,64943 46078,64973 46038,65006 46000,65042 45964,65080 45931,65120 45901,65162 45873,65206 45849,65252 45827,65300 45809,65348 45794,65398 45782,65448 45774,65500 45769,65551 45767,65604 45767,65603 45767,65604 45769,65656 45774,65707 45782,65759 45794,65809 45809,65859 45827,65907 45849,65955 45873,66001 45901,66045 45931,66087 45964,66127 46000,66165 46038,66201 46078,66234 46120,66264 46164,66292 46210,66316 46258,66338 46306,66356 46356,66371 46406,66383 46458,66391 46509,66396 46562,66398 49418,66398 49419,66398 49471,66396 49522,66391 49574,66383 49624,66371 49674,66356 49722,66338 49770,66316 49816,66292 49860,66264 49902,66234 49942,66201 49980,66165 50016,66127 50049,66087 50079,66045 50107,66001 50131,65955 50153,65907 50171,65859 50186,65809 50198,65759 50206,65707 50211,65656 50213,65604 50213,65603 50213,65604 50213,65604 50211,65551 50206,65500 50198,65448 50186,65398 50171,65348 50153,65300 50131,65252 50107,65206 50079,65162 50049,65120 50016,65080 49980,65042 49942,65006 49902,64973 49860,64943 49816,64915 49770,64891 49722,64869 49674,64851 49624,64836 49574,64824 49522,64816 49471,64811 49419,64809 46561,64809 Z"/>
    </g>
    <path fill="none" stroke="rgb(255,64,0)" stroke-width="106" stroke-linejoin="round" d="M 46561,64809 L 46562,64809 C 46422,64809 46285,64846 46164,64915 46043,64985 45943,65085 45873,65206 45804,65327 45767,65464 45767,65604 L 45767,65603 45767,65604 C 45767,65743 45804,65880 45873,66001 45943,66122 46043,66222 46164,66292 46285,66361 46422,66398 46562,66398 L 49418,66398 49419,66398 C 49558,66398 49695,66361 49816,66292 49937,66222 50037,66122 50107,66001 50176,65880 50213,65743 50213,65604 L 50213,65603 50213,65604 50213,65604 C 50213,65464 50176,65327 50107,65206 50037,65085 49937,64985 49816,64915 49695,64846 49558,64809 49419,64809 L 46561,64809 Z"/>
   </g>
  </g>
  <g class="com.sun.star.drawing.CustomShape">
   <g id="id5">
    <rect class="BoundingBox" stroke="none" fill="none" x="45714" y="66757" width="4553" height="1696"/>
    <g>
     <defs>
      <pattern id="pattern2" x="45767" y="66810" width="4447" height="1590" patternUnits="userSpaceOnUse">
       <g transform="translate(-45767,-66810)">
        <line fill="rgb(255,64,0)" stroke="rgb(255,64,0)" x1="46006" y1="67037" x2="46006" y2="68172"/>
        <line fill="rgb(255,64,0)" stroke="rgb(255,64,0)" x1="46271" y1="66865" x2="46271" y2="68344"/>
        <line fill="rgb(255,64,0)" stroke="rgb(255,64,0)" x1="46536" y1="66811" x2="46536" y2="68398"/>
        <line fill="rgb(255,64,0)" stroke="rgb(255,64,0)" x1="46801" y1="66810" x2="46801" y2="68399"/>
        <line fill="rgb(255,64,0)" stroke="rgb(255,64,0)" x1="47066" y1="66810" x2="47066" y2="68399"/>
        <line fill="rgb(255,64,0)" stroke="rgb(255,64,0)" x1="47331" y1="66810" x2="47331" y2="68399"/>
        <line fill="rgb(255,64,0)" stroke="rgb(255,64,0)" x1="47596" y1="66810" x2="47596" y2="68399"/>
        <line fill="rgb(255,64,0)" stroke="rgb(255,64,0)" x1="47861" y1="66810" x2="47861" y2="68399"/>
        <line fill="rgb(255,64,0)" stroke="rgb(255,64,0)" x1="48126" y1="66810" x2="48126" y2="68399"/>
        <line fill="rgb(255,64,0)" stroke="rgb(255,64,0)" x1="48391" y1="66810" x2="48391" y2="68399"/>
        <line fill="rgb(255,64,0)" stroke="rgb(255,64,0)" x1="48656" y1="66810" x2="48656" y2="68399"/>
        <line fill="rgb(255,64,0)" stroke="rgb(255,64,0)" x1="48921" y1="66810" x2="48921" y2="68399"/>
        <line fill="rgb(255,64,0)" stroke="rgb(255,64,0)" x1="49186" y1="66810" x2="49186" y2="68399"/>
        <line fill="rgb(255,64,0)" stroke="rgb(255,64,0)" x1="49451" y1="66811" x2="49451" y2="68398"/>
        <line fill="rgb(255,64,0)" stroke="rgb(255,64,0)" x1="49716" y1="66868" x2="49716" y2="68341"/>
        <line fill="rgb(255,64,0)" stroke="rgb(255,64,0)" x1="49981" y1="67044" x2="49981" y2="68165"/>
       </g>
      </pattern>
     </defs>
     <path style="fill:url(#pattern2)" d="M 46561,66810 L 46562,66810 46509,66812 46458,66817 46406,66825 46356,66837 46306,66852 46258,66870 46210,66892 46164,66916 46120,66944 46078,66974 46038,67007 46000,67043 45964,67081 45931,67121 45901,67163 45873,67207 45849,67253 45827,67301 45809,67349 45794,67399 45782,67449 45774,67501 45769,67552 45767,67605 45767,67604 45767,67605 45769,67657 45774,67708 45782,67760 45794,67810 45809,67860 45827,67908 45849,67956 45873,68002 45901,68046 45931,68088 45964,68128 46000,68166 46038,68202 46078,68235 46120,68265 46164,68293 46210,68317 46258,68339 46306,68357 46356,68372 46406,68384 46458,68392 46509,68397 46562,68399 49418,68399 49419,68399 49471,68397 49522,68392 49574,68384 49624,68372 49674,68357 49722,68339 49770,68317 49816,68293 49860,68265 49902,68235 49942,68202 49980,68166 50016,68128 50049,68088 50079,68046 50107,68002 50131,67956 50153,67908 50171,67860 50186,67810 50198,67760 50206,67708 50211,67657 50213,67605 50213,67604 50213,67605 50213,67605 50211,67552 50206,67501 50198,67449 50186,67399 50171,67349 50153,67301 50131,67253 50107,67207 50079,67163 50049,67121 50016,67081 49980,67043 49942,67007 49902,66974 49860,66944 49816,66916 49770,66892 49722,66870 49674,66852 49624,66837 49574,66825 49522,66817 49471,66812 49419,66810 46561,66810 Z"/>
    </g>
    <path fill="none" stroke="rgb(255,64,0)" stroke-width="106" stroke-linejoin="round" d="M 46561,66810 L 46562,66810 C 46422,66810 46285,66847 46164,66916 46043,66986 45943,67086 45873,67207 45804,67328 45767,67465 45767,67605 L 45767,67604 45767,67605 C 45767,67744 45804,67881 45873,68002 45943,68123 46043,68223 46164,68293 46285,68362 46422,68399 46562,68399 L 49418,68399 49419,68399 C 49558,68399 49695,68362 49816,68293 49937,68223 50037,68123 50107,68002 50176,67881 50213,67744 50213,67605 L 50213,67604 50213,67605 50213,67605 C 50213,67465 50176,67328 50107,67207 50037,67086 49937,66986 49816,66916 49695,66847 49558,66810 49419,66810 L 46561,66810 Z"/>
   </g>
  </g>
  <g class="com.sun.star.drawing.CustomShape">
   <g id="id6">
    <rect class="BoundingBox" stroke="none" fill="none" x="45714" y="68758" width="4553" height="1696"/>
    <g>
     <defs>
      <pattern id="pattern3" x="45767" y="68811" width="4447" height="1590" patternUnits="userSpaceOnUse">
       <g transform="translate(-45767,-68811)">
        <line fill="rgb(255,64,0)" stroke="rgb(255,64,0)" x1="46006" y1="69038" x2="46006" y2="70173"/>
        <line fill="rgb(255,64,0)" stroke="rgb(255,64,0)" x1="46271" y1="68866" x2="46271" y2="70345"/>
        <line fill="rgb(255,64,0)" stroke="rgb(255,64,0)" x1="46536" y1="68812" x2="46536" y2="70399"/>
        <line fill="rgb(255,64,0)" stroke="rgb(255,64,0)" x1="46801" y1="68811" x2="46801" y2="70400"/>
        <line fill="rgb(255,64,0)" stroke="rgb(255,64,0)" x1="47066" y1="68811" x2="47066" y2="70400"/>
        <line fill="rgb(255,64,0)" stroke="rgb(255,64,0)" x1="47331" y1="68811" x2="47331" y2="70400"/>
        <line fill="rgb(255,64,0)" stroke="rgb(255,64,0)" x1="47596" y1="68811" x2="47596" y2="70400"/>
        <line fill="rgb(255,64,0)" stroke="rgb(255,64,0)" x1="47861" y1="68811" x2="47861" y2="70400"/>
        <line fill="rgb(255,64,0)" stroke="rgb(255,64,0)" x1="48126" y1="68811" x2="48126" y2="70400"/>
        <line fill="rgb(255,64,0)" stroke="rgb(255,64,0)" x1="48391" y1="68811" x2="48391" y2="70400"/>
        <line fill="rgb(255,64,0)" stroke="rgb(255,64,0)" x1="48656" y1="68811" x2="48656" y2="70400"/>
        <line fill="rgb(255,64,0)" stroke="rgb(255,64,0)" x1="48921" y1="68811" x2="48921" y2="70400"/>
        <line fill="rgb(255,64,0)" stroke="rgb(255,64,0)" x1="49186" y1="68811" x2="49186" y2="70400"/>
        <line fill="rgb(255,64,0)" stroke="rgb(255,64,0)" x1="49451" y1="68812" x2="49451" y2="70399"/>
        <line fill="rgb(255,64,0)" stroke="rgb(255,64,0)" x1="49716" y1="68869" x2="49716" y2="70342"/>
        <line fill="rgb(255,64,0)" stroke="rgb(255,64,0)" x1="49981" y1="69045" x2="49981" y2="70166"/>
       </g>
      </pattern>
     </defs>
     <path style="fill:url(#pattern3)" d="M 46561,68811 L 46562,68811 46509,68813 46458,68818 46406,68826 46356,68838 46306,68853 46258,68871 46210,68893 46164,68917 46120,68945 46078,68975 46038,69008 46000,69044 45964,69082 45931,69122 45901,69164 45873,69208 45849,69254 45827,69302 45809,69350 45794,69400 45782,69450 45774,69502 45769,69553 45767,69606 45767,69605 45767,69606 45769,69658 45774,69709 45782,69761 45794,69811 45809,69861 45827,69909 45849,69957 45873,70003 45901,70047 45931,70089 45964,70129 46000,70167 46038,70203 46078,70236 46120,70266 46164,70294 46210,70318 46258,70340 46306,70358 46356,70373 46406,70385 46458,70393 46509,70398 46562,70400 49418,70400 49419,70400 49471,70398 49522,70393 49574,70385 49624,70373 49674,70358 49722,70340 49770,70318 49816,70294 49860,70266 49902,70236 49942,70203 49980,70167 50016,70129 50049,70089 50079,70047 50107,70003 50131,69957 50153,69909 50171,69861 50186,69811 50198,69761 50206,69709 50211,69658 50213,69606 50213,69605 50213,69606 50213,69606 50211,69553 50206,69502 50198,69450 50186,69400 50171,69350 50153,69302 50131,69254 50107,69208 50079,69164 50049,69122 50016,69082 49980,69044 49942,69008 49902,68975 49860,68945 49816,68917 49770,68893 49722,68871 49674,68853 49624,68838 49574,68826 49522,68818 49471,68813 49419,68811 46561,68811 Z"/>
    </g>
    <path fill="none" stroke="rgb(255,64,0)" stroke-width="106" stroke-linejoin="round" d="M 46561,68811 L 46562,68811 C 46422,68811 46285,68848 46164,68917 46043,68987 45943,69087 45873,69208 45804,69329 45767,69466 45767,69606 L 45767,69605 45767,69606 C 45767,69745 45804,69882 45873,70003 45943,70124 46043,70224 46164,70294 46285,70363 46422,70400 46562,70400 L 49418,70400 49419,70400 C 49558,70400 49695,70363 49816,70294 49937,70224 50037,70124 50107,70003 50176,69882 50213,69745 50213,69606 L 50213,69605 50213,69606 50213,69606 C 50213,69466 50176,69329 50107,69208 50037,69087 49937,68987 49816,68917 49695,68848 49558,68811 49419,68811 L 46561,68811 Z"/>
   </g>
  </g>
 </g>
</svg>