<?xml version="1.0" encoding="UTF-8"?>
<!DOCTYPE svg PUBLIC "-//W3C//DTD SVG 1.1//EN" "http://www.w3.org/Graphics/SVG/1.1/DTD/svg11.dtd">
<svg version="1.2" width="51.18mm" height="67.05mm" viewBox="39733 56851 5118 6705" preserveAspectRatio="xMidYMid" fill-rule="evenodd" stroke-width="28.222" stroke-linejoin="round" xmlns="http://www.w3.org/2000/svg" xmlns:ooo="http://xml.openoffice.org/svg/export" xmlns:xlink="http://www.w3.org/1999/xlink" xmlns:presentation="http://sun.com/xmlns/staroffice/presentation" xmlns:smil="http://www.w3.org/2001/SMIL20/" xmlns:anim="urn:oasis:names:tc:opendocument:xmlns:animation:1.0" xmlns:svg="urn:oasis:names:tc:opendocument:xmlns:svg-compatible:1.0" xml:space="preserve">
 <defs class="EmbeddedBulletChars">
  <g id="bullet-char-template-57356" transform="scale(0.00048828125,-0.00048828125)">
   <path d="M 580,1141 L 1163,571 580,0 -4,571 580,1141 Z"/>
  </g>
  <g id="bullet-char-template-57354" transform="scale(0.00048828125,-0.00048828125)">
   <path d="M 8,1128 L 1137,1128 1137,0 8,0 8,1128 Z"/>
  </g>
  <g id="bullet-char-template-10146" transform="scale(0.00048828125,-0.00048828125)">
   <path d="M 174,0 L 602,739 174,1481 1456,739 174,0 Z M 1358,739 L 309,1346 659,739 1358,739 Z"/>
  </g>
  <g id="bullet-char-template-10132" transform="scale(0.00048828125,-0.00048828125)">
   <path d="M 2015,739 L 1276,0 717,0 1260,543 174,543 174,936 1260,936 717,1481 1274,1481 2015,739 Z"/>
  </g>
  <g id="bullet-char-template-10007" transform="scale(0.00048828125,-0.00048828125)">
   <path d="M 0,-2 C -7,14 -16,27 -25,37 L 356,567 C 262,823 215,952 215,954 215,979 228,992 255,992 264,992 276,990 289,987 310,991 331,999 354,1012 L 381,999 492,748 772,1049 836,1024 860,1049 C 881,1039 901,1025 922,1006 886,937 835,863 770,784 769,783 710,716 594,584 L 774,223 C 774,196 753,168 711,139 L 727,119 C 717,90 699,76 672,76 641,76 570,178 457,381 L 164,-76 C 142,-110 111,-127 72,-127 30,-127 9,-110 8,-76 1,-67 -2,-52 -2,-32 -2,-23 -1,-13 0,-2 Z"/>
  </g>
  <g id="bullet-char-template-10004" transform="scale(0.00048828125,-0.00048828125)">
   <path d="M 285,-33 C 182,-33 111,30 74,156 52,228 41,333 41,471 41,549 55,616 82,672 116,743 169,778 240,778 293,778 328,747 346,684 L 369,508 C 377,444 397,411 428,410 L 1163,1116 C 1174,1127 1196,1133 1229,1133 1271,1133 1292,1118 1292,1087 L 1292,965 C 1292,929 1282,901 1262,881 L 442,47 C 390,-6 338,-33 285,-33 Z"/>
  </g>
  <g id="bullet-char-template-9679" transform="scale(0.00048828125,-0.00048828125)">
   <path d="M 813,0 C 632,0 489,54 383,161 276,268 223,411 223,592 223,773 276,916 383,1023 489,1130 632,1184 813,1184 992,1184 1136,1130 1245,1023 1353,916 1407,772 1407,592 1407,412 1353,268 1245,161 1136,54 992,0 813,0 Z"/>
  </g>
  <g id="bullet-char-template-8226" transform="scale(0.00048828125,-0.00048828125)">
   <path d="M 346,457 C 273,457 209,483 155,535 101,586 74,649 74,723 74,796 101,859 155,911 209,963 273,989 346,989 419,989 480,963 531,910 582,859 608,796 608,723 608,648 583,586 532,535 482,483 420,457 346,457 Z"/>
  </g>
  <g id="bullet-char-template-8211" transform="scale(0.00048828125,-0.00048828125)">
   <path d="M -4,459 L 1135,459 1135,606 -4,606 -4,459 Z"/>
  </g>
  <g id="bullet-char-template-61548" transform="scale(0.00048828125,-0.00048828125)">
   <path d="M 173,740 C 173,903 231,1043 346,1159 462,1274 601,1332 765,1332 928,1332 1067,1274 1183,1159 1299,1043 1357,903 1357,740 1357,577 1299,437 1183,322 1067,206 928,148 765,148 601,148 462,206 346,322 231,437 173,577 173,740 Z"/>
  </g>
 </defs>
 <g class="Page">
  <g class="com.sun.star.drawing.CustomShape">
   <g id="id3">
    <rect class="BoundingBox" stroke="none" fill="none" x="39733" y="56851" width="5118" height="6705"/>
    <path fill="rgb(235, 199, 230)" stroke="none" d="M 40597,56869 L 40598,56869 C 40449,56869 40303,56908 40174,56982 40046,57057 39939,57164 39864,57292 39790,57421 39751,57567 39751,57716 L 39751,62690 39751,62690 C 39751,62839 39790,62985 39864,63114 39939,63242 40046,63349 40174,63424 40303,63498 40449,63537 40598,63537 L 43985,63537 43985,63537 C 44134,63537 44280,63498 44409,63424 44537,63349 44644,63242 44719,63114 44793,62985 44832,62839 44832,62690 L 44832,57715 44832,57716 44832,57716 C 44832,57567 44793,57421 44719,57292 44644,57164 44537,57057 44409,56982 44280,56908 44134,56869 43985,56869 L 40597,56869 Z"/>
    <path fill="none" stroke="rgb(100, 92, 187)" stroke-width="100" stroke-linejoin="round" stroke-dasharray="300" stroke-dashoffset="500" d="M 40597,56869 L 40598,56869 C 40449,56869 40303,56908 40174,56982 40046,57057 39939,57164 39864,57292 39790,57421 39751,57567 39751,57716 L 39751,62690 39751,62690 C 39751,62839 39790,62985 39864,63114 39939,63242 40046,63349 40174,63424 40303,63498 40449,63537 40598,63537 L 43985,63537 43985,63537 C 44134,63537 44280,63498 44409,63424 44537,63349 44644,63242 44719,63114 44793,62985 44832,62839 44832,62690 L 44832,57715 44832,57716 44832,57716 C 44832,57567 44793,57421 44719,57292 44644,57164 44537,57057 44409,56982 44280,56908 44134,56869 43985,56869 L 40597,56869 Z">
    <animate attributeName="stroke-dashoffset" from="500" to="0" dur="0.2s" repeatCount="indefinite"/>
    </path>
   </g>
  </g>
  <g class="com.sun.star.drawing.CustomShape">
   <g id="id4">
    <rect class="BoundingBox" stroke="none" fill="none" x="40013" y="57686" width="4552" height="1636"/>
    <path fill="none" stroke="rgb(255,64,0)" stroke-width="106" stroke-linejoin="round" d="M 44511,57896 C 44343,58021 43810,58020 43406,58047 42983,58024 42431,58014 42312,57899 42157,57760 41589,57750 41188,57739 40669,57751 40254,57766 40066,57896 L 40066,59113 C 40264,58978 40741,58977 41190,58959 41484,58968 42184,58978 42295,59114 42423,59236 42993,59246 43423,59268 43849,59243 44386,59234 44511,59113 L 44511,57896 Z"/>
   </g>
  </g>
  <g class="com.sun.star.drawing.CustomShape">
   <g id="id5">
    <rect class="BoundingBox" stroke="none" fill="none" x="40013" y="59487" width="4552" height="1636"/>
    <path fill="none" stroke="rgb(255,64,0)" stroke-width="106" stroke-linejoin="round" d="M 44511,59697 C 44343,59822 43810,59821 43406,59848 42983,59825 42431,59815 42312,59700 42157,59561 41589,59551 41188,59540 40669,59552 40254,59567 40066,59697 L 40066,60914 C 40264,60779 40741,60778 41190,60760 41484,60769 42184,60779 42295,60915 42423,61037 42993,61047 43423,61069 43849,61044 44386,61035 44511,60914 L 44511,59697 Z"/>
   </g>
  </g>
  <g class="com.sun.star.drawing.CustomShape">
   <g id="id6">
    <rect class="BoundingBox" stroke="none" fill="none" x="40013" y="61188" width="4552" height="1636"/>
    <path fill="none" stroke="rgb(255,64,0)" stroke-width="106" stroke-linejoin="round" d="M 44511,61398 C 44343,61523 43810,61522 43406,61549 42983,61526 42431,61516 42312,61401 42157,61262 41589,61252 41188,61241 40669,61253 40254,61268 40066,61398 L 40066,62615 C 40264,62480 40741,62479 41190,62461 41484,62470 42184,62480 42295,62616 42423,62738 42993,62748 43423,62770 43849,62745 44386,62736 44511,62615 L 44511,61398 Z"/>
   </g>
  </g>
 </g>
</svg>