<?xml version="1.0" encoding="UTF-8"?>
<!DOCTYPE svg PUBLIC "-//W3C//DTD SVG 1.1//EN" "http://www.w3.org/Graphics/SVG/1.1/DTD/svg11.dtd">
<svg version="1.2" width="51.18mm" height="67.05mm" viewBox="33934 56851 5118 6705" preserveAspectRatio="xMidYMid" fill-rule="evenodd" stroke-width="28.222" stroke-linejoin="round" xmlns="http://www.w3.org/2000/svg" xmlns:ooo="http://xml.openoffice.org/svg/export" xmlns:xlink="http://www.w3.org/1999/xlink" xmlns:presentation="http://sun.com/xmlns/staroffice/presentation" xmlns:smil="http://www.w3.org/2001/SMIL20/" xmlns:anim="urn:oasis:names:tc:opendocument:xmlns:animation:1.0" xmlns:svg="urn:oasis:names:tc:opendocument:xmlns:svg-compatible:1.0" xml:space="preserve">
 <defs class="EmbeddedBulletChars">
  <g id="bullet-char-template-57356" transform="scale(0.00048828125,-0.00048828125)">
   <path d="M 580,1141 L 1163,571 580,0 -4,571 580,1141 Z"/>
  </g>
  <g id="bullet-char-template-57354" transform="scale(0.00048828125,-0.00048828125)">
   <path d="M 8,1128 L 1137,1128 1137,0 8,0 8,1128 Z"/>
  </g>
  <g id="bullet-char-template-10146" transform="scale(0.00048828125,-0.00048828125)">
   <path d="M 174,0 L 602,739 174,1481 1456,739 174,0 Z M 1358,739 L 309,1346 659,739 1358,739 Z"/>
  </g>
  <g id="bullet-char-template-10132" transform="scale(0.00048828125,-0.00048828125)">
   <path d="M 2015,739 L 1276,0 717,0 1260,543 174,543 174,936 1260,936 717,1481 1274,1481 2015,739 Z"/>
  </g>
  <g id="bullet-char-template-10007" transform="scale(0.00048828125,-0.00048828125)">
   <path d="M 0,-2 C -7,14 -16,27 -25,37 L 356,567 C 262,823 215,952 215,954 215,979 228,992 255,992 264,992 276,990 289,987 310,991 331,999 354,1012 L 381,999 492,748 772,1049 836,1024 860,1049 C 881,1039 901,1025 922,1006 886,937 835,863 770,784 769,783 710,716 594,584 L 774,223 C 774,196 753,168 711,139 L 727,119 C 717,90 699,76 672,76 641,76 570,178 457,381 L 164,-76 C 142,-110 111,-127 72,-127 30,-127 9,-110 8,-76 1,-67 -2,-52 -2,-32 -2,-23 -1,-13 0,-2 Z"/>
  </g>
  <g id="bullet-char-template-10004" transform="scale(0.00048828125,-0.00048828125)">
   <path d="M 285,-33 C 182,-33 111,30 74,156 52,228 41,333 41,471 41,549 55,616 82,672 116,743 169,778 240,778 293,778 328,747 346,684 L 369,508 C 377,444 397,411 428,410 L 1163,1116 C 1174,1127 1196,1133 1229,1133 1271,1133 1292,1118 1292,1087 L 1292,965 C 1292,929 1282,901 1262,881 L 442,47 C 390,-6 338,-33 285,-33 Z"/>
  </g>
  <g id="bullet-char-template-9679" transform="scale(0.00048828125,-0.00048828125)">
   <path d="M 813,0 C 632,0 489,54 383,161 276,268 223,411 223,592 223,773 276,916 383,1023 489,1130 632,1184 813,1184 992,1184 1136,1130 1245,1023 1353,916 1407,772 1407,592 1407,412 1353,268 1245,161 1136,54 992,0 813,0 Z"/>
  </g>
  <g id="bullet-char-template-8226" transform="scale(0.00048828125,-0.00048828125)">
   <path d="M 346,457 C 273,457 209,483 155,535 101,586 74,649 74,723 74,796 101,859 155,911 209,963 273,989 346,989 419,989 480,963 531,910 582,859 608,796 608,723 608,648 583,586 532,535 482,483 420,457 346,457 Z"/>
  </g>
  <g id="bullet-char-template-8211" transform="scale(0.00048828125,-0.00048828125)">
   <path d="M -4,459 L 1135,459 1135,606 -4,606 -4,459 Z"/>
  </g>
  <g id="bullet-char-template-61548" transform="scale(0.00048828125,-0.00048828125)">
   <path d="M 173,740 C 173,903 231,1043 346,1159 462,1274 601,1332 765,1332 928,1332 1067,1274 1183,1159 1299,1043 1357,903 1357,740 1357,577 1299,437 1183,322 1067,206 928,148 765,148 601,148 462,206 346,322 231,437 173,577 173,740 Z"/>
  </g>
 </defs>
 <g class="Page">
  <g class="com.sun.star.drawing.CustomShape">
   <g id="id3">
    <rect class="BoundingBox" stroke="none" fill="none" x="33934" y="56851" width="5118" height="6705"/>
    <path fill="rgb(235, 199, 230)" stroke="none" d="M 34798,56869 L 34799,56869 C 34650,56869 34504,56908 34375,56982 34247,57057 34140,57164 34065,57292 33991,57421 33952,57567 33952,57716 L 33952,62690 33952,62690 C 33952,62839 33991,62985 34065,63114 34140,63242 34247,63349 34375,63424 34504,63498 34650,63537 34799,63537 L 38186,63537 38186,63537 C 38335,63537 38481,63498 38610,63424 38738,63349 38845,63242 38920,63114 38994,62985 39033,62839 39033,62690 L 39033,57715 39033,57716 39033,57716 C 39033,57567 38994,57421 38920,57292 38845,57164 38738,57057 38610,56982 38481,56908 38335,56869 38186,56869 L 34798,56869 Z"/>
    <path fill="none" stroke="rgb(100, 92, 187)" stroke-width="100" stroke-linejoin="round" stroke-dasharray="300" stroke-dashoffset="500" d="M 34798,56869 L 34799,56869 C 34650,56869 34504,56908 34375,56982 34247,57057 34140,57164 34065,57292 33991,57421 33952,57567 33952,57716 L 33952,62690 33952,62690 C 33952,62839 33991,62985 34065,63114 34140,63242 34247,63349 34375,63424 34504,63498 34650,63537 34799,63537 L 38186,63537 38186,63537 C 38335,63537 38481,63498 38610,63424 38738,63349 38845,63242 38920,63114 38994,62985 39033,62839 39033,62690 L 39033,57715 39033,57716 39033,57716 C 39033,57567 38994,57421 38920,57292 38845,57164 38738,57057 38610,56982 38481,56908 38335,56869 38186,56869 L 34798,56869 Z">
    <animate attributeName="stroke-dashoffset" from="500" to="0" dur="0.2s" repeatCount="indefinite"/>
    </path>
   </g>
  </g>
  <g class="com.sun.star.drawing.CustomShape">
   <g id="id4">
    <rect class="BoundingBox" stroke="none" fill="none" x="34214" y="57686" width="4553" height="1636"/>
    <path fill="rgb(42,96,153)" stroke="none" d="M 38713,57896 C 38545,58021 38012,58020 37608,58047 37185,58024 36633,58014 36514,57899 36359,57760 35791,57750 35390,57739 34871,57751 34456,57766 34268,57896 L 34268,59113 C 34466,58978 34943,58977 35392,58959 35686,58968 36386,58978 36497,59114 36625,59236 37195,59246 37625,59268 38051,59243 38588,59234 38713,59113 L 38713,57896 Z"/>
    <path fill="none" stroke="rgb(42,96,153)" stroke-width="106" stroke-linejoin="round" d="M 38713,57896 C 38545,58021 38012,58020 37608,58047 37185,58024 36633,58014 36514,57899 36359,57760 35791,57750 35390,57739 34871,57751 34456,57766 34268,57896 L 34268,59113 C 34466,58978 34943,58977 35392,58959 35686,58968 36386,58978 36497,59114 36625,59236 37195,59246 37625,59268 38051,59243 38588,59234 38713,59113 L 38713,57896 Z"/>
   </g>
  </g>
  <g class="com.sun.star.drawing.CustomShape">
   <g id="id5">
    <rect class="BoundingBox" stroke="none" fill="none" x="34214" y="59487" width="4553" height="1636"/>
    <path fill="rgb(42,96,153)" stroke="none" d="M 38713,59697 C 38545,59822 38012,59821 37608,59848 37185,59825 36633,59815 36514,59700 36359,59561 35791,59551 35390,59540 34871,59552 34456,59567 34268,59697 L 34268,60914 C 34466,60779 34943,60778 35392,60760 35686,60769 36386,60779 36497,60915 36625,61037 37195,61047 37625,61069 38051,61044 38588,61035 38713,60914 L 38713,59697 Z"/>
    <path fill="none" stroke="rgb(42,96,153)" stroke-width="106" stroke-linejoin="round" d="M 38713,59697 C 38545,59822 38012,59821 37608,59848 37185,59825 36633,59815 36514,59700 36359,59561 35791,59551 35390,59540 34871,59552 34456,59567 34268,59697 L 34268,60914 C 34466,60779 34943,60778 35392,60760 35686,60769 36386,60779 36497,60915 36625,61037 37195,61047 37625,61069 38051,61044 38588,61035 38713,60914 L 38713,59697 Z"/>
   </g>
  </g>
  <g class="com.sun.star.drawing.CustomShape">
   <g id="id6">
    <rect class="BoundingBox" stroke="none" fill="none" x="34214" y="61188" width="4553" height="1636"/>
    <path fill="rgb(42,96,153)" stroke="none" d="M 38713,61398 C 38545,61523 38012,61522 37608,61549 37185,61526 36633,61516 36514,61401 36359,61262 35791,61252 35390,61241 34871,61253 34456,61268 34268,61398 L 34268,62615 C 34466,62480 34943,62479 35392,62461 35686,62470 36386,62480 36497,62616 36625,62738 37195,62748 37625,62770 38051,62745 38588,62736 38713,62615 L 38713,61398 Z"/>
    <path fill="none" stroke="rgb(42,96,153)" stroke-width="106" stroke-linejoin="round" d="M 38713,61398 C 38545,61523 38012,61522 37608,61549 37185,61526 36633,61516 36514,61401 36359,61262 35791,61252 35390,61241 34871,61253 34456,61268 34268,61398 L 34268,62615 C 34466,62480 34943,62479 35392,62461 35686,62470 36386,62480 36497,62616 36625,62738 37195,62748 37625,62770 38051,62745 38588,62736 38713,62615 L 38713,61398 Z"/>
   </g>
  </g>
 </g>
</svg>