<?xml version="1.0" encoding="UTF-8"?>
<!DOCTYPE svg PUBLIC "-//W3C//DTD SVG 1.1//EN" "http://www.w3.org/Graphics/SVG/1.1/DTD/svg11.dtd">
<svg version="1.2" width="51.18mm" height="67.05mm" viewBox="16833 56851 5118 6705" preserveAspectRatio="xMidYMid" fill-rule="evenodd" stroke-width="28.222" stroke-linejoin="round" xmlns="http://www.w3.org/2000/svg" xmlns:ooo="http://xml.openoffice.org/svg/export" xmlns:xlink="http://www.w3.org/1999/xlink" xmlns:presentation="http://sun.com/xmlns/staroffice/presentation" xmlns:smil="http://www.w3.org/2001/SMIL20/" xmlns:anim="urn:oasis:names:tc:opendocument:xmlns:animation:1.0" xmlns:svg="urn:oasis:names:tc:opendocument:xmlns:svg-compatible:1.0" xml:space="preserve">
 <defs class="EmbeddedBulletChars">
  <g id="bullet-char-template-57356" transform="scale(0.00048828125,-0.00048828125)">
   <path d="M 580,1141 L 1163,571 580,0 -4,571 580,1141 Z"/>
  </g>
  <g id="bullet-char-template-57354" transform="scale(0.00048828125,-0.00048828125)">
   <path d="M 8,1128 L 1137,1128 1137,0 8,0 8,1128 Z"/>
  </g>
  <g id="bullet-char-template-10146" transform="scale(0.00048828125,-0.00048828125)">
   <path d="M 174,0 L 602,739 174,1481 1456,739 174,0 Z M 1358,739 L 309,1346 659,739 1358,739 Z"/>
  </g>
  <g id="bullet-char-template-10132" transform="scale(0.00048828125,-0.00048828125)">
   <path d="M 2015,739 L 1276,0 717,0 1260,543 174,543 174,936 1260,936 717,1481 1274,1481 2015,739 Z"/>
  </g>
  <g id="bullet-char-template-10007" transform="scale(0.00048828125,-0.00048828125)">
   <path d="M 0,-2 C -7,14 -16,27 -25,37 L 356,567 C 262,823 215,952 215,954 215,979 228,992 255,992 264,992 276,990 289,987 310,991 331,999 354,1012 L 381,999 492,748 772,1049 836,1024 860,1049 C 881,1039 901,1025 922,1006 886,937 835,863 770,784 769,783 710,716 594,584 L 774,223 C 774,196 753,168 711,139 L 727,119 C 717,90 699,76 672,76 641,76 570,178 457,381 L 164,-76 C 142,-110 111,-127 72,-127 30,-127 9,-110 8,-76 1,-67 -2,-52 -2,-32 -2,-23 -1,-13 0,-2 Z"/>
  </g>
  <g id="bullet-char-template-10004" transform="scale(0.00048828125,-0.00048828125)">
   <path d="M 285,-33 C 182,-33 111,30 74,156 52,228 41,333 41,471 41,549 55,616 82,672 116,743 169,778 240,778 293,778 328,747 346,684 L 369,508 C 377,444 397,411 428,410 L 1163,1116 C 1174,1127 1196,1133 1229,1133 1271,1133 1292,1118 1292,1087 L 1292,965 C 1292,929 1282,901 1262,881 L 442,47 C 390,-6 338,-33 285,-33 Z"/>
  </g>
  <g id="bullet-char-template-9679" transform="scale(0.00048828125,-0.00048828125)">
   <path d="M 813,0 C 632,0 489,54 383,161 276,268 223,411 223,592 223,773 276,916 383,1023 489,1130 632,1184 813,1184 992,1184 1136,1130 1245,1023 1353,916 1407,772 1407,592 1407,412 1353,268 1245,161 1136,54 992,0 813,0 Z"/>
  </g>
  <g id="bullet-char-template-8226" transform="scale(0.00048828125,-0.00048828125)">
   <path d="M 346,457 C 273,457 209,483 155,535 101,586 74,649 74,723 74,796 101,859 155,911 209,963 273,989 346,989 419,989 480,963 531,910 582,859 608,796 608,723 608,648 583,586 532,535 482,483 420,457 346,457 Z"/>
  </g>
  <g id="bullet-char-template-8211" transform="scale(0.00048828125,-0.00048828125)">
   <path d="M -4,459 L 1135,459 1135,606 -4,606 -4,459 Z"/>
  </g>
  <g id="bullet-char-template-61548" transform="scale(0.00048828125,-0.00048828125)">
   <path d="M 173,740 C 173,903 231,1043 346,1159 462,1274 601,1332 765,1332 928,1332 1067,1274 1183,1159 1299,1043 1357,903 1357,740 1357,577 1299,437 1183,322 1067,206 928,148 765,148 601,148 462,206 346,322 231,437 173,577 173,740 Z"/>
  </g>
 </defs>
 <g class="Page">
  <g class="com.sun.star.drawing.CustomShape">
   <g id="id3">
    <rect class="BoundingBox" stroke="none" fill="none" x="16833" y="56851" width="5118" height="6705"/>
    <path fill="rgb(235, 199, 230)" stroke="none" d="M 17697,56869 L 17698,56869 C 17549,56869 17403,56908 17274,56982 17146,57057 17039,57164 16964,57292 16890,57421 16851,57567 16851,57716 L 16851,62690 16851,62690 C 16851,62839 16890,62985 16964,63114 17039,63242 17146,63349 17274,63424 17403,63498 17549,63537 17698,63537 L 21085,63537 21085,63537 C 21234,63537 21380,63498 21509,63424 21637,63349 21744,63242 21819,63114 21893,62985 21932,62839 21932,62690 L 21932,57715 21932,57716 21932,57716 C 21932,57567 21893,57421 21819,57292 21744,57164 21637,57057 21509,56982 21380,56908 21234,56869 21085,56869 L 17697,56869 Z"/>
    <path fill="none" stroke="rgb(100, 92, 187)" stroke-width="100" stroke-linejoin="round" stroke-dasharray="300" stroke-dashoffset="500" d="M 17697,56869 L 17698,56869 C 17549,56869 17403,56908 17274,56982 17146,57057 17039,57164 16964,57292 16890,57421 16851,57567 16851,57716 L 16851,62690 16851,62690 C 16851,62839 16890,62985 16964,63114 17039,63242 17146,63349 17274,63424 17403,63498 17549,63537 17698,63537 L 21085,63537 21085,63537 C 21234,63537 21380,63498 21509,63424 21637,63349 21744,63242 21819,63114 21893,62985 21932,62839 21932,62690 L 21932,57715 21932,57716 21932,57716 C 21932,57567 21893,57421 21819,57292 21744,57164 21637,57057 21509,56982 21380,56908 21234,56869 21085,56869 L 17697,56869 Z">
    <animate attributeName="stroke-dashoffset" from="500" to="0" dur="0.2s" repeatCount="indefinite"/>
    </path>
   </g>
  </g>
  <g class="com.sun.star.drawing.CustomShape">
   <g id="id4">
    <rect class="BoundingBox" stroke="none" fill="none" x="17115" y="57686" width="4552" height="1636"/>
    <path fill="rgb(129,212,26)" stroke="none" d="M 21613,57896 C 21445,58021 20912,58020 20508,58047 20085,58024 19533,58014 19414,57899 19259,57760 18691,57750 18290,57739 17771,57751 17356,57766 17168,57896 L 17168,59113 C 17366,58978 17843,58977 18292,58959 18586,58968 19286,58978 19397,59114 19525,59236 20095,59246 20525,59268 20951,59243 21488,59234 21613,59113 L 21613,57896 Z"/>
    <path fill="none" stroke="rgb(129,212,26)" stroke-width="106" stroke-linejoin="round" d="M 21613,57896 C 21445,58021 20912,58020 20508,58047 20085,58024 19533,58014 19414,57899 19259,57760 18691,57750 18290,57739 17771,57751 17356,57766 17168,57896 L 17168,59113 C 17366,58978 17843,58977 18292,58959 18586,58968 19286,58978 19397,59114 19525,59236 20095,59246 20525,59268 20951,59243 21488,59234 21613,59113 L 21613,57896 Z"/>
   </g>
  </g>
  <g class="com.sun.star.drawing.CustomShape">
   <g id="id5">
    <rect class="BoundingBox" stroke="none" fill="none" x="17115" y="59487" width="4552" height="1636"/>
    <path fill="rgb(129,212,26)" stroke="none" d="M 21613,59697 C 21445,59822 20912,59821 20508,59848 20085,59825 19533,59815 19414,59700 19259,59561 18691,59551 18290,59540 17771,59552 17356,59567 17168,59697 L 17168,60914 C 17366,60779 17843,60778 18292,60760 18586,60769 19286,60779 19397,60915 19525,61037 20095,61047 20525,61069 20951,61044 21488,61035 21613,60914 L 21613,59697 Z"/>
    <path fill="none" stroke="rgb(129,212,26)" stroke-width="106" stroke-linejoin="round" d="M 21613,59697 C 21445,59822 20912,59821 20508,59848 20085,59825 19533,59815 19414,59700 19259,59561 18691,59551 18290,59540 17771,59552 17356,59567 17168,59697 L 17168,60914 C 17366,60779 17843,60778 18292,60760 18586,60769 19286,60779 19397,60915 19525,61037 20095,61047 20525,61069 20951,61044 21488,61035 21613,60914 L 21613,59697 Z"/>
   </g>
  </g>
  <g class="com.sun.star.drawing.CustomShape">
   <g id="id6">
    <rect class="BoundingBox" stroke="none" fill="none" x="17115" y="61188" width="4552" height="1636"/>
    <path fill="rgb(129,212,26)" stroke="none" d="M 21613,61398 C 21445,61523 20912,61522 20508,61549 20085,61526 19533,61516 19414,61401 19259,61262 18691,61252 18290,61241 17771,61253 17356,61268 17168,61398 L 17168,62615 C 17366,62480 17843,62479 18292,62461 18586,62470 19286,62480 19397,62616 19525,62738 20095,62748 20525,62770 20951,62745 21488,62736 21613,62615 L 21613,61398 Z"/>
    <path fill="none" stroke="rgb(129,212,26)" stroke-width="106" stroke-linejoin="round" d="M 21613,61398 C 21445,61523 20912,61522 20508,61549 20085,61526 19533,61516 19414,61401 19259,61262 18691,61252 18290,61241 17771,61253 17356,61268 17168,61398 L 17168,62615 C 17366,62480 17843,62479 18292,62461 18586,62470 19286,62480 19397,62616 19525,62738 20095,62748 20525,62770 20951,62745 21488,62736 21613,62615 L 21613,61398 Z"/>
   </g>
  </g>
 </g>
</svg>