<?xml version="1.0" encoding="UTF-8"?>
<!DOCTYPE svg PUBLIC "-//W3C//DTD SVG 1.1//EN" "http://www.w3.org/Graphics/SVG/1.1/DTD/svg11.dtd">
<svg version="1.2" width="51.18mm" height="67.05mm" viewBox="45434 56851 5118 6705" preserveAspectRatio="xMidYMid" fill-rule="evenodd" stroke-width="28.222" stroke-linejoin="round" xmlns="http://www.w3.org/2000/svg" xmlns:ooo="http://xml.openoffice.org/svg/export" xmlns:xlink="http://www.w3.org/1999/xlink" xmlns:presentation="http://sun.com/xmlns/staroffice/presentation" xmlns:smil="http://www.w3.org/2001/SMIL20/" xmlns:anim="urn:oasis:names:tc:opendocument:xmlns:animation:1.0" xmlns:svg="urn:oasis:names:tc:opendocument:xmlns:svg-compatible:1.0" xml:space="preserve">
 <defs class="EmbeddedBulletChars">
  <g id="bullet-char-template-57356" transform="scale(0.00048828125,-0.00048828125)">
   <path d="M 580,1141 L 1163,571 580,0 -4,571 580,1141 Z"/>
  </g>
  <g id="bullet-char-template-57354" transform="scale(0.00048828125,-0.00048828125)">
   <path d="M 8,1128 L 1137,1128 1137,0 8,0 8,1128 Z"/>
  </g>
  <g id="bullet-char-template-10146" transform="scale(0.00048828125,-0.00048828125)">
   <path d="M 174,0 L 602,739 174,1481 1456,739 174,0 Z M 1358,739 L 309,1346 659,739 1358,739 Z"/>
  </g>
  <g id="bullet-char-template-10132" transform="scale(0.00048828125,-0.00048828125)">
   <path d="M 2015,739 L 1276,0 717,0 1260,543 174,543 174,936 1260,936 717,1481 1274,1481 2015,739 Z"/>
  </g>
  <g id="bullet-char-template-10007" transform="scale(0.00048828125,-0.00048828125)">
   <path d="M 0,-2 C -7,14 -16,27 -25,37 L 356,567 C 262,823 215,952 215,954 215,979 228,992 255,992 264,992 276,990 289,987 310,991 331,999 354,1012 L 381,999 492,748 772,1049 836,1024 860,1049 C 881,1039 901,1025 922,1006 886,937 835,863 770,784 769,783 710,716 594,584 L 774,223 C 774,196 753,168 711,139 L 727,119 C 717,90 699,76 672,76 641,76 570,178 457,381 L 164,-76 C 142,-110 111,-127 72,-127 30,-127 9,-110 8,-76 1,-67 -2,-52 -2,-32 -2,-23 -1,-13 0,-2 Z"/>
  </g>
  <g id="bullet-char-template-10004" transform="scale(0.00048828125,-0.00048828125)">
   <path d="M 285,-33 C 182,-33 111,30 74,156 52,228 41,333 41,471 41,549 55,616 82,672 116,743 169,778 240,778 293,778 328,747 346,684 L 369,508 C 377,444 397,411 428,410 L 1163,1116 C 1174,1127 1196,1133 1229,1133 1271,1133 1292,1118 1292,1087 L 1292,965 C 1292,929 1282,901 1262,881 L 442,47 C 390,-6 338,-33 285,-33 Z"/>
  </g>
  <g id="bullet-char-template-9679" transform="scale(0.00048828125,-0.00048828125)">
   <path d="M 813,0 C 632,0 489,54 383,161 276,268 223,411 223,592 223,773 276,916 383,1023 489,1130 632,1184 813,1184 992,1184 1136,1130 1245,1023 1353,916 1407,772 1407,592 1407,412 1353,268 1245,161 1136,54 992,0 813,0 Z"/>
  </g>
  <g id="bullet-char-template-8226" transform="scale(0.00048828125,-0.00048828125)">
   <path d="M 346,457 C 273,457 209,483 155,535 101,586 74,649 74,723 74,796 101,859 155,911 209,963 273,989 346,989 419,989 480,963 531,910 582,859 608,796 608,723 608,648 583,586 532,535 482,483 420,457 346,457 Z"/>
  </g>
  <g id="bullet-char-template-8211" transform="scale(0.00048828125,-0.00048828125)">
   <path d="M -4,459 L 1135,459 1135,606 -4,606 -4,459 Z"/>
  </g>
  <g id="bullet-char-template-61548" transform="scale(0.00048828125,-0.00048828125)">
   <path d="M 173,740 C 173,903 231,1043 346,1159 462,1274 601,1332 765,1332 928,1332 1067,1274 1183,1159 1299,1043 1357,903 1357,740 1357,577 1299,437 1183,322 1067,206 928,148 765,148 601,148 462,206 346,322 231,437 173,577 173,740 Z"/>
  </g>
 </defs>
 <g class="Page">
  <g class="com.sun.star.drawing.CustomShape">
   <g id="id3">
    <rect class="BoundingBox" stroke="none" fill="none" x="45434" y="56851" width="5118" height="6705"/>
    <path fill="rgb(235, 199, 230)" stroke="none" d="M 46298,56869 L 46299,56869 C 46150,56869 46004,56908 45875,56982 45747,57057 45640,57164 45565,57292 45491,57421 45452,57567 45452,57716 L 45452,62690 45452,62690 C 45452,62839 45491,62985 45565,63114 45640,63242 45747,63349 45875,63424 46004,63498 46150,63537 46299,63537 L 49686,63537 49686,63537 C 49835,63537 49981,63498 50110,63424 50238,63349 50345,63242 50420,63114 50494,62985 50533,62839 50533,62690 L 50533,57715 50533,57716 50533,57716 C 50533,57567 50494,57421 50420,57292 50345,57164 50238,57057 50110,56982 49981,56908 49835,56869 49686,56869 L 46298,56869 Z"/>
    <path fill="none" stroke="rgb(100, 92, 187)" stroke-width="100" stroke-linejoin="round" stroke-dasharray="300" stroke-dashoffset="500" d="M 46298,56869 L 46299,56869 C 46150,56869 46004,56908 45875,56982 45747,57057 45640,57164 45565,57292 45491,57421 45452,57567 45452,57716 L 45452,62690 45452,62690 C 45452,62839 45491,62985 45565,63114 45640,63242 45747,63349 45875,63424 46004,63498 46150,63537 46299,63537 L 49686,63537 49686,63537 C 49835,63537 49981,63498 50110,63424 50238,63349 50345,63242 50420,63114 50494,62985 50533,62839 50533,62690 L 50533,57715 50533,57716 50533,57716 C 50533,57567 50494,57421 50420,57292 50345,57164 50238,57057 50110,56982 49981,56908 49835,56869 49686,56869 L 46298,56869 Z">
    <animate attributeName="stroke-dashoffset" from="500" to="0" dur="0.2s" repeatCount="indefinite"/>
    </path>
   </g>
  </g>
  <g class="com.sun.star.drawing.CustomShape">
   <g id="id4">
    <rect class="BoundingBox" stroke="none" fill="none" x="45714" y="57686" width="4552" height="1636"/>
    <g>
     <defs>
      <pattern id="pattern1" x="45767" y="57739" width="4446" height="1530" patternUnits="userSpaceOnUse">
       <g transform="translate(-45767,-57739)">
        <line fill="rgb(255,64,0)" stroke="rgb(255,64,0)" x1="46006" y1="57806" x2="46006" y2="59027"/>
        <line fill="rgb(255,64,0)" stroke="rgb(255,64,0)" x1="46271" y1="57767" x2="46271" y2="58990"/>
        <line fill="rgb(255,64,0)" stroke="rgb(255,64,0)" x1="46536" y1="57750" x2="46536" y2="58973"/>
        <line fill="rgb(255,64,0)" stroke="rgb(255,64,0)" x1="46801" y1="57742" x2="46801" y2="58962"/>
        <line fill="rgb(255,64,0)" stroke="rgb(255,64,0)" x1="47066" y1="57744" x2="47066" y2="58965"/>
        <line fill="rgb(255,64,0)" stroke="rgb(255,64,0)" x1="47331" y1="57757" x2="47331" y2="58978"/>
        <line fill="rgb(255,64,0)" stroke="rgb(255,64,0)" x1="47596" y1="57778" x2="47596" y2="58999"/>
        <line fill="rgb(255,64,0)" stroke="rgb(255,64,0)" x1="47861" y1="57827" x2="47861" y2="59045"/>
        <line fill="rgb(255,64,0)" stroke="rgb(255,64,0)" x1="48126" y1="57954" x2="48126" y2="59176"/>
        <line fill="rgb(255,64,0)" stroke="rgb(255,64,0)" x1="48391" y1="58001" x2="48391" y2="59222"/>
        <line fill="rgb(255,64,0)" stroke="rgb(255,64,0)" x1="48656" y1="58022" x2="48656" y2="59243"/>
        <line fill="rgb(255,64,0)" stroke="rgb(255,64,0)" x1="48921" y1="58038" x2="48921" y2="59258"/>
        <line fill="rgb(255,64,0)" stroke="rgb(255,64,0)" x1="49186" y1="58042" x2="49186" y2="59265"/>
        <line fill="rgb(255,64,0)" stroke="rgb(255,64,0)" x1="49451" y1="58026" x2="49451" y2="59250"/>
        <line fill="rgb(255,64,0)" stroke="rgb(255,64,0)" x1="49716" y1="58010" x2="49716" y2="59232"/>
        <line fill="rgb(255,64,0)" stroke="rgb(255,64,0)" x1="49981" y1="57977" x2="49981" y2="59198"/>
       </g>
      </pattern>
     </defs>
     <path style="fill:url(#pattern1)" d="M 50212,57896 L 50195,57907 50176,57918 50133,57937 50082,57954 50025,57969 49895,57992 49748,58008 49107,58047 48774,58030 48446,58008 48300,57990 48175,57967 48122,57953 48077,57937 48040,57919 48025,57909 48013,57899 47997,57886 47979,57874 47937,57853 47886,57834 47828,57817 47695,57790 47543,57771 47212,57749 46889,57739 46521,57750 46355,57760 46204,57773 46068,57792 45949,57818 45896,57834 45848,57852 45805,57873 45767,57896 45767,59113 45807,59089 45854,59068 45906,59050 45963,59035 46091,59010 46235,58992 46554,58972 46891,58959 47172,58968 47512,58989 47675,59008 47818,59034 47878,59050 47929,59069 47950,59079 47969,59090 47984,59102 47996,59114 48009,59125 48025,59136 48064,59155 48111,59172 48166,59186 48296,59211 48447,59229 48784,59252 49124,59268 49456,59250 49781,59227 49925,59209 50049,59185 50102,59170 50147,59153 50184,59134 50199,59124 50212,59113 50212,57896 Z"/>
    </g>
    <path fill="none" stroke="rgb(255,64,0)" stroke-width="106" stroke-linejoin="round" d="M 50212,57896 C 50044,58021 49511,58020 49107,58047 48684,58024 48132,58014 48013,57899 47858,57760 47290,57750 46889,57739 46370,57751 45955,57766 45767,57896 L 45767,59113 C 45965,58978 46442,58977 46891,58959 47185,58968 47885,58978 47996,59114 48124,59236 48694,59246 49124,59268 49550,59243 50087,59234 50212,59113 L 50212,57896 Z"/>
   </g>
  </g>
  <g class="com.sun.star.drawing.CustomShape">
   <g id="id5">
    <rect class="BoundingBox" stroke="none" fill="none" x="45714" y="59487" width="4552" height="1636"/>
    <g>
     <defs>
      <pattern id="pattern2" x="45767" y="59540" width="4446" height="1530" patternUnits="userSpaceOnUse">
       <g transform="translate(-45767,-59540)">
        <line fill="rgb(255,64,0)" stroke="rgb(255,64,0)" x1="46006" y1="59607" x2="46006" y2="60828"/>
        <line fill="rgb(255,64,0)" stroke="rgb(255,64,0)" x1="46271" y1="59568" x2="46271" y2="60791"/>
        <line fill="rgb(255,64,0)" stroke="rgb(255,64,0)" x1="46536" y1="59551" x2="46536" y2="60774"/>
        <line fill="rgb(255,64,0)" stroke="rgb(255,64,0)" x1="46801" y1="59543" x2="46801" y2="60763"/>
        <line fill="rgb(255,64,0)" stroke="rgb(255,64,0)" x1="47066" y1="59545" x2="47066" y2="60766"/>
        <line fill="rgb(255,64,0)" stroke="rgb(255,64,0)" x1="47331" y1="59558" x2="47331" y2="60779"/>
        <line fill="rgb(255,64,0)" stroke="rgb(255,64,0)" x1="47596" y1="59579" x2="47596" y2="60800"/>
        <line fill="rgb(255,64,0)" stroke="rgb(255,64,0)" x1="47861" y1="59628" x2="47861" y2="60846"/>
        <line fill="rgb(255,64,0)" stroke="rgb(255,64,0)" x1="48126" y1="59755" x2="48126" y2="60977"/>
        <line fill="rgb(255,64,0)" stroke="rgb(255,64,0)" x1="48391" y1="59802" x2="48391" y2="61023"/>
        <line fill="rgb(255,64,0)" stroke="rgb(255,64,0)" x1="48656" y1="59823" x2="48656" y2="61044"/>
        <line fill="rgb(255,64,0)" stroke="rgb(255,64,0)" x1="48921" y1="59839" x2="48921" y2="61059"/>
        <line fill="rgb(255,64,0)" stroke="rgb(255,64,0)" x1="49186" y1="59843" x2="49186" y2="61066"/>
        <line fill="rgb(255,64,0)" stroke="rgb(255,64,0)" x1="49451" y1="59827" x2="49451" y2="61051"/>
        <line fill="rgb(255,64,0)" stroke="rgb(255,64,0)" x1="49716" y1="59811" x2="49716" y2="61033"/>
        <line fill="rgb(255,64,0)" stroke="rgb(255,64,0)" x1="49981" y1="59778" x2="49981" y2="60999"/>
       </g>
      </pattern>
     </defs>
     <path style="fill:url(#pattern2)" d="M 50212,59697 L 50195,59708 50176,59719 50133,59738 50082,59755 50025,59770 49895,59793 49748,59809 49107,59848 48774,59831 48446,59808 48300,59791 48175,59768 48122,59754 48077,59738 48040,59720 48025,59710 48013,59700 47997,59687 47979,59675 47937,59654 47886,59635 47828,59618 47695,59591 47543,59572 47212,59550 46889,59540 46521,59551 46355,59561 46204,59574 46068,59593 45949,59619 45896,59635 45848,59653 45805,59674 45767,59697 45767,60914 45807,60890 45854,60869 45906,60851 45963,60836 46091,60811 46235,60793 46554,60773 46891,60760 47172,60769 47512,60790 47675,60809 47818,60835 47878,60851 47929,60870 47950,60880 47969,60891 47984,60903 47996,60915 48009,60926 48025,60937 48064,60956 48111,60973 48166,60987 48296,61012 48447,61030 48784,61053 49124,61069 49456,61051 49781,61028 49925,61010 50049,60986 50102,60971 50147,60954 50184,60935 50199,60925 50212,60914 50212,59697 Z"/>
    </g>
    <path fill="none" stroke="rgb(255,64,0)" stroke-width="106" stroke-linejoin="round" d="M 50212,59697 C 50044,59822 49511,59821 49107,59848 48684,59825 48132,59815 48013,59700 47858,59561 47290,59551 46889,59540 46370,59552 45955,59567 45767,59697 L 45767,60914 C 45965,60779 46442,60778 46891,60760 47185,60769 47885,60779 47996,60915 48124,61037 48694,61047 49124,61069 49550,61044 50087,61035 50212,60914 L 50212,59697 Z"/>
   </g>
  </g>
  <g class="com.sun.star.drawing.CustomShape">
   <g id="id6">
    <rect class="BoundingBox" stroke="none" fill="none" x="45714" y="61188" width="4552" height="1636"/>
    <g>
     <defs>
      <pattern id="pattern3" x="45767" y="61241" width="4446" height="1530" patternUnits="userSpaceOnUse">
       <g transform="translate(-45767,-61241)">
        <line fill="rgb(255,64,0)" stroke="rgb(255,64,0)" x1="46006" y1="61308" x2="46006" y2="62529"/>
        <line fill="rgb(255,64,0)" stroke="rgb(255,64,0)" x1="46271" y1="61269" x2="46271" y2="62492"/>
        <line fill="rgb(255,64,0)" stroke="rgb(255,64,0)" x1="46536" y1="61252" x2="46536" y2="62475"/>
        <line fill="rgb(255,64,0)" stroke="rgb(255,64,0)" x1="46801" y1="61244" x2="46801" y2="62464"/>
        <line fill="rgb(255,64,0)" stroke="rgb(255,64,0)" x1="47066" y1="61246" x2="47066" y2="62467"/>
        <line fill="rgb(255,64,0)" stroke="rgb(255,64,0)" x1="47331" y1="61259" x2="47331" y2="62480"/>
        <line fill="rgb(255,64,0)" stroke="rgb(255,64,0)" x1="47596" y1="61280" x2="47596" y2="62501"/>
        <line fill="rgb(255,64,0)" stroke="rgb(255,64,0)" x1="47861" y1="61329" x2="47861" y2="62547"/>
        <line fill="rgb(255,64,0)" stroke="rgb(255,64,0)" x1="48126" y1="61456" x2="48126" y2="62678"/>
        <line fill="rgb(255,64,0)" stroke="rgb(255,64,0)" x1="48391" y1="61503" x2="48391" y2="62724"/>
        <line fill="rgb(255,64,0)" stroke="rgb(255,64,0)" x1="48656" y1="61524" x2="48656" y2="62745"/>
        <line fill="rgb(255,64,0)" stroke="rgb(255,64,0)" x1="48921" y1="61540" x2="48921" y2="62760"/>
        <line fill="rgb(255,64,0)" stroke="rgb(255,64,0)" x1="49186" y1="61544" x2="49186" y2="62767"/>
        <line fill="rgb(255,64,0)" stroke="rgb(255,64,0)" x1="49451" y1="61528" x2="49451" y2="62752"/>
        <line fill="rgb(255,64,0)" stroke="rgb(255,64,0)" x1="49716" y1="61512" x2="49716" y2="62734"/>
        <line fill="rgb(255,64,0)" stroke="rgb(255,64,0)" x1="49981" y1="61479" x2="49981" y2="62700"/>
       </g>
      </pattern>
     </defs>
     <path style="fill:url(#pattern3)" d="M 50212,61398 L 50195,61409 50176,61420 50133,61439 50082,61456 50025,61471 49895,61494 49748,61510 49107,61549 48774,61532 48446,61510 48300,61492 48175,61469 48122,61455 48077,61439 48040,61421 48025,61411 48013,61401 47997,61388 47979,61376 47937,61355 47886,61336 47828,61319 47695,61292 47543,61273 47212,61251 46889,61241 46521,61252 46355,61262 46204,61275 46068,61294 45949,61320 45896,61336 45848,61354 45805,61375 45767,61398 45767,62615 45807,62591 45854,62570 45906,62552 45963,62537 46091,62512 46235,62494 46554,62474 46891,62461 47172,62470 47512,62491 47675,62510 47818,62536 47878,62552 47929,62571 47950,62581 47969,62592 47984,62604 47996,62616 48009,62627 48025,62638 48064,62657 48111,62674 48166,62688 48296,62713 48447,62731 48784,62754 49124,62770 49456,62752 49781,62729 49925,62711 50049,62687 50102,62672 50147,62655 50184,62636 50199,62626 50212,62615 50212,61398 Z"/>
    </g>
    <path fill="none" stroke="rgb(255,64,0)" stroke-width="106" stroke-linejoin="round" d="M 50212,61398 C 50044,61523 49511,61522 49107,61549 48684,61526 48132,61516 48013,61401 47858,61262 47290,61252 46889,61241 46370,61253 45955,61268 45767,61398 L 45767,62615 C 45965,62480 46442,62479 46891,62461 47185,62470 47885,62480 47996,62616 48124,62738 48694,62748 49124,62770 49550,62745 50087,62736 50212,62615 L 50212,61398 Z"/>
   </g>
  </g>
 </g>
</svg>