<?xml version="1.0" encoding="UTF-8"?>
<!DOCTYPE svg PUBLIC "-//W3C//DTD SVG 1.1//EN" "http://www.w3.org/Graphics/SVG/1.1/DTD/svg11.dtd">
<svg version="1.2" width="51.18mm" height="67.05mm" viewBox="45430 4451 5118 6705" preserveAspectRatio="xMidYMid" fill-rule="evenodd" stroke-width="28.222" stroke-linejoin="round" xmlns="http://www.w3.org/2000/svg" xmlns:ooo="http://xml.openoffice.org/svg/export" xmlns:xlink="http://www.w3.org/1999/xlink" xmlns:presentation="http://sun.com/xmlns/staroffice/presentation" xmlns:smil="http://www.w3.org/2001/SMIL20/" xmlns:anim="urn:oasis:names:tc:opendocument:xmlns:animation:1.0" xmlns:svg="urn:oasis:names:tc:opendocument:xmlns:svg-compatible:1.0" xml:space="preserve">
 <defs class="EmbeddedBulletChars">
  <g id="bullet-char-template-57356" transform="scale(0.00048828125,-0.00048828125)">
   <path d="M 580,1141 L 1163,571 580,0 -4,571 580,1141 Z"/>
  </g>
  <g id="bullet-char-template-57354" transform="scale(0.00048828125,-0.00048828125)">
   <path d="M 8,1128 L 1137,1128 1137,0 8,0 8,1128 Z"/>
  </g>
  <g id="bullet-char-template-10146" transform="scale(0.00048828125,-0.00048828125)">
   <path d="M 174,0 L 602,739 174,1481 1456,739 174,0 Z M 1358,739 L 309,1346 659,739 1358,739 Z"/>
  </g>
  <g id="bullet-char-template-10132" transform="scale(0.00048828125,-0.00048828125)">
   <path d="M 2015,739 L 1276,0 717,0 1260,543 174,543 174,936 1260,936 717,1481 1274,1481 2015,739 Z"/>
  </g>
  <g id="bullet-char-template-10007" transform="scale(0.00048828125,-0.00048828125)">
   <path d="M 0,-2 C -7,14 -16,27 -25,37 L 356,567 C 262,823 215,952 215,954 215,979 228,992 255,992 264,992 276,990 289,987 310,991 331,999 354,1012 L 381,999 492,748 772,1049 836,1024 860,1049 C 881,1039 901,1025 922,1006 886,937 835,863 770,784 769,783 710,716 594,584 L 774,223 C 774,196 753,168 711,139 L 727,119 C 717,90 699,76 672,76 641,76 570,178 457,381 L 164,-76 C 142,-110 111,-127 72,-127 30,-127 9,-110 8,-76 1,-67 -2,-52 -2,-32 -2,-23 -1,-13 0,-2 Z"/>
  </g>
  <g id="bullet-char-template-10004" transform="scale(0.00048828125,-0.00048828125)">
   <path d="M 285,-33 C 182,-33 111,30 74,156 52,228 41,333 41,471 41,549 55,616 82,672 116,743 169,778 240,778 293,778 328,747 346,684 L 369,508 C 377,444 397,411 428,410 L 1163,1116 C 1174,1127 1196,1133 1229,1133 1271,1133 1292,1118 1292,1087 L 1292,965 C 1292,929 1282,901 1262,881 L 442,47 C 390,-6 338,-33 285,-33 Z"/>
  </g>
  <g id="bullet-char-template-9679" transform="scale(0.00048828125,-0.00048828125)">
   <path d="M 813,0 C 632,0 489,54 383,161 276,268 223,411 223,592 223,773 276,916 383,1023 489,1130 632,1184 813,1184 992,1184 1136,1130 1245,1023 1353,916 1407,772 1407,592 1407,412 1353,268 1245,161 1136,54 992,0 813,0 Z"/>
  </g>
  <g id="bullet-char-template-8226" transform="scale(0.00048828125,-0.00048828125)">
   <path d="M 346,457 C 273,457 209,483 155,535 101,586 74,649 74,723 74,796 101,859 155,911 209,963 273,989 346,989 419,989 480,963 531,910 582,859 608,796 608,723 608,648 583,586 532,535 482,483 420,457 346,457 Z"/>
  </g>
  <g id="bullet-char-template-8211" transform="scale(0.00048828125,-0.00048828125)">
   <path d="M -4,459 L 1135,459 1135,606 -4,606 -4,459 Z"/>
  </g>
  <g id="bullet-char-template-61548" transform="scale(0.00048828125,-0.00048828125)">
   <path d="M 173,740 C 173,903 231,1043 346,1159 462,1274 601,1332 765,1332 928,1332 1067,1274 1183,1159 1299,1043 1357,903 1357,740 1357,577 1299,437 1183,322 1067,206 928,148 765,148 601,148 462,206 346,322 231,437 173,577 173,740 Z"/>
  </g>
 </defs>
 <g class="Page">
  <g class="com.sun.star.drawing.CustomShape">
   <g id="id3">
    <rect class="BoundingBox" stroke="none" fill="none" x="45430" y="4451" width="5118" height="6705"/>
    <path fill="rgb(255,245,206)" stroke="none" d="M 46294,4469 L 46295,4469 C 46146,4469 46000,4508 45871,4582 45743,4657 45636,4764 45561,4892 45487,5021 45448,5167 45448,5316 L 45448,10290 45448,10290 C 45448,10439 45487,10585 45561,10714 45636,10842 45743,10949 45871,11024 46000,11098 46146,11137 46295,11137 L 49682,11137 49682,11137 C 49831,11137 49977,11098 50106,11024 50234,10949 50341,10842 50416,10714 50490,10585 50529,10439 50529,10290 L 50529,5315 50529,5316 50529,5316 C 50529,5167 50490,5021 50416,4892 50341,4764 50234,4657 50106,4582 49977,4508 49831,4469 49682,4469 L 46294,4469 Z"/>
    <path fill="none" stroke="rgb(184,92,0)" stroke-width="35" stroke-linejoin="round" d="M 46294,4469 L 46295,4469 C 46146,4469 46000,4508 45871,4582 45743,4657 45636,4764 45561,4892 45487,5021 45448,5167 45448,5316 L 45448,10290 45448,10290 C 45448,10439 45487,10585 45561,10714 45636,10842 45743,10949 45871,11024 46000,11098 46146,11137 46295,11137 L 49682,11137 49682,11137 C 49831,11137 49977,11098 50106,11024 50234,10949 50341,10842 50416,10714 50490,10585 50529,10439 50529,10290 L 50529,5315 50529,5316 50529,5316 C 50529,5167 50490,5021 50416,4892 50341,4764 50234,4657 50106,4582 49977,4508 49831,4469 49682,4469 L 46294,4469 Z"/>
   </g>
  </g>
  <g class="com.sun.star.drawing.CustomShape">
   <g id="id4">
    <rect class="BoundingBox" stroke="none" fill="none" x="45712" y="6955" width="4553" height="1697"/>
    <g>
     <defs>
      <pattern id="pattern1" x="45765" y="7009" width="4447" height="1590" patternUnits="userSpaceOnUse">
       <g transform="translate(-45765,-7009)">
        <line fill="rgb(255,0,0)" stroke="rgb(255,0,0)" x1="46004" y1="7718" x2="46004" y2="7888"/>
        <line fill="rgb(255,0,0)" stroke="rgb(255,0,0)" x1="46269" y1="7623" x2="46269" y2="7983"/>
        <line fill="rgb(255,0,0)" stroke="rgb(255,0,0)" x1="46534" y1="7528" x2="46534" y2="8078"/>
        <line fill="rgb(255,0,0)" stroke="rgb(255,0,0)" x1="46799" y1="7434" x2="46799" y2="8173"/>
        <line fill="rgb(255,0,0)" stroke="rgb(255,0,0)" x1="47064" y1="7339" x2="47064" y2="8268"/>
        <line fill="rgb(255,0,0)" stroke="rgb(255,0,0)" x1="47329" y1="7244" x2="47329" y2="8362"/>
        <line fill="rgb(255,0,0)" stroke="rgb(255,0,0)" x1="47594" y1="7150" x2="47594" y2="8457"/>
        <line fill="rgb(255,0,0)" stroke="rgb(255,0,0)" x1="47859" y1="7055" x2="47859" y2="8552"/>
        <line fill="rgb(255,0,0)" stroke="rgb(255,0,0)" x1="48124" y1="7058" x2="48124" y2="8549"/>
        <line fill="rgb(255,0,0)" stroke="rgb(255,0,0)" x1="48389" y1="7152" x2="48389" y2="8455"/>
        <line fill="rgb(255,0,0)" stroke="rgb(255,0,0)" x1="48654" y1="7247" x2="48654" y2="8360"/>
        <line fill="rgb(255,0,0)" stroke="rgb(255,0,0)" x1="48919" y1="7342" x2="48919" y2="8265"/>
        <line fill="rgb(255,0,0)" stroke="rgb(255,0,0)" x1="49184" y1="7436" x2="49184" y2="8170"/>
        <line fill="rgb(255,0,0)" stroke="rgb(255,0,0)" x1="49449" y1="7531" x2="49449" y2="8076"/>
        <line fill="rgb(255,0,0)" stroke="rgb(255,0,0)" x1="49714" y1="7625" x2="49714" y2="7981"/>
        <line fill="rgb(255,0,0)" stroke="rgb(255,0,0)" x1="49979" y1="7720" x2="49979" y2="7886"/>
       </g>
      </pattern>
     </defs>
     <path style="fill:url(#pattern1)" d="M 47988,7009 L 50211,7803 47988,8598 45765,7803 47988,7009 47988,7009 Z"/>
    </g>
    <path fill="none" stroke="rgb(255,64,0)" stroke-width="106" stroke-linejoin="round" d="M 47988,7009 L 50211,7803 47988,8598 45765,7803 47988,7009 47988,7009 Z"/>
   </g>
  </g>
 </g>
</svg>