<?xml version="1.0" encoding="UTF-8"?>
<!DOCTYPE svg PUBLIC "-//W3C//DTD SVG 1.1//EN" "http://www.w3.org/Graphics/SVG/1.1/DTD/svg11.dtd">
<svg version="1.2" width="51.18mm" height="67.05mm" viewBox="51133 19051 5118 6705" preserveAspectRatio="xMidYMid" fill-rule="evenodd" stroke-width="28.222" stroke-linejoin="round" xmlns="http://www.w3.org/2000/svg" xmlns:ooo="http://xml.openoffice.org/svg/export" xmlns:xlink="http://www.w3.org/1999/xlink" xmlns:presentation="http://sun.com/xmlns/staroffice/presentation" xmlns:smil="http://www.w3.org/2001/SMIL20/" xmlns:anim="urn:oasis:names:tc:opendocument:xmlns:animation:1.0" xmlns:svg="urn:oasis:names:tc:opendocument:xmlns:svg-compatible:1.0" xml:space="preserve">
 <defs class="EmbeddedBulletChars">
  <g id="bullet-char-template-57356" transform="scale(0.00048828125,-0.00048828125)">
   <path d="M 580,1141 L 1163,571 580,0 -4,571 580,1141 Z"/>
  </g>
  <g id="bullet-char-template-57354" transform="scale(0.00048828125,-0.00048828125)">
   <path d="M 8,1128 L 1137,1128 1137,0 8,0 8,1128 Z"/>
  </g>
  <g id="bullet-char-template-10146" transform="scale(0.00048828125,-0.00048828125)">
   <path d="M 174,0 L 602,739 174,1481 1456,739 174,0 Z M 1358,739 L 309,1346 659,739 1358,739 Z"/>
  </g>
  <g id="bullet-char-template-10132" transform="scale(0.00048828125,-0.00048828125)">
   <path d="M 2015,739 L 1276,0 717,0 1260,543 174,543 174,936 1260,936 717,1481 1274,1481 2015,739 Z"/>
  </g>
  <g id="bullet-char-template-10007" transform="scale(0.00048828125,-0.00048828125)">
   <path d="M 0,-2 C -7,14 -16,27 -25,37 L 356,567 C 262,823 215,952 215,954 215,979 228,992 255,992 264,992 276,990 289,987 310,991 331,999 354,1012 L 381,999 492,748 772,1049 836,1024 860,1049 C 881,1039 901,1025 922,1006 886,937 835,863 770,784 769,783 710,716 594,584 L 774,223 C 774,196 753,168 711,139 L 727,119 C 717,90 699,76 672,76 641,76 570,178 457,381 L 164,-76 C 142,-110 111,-127 72,-127 30,-127 9,-110 8,-76 1,-67 -2,-52 -2,-32 -2,-23 -1,-13 0,-2 Z"/>
  </g>
  <g id="bullet-char-template-10004" transform="scale(0.00048828125,-0.00048828125)">
   <path d="M 285,-33 C 182,-33 111,30 74,156 52,228 41,333 41,471 41,549 55,616 82,672 116,743 169,778 240,778 293,778 328,747 346,684 L 369,508 C 377,444 397,411 428,410 L 1163,1116 C 1174,1127 1196,1133 1229,1133 1271,1133 1292,1118 1292,1087 L 1292,965 C 1292,929 1282,901 1262,881 L 442,47 C 390,-6 338,-33 285,-33 Z"/>
  </g>
  <g id="bullet-char-template-9679" transform="scale(0.00048828125,-0.00048828125)">
   <path d="M 813,0 C 632,0 489,54 383,161 276,268 223,411 223,592 223,773 276,916 383,1023 489,1130 632,1184 813,1184 992,1184 1136,1130 1245,1023 1353,916 1407,772 1407,592 1407,412 1353,268 1245,161 1136,54 992,0 813,0 Z"/>
  </g>
  <g id="bullet-char-template-8226" transform="scale(0.00048828125,-0.00048828125)">
   <path d="M 346,457 C 273,457 209,483 155,535 101,586 74,649 74,723 74,796 101,859 155,911 209,963 273,989 346,989 419,989 480,963 531,910 582,859 608,796 608,723 608,648 583,586 532,535 482,483 420,457 346,457 Z"/>
  </g>
  <g id="bullet-char-template-8211" transform="scale(0.00048828125,-0.00048828125)">
   <path d="M -4,459 L 1135,459 1135,606 -4,606 -4,459 Z"/>
  </g>
  <g id="bullet-char-template-61548" transform="scale(0.00048828125,-0.00048828125)">
   <path d="M 173,740 C 173,903 231,1043 346,1159 462,1274 601,1332 765,1332 928,1332 1067,1274 1183,1159 1299,1043 1357,903 1357,740 1357,577 1299,437 1183,322 1067,206 928,148 765,148 601,148 462,206 346,322 231,437 173,577 173,740 Z"/>
  </g>
 </defs>
 <g class="Page">
  <g class="com.sun.star.drawing.CustomShape">
   <g id="id3">
    <rect class="BoundingBox" stroke="none" fill="none" x="51133" y="19051" width="5118" height="6705"/>
    <path fill="rgb(255,245,206)" stroke="none" d="M 51997,19069 L 51998,19069 C 51849,19069 51703,19108 51574,19182 51446,19257 51339,19364 51264,19492 51190,19621 51151,19767 51151,19916 L 51151,24890 51151,24890 C 51151,25039 51190,25185 51264,25314 51339,25442 51446,25549 51574,25624 51703,25698 51849,25737 51998,25737 L 55385,25737 55385,25737 C 55534,25737 55680,25698 55809,25624 55937,25549 56044,25442 56119,25314 56193,25185 56232,25039 56232,24890 L 56232,19915 56232,19916 56232,19916 C 56232,19767 56193,19621 56119,19492 56044,19364 55937,19257 55809,19182 55680,19108 55534,19069 55385,19069 L 51997,19069 Z"/>
    <path fill="none" stroke="rgb(184,92,0)" stroke-width="35" stroke-linejoin="round" d="M 51997,19069 L 51998,19069 C 51849,19069 51703,19108 51574,19182 51446,19257 51339,19364 51264,19492 51190,19621 51151,19767 51151,19916 L 51151,24890 51151,24890 C 51151,25039 51190,25185 51264,25314 51339,25442 51446,25549 51574,25624 51703,25698 51849,25737 51998,25737 L 55385,25737 55385,25737 C 55534,25737 55680,25698 55809,25624 55937,25549 56044,25442 56119,25314 56193,25185 56232,25039 56232,24890 L 56232,19915 56232,19916 56232,19916 C 56232,19767 56193,19621 56119,19492 56044,19364 55937,19257 55809,19182 55680,19108 55534,19069 55385,19069 L 51997,19069 Z"/>
   </g>
  </g>
  <g class="com.sun.star.drawing.CustomShape">
   <g id="id4">
    <rect class="BoundingBox" stroke="none" fill="none" x="51412" y="21557" width="4554" height="1697"/>
    <path fill="rgb(255,64,0)" stroke="none" d="M 52260,21611 L 52260,21611 C 52121,21611 51984,21648 51863,21717 51742,21787 51642,21887 51572,22008 51503,22129 51466,22266 51466,22405 L 51466,22405 51466,22405 C 51466,22545 51503,22682 51572,22803 51642,22924 51742,23024 51863,23094 51984,23163 52121,23200 52260,23200 L 55117,23200 55117,23200 C 55257,23200 55394,23163 55515,23094 55636,23024 55736,22924 55806,22803 55875,22682 55912,22545 55912,22405 L 55912,22405 55912,22405 55912,22405 C 55912,22266 55875,22129 55806,22008 55736,21887 55636,21787 55515,21717 55394,21648 55257,21611 55117,21611 L 52260,21611 Z"/>
    <path fill="none" stroke="rgb(255,64,0)" stroke-width="106" stroke-linejoin="round" d="M 52260,21611 L 52260,21611 C 52121,21611 51984,21648 51863,21717 51742,21787 51642,21887 51572,22008 51503,22129 51466,22266 51466,22405 L 51466,22405 51466,22405 C 51466,22545 51503,22682 51572,22803 51642,22924 51742,23024 51863,23094 51984,23163 52121,23200 52260,23200 L 55117,23200 55117,23200 C 55257,23200 55394,23163 55515,23094 55636,23024 55736,22924 55806,22803 55875,22682 55912,22545 55912,22405 L 55912,22405 55912,22405 55912,22405 C 55912,22266 55875,22129 55806,22008 55736,21887 55636,21787 55515,21717 55394,21648 55257,21611 55117,21611 L 52260,21611 Z"/>
   </g>
  </g>
 </g>
</svg>