<?xml version="1.0" encoding="UTF-8"?>
<!DOCTYPE svg PUBLIC "-//W3C//DTD SVG 1.1//EN" "http://www.w3.org/Graphics/SVG/1.1/DTD/svg11.dtd">
<svg version="1.2" width="51.18mm" height="67.05mm" viewBox="16831 11751 5118 6705" preserveAspectRatio="xMidYMid" fill-rule="evenodd" stroke-width="28.222" stroke-linejoin="round" xmlns="http://www.w3.org/2000/svg" xmlns:ooo="http://xml.openoffice.org/svg/export" xmlns:xlink="http://www.w3.org/1999/xlink" xmlns:presentation="http://sun.com/xmlns/staroffice/presentation" xmlns:smil="http://www.w3.org/2001/SMIL20/" xmlns:anim="urn:oasis:names:tc:opendocument:xmlns:animation:1.0" xmlns:svg="urn:oasis:names:tc:opendocument:xmlns:svg-compatible:1.0" xml:space="preserve">
 <defs class="EmbeddedBulletChars">
  <g id="bullet-char-template-57356" transform="scale(0.00048828125,-0.00048828125)">
   <path d="M 580,1141 L 1163,571 580,0 -4,571 580,1141 Z"/>
  </g>
  <g id="bullet-char-template-57354" transform="scale(0.00048828125,-0.00048828125)">
   <path d="M 8,1128 L 1137,1128 1137,0 8,0 8,1128 Z"/>
  </g>
  <g id="bullet-char-template-10146" transform="scale(0.00048828125,-0.00048828125)">
   <path d="M 174,0 L 602,739 174,1481 1456,739 174,0 Z M 1358,739 L 309,1346 659,739 1358,739 Z"/>
  </g>
  <g id="bullet-char-template-10132" transform="scale(0.00048828125,-0.00048828125)">
   <path d="M 2015,739 L 1276,0 717,0 1260,543 174,543 174,936 1260,936 717,1481 1274,1481 2015,739 Z"/>
  </g>
  <g id="bullet-char-template-10007" transform="scale(0.00048828125,-0.00048828125)">
   <path d="M 0,-2 C -7,14 -16,27 -25,37 L 356,567 C 262,823 215,952 215,954 215,979 228,992 255,992 264,992 276,990 289,987 310,991 331,999 354,1012 L 381,999 492,748 772,1049 836,1024 860,1049 C 881,1039 901,1025 922,1006 886,937 835,863 770,784 769,783 710,716 594,584 L 774,223 C 774,196 753,168 711,139 L 727,119 C 717,90 699,76 672,76 641,76 570,178 457,381 L 164,-76 C 142,-110 111,-127 72,-127 30,-127 9,-110 8,-76 1,-67 -2,-52 -2,-32 -2,-23 -1,-13 0,-2 Z"/>
  </g>
  <g id="bullet-char-template-10004" transform="scale(0.00048828125,-0.00048828125)">
   <path d="M 285,-33 C 182,-33 111,30 74,156 52,228 41,333 41,471 41,549 55,616 82,672 116,743 169,778 240,778 293,778 328,747 346,684 L 369,508 C 377,444 397,411 428,410 L 1163,1116 C 1174,1127 1196,1133 1229,1133 1271,1133 1292,1118 1292,1087 L 1292,965 C 1292,929 1282,901 1262,881 L 442,47 C 390,-6 338,-33 285,-33 Z"/>
  </g>
  <g id="bullet-char-template-9679" transform="scale(0.00048828125,-0.00048828125)">
   <path d="M 813,0 C 632,0 489,54 383,161 276,268 223,411 223,592 223,773 276,916 383,1023 489,1130 632,1184 813,1184 992,1184 1136,1130 1245,1023 1353,916 1407,772 1407,592 1407,412 1353,268 1245,161 1136,54 992,0 813,0 Z"/>
  </g>
  <g id="bullet-char-template-8226" transform="scale(0.00048828125,-0.00048828125)">
   <path d="M 346,457 C 273,457 209,483 155,535 101,586 74,649 74,723 74,796 101,859 155,911 209,963 273,989 346,989 419,989 480,963 531,910 582,859 608,796 608,723 608,648 583,586 532,535 482,483 420,457 346,457 Z"/>
  </g>
  <g id="bullet-char-template-8211" transform="scale(0.00048828125,-0.00048828125)">
   <path d="M -4,459 L 1135,459 1135,606 -4,606 -4,459 Z"/>
  </g>
  <g id="bullet-char-template-61548" transform="scale(0.00048828125,-0.00048828125)">
   <path d="M 173,740 C 173,903 231,1043 346,1159 462,1274 601,1332 765,1332 928,1332 1067,1274 1183,1159 1299,1043 1357,903 1357,740 1357,577 1299,437 1183,322 1067,206 928,148 765,148 601,148 462,206 346,322 231,437 173,577 173,740 Z"/>
  </g>
 </defs>
 <g class="Page">
  <g class="com.sun.star.drawing.CustomShape">
   <g id="id3">
    <rect class="BoundingBox" stroke="none" fill="none" x="16831" y="11751" width="5118" height="6705"/>
    <path fill="rgb(255,245,206)" stroke="none" d="M 17695,11769 L 17696,11769 C 17547,11769 17401,11808 17272,11882 17144,11957 17037,12064 16962,12192 16888,12321 16849,12467 16849,12616 L 16849,17590 16849,17590 C 16849,17739 16888,17885 16962,18014 17037,18142 17144,18249 17272,18324 17401,18398 17547,18437 17696,18437 L 21083,18437 21083,18437 C 21232,18437 21378,18398 21507,18324 21635,18249 21742,18142 21817,18014 21891,17885 21930,17739 21930,17590 L 21930,12615 21930,12616 21930,12616 C 21930,12467 21891,12321 21817,12192 21742,12064 21635,11957 21507,11882 21378,11808 21232,11769 21083,11769 L 17695,11769 Z"/>
    <path fill="none" stroke="rgb(184,92,0)" stroke-width="35" stroke-linejoin="round" d="M 17695,11769 L 17696,11769 C 17547,11769 17401,11808 17272,11882 17144,11957 17037,12064 16962,12192 16888,12321 16849,12467 16849,12616 L 16849,17590 16849,17590 C 16849,17739 16888,17885 16962,18014 17037,18142 17144,18249 17272,18324 17401,18398 17547,18437 17696,18437 L 21083,18437 21083,18437 C 21232,18437 21378,18398 21507,18324 21635,18249 21742,18142 21817,18014 21891,17885 21930,17739 21930,17590 L 21930,12615 21930,12616 21930,12616 C 21930,12467 21891,12321 21817,12192 21742,12064 21635,11957 21507,11882 21378,11808 21232,11769 21083,11769 L 17695,11769 Z"/>
   </g>
  </g>
  <g class="com.sun.star.drawing.CustomShape">
   <g id="id4">
    <rect class="BoundingBox" stroke="none" fill="none" x="17113" y="14286" width="4552" height="1636"/>
    <path fill="rgb(129,212,26)" stroke="none" d="M 21611,14496 C 21443,14621 20910,14620 20506,14647 20083,14624 19531,14614 19412,14499 19257,14360 18689,14350 18288,14339 17769,14351 17354,14366 17166,14496 L 17166,15713 C 17364,15578 17841,15577 18290,15559 18584,15568 19284,15578 19395,15714 19523,15836 20093,15846 20523,15868 20949,15843 21486,15834 21611,15713 L 21611,14496 Z"/>
    <path fill="none" stroke="rgb(129,212,26)" stroke-width="106" stroke-linejoin="round" d="M 21611,14496 C 21443,14621 20910,14620 20506,14647 20083,14624 19531,14614 19412,14499 19257,14360 18689,14350 18288,14339 17769,14351 17354,14366 17166,14496 L 17166,15713 C 17364,15578 17841,15577 18290,15559 18584,15568 19284,15578 19395,15714 19523,15836 20093,15846 20523,15868 20949,15843 21486,15834 21611,15713 L 21611,14496 Z"/>
   </g>
  </g>
 </g>
</svg>