<?xml version="1.0" encoding="UTF-8"?>
<!DOCTYPE svg PUBLIC "-//W3C//DTD SVG 1.1//EN" "http://www.w3.org/Graphics/SVG/1.1/DTD/svg11.dtd">
<svg version="1.2" width="51.18mm" height="67.05mm" viewBox="45432 11751 5118 6705" preserveAspectRatio="xMidYMid" fill-rule="evenodd" stroke-width="28.222" stroke-linejoin="round" xmlns="http://www.w3.org/2000/svg" xmlns:ooo="http://xml.openoffice.org/svg/export" xmlns:xlink="http://www.w3.org/1999/xlink" xmlns:presentation="http://sun.com/xmlns/staroffice/presentation" xmlns:smil="http://www.w3.org/2001/SMIL20/" xmlns:anim="urn:oasis:names:tc:opendocument:xmlns:animation:1.0" xmlns:svg="urn:oasis:names:tc:opendocument:xmlns:svg-compatible:1.0" xml:space="preserve">
 <defs class="EmbeddedBulletChars">
  <g id="bullet-char-template-57356" transform="scale(0.00048828125,-0.00048828125)">
   <path d="M 580,1141 L 1163,571 580,0 -4,571 580,1141 Z"/>
  </g>
  <g id="bullet-char-template-57354" transform="scale(0.00048828125,-0.00048828125)">
   <path d="M 8,1128 L 1137,1128 1137,0 8,0 8,1128 Z"/>
  </g>
  <g id="bullet-char-template-10146" transform="scale(0.00048828125,-0.00048828125)">
   <path d="M 174,0 L 602,739 174,1481 1456,739 174,0 Z M 1358,739 L 309,1346 659,739 1358,739 Z"/>
  </g>
  <g id="bullet-char-template-10132" transform="scale(0.00048828125,-0.00048828125)">
   <path d="M 2015,739 L 1276,0 717,0 1260,543 174,543 174,936 1260,936 717,1481 1274,1481 2015,739 Z"/>
  </g>
  <g id="bullet-char-template-10007" transform="scale(0.00048828125,-0.00048828125)">
   <path d="M 0,-2 C -7,14 -16,27 -25,37 L 356,567 C 262,823 215,952 215,954 215,979 228,992 255,992 264,992 276,990 289,987 310,991 331,999 354,1012 L 381,999 492,748 772,1049 836,1024 860,1049 C 881,1039 901,1025 922,1006 886,937 835,863 770,784 769,783 710,716 594,584 L 774,223 C 774,196 753,168 711,139 L 727,119 C 717,90 699,76 672,76 641,76 570,178 457,381 L 164,-76 C 142,-110 111,-127 72,-127 30,-127 9,-110 8,-76 1,-67 -2,-52 -2,-32 -2,-23 -1,-13 0,-2 Z"/>
  </g>
  <g id="bullet-char-template-10004" transform="scale(0.00048828125,-0.00048828125)">
   <path d="M 285,-33 C 182,-33 111,30 74,156 52,228 41,333 41,471 41,549 55,616 82,672 116,743 169,778 240,778 293,778 328,747 346,684 L 369,508 C 377,444 397,411 428,410 L 1163,1116 C 1174,1127 1196,1133 1229,1133 1271,1133 1292,1118 1292,1087 L 1292,965 C 1292,929 1282,901 1262,881 L 442,47 C 390,-6 338,-33 285,-33 Z"/>
  </g>
  <g id="bullet-char-template-9679" transform="scale(0.00048828125,-0.00048828125)">
   <path d="M 813,0 C 632,0 489,54 383,161 276,268 223,411 223,592 223,773 276,916 383,1023 489,1130 632,1184 813,1184 992,1184 1136,1130 1245,1023 1353,916 1407,772 1407,592 1407,412 1353,268 1245,161 1136,54 992,0 813,0 Z"/>
  </g>
  <g id="bullet-char-template-8226" transform="scale(0.00048828125,-0.00048828125)">
   <path d="M 346,457 C 273,457 209,483 155,535 101,586 74,649 74,723 74,796 101,859 155,911 209,963 273,989 346,989 419,989 480,963 531,910 582,859 608,796 608,723 608,648 583,586 532,535 482,483 420,457 346,457 Z"/>
  </g>
  <g id="bullet-char-template-8211" transform="scale(0.00048828125,-0.00048828125)">
   <path d="M -4,459 L 1135,459 1135,606 -4,606 -4,459 Z"/>
  </g>
  <g id="bullet-char-template-61548" transform="scale(0.00048828125,-0.00048828125)">
   <path d="M 173,740 C 173,903 231,1043 346,1159 462,1274 601,1332 765,1332 928,1332 1067,1274 1183,1159 1299,1043 1357,903 1357,740 1357,577 1299,437 1183,322 1067,206 928,148 765,148 601,148 462,206 346,322 231,437 173,577 173,740 Z"/>
  </g>
 </defs>
 <g class="Page">
  <g class="com.sun.star.drawing.CustomShape">
   <g id="id3">
    <rect class="BoundingBox" stroke="none" fill="none" x="45432" y="11751" width="5118" height="6705"/>
    <path fill="rgb(255,245,206)" stroke="none" d="M 46296,11769 L 46297,11769 C 46148,11769 46002,11808 45873,11882 45745,11957 45638,12064 45563,12192 45489,12321 45450,12467 45450,12616 L 45450,17590 45450,17590 C 45450,17739 45489,17885 45563,18014 45638,18142 45745,18249 45873,18324 46002,18398 46148,18437 46297,18437 L 49684,18437 49684,18437 C 49833,18437 49979,18398 50108,18324 50236,18249 50343,18142 50418,18014 50492,17885 50531,17739 50531,17590 L 50531,12615 50531,12616 50531,12616 C 50531,12467 50492,12321 50418,12192 50343,12064 50236,11957 50108,11882 49979,11808 49833,11769 49684,11769 L 46296,11769 Z"/>
    <path fill="none" stroke="rgb(184,92,0)" stroke-width="35" stroke-linejoin="round" d="M 46296,11769 L 46297,11769 C 46148,11769 46002,11808 45873,11882 45745,11957 45638,12064 45563,12192 45489,12321 45450,12467 45450,12616 L 45450,17590 45450,17590 C 45450,17739 45489,17885 45563,18014 45638,18142 45745,18249 45873,18324 46002,18398 46148,18437 46297,18437 L 49684,18437 49684,18437 C 49833,18437 49979,18398 50108,18324 50236,18249 50343,18142 50418,18014 50492,17885 50531,17739 50531,17590 L 50531,12615 50531,12616 50531,12616 C 50531,12467 50492,12321 50418,12192 50343,12064 50236,11957 50108,11882 49979,11808 49833,11769 49684,11769 L 46296,11769 Z"/>
   </g>
  </g>
  <g class="com.sun.star.drawing.CustomShape">
   <g id="id4">
    <rect class="BoundingBox" stroke="none" fill="none" x="45712" y="14286" width="4552" height="1636"/>
    <g>
     <defs>
      <pattern id="pattern1" x="45765" y="14339" width="4446" height="1530" patternUnits="userSpaceOnUse">
       <g transform="translate(-45765,-14339)">
        <line fill="rgb(255,64,0)" stroke="rgb(255,64,0)" x1="46004" y1="14406" x2="46004" y2="15627"/>
        <line fill="rgb(255,64,0)" stroke="rgb(255,64,0)" x1="46269" y1="14367" x2="46269" y2="15590"/>
        <line fill="rgb(255,64,0)" stroke="rgb(255,64,0)" x1="46534" y1="14350" x2="46534" y2="15573"/>
        <line fill="rgb(255,64,0)" stroke="rgb(255,64,0)" x1="46799" y1="14342" x2="46799" y2="15562"/>
        <line fill="rgb(255,64,0)" stroke="rgb(255,64,0)" x1="47064" y1="14344" x2="47064" y2="15565"/>
        <line fill="rgb(255,64,0)" stroke="rgb(255,64,0)" x1="47329" y1="14357" x2="47329" y2="15578"/>
        <line fill="rgb(255,64,0)" stroke="rgb(255,64,0)" x1="47594" y1="14378" x2="47594" y2="15599"/>
        <line fill="rgb(255,64,0)" stroke="rgb(255,64,0)" x1="47859" y1="14427" x2="47859" y2="15645"/>
        <line fill="rgb(255,64,0)" stroke="rgb(255,64,0)" x1="48124" y1="14554" x2="48124" y2="15776"/>
        <line fill="rgb(255,64,0)" stroke="rgb(255,64,0)" x1="48389" y1="14601" x2="48389" y2="15822"/>
        <line fill="rgb(255,64,0)" stroke="rgb(255,64,0)" x1="48654" y1="14622" x2="48654" y2="15843"/>
        <line fill="rgb(255,64,0)" stroke="rgb(255,64,0)" x1="48919" y1="14638" x2="48919" y2="15858"/>
        <line fill="rgb(255,64,0)" stroke="rgb(255,64,0)" x1="49184" y1="14642" x2="49184" y2="15865"/>
        <line fill="rgb(255,64,0)" stroke="rgb(255,64,0)" x1="49449" y1="14626" x2="49449" y2="15850"/>
        <line fill="rgb(255,64,0)" stroke="rgb(255,64,0)" x1="49714" y1="14610" x2="49714" y2="15832"/>
        <line fill="rgb(255,64,0)" stroke="rgb(255,64,0)" x1="49979" y1="14577" x2="49979" y2="15798"/>
       </g>
      </pattern>
     </defs>
     <path style="fill:url(#pattern1)" d="M 50210,14496 L 50193,14507 50174,14518 50131,14537 50080,14554 50023,14569 49893,14592 49746,14608 49105,14647 48772,14630 48444,14608 48298,14590 48173,14567 48120,14553 48075,14537 48038,14519 48023,14509 48011,14499 47995,14486 47977,14474 47935,14453 47884,14434 47826,14417 47693,14390 47541,14371 47210,14349 46887,14339 46519,14350 46353,14360 46202,14373 46066,14392 45947,14418 45894,14434 45846,14452 45803,14473 45765,14496 45765,15713 45805,15689 45852,15668 45904,15650 45961,15635 46089,15610 46233,15592 46552,15572 46889,15559 47170,15568 47510,15589 47673,15608 47816,15634 47876,15650 47927,15669 47948,15679 47967,15690 47982,15702 47994,15714 48007,15725 48023,15736 48062,15755 48109,15772 48164,15786 48294,15811 48445,15829 48782,15852 49122,15868 49454,15850 49779,15827 49923,15809 50047,15785 50100,15770 50145,15753 50182,15734 50197,15724 50210,15713 50210,14496 Z"/>
    </g>
    <path fill="none" stroke="rgb(255,64,0)" stroke-width="106" stroke-linejoin="round" d="M 50210,14496 C 50042,14621 49509,14620 49105,14647 48682,14624 48130,14614 48011,14499 47856,14360 47288,14350 46887,14339 46368,14351 45953,14366 45765,14496 L 45765,15713 C 45963,15578 46440,15577 46889,15559 47183,15568 47883,15578 47994,15714 48122,15836 48692,15846 49122,15868 49548,15843 50085,15834 50210,15713 L 50210,14496 Z"/>
   </g>
  </g>
 </g>
</svg>