<?xml version="1.0" encoding="UTF-8"?>
<!DOCTYPE svg PUBLIC "-//W3C//DTD SVG 1.1//EN" "http://www.w3.org/Graphics/SVG/1.1/DTD/svg11.dtd">
<svg version="1.2" width="51.18mm" height="67.05mm" viewBox="28230 27051 5118 6705" preserveAspectRatio="xMidYMid" fill-rule="evenodd" stroke-width="28.222" stroke-linejoin="round" xmlns="http://www.w3.org/2000/svg" xmlns:ooo="http://xml.openoffice.org/svg/export" xmlns:xlink="http://www.w3.org/1999/xlink" xmlns:presentation="http://sun.com/xmlns/staroffice/presentation" xmlns:smil="http://www.w3.org/2001/SMIL20/" xmlns:anim="urn:oasis:names:tc:opendocument:xmlns:animation:1.0" xmlns:svg="urn:oasis:names:tc:opendocument:xmlns:svg-compatible:1.0" xml:space="preserve">
 <defs class="EmbeddedBulletChars">
  <g id="bullet-char-template-57356" transform="scale(0.00048828125,-0.00048828125)">
   <path d="M 580,1141 L 1163,571 580,0 -4,571 580,1141 Z"/>
  </g>
  <g id="bullet-char-template-57354" transform="scale(0.00048828125,-0.00048828125)">
   <path d="M 8,1128 L 1137,1128 1137,0 8,0 8,1128 Z"/>
  </g>
  <g id="bullet-char-template-10146" transform="scale(0.00048828125,-0.00048828125)">
   <path d="M 174,0 L 602,739 174,1481 1456,739 174,0 Z M 1358,739 L 309,1346 659,739 1358,739 Z"/>
  </g>
  <g id="bullet-char-template-10132" transform="scale(0.00048828125,-0.00048828125)">
   <path d="M 2015,739 L 1276,0 717,0 1260,543 174,543 174,936 1260,936 717,1481 1274,1481 2015,739 Z"/>
  </g>
  <g id="bullet-char-template-10007" transform="scale(0.00048828125,-0.00048828125)">
   <path d="M 0,-2 C -7,14 -16,27 -25,37 L 356,567 C 262,823 215,952 215,954 215,979 228,992 255,992 264,992 276,990 289,987 310,991 331,999 354,1012 L 381,999 492,748 772,1049 836,1024 860,1049 C 881,1039 901,1025 922,1006 886,937 835,863 770,784 769,783 710,716 594,584 L 774,223 C 774,196 753,168 711,139 L 727,119 C 717,90 699,76 672,76 641,76 570,178 457,381 L 164,-76 C 142,-110 111,-127 72,-127 30,-127 9,-110 8,-76 1,-67 -2,-52 -2,-32 -2,-23 -1,-13 0,-2 Z"/>
  </g>
  <g id="bullet-char-template-10004" transform="scale(0.00048828125,-0.00048828125)">
   <path d="M 285,-33 C 182,-33 111,30 74,156 52,228 41,333 41,471 41,549 55,616 82,672 116,743 169,778 240,778 293,778 328,747 346,684 L 369,508 C 377,444 397,411 428,410 L 1163,1116 C 1174,1127 1196,1133 1229,1133 1271,1133 1292,1118 1292,1087 L 1292,965 C 1292,929 1282,901 1262,881 L 442,47 C 390,-6 338,-33 285,-33 Z"/>
  </g>
  <g id="bullet-char-template-9679" transform="scale(0.00048828125,-0.00048828125)">
   <path d="M 813,0 C 632,0 489,54 383,161 276,268 223,411 223,592 223,773 276,916 383,1023 489,1130 632,1184 813,1184 992,1184 1136,1130 1245,1023 1353,916 1407,772 1407,592 1407,412 1353,268 1245,161 1136,54 992,0 813,0 Z"/>
  </g>
  <g id="bullet-char-template-8226" transform="scale(0.00048828125,-0.00048828125)">
   <path d="M 346,457 C 273,457 209,483 155,535 101,586 74,649 74,723 74,796 101,859 155,911 209,963 273,989 346,989 419,989 480,963 531,910 582,859 608,796 608,723 608,648 583,586 532,535 482,483 420,457 346,457 Z"/>
  </g>
  <g id="bullet-char-template-8211" transform="scale(0.00048828125,-0.00048828125)">
   <path d="M -4,459 L 1135,459 1135,606 -4,606 -4,459 Z"/>
  </g>
  <g id="bullet-char-template-61548" transform="scale(0.00048828125,-0.00048828125)">
   <path d="M 173,740 C 173,903 231,1043 346,1159 462,1274 601,1332 765,1332 928,1332 1067,1274 1183,1159 1299,1043 1357,903 1357,740 1357,577 1299,437 1183,322 1067,206 928,148 765,148 601,148 462,206 346,322 231,437 173,577 173,740 Z"/>
  </g>
 </defs>
 <g class="Page">
  <g class="com.sun.star.drawing.CustomShape">
   <g id="id3">
    <rect class="BoundingBox" stroke="none" fill="none" x="28230" y="27051" width="5118" height="6705"/>
    <path fill="rgb(255,245,206)" stroke="none" d="M 29094,27069 L 29095,27069 C 28946,27069 28800,27108 28671,27182 28543,27257 28436,27364 28361,27492 28287,27621 28248,27767 28248,27916 L 28248,32890 28248,32890 C 28248,33039 28287,33185 28361,33314 28436,33442 28543,33549 28671,33624 28800,33698 28946,33737 29095,33737 L 32482,33737 32482,33737 C 32631,33737 32777,33698 32906,33624 33034,33549 33141,33442 33216,33314 33290,33185 33329,33039 33329,32890 L 33329,27915 33329,27916 33329,27916 C 33329,27767 33290,27621 33216,27492 33141,27364 33034,27257 32906,27182 32777,27108 32631,27069 32482,27069 L 29094,27069 Z"/>
    <path fill="none" stroke="rgb(184,92,0)" stroke-width="35" stroke-linejoin="round" d="M 29094,27069 L 29095,27069 C 28946,27069 28800,27108 28671,27182 28543,27257 28436,27364 28361,27492 28287,27621 28248,27767 28248,27916 L 28248,32890 28248,32890 C 28248,33039 28287,33185 28361,33314 28436,33442 28543,33549 28671,33624 28800,33698 28946,33737 29095,33737 L 32482,33737 32482,33737 C 32631,33737 32777,33698 32906,33624 33034,33549 33141,33442 33216,33314 33290,33185 33329,33039 33329,32890 L 33329,27915 33329,27916 33329,27916 C 33329,27767 33290,27621 33216,27492 33141,27364 33034,27257 32906,27182 32777,27108 32631,27069 32482,27069 L 29094,27069 Z"/>
   </g>
  </g>
  <g class="com.sun.star.drawing.CustomShape">
   <g id="id4">
    <rect class="BoundingBox" stroke="none" fill="none" x="28512" y="28606" width="4553" height="1696"/>
    <g>
     <defs>
      <pattern id="pattern1" x="28565" y="28659" width="4447" height="1590" patternUnits="userSpaceOnUse">
       <g transform="translate(-28565,-28659)">
        <line fill="rgb(42,96,153)" stroke="rgb(42,96,153)" x1="28804" y1="29368" x2="28804" y2="29538"/>
        <line fill="rgb(42,96,153)" stroke="rgb(42,96,153)" x1="29069" y1="29273" x2="29069" y2="29633"/>
        <line fill="rgb(42,96,153)" stroke="rgb(42,96,153)" x1="29334" y1="29178" x2="29334" y2="29728"/>
        <line fill="rgb(42,96,153)" stroke="rgb(42,96,153)" x1="29599" y1="29084" x2="29599" y2="29823"/>
        <line fill="rgb(42,96,153)" stroke="rgb(42,96,153)" x1="29864" y1="28989" x2="29864" y2="29918"/>
        <line fill="rgb(42,96,153)" stroke="rgb(42,96,153)" x1="30129" y1="28894" x2="30129" y2="30012"/>
        <line fill="rgb(42,96,153)" stroke="rgb(42,96,153)" x1="30394" y1="28800" x2="30394" y2="30107"/>
        <line fill="rgb(42,96,153)" stroke="rgb(42,96,153)" x1="30659" y1="28705" x2="30659" y2="30202"/>
        <line fill="rgb(42,96,153)" stroke="rgb(42,96,153)" x1="30924" y1="28708" x2="30924" y2="30199"/>
        <line fill="rgb(42,96,153)" stroke="rgb(42,96,153)" x1="31189" y1="28802" x2="31189" y2="30105"/>
        <line fill="rgb(42,96,153)" stroke="rgb(42,96,153)" x1="31454" y1="28897" x2="31454" y2="30010"/>
        <line fill="rgb(42,96,153)" stroke="rgb(42,96,153)" x1="31719" y1="28992" x2="31719" y2="29915"/>
        <line fill="rgb(42,96,153)" stroke="rgb(42,96,153)" x1="31984" y1="29086" x2="31984" y2="29820"/>
        <line fill="rgb(42,96,153)" stroke="rgb(42,96,153)" x1="32249" y1="29181" x2="32249" y2="29726"/>
        <line fill="rgb(42,96,153)" stroke="rgb(42,96,153)" x1="32514" y1="29275" x2="32514" y2="29631"/>
        <line fill="rgb(42,96,153)" stroke="rgb(42,96,153)" x1="32779" y1="29370" x2="32779" y2="29536"/>
       </g>
      </pattern>
     </defs>
     <path style="fill:url(#pattern1)" d="M 30788,28659 L 33011,29453 30788,30248 28565,29453 30788,28659 30788,28659 Z"/>
    </g>
    <path fill="none" stroke="rgb(42,96,153)" stroke-width="106" stroke-linejoin="round" d="M 30788,28659 L 33011,29453 30788,30248 28565,29453 30788,28659 30788,28659 Z"/>
   </g>
  </g>
  <g class="com.sun.star.drawing.CustomShape">
   <g id="id5">
    <rect class="BoundingBox" stroke="none" fill="none" x="28512" y="30507" width="4553" height="1696"/>
    <g>
     <defs>
      <pattern id="pattern2" x="28565" y="30560" width="4447" height="1590" patternUnits="userSpaceOnUse">
       <g transform="translate(-28565,-30560)">
        <line fill="rgb(42,96,153)" stroke="rgb(42,96,153)" x1="28804" y1="31269" x2="28804" y2="31439"/>
        <line fill="rgb(42,96,153)" stroke="rgb(42,96,153)" x1="29069" y1="31174" x2="29069" y2="31534"/>
        <line fill="rgb(42,96,153)" stroke="rgb(42,96,153)" x1="29334" y1="31079" x2="29334" y2="31629"/>
        <line fill="rgb(42,96,153)" stroke="rgb(42,96,153)" x1="29599" y1="30985" x2="29599" y2="31724"/>
        <line fill="rgb(42,96,153)" stroke="rgb(42,96,153)" x1="29864" y1="30890" x2="29864" y2="31819"/>
        <line fill="rgb(42,96,153)" stroke="rgb(42,96,153)" x1="30129" y1="30795" x2="30129" y2="31913"/>
        <line fill="rgb(42,96,153)" stroke="rgb(42,96,153)" x1="30394" y1="30701" x2="30394" y2="32008"/>
        <line fill="rgb(42,96,153)" stroke="rgb(42,96,153)" x1="30659" y1="30606" x2="30659" y2="32103"/>
        <line fill="rgb(42,96,153)" stroke="rgb(42,96,153)" x1="30924" y1="30609" x2="30924" y2="32100"/>
        <line fill="rgb(42,96,153)" stroke="rgb(42,96,153)" x1="31189" y1="30703" x2="31189" y2="32006"/>
        <line fill="rgb(42,96,153)" stroke="rgb(42,96,153)" x1="31454" y1="30798" x2="31454" y2="31911"/>
        <line fill="rgb(42,96,153)" stroke="rgb(42,96,153)" x1="31719" y1="30893" x2="31719" y2="31816"/>
        <line fill="rgb(42,96,153)" stroke="rgb(42,96,153)" x1="31984" y1="30987" x2="31984" y2="31721"/>
        <line fill="rgb(42,96,153)" stroke="rgb(42,96,153)" x1="32249" y1="31082" x2="32249" y2="31627"/>
        <line fill="rgb(42,96,153)" stroke="rgb(42,96,153)" x1="32514" y1="31176" x2="32514" y2="31532"/>
        <line fill="rgb(42,96,153)" stroke="rgb(42,96,153)" x1="32779" y1="31271" x2="32779" y2="31437"/>
       </g>
      </pattern>
     </defs>
     <path style="fill:url(#pattern2)" d="M 30788,30560 L 33011,31354 30788,32149 28565,31354 30788,30560 30788,30560 Z"/>
    </g>
    <path fill="none" stroke="rgb(42,96,153)" stroke-width="106" stroke-linejoin="round" d="M 30788,30560 L 33011,31354 30788,32149 28565,31354 30788,30560 30788,30560 Z"/>
   </g>
  </g>
 </g>
</svg>