<?xml version="1.0" encoding="UTF-8"?>
<!DOCTYPE svg PUBLIC "-//W3C//DTD SVG 1.1//EN" "http://www.w3.org/Graphics/SVG/1.1/DTD/svg11.dtd">
<svg version="1.2" width="51.18mm" height="67.05mm" viewBox="22531 41651 5118 6705" preserveAspectRatio="xMidYMid" fill-rule="evenodd" stroke-width="28.222" stroke-linejoin="round" xmlns="http://www.w3.org/2000/svg" xmlns:ooo="http://xml.openoffice.org/svg/export" xmlns:xlink="http://www.w3.org/1999/xlink" xmlns:presentation="http://sun.com/xmlns/staroffice/presentation" xmlns:smil="http://www.w3.org/2001/SMIL20/" xmlns:anim="urn:oasis:names:tc:opendocument:xmlns:animation:1.0" xmlns:svg="urn:oasis:names:tc:opendocument:xmlns:svg-compatible:1.0" xml:space="preserve">
 <defs class="EmbeddedBulletChars">
  <g id="bullet-char-template-57356" transform="scale(0.00048828125,-0.00048828125)">
   <path d="M 580,1141 L 1163,571 580,0 -4,571 580,1141 Z"/>
  </g>
  <g id="bullet-char-template-57354" transform="scale(0.00048828125,-0.00048828125)">
   <path d="M 8,1128 L 1137,1128 1137,0 8,0 8,1128 Z"/>
  </g>
  <g id="bullet-char-template-10146" transform="scale(0.00048828125,-0.00048828125)">
   <path d="M 174,0 L 602,739 174,1481 1456,739 174,0 Z M 1358,739 L 309,1346 659,739 1358,739 Z"/>
  </g>
  <g id="bullet-char-template-10132" transform="scale(0.00048828125,-0.00048828125)">
   <path d="M 2015,739 L 1276,0 717,0 1260,543 174,543 174,936 1260,936 717,1481 1274,1481 2015,739 Z"/>
  </g>
  <g id="bullet-char-template-10007" transform="scale(0.00048828125,-0.00048828125)">
   <path d="M 0,-2 C -7,14 -16,27 -25,37 L 356,567 C 262,823 215,952 215,954 215,979 228,992 255,992 264,992 276,990 289,987 310,991 331,999 354,1012 L 381,999 492,748 772,1049 836,1024 860,1049 C 881,1039 901,1025 922,1006 886,937 835,863 770,784 769,783 710,716 594,584 L 774,223 C 774,196 753,168 711,139 L 727,119 C 717,90 699,76 672,76 641,76 570,178 457,381 L 164,-76 C 142,-110 111,-127 72,-127 30,-127 9,-110 8,-76 1,-67 -2,-52 -2,-32 -2,-23 -1,-13 0,-2 Z"/>
  </g>
  <g id="bullet-char-template-10004" transform="scale(0.00048828125,-0.00048828125)">
   <path d="M 285,-33 C 182,-33 111,30 74,156 52,228 41,333 41,471 41,549 55,616 82,672 116,743 169,778 240,778 293,778 328,747 346,684 L 369,508 C 377,444 397,411 428,410 L 1163,1116 C 1174,1127 1196,1133 1229,1133 1271,1133 1292,1118 1292,1087 L 1292,965 C 1292,929 1282,901 1262,881 L 442,47 C 390,-6 338,-33 285,-33 Z"/>
  </g>
  <g id="bullet-char-template-9679" transform="scale(0.00048828125,-0.00048828125)">
   <path d="M 813,0 C 632,0 489,54 383,161 276,268 223,411 223,592 223,773 276,916 383,1023 489,1130 632,1184 813,1184 992,1184 1136,1130 1245,1023 1353,916 1407,772 1407,592 1407,412 1353,268 1245,161 1136,54 992,0 813,0 Z"/>
  </g>
  <g id="bullet-char-template-8226" transform="scale(0.00048828125,-0.00048828125)">
   <path d="M 346,457 C 273,457 209,483 155,535 101,586 74,649 74,723 74,796 101,859 155,911 209,963 273,989 346,989 419,989 480,963 531,910 582,859 608,796 608,723 608,648 583,586 532,535 482,483 420,457 346,457 Z"/>
  </g>
  <g id="bullet-char-template-8211" transform="scale(0.00048828125,-0.00048828125)">
   <path d="M -4,459 L 1135,459 1135,606 -4,606 -4,459 Z"/>
  </g>
  <g id="bullet-char-template-61548" transform="scale(0.00048828125,-0.00048828125)">
   <path d="M 173,740 C 173,903 231,1043 346,1159 462,1274 601,1332 765,1332 928,1332 1067,1274 1183,1159 1299,1043 1357,903 1357,740 1357,577 1299,437 1183,322 1067,206 928,148 765,148 601,148 462,206 346,322 231,437 173,577 173,740 Z"/>
  </g>
 </defs>
 <g class="Page">
  <g class="com.sun.star.drawing.CustomShape">
   <g id="id3">
    <rect class="BoundingBox" stroke="none" fill="none" x="22531" y="41651" width="5118" height="6705"/>
    <path fill="rgb(255,245,206)" stroke="none" d="M 23395,41669 L 23396,41669 C 23247,41669 23101,41708 22972,41782 22844,41857 22737,41964 22662,42092 22588,42221 22549,42367 22549,42516 L 22549,47490 22549,47490 C 22549,47639 22588,47785 22662,47914 22737,48042 22844,48149 22972,48224 23101,48298 23247,48337 23396,48337 L 26783,48337 26783,48337 C 26932,48337 27078,48298 27207,48224 27335,48149 27442,48042 27517,47914 27591,47785 27630,47639 27630,47490 L 27630,42515 27630,42516 27630,42516 C 27630,42367 27591,42221 27517,42092 27442,41964 27335,41857 27207,41782 27078,41708 26932,41669 26783,41669 L 23395,41669 Z"/>
    <path fill="none" stroke="rgb(184,92,0)" stroke-width="35" stroke-linejoin="round" d="M 23395,41669 L 23396,41669 C 23247,41669 23101,41708 22972,41782 22844,41857 22737,41964 22662,42092 22588,42221 22549,42367 22549,42516 L 22549,47490 22549,47490 C 22549,47639 22588,47785 22662,47914 22737,48042 22844,48149 22972,48224 23101,48298 23247,48337 23396,48337 L 26783,48337 26783,48337 C 26932,48337 27078,48298 27207,48224 27335,48149 27442,48042 27517,47914 27591,47785 27630,47639 27630,47490 L 27630,42515 27630,42516 27630,42516 C 27630,42367 27591,42221 27517,42092 27442,41964 27335,41857 27207,41782 27078,41708 26932,41669 26783,41669 L 23395,41669 Z"/>
   </g>
  </g>
  <g class="com.sun.star.drawing.CustomShape">
   <g id="id4">
    <rect class="BoundingBox" stroke="none" fill="none" x="22812" y="43155" width="4553" height="1697"/>
    <path fill="none" stroke="rgb(42,96,153)" stroke-width="106" stroke-linejoin="round" d="M 23659,43209 L 23659,43209 C 23520,43209 23383,43246 23262,43315 23141,43385 23041,43485 22971,43606 22902,43727 22865,43864 22865,44003 L 22865,44003 22865,44003 C 22865,44143 22902,44280 22971,44401 23041,44522 23141,44622 23262,44692 23383,44761 23520,44798 23659,44798 L 26516,44798 26517,44798 C 26656,44798 26793,44761 26914,44692 27035,44622 27135,44522 27205,44401 27274,44280 27311,44143 27311,44003 L 27311,44003 27311,44003 27311,44003 C 27311,43864 27274,43727 27205,43606 27135,43485 27035,43385 26914,43315 26793,43246 26656,43209 26517,43209 L 23659,43209 Z"/>
   </g>
  </g>
  <g class="com.sun.star.drawing.CustomShape">
   <g id="id5">
    <rect class="BoundingBox" stroke="none" fill="none" x="22812" y="45156" width="4553" height="1697"/>
    <path fill="none" stroke="rgb(42,96,153)" stroke-width="106" stroke-linejoin="round" d="M 23659,45210 L 23659,45210 C 23520,45210 23383,45247 23262,45316 23141,45386 23041,45486 22971,45607 22902,45728 22865,45865 22865,46004 L 22865,46004 22865,46004 C 22865,46144 22902,46281 22971,46402 23041,46523 23141,46623 23262,46693 23383,46762 23520,46799 23659,46799 L 26516,46799 26517,46799 C 26656,46799 26793,46762 26914,46693 27035,46623 27135,46523 27205,46402 27274,46281 27311,46144 27311,46004 L 27311,46004 27311,46004 27311,46004 C 27311,45865 27274,45728 27205,45607 27135,45486 27035,45386 26914,45316 26793,45247 26656,45210 26517,45210 L 23659,45210 Z"/>
   </g>
  </g>
 </g>
</svg>