<?xml version="1.0" encoding="UTF-8"?>
<!DOCTYPE svg PUBLIC "-//W3C//DTD SVG 1.1//EN" "http://www.w3.org/Graphics/SVG/1.1/DTD/svg11.dtd">
<svg version="1.2" width="51.18mm" height="67.05mm" viewBox="5430 41651 5118 6705" preserveAspectRatio="xMidYMid" fill-rule="evenodd" stroke-width="28.222" stroke-linejoin="round" xmlns="http://www.w3.org/2000/svg" xmlns:ooo="http://xml.openoffice.org/svg/export" xmlns:xlink="http://www.w3.org/1999/xlink" xmlns:presentation="http://sun.com/xmlns/staroffice/presentation" xmlns:smil="http://www.w3.org/2001/SMIL20/" xmlns:anim="urn:oasis:names:tc:opendocument:xmlns:animation:1.0" xmlns:svg="urn:oasis:names:tc:opendocument:xmlns:svg-compatible:1.0" xml:space="preserve">
 <defs class="EmbeddedBulletChars">
  <g id="bullet-char-template-57356" transform="scale(0.00048828125,-0.00048828125)">
   <path d="M 580,1141 L 1163,571 580,0 -4,571 580,1141 Z"/>
  </g>
  <g id="bullet-char-template-57354" transform="scale(0.00048828125,-0.00048828125)">
   <path d="M 8,1128 L 1137,1128 1137,0 8,0 8,1128 Z"/>
  </g>
  <g id="bullet-char-template-10146" transform="scale(0.00048828125,-0.00048828125)">
   <path d="M 174,0 L 602,739 174,1481 1456,739 174,0 Z M 1358,739 L 309,1346 659,739 1358,739 Z"/>
  </g>
  <g id="bullet-char-template-10132" transform="scale(0.00048828125,-0.00048828125)">
   <path d="M 2015,739 L 1276,0 717,0 1260,543 174,543 174,936 1260,936 717,1481 1274,1481 2015,739 Z"/>
  </g>
  <g id="bullet-char-template-10007" transform="scale(0.00048828125,-0.00048828125)">
   <path d="M 0,-2 C -7,14 -16,27 -25,37 L 356,567 C 262,823 215,952 215,954 215,979 228,992 255,992 264,992 276,990 289,987 310,991 331,999 354,1012 L 381,999 492,748 772,1049 836,1024 860,1049 C 881,1039 901,1025 922,1006 886,937 835,863 770,784 769,783 710,716 594,584 L 774,223 C 774,196 753,168 711,139 L 727,119 C 717,90 699,76 672,76 641,76 570,178 457,381 L 164,-76 C 142,-110 111,-127 72,-127 30,-127 9,-110 8,-76 1,-67 -2,-52 -2,-32 -2,-23 -1,-13 0,-2 Z"/>
  </g>
  <g id="bullet-char-template-10004" transform="scale(0.00048828125,-0.00048828125)">
   <path d="M 285,-33 C 182,-33 111,30 74,156 52,228 41,333 41,471 41,549 55,616 82,672 116,743 169,778 240,778 293,778 328,747 346,684 L 369,508 C 377,444 397,411 428,410 L 1163,1116 C 1174,1127 1196,1133 1229,1133 1271,1133 1292,1118 1292,1087 L 1292,965 C 1292,929 1282,901 1262,881 L 442,47 C 390,-6 338,-33 285,-33 Z"/>
  </g>
  <g id="bullet-char-template-9679" transform="scale(0.00048828125,-0.00048828125)">
   <path d="M 813,0 C 632,0 489,54 383,161 276,268 223,411 223,592 223,773 276,916 383,1023 489,1130 632,1184 813,1184 992,1184 1136,1130 1245,1023 1353,916 1407,772 1407,592 1407,412 1353,268 1245,161 1136,54 992,0 813,0 Z"/>
  </g>
  <g id="bullet-char-template-8226" transform="scale(0.00048828125,-0.00048828125)">
   <path d="M 346,457 C 273,457 209,483 155,535 101,586 74,649 74,723 74,796 101,859 155,911 209,963 273,989 346,989 419,989 480,963 531,910 582,859 608,796 608,723 608,648 583,586 532,535 482,483 420,457 346,457 Z"/>
  </g>
  <g id="bullet-char-template-8211" transform="scale(0.00048828125,-0.00048828125)">
   <path d="M -4,459 L 1135,459 1135,606 -4,606 -4,459 Z"/>
  </g>
  <g id="bullet-char-template-61548" transform="scale(0.00048828125,-0.00048828125)">
   <path d="M 173,740 C 173,903 231,1043 346,1159 462,1274 601,1332 765,1332 928,1332 1067,1274 1183,1159 1299,1043 1357,903 1357,740 1357,577 1299,437 1183,322 1067,206 928,148 765,148 601,148 462,206 346,322 231,437 173,577 173,740 Z"/>
  </g>
 </defs>
 <g class="Page">
  <g class="com.sun.star.drawing.CustomShape">
   <g id="id3">
    <rect class="BoundingBox" stroke="none" fill="none" x="5430" y="41651" width="5118" height="6705"/>
    <path fill="rgb(255,245,206)" stroke="none" d="M 6294,41669 L 6295,41669 C 6146,41669 6000,41708 5871,41782 5743,41857 5636,41964 5561,42092 5487,42221 5448,42367 5448,42516 L 5448,47490 5448,47490 C 5448,47639 5487,47785 5561,47914 5636,48042 5743,48149 5871,48224 6000,48298 6146,48337 6295,48337 L 9682,48337 9682,48337 C 9831,48337 9977,48298 10106,48224 10234,48149 10341,48042 10416,47914 10490,47785 10529,47639 10529,47490 L 10529,42515 10529,42516 10529,42516 C 10529,42367 10490,42221 10416,42092 10341,41964 10234,41857 10106,41782 9977,41708 9831,41669 9682,41669 L 6294,41669 Z"/>
    <path fill="none" stroke="rgb(184,92,0)" stroke-width="35" stroke-linejoin="round" d="M 6294,41669 L 6295,41669 C 6146,41669 6000,41708 5871,41782 5743,41857 5636,41964 5561,42092 5487,42221 5448,42367 5448,42516 L 5448,47490 5448,47490 C 5448,47639 5487,47785 5561,47914 5636,48042 5743,48149 5871,48224 6000,48298 6146,48337 6295,48337 L 9682,48337 9682,48337 C 9831,48337 9977,48298 10106,48224 10234,48149 10341,48042 10416,47914 10490,47785 10529,47639 10529,47490 L 10529,42515 10529,42516 10529,42516 C 10529,42367 10490,42221 10416,42092 10341,41964 10234,41857 10106,41782 9977,41708 9831,41669 9682,41669 L 6294,41669 Z"/>
   </g>
  </g>
  <g class="com.sun.star.drawing.CustomShape">
   <g id="id4">
    <rect class="BoundingBox" stroke="none" fill="none" x="5712" y="43155" width="4553" height="1697"/>
    <path fill="none" stroke="rgb(129,212,26)" stroke-width="106" stroke-linejoin="round" d="M 6559,43209 L 6560,43209 C 6420,43209 6283,43246 6162,43315 6041,43385 5941,43485 5871,43606 5802,43727 5765,43864 5765,44003 L 5765,44003 5765,44003 C 5765,44143 5802,44280 5871,44401 5941,44522 6041,44622 6162,44692 6283,44761 6420,44798 6560,44798 L 9416,44798 9417,44798 C 9556,44798 9693,44761 9814,44692 9935,44622 10035,44522 10105,44401 10174,44280 10211,44143 10211,44003 L 10211,44003 10211,44003 10211,44003 C 10211,43864 10174,43727 10105,43606 10035,43485 9935,43385 9814,43315 9693,43246 9556,43209 9417,43209 L 6559,43209 Z"/>
   </g>
  </g>
  <g class="com.sun.star.drawing.CustomShape">
   <g id="id5">
    <rect class="BoundingBox" stroke="none" fill="none" x="5712" y="45156" width="4553" height="1697"/>
    <path fill="none" stroke="rgb(129,212,26)" stroke-width="106" stroke-linejoin="round" d="M 6559,45210 L 6560,45210 C 6420,45210 6283,45247 6162,45316 6041,45386 5941,45486 5871,45607 5802,45728 5765,45865 5765,46004 L 5765,46004 5765,46004 C 5765,46144 5802,46281 5871,46402 5941,46523 6041,46623 6162,46693 6283,46762 6420,46799 6560,46799 L 9416,46799 9417,46799 C 9556,46799 9693,46762 9814,46693 9935,46623 10035,46523 10105,46402 10174,46281 10211,46144 10211,46004 L 10211,46004 10211,46004 10211,46004 C 10211,45865 10174,45728 10105,45607 10035,45486 9935,45386 9814,45316 9693,45247 9556,45210 9417,45210 L 6559,45210 Z"/>
   </g>
  </g>
 </g>
</svg>