<?xml version="1.0" encoding="UTF-8"?>
<!DOCTYPE svg PUBLIC "-//W3C//DTD SVG 1.1//EN" "http://www.w3.org/Graphics/SVG/1.1/DTD/svg11.dtd">
<svg version="1.2" width="51.18mm" height="67.05mm" viewBox="33933 41651 5118 6705" preserveAspectRatio="xMidYMid" fill-rule="evenodd" stroke-width="28.222" stroke-linejoin="round" xmlns="http://www.w3.org/2000/svg" xmlns:ooo="http://xml.openoffice.org/svg/export" xmlns:xlink="http://www.w3.org/1999/xlink" xmlns:presentation="http://sun.com/xmlns/staroffice/presentation" xmlns:smil="http://www.w3.org/2001/SMIL20/" xmlns:anim="urn:oasis:names:tc:opendocument:xmlns:animation:1.0" xmlns:svg="urn:oasis:names:tc:opendocument:xmlns:svg-compatible:1.0" xml:space="preserve">
 <defs class="EmbeddedBulletChars">
  <g id="bullet-char-template-57356" transform="scale(0.00048828125,-0.00048828125)">
   <path d="M 580,1141 L 1163,571 580,0 -4,571 580,1141 Z"/>
  </g>
  <g id="bullet-char-template-57354" transform="scale(0.00048828125,-0.00048828125)">
   <path d="M 8,1128 L 1137,1128 1137,0 8,0 8,1128 Z"/>
  </g>
  <g id="bullet-char-template-10146" transform="scale(0.00048828125,-0.00048828125)">
   <path d="M 174,0 L 602,739 174,1481 1456,739 174,0 Z M 1358,739 L 309,1346 659,739 1358,739 Z"/>
  </g>
  <g id="bullet-char-template-10132" transform="scale(0.00048828125,-0.00048828125)">
   <path d="M 2015,739 L 1276,0 717,0 1260,543 174,543 174,936 1260,936 717,1481 1274,1481 2015,739 Z"/>
  </g>
  <g id="bullet-char-template-10007" transform="scale(0.00048828125,-0.00048828125)">
   <path d="M 0,-2 C -7,14 -16,27 -25,37 L 356,567 C 262,823 215,952 215,954 215,979 228,992 255,992 264,992 276,990 289,987 310,991 331,999 354,1012 L 381,999 492,748 772,1049 836,1024 860,1049 C 881,1039 901,1025 922,1006 886,937 835,863 770,784 769,783 710,716 594,584 L 774,223 C 774,196 753,168 711,139 L 727,119 C 717,90 699,76 672,76 641,76 570,178 457,381 L 164,-76 C 142,-110 111,-127 72,-127 30,-127 9,-110 8,-76 1,-67 -2,-52 -2,-32 -2,-23 -1,-13 0,-2 Z"/>
  </g>
  <g id="bullet-char-template-10004" transform="scale(0.00048828125,-0.00048828125)">
   <path d="M 285,-33 C 182,-33 111,30 74,156 52,228 41,333 41,471 41,549 55,616 82,672 116,743 169,778 240,778 293,778 328,747 346,684 L 369,508 C 377,444 397,411 428,410 L 1163,1116 C 1174,1127 1196,1133 1229,1133 1271,1133 1292,1118 1292,1087 L 1292,965 C 1292,929 1282,901 1262,881 L 442,47 C 390,-6 338,-33 285,-33 Z"/>
  </g>
  <g id="bullet-char-template-9679" transform="scale(0.00048828125,-0.00048828125)">
   <path d="M 813,0 C 632,0 489,54 383,161 276,268 223,411 223,592 223,773 276,916 383,1023 489,1130 632,1184 813,1184 992,1184 1136,1130 1245,1023 1353,916 1407,772 1407,592 1407,412 1353,268 1245,161 1136,54 992,0 813,0 Z"/>
  </g>
  <g id="bullet-char-template-8226" transform="scale(0.00048828125,-0.00048828125)">
   <path d="M 346,457 C 273,457 209,483 155,535 101,586 74,649 74,723 74,796 101,859 155,911 209,963 273,989 346,989 419,989 480,963 531,910 582,859 608,796 608,723 608,648 583,586 532,535 482,483 420,457 346,457 Z"/>
  </g>
  <g id="bullet-char-template-8211" transform="scale(0.00048828125,-0.00048828125)">
   <path d="M -4,459 L 1135,459 1135,606 -4,606 -4,459 Z"/>
  </g>
  <g id="bullet-char-template-61548" transform="scale(0.00048828125,-0.00048828125)">
   <path d="M 173,740 C 173,903 231,1043 346,1159 462,1274 601,1332 765,1332 928,1332 1067,1274 1183,1159 1299,1043 1357,903 1357,740 1357,577 1299,437 1183,322 1067,206 928,148 765,148 601,148 462,206 346,322 231,437 173,577 173,740 Z"/>
  </g>
 </defs>
 <g class="Page">
  <g class="com.sun.star.drawing.CustomShape">
   <g id="id3">
    <rect class="BoundingBox" stroke="none" fill="none" x="33933" y="41651" width="5118" height="6705"/>
    <path fill="rgb(255,245,206)" stroke="none" d="M 34797,41669 L 34798,41669 C 34649,41669 34503,41708 34374,41782 34246,41857 34139,41964 34064,42092 33990,42221 33951,42367 33951,42516 L 33951,47490 33951,47490 C 33951,47639 33990,47785 34064,47914 34139,48042 34246,48149 34374,48224 34503,48298 34649,48337 34798,48337 L 38185,48337 38185,48337 C 38334,48337 38480,48298 38609,48224 38737,48149 38844,48042 38919,47914 38993,47785 39032,47639 39032,47490 L 39032,42515 39032,42516 39032,42516 C 39032,42367 38993,42221 38919,42092 38844,41964 38737,41857 38609,41782 38480,41708 38334,41669 38185,41669 L 34797,41669 Z"/>
    <path fill="none" stroke="rgb(184,92,0)" stroke-width="35" stroke-linejoin="round" d="M 34797,41669 L 34798,41669 C 34649,41669 34503,41708 34374,41782 34246,41857 34139,41964 34064,42092 33990,42221 33951,42367 33951,42516 L 33951,47490 33951,47490 C 33951,47639 33990,47785 34064,47914 34139,48042 34246,48149 34374,48224 34503,48298 34649,48337 34798,48337 L 38185,48337 38185,48337 C 38334,48337 38480,48298 38609,48224 38737,48149 38844,48042 38919,47914 38993,47785 39032,47639 39032,47490 L 39032,42515 39032,42516 39032,42516 C 39032,42367 38993,42221 38919,42092 38844,41964 38737,41857 38609,41782 38480,41708 38334,41669 38185,41669 L 34797,41669 Z"/>
   </g>
  </g>
  <g class="com.sun.star.drawing.CustomShape">
   <g id="id4">
    <rect class="BoundingBox" stroke="none" fill="none" x="34214" y="43155" width="4553" height="1697"/>
    <path fill="rgb(42,96,153)" stroke="none" d="M 35061,43209 L 35062,43209 C 34922,43209 34785,43246 34664,43315 34543,43385 34443,43485 34373,43606 34304,43727 34267,43864 34267,44003 L 34267,44003 34267,44003 C 34267,44143 34304,44280 34373,44401 34443,44522 34543,44622 34664,44692 34785,44761 34922,44798 35062,44798 L 37918,44798 37919,44798 C 38058,44798 38195,44761 38316,44692 38437,44622 38537,44522 38607,44401 38676,44280 38713,44143 38713,44003 L 38713,44003 38713,44003 38713,44003 C 38713,43864 38676,43727 38607,43606 38537,43485 38437,43385 38316,43315 38195,43246 38058,43209 37919,43209 L 35061,43209 Z"/>
    <path fill="none" stroke="rgb(42,96,153)" stroke-width="106" stroke-linejoin="round" d="M 35061,43209 L 35062,43209 C 34922,43209 34785,43246 34664,43315 34543,43385 34443,43485 34373,43606 34304,43727 34267,43864 34267,44003 L 34267,44003 34267,44003 C 34267,44143 34304,44280 34373,44401 34443,44522 34543,44622 34664,44692 34785,44761 34922,44798 35062,44798 L 37918,44798 37919,44798 C 38058,44798 38195,44761 38316,44692 38437,44622 38537,44522 38607,44401 38676,44280 38713,44143 38713,44003 L 38713,44003 38713,44003 38713,44003 C 38713,43864 38676,43727 38607,43606 38537,43485 38437,43385 38316,43315 38195,43246 38058,43209 37919,43209 L 35061,43209 Z"/>
   </g>
  </g>
  <g class="com.sun.star.drawing.CustomShape">
   <g id="id5">
    <rect class="BoundingBox" stroke="none" fill="none" x="34214" y="45156" width="4553" height="1697"/>
    <path fill="rgb(42,96,153)" stroke="none" d="M 35061,45210 L 35062,45210 C 34922,45210 34785,45247 34664,45316 34543,45386 34443,45486 34373,45607 34304,45728 34267,45865 34267,46004 L 34267,46004 34267,46004 C 34267,46144 34304,46281 34373,46402 34443,46523 34543,46623 34664,46693 34785,46762 34922,46799 35062,46799 L 37918,46799 37919,46799 C 38058,46799 38195,46762 38316,46693 38437,46623 38537,46523 38607,46402 38676,46281 38713,46144 38713,46004 L 38713,46004 38713,46004 38713,46004 C 38713,45865 38676,45728 38607,45607 38537,45486 38437,45386 38316,45316 38195,45247 38058,45210 37919,45210 L 35061,45210 Z"/>
    <path fill="none" stroke="rgb(42,96,153)" stroke-width="106" stroke-linejoin="round" d="M 35061,45210 L 35062,45210 C 34922,45210 34785,45247 34664,45316 34543,45386 34443,45486 34373,45607 34304,45728 34267,45865 34267,46004 L 34267,46004 34267,46004 C 34267,46144 34304,46281 34373,46402 34443,46523 34543,46623 34664,46693 34785,46762 34922,46799 35062,46799 L 37918,46799 37919,46799 C 38058,46799 38195,46762 38316,46693 38437,46623 38537,46523 38607,46402 38676,46281 38713,46144 38713,46004 L 38713,46004 38713,46004 38713,46004 C 38713,45865 38676,45728 38607,45607 38537,45486 38437,45386 38316,45316 38195,45247 38058,45210 37919,45210 L 35061,45210 Z"/>
   </g>
  </g>
 </g>
</svg>