<?xml version="1.0" encoding="UTF-8"?>
<!DOCTYPE svg PUBLIC "-//W3C//DTD SVG 1.1//EN" "http://www.w3.org/Graphics/SVG/1.1/DTD/svg11.dtd">
<svg version="1.2" width="51.18mm" height="67.05mm" viewBox="28232 41651 5118 6705" preserveAspectRatio="xMidYMid" fill-rule="evenodd" stroke-width="28.222" stroke-linejoin="round" xmlns="http://www.w3.org/2000/svg" xmlns:ooo="http://xml.openoffice.org/svg/export" xmlns:xlink="http://www.w3.org/1999/xlink" xmlns:presentation="http://sun.com/xmlns/staroffice/presentation" xmlns:smil="http://www.w3.org/2001/SMIL20/" xmlns:anim="urn:oasis:names:tc:opendocument:xmlns:animation:1.0" xmlns:svg="urn:oasis:names:tc:opendocument:xmlns:svg-compatible:1.0" xml:space="preserve">
 <defs class="EmbeddedBulletChars">
  <g id="bullet-char-template-57356" transform="scale(0.00048828125,-0.00048828125)">
   <path d="M 580,1141 L 1163,571 580,0 -4,571 580,1141 Z"/>
  </g>
  <g id="bullet-char-template-57354" transform="scale(0.00048828125,-0.00048828125)">
   <path d="M 8,1128 L 1137,1128 1137,0 8,0 8,1128 Z"/>
  </g>
  <g id="bullet-char-template-10146" transform="scale(0.00048828125,-0.00048828125)">
   <path d="M 174,0 L 602,739 174,1481 1456,739 174,0 Z M 1358,739 L 309,1346 659,739 1358,739 Z"/>
  </g>
  <g id="bullet-char-template-10132" transform="scale(0.00048828125,-0.00048828125)">
   <path d="M 2015,739 L 1276,0 717,0 1260,543 174,543 174,936 1260,936 717,1481 1274,1481 2015,739 Z"/>
  </g>
  <g id="bullet-char-template-10007" transform="scale(0.00048828125,-0.00048828125)">
   <path d="M 0,-2 C -7,14 -16,27 -25,37 L 356,567 C 262,823 215,952 215,954 215,979 228,992 255,992 264,992 276,990 289,987 310,991 331,999 354,1012 L 381,999 492,748 772,1049 836,1024 860,1049 C 881,1039 901,1025 922,1006 886,937 835,863 770,784 769,783 710,716 594,584 L 774,223 C 774,196 753,168 711,139 L 727,119 C 717,90 699,76 672,76 641,76 570,178 457,381 L 164,-76 C 142,-110 111,-127 72,-127 30,-127 9,-110 8,-76 1,-67 -2,-52 -2,-32 -2,-23 -1,-13 0,-2 Z"/>
  </g>
  <g id="bullet-char-template-10004" transform="scale(0.00048828125,-0.00048828125)">
   <path d="M 285,-33 C 182,-33 111,30 74,156 52,228 41,333 41,471 41,549 55,616 82,672 116,743 169,778 240,778 293,778 328,747 346,684 L 369,508 C 377,444 397,411 428,410 L 1163,1116 C 1174,1127 1196,1133 1229,1133 1271,1133 1292,1118 1292,1087 L 1292,965 C 1292,929 1282,901 1262,881 L 442,47 C 390,-6 338,-33 285,-33 Z"/>
  </g>
  <g id="bullet-char-template-9679" transform="scale(0.00048828125,-0.00048828125)">
   <path d="M 813,0 C 632,0 489,54 383,161 276,268 223,411 223,592 223,773 276,916 383,1023 489,1130 632,1184 813,1184 992,1184 1136,1130 1245,1023 1353,916 1407,772 1407,592 1407,412 1353,268 1245,161 1136,54 992,0 813,0 Z"/>
  </g>
  <g id="bullet-char-template-8226" transform="scale(0.00048828125,-0.00048828125)">
   <path d="M 346,457 C 273,457 209,483 155,535 101,586 74,649 74,723 74,796 101,859 155,911 209,963 273,989 346,989 419,989 480,963 531,910 582,859 608,796 608,723 608,648 583,586 532,535 482,483 420,457 346,457 Z"/>
  </g>
  <g id="bullet-char-template-8211" transform="scale(0.00048828125,-0.00048828125)">
   <path d="M -4,459 L 1135,459 1135,606 -4,606 -4,459 Z"/>
  </g>
  <g id="bullet-char-template-61548" transform="scale(0.00048828125,-0.00048828125)">
   <path d="M 173,740 C 173,903 231,1043 346,1159 462,1274 601,1332 765,1332 928,1332 1067,1274 1183,1159 1299,1043 1357,903 1357,740 1357,577 1299,437 1183,322 1067,206 928,148 765,148 601,148 462,206 346,322 231,437 173,577 173,740 Z"/>
  </g>
 </defs>
 <g class="Page">
  <g class="com.sun.star.drawing.CustomShape">
   <g id="id3">
    <rect class="BoundingBox" stroke="none" fill="none" x="28232" y="41651" width="5118" height="6705"/>
    <path fill="rgb(255,245,206)" stroke="none" d="M 29096,41669 L 29097,41669 C 28948,41669 28802,41708 28673,41782 28545,41857 28438,41964 28363,42092 28289,42221 28250,42367 28250,42516 L 28250,47490 28250,47490 C 28250,47639 28289,47785 28363,47914 28438,48042 28545,48149 28673,48224 28802,48298 28948,48337 29097,48337 L 32484,48337 32484,48337 C 32633,48337 32779,48298 32908,48224 33036,48149 33143,48042 33218,47914 33292,47785 33331,47639 33331,47490 L 33331,42515 33331,42516 33331,42516 C 33331,42367 33292,42221 33218,42092 33143,41964 33036,41857 32908,41782 32779,41708 32633,41669 32484,41669 L 29096,41669 Z"/>
    <path fill="none" stroke="rgb(184,92,0)" stroke-width="35" stroke-linejoin="round" d="M 29096,41669 L 29097,41669 C 28948,41669 28802,41708 28673,41782 28545,41857 28438,41964 28363,42092 28289,42221 28250,42367 28250,42516 L 28250,47490 28250,47490 C 28250,47639 28289,47785 28363,47914 28438,48042 28545,48149 28673,48224 28802,48298 28948,48337 29097,48337 L 32484,48337 32484,48337 C 32633,48337 32779,48298 32908,48224 33036,48149 33143,48042 33218,47914 33292,47785 33331,47639 33331,47490 L 33331,42515 33331,42516 33331,42516 C 33331,42367 33292,42221 33218,42092 33143,41964 33036,41857 32908,41782 32779,41708 32633,41669 32484,41669 L 29096,41669 Z"/>
   </g>
  </g>
  <g class="com.sun.star.drawing.CustomShape">
   <g id="id4">
    <rect class="BoundingBox" stroke="none" fill="none" x="28512" y="43155" width="4554" height="1697"/>
    <g>
     <defs>
      <pattern id="pattern1" x="28566" y="43209" width="4447" height="1590" patternUnits="userSpaceOnUse">
       <g transform="translate(-28566,-43209)">
        <line fill="rgb(42,96,153)" stroke="rgb(42,96,153)" x1="28805" y1="43436" x2="28805" y2="44571"/>
        <line fill="rgb(42,96,153)" stroke="rgb(42,96,153)" x1="29070" y1="43264" x2="29070" y2="44743"/>
        <line fill="rgb(42,96,153)" stroke="rgb(42,96,153)" x1="29335" y1="43210" x2="29335" y2="44797"/>
        <line fill="rgb(42,96,153)" stroke="rgb(42,96,153)" x1="29600" y1="43209" x2="29600" y2="44798"/>
        <line fill="rgb(42,96,153)" stroke="rgb(42,96,153)" x1="29865" y1="43209" x2="29865" y2="44798"/>
        <line fill="rgb(42,96,153)" stroke="rgb(42,96,153)" x1="30130" y1="43209" x2="30130" y2="44798"/>
        <line fill="rgb(42,96,153)" stroke="rgb(42,96,153)" x1="30395" y1="43209" x2="30395" y2="44798"/>
        <line fill="rgb(42,96,153)" stroke="rgb(42,96,153)" x1="30660" y1="43209" x2="30660" y2="44798"/>
        <line fill="rgb(42,96,153)" stroke="rgb(42,96,153)" x1="30925" y1="43209" x2="30925" y2="44798"/>
        <line fill="rgb(42,96,153)" stroke="rgb(42,96,153)" x1="31190" y1="43209" x2="31190" y2="44798"/>
        <line fill="rgb(42,96,153)" stroke="rgb(42,96,153)" x1="31455" y1="43209" x2="31455" y2="44798"/>
        <line fill="rgb(42,96,153)" stroke="rgb(42,96,153)" x1="31720" y1="43209" x2="31720" y2="44798"/>
        <line fill="rgb(42,96,153)" stroke="rgb(42,96,153)" x1="31985" y1="43209" x2="31985" y2="44798"/>
        <line fill="rgb(42,96,153)" stroke="rgb(42,96,153)" x1="32250" y1="43210" x2="32250" y2="44797"/>
        <line fill="rgb(42,96,153)" stroke="rgb(42,96,153)" x1="32515" y1="43267" x2="32515" y2="44740"/>
        <line fill="rgb(42,96,153)" stroke="rgb(42,96,153)" x1="32780" y1="43443" x2="32780" y2="44564"/>
       </g>
      </pattern>
     </defs>
     <path style="fill:url(#pattern1)" d="M 29360,43209 L 29360,43209 29308,43211 29257,43216 29205,43224 29155,43236 29105,43251 29057,43269 29009,43291 28963,43315 28919,43343 28877,43373 28837,43406 28799,43442 28763,43480 28730,43520 28700,43562 28672,43606 28648,43652 28626,43700 28608,43748 28593,43798 28581,43848 28573,43900 28568,43951 28566,44003 28566,44003 28566,44003 28568,44056 28573,44107 28581,44159 28593,44209 28608,44259 28626,44307 28648,44355 28672,44401 28700,44445 28730,44487 28763,44527 28799,44565 28837,44601 28877,44634 28919,44664 28963,44692 29009,44716 29057,44738 29105,44756 29155,44771 29205,44783 29257,44791 29308,44796 29360,44798 32217,44798 32217,44798 32270,44796 32321,44791 32373,44783 32423,44771 32473,44756 32521,44738 32569,44716 32615,44692 32659,44664 32701,44634 32741,44601 32779,44565 32815,44527 32848,44487 32878,44445 32906,44401 32930,44355 32952,44307 32970,44259 32985,44209 32997,44159 33005,44107 33010,44056 33012,44003 33012,44003 33012,44003 33012,44003 33010,43951 33005,43900 32997,43848 32985,43798 32970,43748 32952,43700 32930,43652 32906,43606 32878,43562 32848,43520 32815,43480 32779,43442 32741,43406 32701,43373 32659,43343 32615,43315 32569,43291 32521,43269 32473,43251 32423,43236 32373,43224 32321,43216 32270,43211 32217,43209 29360,43209 Z"/>
    </g>
    <path fill="none" stroke="rgb(42,96,153)" stroke-width="106" stroke-linejoin="round" d="M 29360,43209 L 29360,43209 C 29221,43209 29084,43246 28963,43315 28842,43385 28742,43485 28672,43606 28603,43727 28566,43864 28566,44003 L 28566,44003 28566,44003 C 28566,44143 28603,44280 28672,44401 28742,44522 28842,44622 28963,44692 29084,44761 29221,44798 29360,44798 L 32217,44798 32217,44798 C 32357,44798 32494,44761 32615,44692 32736,44622 32836,44522 32906,44401 32975,44280 33012,44143 33012,44003 L 33012,44003 33012,44003 33012,44003 C 33012,43864 32975,43727 32906,43606 32836,43485 32736,43385 32615,43315 32494,43246 32357,43209 32217,43209 L 29360,43209 Z"/>
   </g>
  </g>
  <g class="com.sun.star.drawing.CustomShape">
   <g id="id5">
    <rect class="BoundingBox" stroke="none" fill="none" x="28512" y="45156" width="4554" height="1697"/>
    <g>
     <defs>
      <pattern id="pattern2" x="28566" y="45210" width="4447" height="1590" patternUnits="userSpaceOnUse">
       <g transform="translate(-28566,-45210)">
        <line fill="rgb(42,96,153)" stroke="rgb(42,96,153)" x1="28805" y1="45437" x2="28805" y2="46572"/>
        <line fill="rgb(42,96,153)" stroke="rgb(42,96,153)" x1="29070" y1="45265" x2="29070" y2="46744"/>
        <line fill="rgb(42,96,153)" stroke="rgb(42,96,153)" x1="29335" y1="45211" x2="29335" y2="46798"/>
        <line fill="rgb(42,96,153)" stroke="rgb(42,96,153)" x1="29600" y1="45210" x2="29600" y2="46799"/>
        <line fill="rgb(42,96,153)" stroke="rgb(42,96,153)" x1="29865" y1="45210" x2="29865" y2="46799"/>
        <line fill="rgb(42,96,153)" stroke="rgb(42,96,153)" x1="30130" y1="45210" x2="30130" y2="46799"/>
        <line fill="rgb(42,96,153)" stroke="rgb(42,96,153)" x1="30395" y1="45210" x2="30395" y2="46799"/>
        <line fill="rgb(42,96,153)" stroke="rgb(42,96,153)" x1="30660" y1="45210" x2="30660" y2="46799"/>
        <line fill="rgb(42,96,153)" stroke="rgb(42,96,153)" x1="30925" y1="45210" x2="30925" y2="46799"/>
        <line fill="rgb(42,96,153)" stroke="rgb(42,96,153)" x1="31190" y1="45210" x2="31190" y2="46799"/>
        <line fill="rgb(42,96,153)" stroke="rgb(42,96,153)" x1="31455" y1="45210" x2="31455" y2="46799"/>
        <line fill="rgb(42,96,153)" stroke="rgb(42,96,153)" x1="31720" y1="45210" x2="31720" y2="46799"/>
        <line fill="rgb(42,96,153)" stroke="rgb(42,96,153)" x1="31985" y1="45210" x2="31985" y2="46799"/>
        <line fill="rgb(42,96,153)" stroke="rgb(42,96,153)" x1="32250" y1="45211" x2="32250" y2="46798"/>
        <line fill="rgb(42,96,153)" stroke="rgb(42,96,153)" x1="32515" y1="45268" x2="32515" y2="46741"/>
        <line fill="rgb(42,96,153)" stroke="rgb(42,96,153)" x1="32780" y1="45444" x2="32780" y2="46565"/>
       </g>
      </pattern>
     </defs>
     <path style="fill:url(#pattern2)" d="M 29360,45210 L 29360,45210 29308,45212 29257,45217 29205,45225 29155,45237 29105,45252 29057,45270 29009,45292 28963,45316 28919,45344 28877,45374 28837,45407 28799,45443 28763,45481 28730,45521 28700,45563 28672,45607 28648,45653 28626,45701 28608,45749 28593,45799 28581,45849 28573,45901 28568,45952 28566,46004 28566,46004 28566,46004 28568,46057 28573,46108 28581,46160 28593,46210 28608,46260 28626,46308 28648,46356 28672,46402 28700,46446 28730,46488 28763,46528 28799,46566 28837,46602 28877,46635 28919,46665 28963,46693 29009,46717 29057,46739 29105,46757 29155,46772 29205,46784 29257,46792 29308,46797 29360,46799 32217,46799 32217,46799 32270,46797 32321,46792 32373,46784 32423,46772 32473,46757 32521,46739 32569,46717 32615,46693 32659,46665 32701,46635 32741,46602 32779,46566 32815,46528 32848,46488 32878,46446 32906,46402 32930,46356 32952,46308 32970,46260 32985,46210 32997,46160 33005,46108 33010,46057 33012,46004 33012,46004 33012,46004 33012,46004 33010,45952 33005,45901 32997,45849 32985,45799 32970,45749 32952,45701 32930,45653 32906,45607 32878,45563 32848,45521 32815,45481 32779,45443 32741,45407 32701,45374 32659,45344 32615,45316 32569,45292 32521,45270 32473,45252 32423,45237 32373,45225 32321,45217 32270,45212 32217,45210 29360,45210 Z"/>
    </g>
    <path fill="none" stroke="rgb(42,96,153)" stroke-width="106" stroke-linejoin="round" d="M 29360,45210 L 29360,45210 C 29221,45210 29084,45247 28963,45316 28842,45386 28742,45486 28672,45607 28603,45728 28566,45865 28566,46004 L 28566,46004 28566,46004 C 28566,46144 28603,46281 28672,46402 28742,46523 28842,46623 28963,46693 29084,46762 29221,46799 29360,46799 L 32217,46799 32217,46799 C 32357,46799 32494,46762 32615,46693 32736,46623 32836,46523 32906,46402 32975,46281 33012,46144 33012,46004 L 33012,46004 33012,46004 33012,46004 C 33012,45865 32975,45728 32906,45607 32836,45486 32736,45386 32615,45316 32494,45247 32357,45210 32217,45210 L 29360,45210 Z"/>
   </g>
  </g>
 </g>
</svg>