<?xml version="1.0" encoding="UTF-8"?>
<!DOCTYPE svg PUBLIC "-//W3C//DTD SVG 1.1//EN" "http://www.w3.org/Graphics/SVG/1.1/DTD/svg11.dtd">
<svg version="1.2" width="51.18mm" height="67.05mm" viewBox="45433 41651 5118 6705" preserveAspectRatio="xMidYMid" fill-rule="evenodd" stroke-width="28.222" stroke-linejoin="round" xmlns="http://www.w3.org/2000/svg" xmlns:ooo="http://xml.openoffice.org/svg/export" xmlns:xlink="http://www.w3.org/1999/xlink" xmlns:presentation="http://sun.com/xmlns/staroffice/presentation" xmlns:smil="http://www.w3.org/2001/SMIL20/" xmlns:anim="urn:oasis:names:tc:opendocument:xmlns:animation:1.0" xmlns:svg="urn:oasis:names:tc:opendocument:xmlns:svg-compatible:1.0" xml:space="preserve">
 <defs class="EmbeddedBulletChars">
  <g id="bullet-char-template-57356" transform="scale(0.00048828125,-0.00048828125)">
   <path d="M 580,1141 L 1163,571 580,0 -4,571 580,1141 Z"/>
  </g>
  <g id="bullet-char-template-57354" transform="scale(0.00048828125,-0.00048828125)">
   <path d="M 8,1128 L 1137,1128 1137,0 8,0 8,1128 Z"/>
  </g>
  <g id="bullet-char-template-10146" transform="scale(0.00048828125,-0.00048828125)">
   <path d="M 174,0 L 602,739 174,1481 1456,739 174,0 Z M 1358,739 L 309,1346 659,739 1358,739 Z"/>
  </g>
  <g id="bullet-char-template-10132" transform="scale(0.00048828125,-0.00048828125)">
   <path d="M 2015,739 L 1276,0 717,0 1260,543 174,543 174,936 1260,936 717,1481 1274,1481 2015,739 Z"/>
  </g>
  <g id="bullet-char-template-10007" transform="scale(0.00048828125,-0.00048828125)">
   <path d="M 0,-2 C -7,14 -16,27 -25,37 L 356,567 C 262,823 215,952 215,954 215,979 228,992 255,992 264,992 276,990 289,987 310,991 331,999 354,1012 L 381,999 492,748 772,1049 836,1024 860,1049 C 881,1039 901,1025 922,1006 886,937 835,863 770,784 769,783 710,716 594,584 L 774,223 C 774,196 753,168 711,139 L 727,119 C 717,90 699,76 672,76 641,76 570,178 457,381 L 164,-76 C 142,-110 111,-127 72,-127 30,-127 9,-110 8,-76 1,-67 -2,-52 -2,-32 -2,-23 -1,-13 0,-2 Z"/>
  </g>
  <g id="bullet-char-template-10004" transform="scale(0.00048828125,-0.00048828125)">
   <path d="M 285,-33 C 182,-33 111,30 74,156 52,228 41,333 41,471 41,549 55,616 82,672 116,743 169,778 240,778 293,778 328,747 346,684 L 369,508 C 377,444 397,411 428,410 L 1163,1116 C 1174,1127 1196,1133 1229,1133 1271,1133 1292,1118 1292,1087 L 1292,965 C 1292,929 1282,901 1262,881 L 442,47 C 390,-6 338,-33 285,-33 Z"/>
  </g>
  <g id="bullet-char-template-9679" transform="scale(0.00048828125,-0.00048828125)">
   <path d="M 813,0 C 632,0 489,54 383,161 276,268 223,411 223,592 223,773 276,916 383,1023 489,1130 632,1184 813,1184 992,1184 1136,1130 1245,1023 1353,916 1407,772 1407,592 1407,412 1353,268 1245,161 1136,54 992,0 813,0 Z"/>
  </g>
  <g id="bullet-char-template-8226" transform="scale(0.00048828125,-0.00048828125)">
   <path d="M 346,457 C 273,457 209,483 155,535 101,586 74,649 74,723 74,796 101,859 155,911 209,963 273,989 346,989 419,989 480,963 531,910 582,859 608,796 608,723 608,648 583,586 532,535 482,483 420,457 346,457 Z"/>
  </g>
  <g id="bullet-char-template-8211" transform="scale(0.00048828125,-0.00048828125)">
   <path d="M -4,459 L 1135,459 1135,606 -4,606 -4,459 Z"/>
  </g>
  <g id="bullet-char-template-61548" transform="scale(0.00048828125,-0.00048828125)">
   <path d="M 173,740 C 173,903 231,1043 346,1159 462,1274 601,1332 765,1332 928,1332 1067,1274 1183,1159 1299,1043 1357,903 1357,740 1357,577 1299,437 1183,322 1067,206 928,148 765,148 601,148 462,206 346,322 231,437 173,577 173,740 Z"/>
  </g>
 </defs>
 <g class="Page">
  <g class="com.sun.star.drawing.CustomShape">
   <g id="id3">
    <rect class="BoundingBox" stroke="none" fill="none" x="45433" y="41651" width="5118" height="6705"/>
    <path fill="rgb(255,245,206)" stroke="none" d="M 46297,41669 L 46298,41669 C 46149,41669 46003,41708 45874,41782 45746,41857 45639,41964 45564,42092 45490,42221 45451,42367 45451,42516 L 45451,47490 45451,47490 C 45451,47639 45490,47785 45564,47914 45639,48042 45746,48149 45874,48224 46003,48298 46149,48337 46298,48337 L 49685,48337 49685,48337 C 49834,48337 49980,48298 50109,48224 50237,48149 50344,48042 50419,47914 50493,47785 50532,47639 50532,47490 L 50532,42515 50532,42516 50532,42516 C 50532,42367 50493,42221 50419,42092 50344,41964 50237,41857 50109,41782 49980,41708 49834,41669 49685,41669 L 46297,41669 Z"/>
    <path fill="none" stroke="rgb(184,92,0)" stroke-width="35" stroke-linejoin="round" d="M 46297,41669 L 46298,41669 C 46149,41669 46003,41708 45874,41782 45746,41857 45639,41964 45564,42092 45490,42221 45451,42367 45451,42516 L 45451,47490 45451,47490 C 45451,47639 45490,47785 45564,47914 45639,48042 45746,48149 45874,48224 46003,48298 46149,48337 46298,48337 L 49685,48337 49685,48337 C 49834,48337 49980,48298 50109,48224 50237,48149 50344,48042 50419,47914 50493,47785 50532,47639 50532,47490 L 50532,42515 50532,42516 50532,42516 C 50532,42367 50493,42221 50419,42092 50344,41964 50237,41857 50109,41782 49980,41708 49834,41669 49685,41669 L 46297,41669 Z"/>
   </g>
  </g>
  <g class="com.sun.star.drawing.CustomShape">
   <g id="id4">
    <rect class="BoundingBox" stroke="none" fill="none" x="45713" y="43155" width="4553" height="1697"/>
    <g>
     <defs>
      <pattern id="pattern1" x="45766" y="43209" width="4447" height="1590" patternUnits="userSpaceOnUse">
       <g transform="translate(-45766,-43209)">
        <line fill="rgb(255,64,0)" stroke="rgb(255,64,0)" x1="46005" y1="43436" x2="46005" y2="44571"/>
        <line fill="rgb(255,64,0)" stroke="rgb(255,64,0)" x1="46270" y1="43264" x2="46270" y2="44743"/>
        <line fill="rgb(255,64,0)" stroke="rgb(255,64,0)" x1="46535" y1="43210" x2="46535" y2="44797"/>
        <line fill="rgb(255,64,0)" stroke="rgb(255,64,0)" x1="46800" y1="43209" x2="46800" y2="44798"/>
        <line fill="rgb(255,64,0)" stroke="rgb(255,64,0)" x1="47065" y1="43209" x2="47065" y2="44798"/>
        <line fill="rgb(255,64,0)" stroke="rgb(255,64,0)" x1="47330" y1="43209" x2="47330" y2="44798"/>
        <line fill="rgb(255,64,0)" stroke="rgb(255,64,0)" x1="47595" y1="43209" x2="47595" y2="44798"/>
        <line fill="rgb(255,64,0)" stroke="rgb(255,64,0)" x1="47860" y1="43209" x2="47860" y2="44798"/>
        <line fill="rgb(255,64,0)" stroke="rgb(255,64,0)" x1="48125" y1="43209" x2="48125" y2="44798"/>
        <line fill="rgb(255,64,0)" stroke="rgb(255,64,0)" x1="48390" y1="43209" x2="48390" y2="44798"/>
        <line fill="rgb(255,64,0)" stroke="rgb(255,64,0)" x1="48655" y1="43209" x2="48655" y2="44798"/>
        <line fill="rgb(255,64,0)" stroke="rgb(255,64,0)" x1="48920" y1="43209" x2="48920" y2="44798"/>
        <line fill="rgb(255,64,0)" stroke="rgb(255,64,0)" x1="49185" y1="43209" x2="49185" y2="44798"/>
        <line fill="rgb(255,64,0)" stroke="rgb(255,64,0)" x1="49450" y1="43210" x2="49450" y2="44797"/>
        <line fill="rgb(255,64,0)" stroke="rgb(255,64,0)" x1="49715" y1="43267" x2="49715" y2="44740"/>
        <line fill="rgb(255,64,0)" stroke="rgb(255,64,0)" x1="49980" y1="43443" x2="49980" y2="44564"/>
       </g>
      </pattern>
     </defs>
     <path style="fill:url(#pattern1)" d="M 46560,43209 L 46561,43209 46508,43211 46457,43216 46405,43224 46355,43236 46305,43251 46257,43269 46209,43291 46163,43315 46119,43343 46077,43373 46037,43406 45999,43442 45963,43480 45930,43520 45900,43562 45872,43606 45848,43652 45826,43700 45808,43748 45793,43798 45781,43848 45773,43900 45768,43951 45766,44003 45766,44003 45766,44003 45768,44056 45773,44107 45781,44159 45793,44209 45808,44259 45826,44307 45848,44355 45872,44401 45900,44445 45930,44487 45963,44527 45999,44565 46037,44601 46077,44634 46119,44664 46163,44692 46209,44716 46257,44738 46305,44756 46355,44771 46405,44783 46457,44791 46508,44796 46561,44798 49417,44798 49418,44798 49470,44796 49521,44791 49573,44783 49623,44771 49673,44756 49721,44738 49769,44716 49815,44692 49859,44664 49901,44634 49941,44601 49979,44565 50015,44527 50048,44487 50078,44445 50106,44401 50130,44355 50152,44307 50170,44259 50185,44209 50197,44159 50205,44107 50210,44056 50212,44003 50212,44003 50212,44003 50212,44003 50210,43951 50205,43900 50197,43848 50185,43798 50170,43748 50152,43700 50130,43652 50106,43606 50078,43562 50048,43520 50015,43480 49979,43442 49941,43406 49901,43373 49859,43343 49815,43315 49769,43291 49721,43269 49673,43251 49623,43236 49573,43224 49521,43216 49470,43211 49418,43209 46560,43209 Z"/>
    </g>
    <path fill="none" stroke="rgb(255,64,0)" stroke-width="106" stroke-linejoin="round" d="M 46560,43209 L 46561,43209 C 46421,43209 46284,43246 46163,43315 46042,43385 45942,43485 45872,43606 45803,43727 45766,43864 45766,44003 L 45766,44003 45766,44003 C 45766,44143 45803,44280 45872,44401 45942,44522 46042,44622 46163,44692 46284,44761 46421,44798 46561,44798 L 49417,44798 49418,44798 C 49557,44798 49694,44761 49815,44692 49936,44622 50036,44522 50106,44401 50175,44280 50212,44143 50212,44003 L 50212,44003 50212,44003 50212,44003 C 50212,43864 50175,43727 50106,43606 50036,43485 49936,43385 49815,43315 49694,43246 49557,43209 49418,43209 L 46560,43209 Z"/>
   </g>
  </g>
  <g class="com.sun.star.drawing.CustomShape">
   <g id="id5">
    <rect class="BoundingBox" stroke="none" fill="none" x="45713" y="45156" width="4553" height="1697"/>
    <g>
     <defs>
      <pattern id="pattern2" x="45766" y="45210" width="4447" height="1590" patternUnits="userSpaceOnUse">
       <g transform="translate(-45766,-45210)">
        <line fill="rgb(255,64,0)" stroke="rgb(255,64,0)" x1="46005" y1="45437" x2="46005" y2="46572"/>
        <line fill="rgb(255,64,0)" stroke="rgb(255,64,0)" x1="46270" y1="45265" x2="46270" y2="46744"/>
        <line fill="rgb(255,64,0)" stroke="rgb(255,64,0)" x1="46535" y1="45211" x2="46535" y2="46798"/>
        <line fill="rgb(255,64,0)" stroke="rgb(255,64,0)" x1="46800" y1="45210" x2="46800" y2="46799"/>
        <line fill="rgb(255,64,0)" stroke="rgb(255,64,0)" x1="47065" y1="45210" x2="47065" y2="46799"/>
        <line fill="rgb(255,64,0)" stroke="rgb(255,64,0)" x1="47330" y1="45210" x2="47330" y2="46799"/>
        <line fill="rgb(255,64,0)" stroke="rgb(255,64,0)" x1="47595" y1="45210" x2="47595" y2="46799"/>
        <line fill="rgb(255,64,0)" stroke="rgb(255,64,0)" x1="47860" y1="45210" x2="47860" y2="46799"/>
        <line fill="rgb(255,64,0)" stroke="rgb(255,64,0)" x1="48125" y1="45210" x2="48125" y2="46799"/>
        <line fill="rgb(255,64,0)" stroke="rgb(255,64,0)" x1="48390" y1="45210" x2="48390" y2="46799"/>
        <line fill="rgb(255,64,0)" stroke="rgb(255,64,0)" x1="48655" y1="45210" x2="48655" y2="46799"/>
        <line fill="rgb(255,64,0)" stroke="rgb(255,64,0)" x1="48920" y1="45210" x2="48920" y2="46799"/>
        <line fill="rgb(255,64,0)" stroke="rgb(255,64,0)" x1="49185" y1="45210" x2="49185" y2="46799"/>
        <line fill="rgb(255,64,0)" stroke="rgb(255,64,0)" x1="49450" y1="45211" x2="49450" y2="46798"/>
        <line fill="rgb(255,64,0)" stroke="rgb(255,64,0)" x1="49715" y1="45268" x2="49715" y2="46741"/>
        <line fill="rgb(255,64,0)" stroke="rgb(255,64,0)" x1="49980" y1="45444" x2="49980" y2="46565"/>
       </g>
      </pattern>
     </defs>
     <path style="fill:url(#pattern2)" d="M 46560,45210 L 46561,45210 46508,45212 46457,45217 46405,45225 46355,45237 46305,45252 46257,45270 46209,45292 46163,45316 46119,45344 46077,45374 46037,45407 45999,45443 45963,45481 45930,45521 45900,45563 45872,45607 45848,45653 45826,45701 45808,45749 45793,45799 45781,45849 45773,45901 45768,45952 45766,46004 45766,46004 45766,46004 45768,46057 45773,46108 45781,46160 45793,46210 45808,46260 45826,46308 45848,46356 45872,46402 45900,46446 45930,46488 45963,46528 45999,46566 46037,46602 46077,46635 46119,46665 46163,46693 46209,46717 46257,46739 46305,46757 46355,46772 46405,46784 46457,46792 46508,46797 46561,46799 49417,46799 49418,46799 49470,46797 49521,46792 49573,46784 49623,46772 49673,46757 49721,46739 49769,46717 49815,46693 49859,46665 49901,46635 49941,46602 49979,46566 50015,46528 50048,46488 50078,46446 50106,46402 50130,46356 50152,46308 50170,46260 50185,46210 50197,46160 50205,46108 50210,46057 50212,46004 50212,46004 50212,46004 50212,46004 50210,45952 50205,45901 50197,45849 50185,45799 50170,45749 50152,45701 50130,45653 50106,45607 50078,45563 50048,45521 50015,45481 49979,45443 49941,45407 49901,45374 49859,45344 49815,45316 49769,45292 49721,45270 49673,45252 49623,45237 49573,45225 49521,45217 49470,45212 49418,45210 46560,45210 Z"/>
    </g>
    <path fill="none" stroke="rgb(255,64,0)" stroke-width="106" stroke-linejoin="round" d="M 46560,45210 L 46561,45210 C 46421,45210 46284,45247 46163,45316 46042,45386 45942,45486 45872,45607 45803,45728 45766,45865 45766,46004 L 45766,46004 45766,46004 C 45766,46144 45803,46281 45872,46402 45942,46523 46042,46623 46163,46693 46284,46762 46421,46799 46561,46799 L 49417,46799 49418,46799 C 49557,46799 49694,46762 49815,46693 49936,46623 50036,46523 50106,46402 50175,46281 50212,46144 50212,46004 L 50212,46004 50212,46004 50212,46004 C 50212,45865 50175,45728 50106,45607 50036,45486 49936,45386 49815,45316 49694,45247 49557,45210 49418,45210 L 46560,45210 Z"/>
   </g>
  </g>
 </g>
</svg>