<?xml version="1.0" encoding="UTF-8"?>
<!DOCTYPE svg PUBLIC "-//W3C//DTD SVG 1.1//EN" "http://www.w3.org/Graphics/SVG/1.1/DTD/svg11.dtd">
<svg version="1.2" width="51.18mm" height="67.05mm" viewBox="28232 34351 5118 6705" preserveAspectRatio="xMidYMid" fill-rule="evenodd" stroke-width="28.222" stroke-linejoin="round" xmlns="http://www.w3.org/2000/svg" xmlns:ooo="http://xml.openoffice.org/svg/export" xmlns:xlink="http://www.w3.org/1999/xlink" xmlns:presentation="http://sun.com/xmlns/staroffice/presentation" xmlns:smil="http://www.w3.org/2001/SMIL20/" xmlns:anim="urn:oasis:names:tc:opendocument:xmlns:animation:1.0" xmlns:svg="urn:oasis:names:tc:opendocument:xmlns:svg-compatible:1.0" xml:space="preserve">
 <defs class="EmbeddedBulletChars">
  <g id="bullet-char-template-57356" transform="scale(0.00048828125,-0.00048828125)">
   <path d="M 580,1141 L 1163,571 580,0 -4,571 580,1141 Z"/>
  </g>
  <g id="bullet-char-template-57354" transform="scale(0.00048828125,-0.00048828125)">
   <path d="M 8,1128 L 1137,1128 1137,0 8,0 8,1128 Z"/>
  </g>
  <g id="bullet-char-template-10146" transform="scale(0.00048828125,-0.00048828125)">
   <path d="M 174,0 L 602,739 174,1481 1456,739 174,0 Z M 1358,739 L 309,1346 659,739 1358,739 Z"/>
  </g>
  <g id="bullet-char-template-10132" transform="scale(0.00048828125,-0.00048828125)">
   <path d="M 2015,739 L 1276,0 717,0 1260,543 174,543 174,936 1260,936 717,1481 1274,1481 2015,739 Z"/>
  </g>
  <g id="bullet-char-template-10007" transform="scale(0.00048828125,-0.00048828125)">
   <path d="M 0,-2 C -7,14 -16,27 -25,37 L 356,567 C 262,823 215,952 215,954 215,979 228,992 255,992 264,992 276,990 289,987 310,991 331,999 354,1012 L 381,999 492,748 772,1049 836,1024 860,1049 C 881,1039 901,1025 922,1006 886,937 835,863 770,784 769,783 710,716 594,584 L 774,223 C 774,196 753,168 711,139 L 727,119 C 717,90 699,76 672,76 641,76 570,178 457,381 L 164,-76 C 142,-110 111,-127 72,-127 30,-127 9,-110 8,-76 1,-67 -2,-52 -2,-32 -2,-23 -1,-13 0,-2 Z"/>
  </g>
  <g id="bullet-char-template-10004" transform="scale(0.00048828125,-0.00048828125)">
   <path d="M 285,-33 C 182,-33 111,30 74,156 52,228 41,333 41,471 41,549 55,616 82,672 116,743 169,778 240,778 293,778 328,747 346,684 L 369,508 C 377,444 397,411 428,410 L 1163,1116 C 1174,1127 1196,1133 1229,1133 1271,1133 1292,1118 1292,1087 L 1292,965 C 1292,929 1282,901 1262,881 L 442,47 C 390,-6 338,-33 285,-33 Z"/>
  </g>
  <g id="bullet-char-template-9679" transform="scale(0.00048828125,-0.00048828125)">
   <path d="M 813,0 C 632,0 489,54 383,161 276,268 223,411 223,592 223,773 276,916 383,1023 489,1130 632,1184 813,1184 992,1184 1136,1130 1245,1023 1353,916 1407,772 1407,592 1407,412 1353,268 1245,161 1136,54 992,0 813,0 Z"/>
  </g>
  <g id="bullet-char-template-8226" transform="scale(0.00048828125,-0.00048828125)">
   <path d="M 346,457 C 273,457 209,483 155,535 101,586 74,649 74,723 74,796 101,859 155,911 209,963 273,989 346,989 419,989 480,963 531,910 582,859 608,796 608,723 608,648 583,586 532,535 482,483 420,457 346,457 Z"/>
  </g>
  <g id="bullet-char-template-8211" transform="scale(0.00048828125,-0.00048828125)">
   <path d="M -4,459 L 1135,459 1135,606 -4,606 -4,459 Z"/>
  </g>
  <g id="bullet-char-template-61548" transform="scale(0.00048828125,-0.00048828125)">
   <path d="M 173,740 C 173,903 231,1043 346,1159 462,1274 601,1332 765,1332 928,1332 1067,1274 1183,1159 1299,1043 1357,903 1357,740 1357,577 1299,437 1183,322 1067,206 928,148 765,148 601,148 462,206 346,322 231,437 173,577 173,740 Z"/>
  </g>
 </defs>
 <g class="Page">
  <g class="com.sun.star.drawing.CustomShape">
   <g id="id3">
    <rect class="BoundingBox" stroke="none" fill="none" x="28232" y="34351" width="5118" height="6705"/>
    <path fill="rgb(255,245,206)" stroke="none" d="M 29096,34369 L 29097,34369 C 28948,34369 28802,34408 28673,34482 28545,34557 28438,34664 28363,34792 28289,34921 28250,35067 28250,35216 L 28250,40190 28250,40190 C 28250,40339 28289,40485 28363,40614 28438,40742 28545,40849 28673,40924 28802,40998 28948,41037 29097,41037 L 32484,41037 32484,41037 C 32633,41037 32779,40998 32908,40924 33036,40849 33143,40742 33218,40614 33292,40485 33331,40339 33331,40190 L 33331,35215 33331,35216 33331,35216 C 33331,35067 33292,34921 33218,34792 33143,34664 33036,34557 32908,34482 32779,34408 32633,34369 32484,34369 L 29096,34369 Z"/>
    <path fill="none" stroke="rgb(184,92,0)" stroke-width="35" stroke-linejoin="round" d="M 29096,34369 L 29097,34369 C 28948,34369 28802,34408 28673,34482 28545,34557 28438,34664 28363,34792 28289,34921 28250,35067 28250,35216 L 28250,40190 28250,40190 C 28250,40339 28289,40485 28363,40614 28438,40742 28545,40849 28673,40924 28802,40998 28948,41037 29097,41037 L 32484,41037 32484,41037 C 32633,41037 32779,40998 32908,40924 33036,40849 33143,40742 33218,40614 33292,40485 33331,40339 33331,40190 L 33331,35215 33331,35216 33331,35216 C 33331,35067 33292,34921 33218,34792 33143,34664 33036,34557 32908,34482 32779,34408 32633,34369 32484,34369 L 29096,34369 Z"/>
   </g>
  </g>
  <g class="com.sun.star.drawing.CustomShape">
   <g id="id4">
    <rect class="BoundingBox" stroke="none" fill="none" x="28513" y="35986" width="4552" height="1636"/>
    <g>
     <defs>
      <pattern id="pattern1" x="28566" y="36039" width="4446" height="1530" patternUnits="userSpaceOnUse">
       <g transform="translate(-28566,-36039)">
        <line fill="rgb(42,96,153)" stroke="rgb(42,96,153)" x1="28805" y1="36106" x2="28805" y2="37327"/>
        <line fill="rgb(42,96,153)" stroke="rgb(42,96,153)" x1="29070" y1="36067" x2="29070" y2="37290"/>
        <line fill="rgb(42,96,153)" stroke="rgb(42,96,153)" x1="29335" y1="36050" x2="29335" y2="37273"/>
        <line fill="rgb(42,96,153)" stroke="rgb(42,96,153)" x1="29600" y1="36042" x2="29600" y2="37262"/>
        <line fill="rgb(42,96,153)" stroke="rgb(42,96,153)" x1="29865" y1="36044" x2="29865" y2="37265"/>
        <line fill="rgb(42,96,153)" stroke="rgb(42,96,153)" x1="30130" y1="36057" x2="30130" y2="37278"/>
        <line fill="rgb(42,96,153)" stroke="rgb(42,96,153)" x1="30395" y1="36078" x2="30395" y2="37299"/>
        <line fill="rgb(42,96,153)" stroke="rgb(42,96,153)" x1="30660" y1="36127" x2="30660" y2="37345"/>
        <line fill="rgb(42,96,153)" stroke="rgb(42,96,153)" x1="30925" y1="36254" x2="30925" y2="37476"/>
        <line fill="rgb(42,96,153)" stroke="rgb(42,96,153)" x1="31190" y1="36301" x2="31190" y2="37522"/>
        <line fill="rgb(42,96,153)" stroke="rgb(42,96,153)" x1="31455" y1="36322" x2="31455" y2="37543"/>
        <line fill="rgb(42,96,153)" stroke="rgb(42,96,153)" x1="31720" y1="36338" x2="31720" y2="37558"/>
        <line fill="rgb(42,96,153)" stroke="rgb(42,96,153)" x1="31985" y1="36342" x2="31985" y2="37565"/>
        <line fill="rgb(42,96,153)" stroke="rgb(42,96,153)" x1="32250" y1="36326" x2="32250" y2="37550"/>
        <line fill="rgb(42,96,153)" stroke="rgb(42,96,153)" x1="32515" y1="36310" x2="32515" y2="37532"/>
        <line fill="rgb(42,96,153)" stroke="rgb(42,96,153)" x1="32780" y1="36277" x2="32780" y2="37498"/>
       </g>
      </pattern>
     </defs>
     <path style="fill:url(#pattern1)" d="M 33011,36196 L 32994,36207 32975,36218 32932,36237 32881,36254 32824,36269 32694,36292 32547,36308 31906,36347 31573,36330 31245,36308 31099,36290 30974,36267 30921,36253 30876,36237 30839,36219 30824,36209 30812,36199 30796,36186 30778,36174 30736,36153 30685,36134 30627,36117 30494,36090 30342,36071 30011,36049 29688,36039 29320,36050 29154,36060 29003,36073 28867,36092 28748,36118 28695,36134 28647,36152 28604,36173 28566,36196 28566,37413 28606,37389 28653,37368 28705,37350 28762,37335 28890,37310 29034,37292 29353,37272 29690,37259 29971,37268 30311,37289 30474,37308 30617,37334 30677,37350 30728,37369 30749,37379 30768,37390 30783,37402 30795,37414 30808,37425 30824,37436 30863,37455 30910,37472 30965,37486 31095,37511 31246,37529 31583,37552 31923,37568 32255,37550 32580,37527 32724,37509 32848,37485 32901,37470 32946,37453 32983,37434 32998,37424 33011,37413 33011,36196 Z"/>
    </g>
    <path fill="none" stroke="rgb(42,96,153)" stroke-width="106" stroke-linejoin="round" d="M 33011,36196 C 32843,36321 32310,36320 31906,36347 31483,36324 30931,36314 30812,36199 30657,36060 30089,36050 29688,36039 29169,36051 28754,36066 28566,36196 L 28566,37413 C 28764,37278 29241,37277 29690,37259 29984,37268 30684,37278 30795,37414 30923,37536 31493,37546 31923,37568 32349,37543 32886,37534 33011,37413 L 33011,36196 Z"/>
   </g>
  </g>
  <g class="com.sun.star.drawing.CustomShape">
   <g id="id5">
    <rect class="BoundingBox" stroke="none" fill="none" x="28513" y="37787" width="4552" height="1636"/>
    <g>
     <defs>
      <pattern id="pattern2" x="28566" y="37840" width="4446" height="1530" patternUnits="userSpaceOnUse">
       <g transform="translate(-28566,-37840)">
        <line fill="rgb(42,96,153)" stroke="rgb(42,96,153)" x1="28805" y1="37907" x2="28805" y2="39128"/>
        <line fill="rgb(42,96,153)" stroke="rgb(42,96,153)" x1="29070" y1="37868" x2="29070" y2="39091"/>
        <line fill="rgb(42,96,153)" stroke="rgb(42,96,153)" x1="29335" y1="37851" x2="29335" y2="39074"/>
        <line fill="rgb(42,96,153)" stroke="rgb(42,96,153)" x1="29600" y1="37843" x2="29600" y2="39063"/>
        <line fill="rgb(42,96,153)" stroke="rgb(42,96,153)" x1="29865" y1="37845" x2="29865" y2="39066"/>
        <line fill="rgb(42,96,153)" stroke="rgb(42,96,153)" x1="30130" y1="37858" x2="30130" y2="39079"/>
        <line fill="rgb(42,96,153)" stroke="rgb(42,96,153)" x1="30395" y1="37879" x2="30395" y2="39100"/>
        <line fill="rgb(42,96,153)" stroke="rgb(42,96,153)" x1="30660" y1="37928" x2="30660" y2="39146"/>
        <line fill="rgb(42,96,153)" stroke="rgb(42,96,153)" x1="30925" y1="38055" x2="30925" y2="39277"/>
        <line fill="rgb(42,96,153)" stroke="rgb(42,96,153)" x1="31190" y1="38102" x2="31190" y2="39323"/>
        <line fill="rgb(42,96,153)" stroke="rgb(42,96,153)" x1="31455" y1="38123" x2="31455" y2="39344"/>
        <line fill="rgb(42,96,153)" stroke="rgb(42,96,153)" x1="31720" y1="38139" x2="31720" y2="39359"/>
        <line fill="rgb(42,96,153)" stroke="rgb(42,96,153)" x1="31985" y1="38143" x2="31985" y2="39366"/>
        <line fill="rgb(42,96,153)" stroke="rgb(42,96,153)" x1="32250" y1="38127" x2="32250" y2="39351"/>
        <line fill="rgb(42,96,153)" stroke="rgb(42,96,153)" x1="32515" y1="38111" x2="32515" y2="39333"/>
        <line fill="rgb(42,96,153)" stroke="rgb(42,96,153)" x1="32780" y1="38078" x2="32780" y2="39299"/>
       </g>
      </pattern>
     </defs>
     <path style="fill:url(#pattern2)" d="M 33011,37997 L 32994,38008 32975,38019 32932,38038 32881,38055 32824,38070 32694,38093 32547,38109 31906,38148 31573,38131 31245,38109 31099,38091 30974,38068 30921,38054 30876,38038 30839,38020 30824,38010 30812,38000 30796,37987 30778,37975 30736,37954 30685,37935 30627,37918 30494,37891 30342,37872 30011,37850 29688,37840 29320,37851 29154,37861 29003,37874 28867,37893 28748,37919 28695,37935 28647,37953 28604,37974 28566,37997 28566,39214 28606,39190 28653,39169 28705,39151 28762,39136 28890,39111 29034,39093 29353,39073 29690,39060 29971,39069 30311,39090 30474,39109 30617,39135 30677,39151 30728,39170 30749,39180 30768,39191 30783,39203 30795,39215 30808,39226 30824,39237 30863,39256 30910,39273 30965,39287 31095,39312 31246,39330 31583,39353 31923,39369 32255,39351 32580,39328 32724,39310 32848,39286 32901,39271 32946,39254 32983,39235 32998,39225 33011,39214 33011,37997 Z"/>
    </g>
    <path fill="none" stroke="rgb(42,96,153)" stroke-width="106" stroke-linejoin="round" d="M 33011,37997 C 32843,38122 32310,38121 31906,38148 31483,38125 30931,38115 30812,38000 30657,37861 30089,37851 29688,37840 29169,37852 28754,37867 28566,37997 L 28566,39214 C 28764,39079 29241,39078 29690,39060 29984,39069 30684,39079 30795,39215 30923,39337 31493,39347 31923,39369 32349,39344 32886,39335 33011,39214 L 33011,37997 Z"/>
   </g>
  </g>
 </g>
</svg>