<?xml version="1.0" encoding="UTF-8"?>
<!DOCTYPE svg PUBLIC "-//W3C//DTD SVG 1.1//EN" "http://www.w3.org/Graphics/SVG/1.1/DTD/svg11.dtd">
<svg version="1.2" width="51.18mm" height="67.05mm" viewBox="11131 34351 5118 6705" preserveAspectRatio="xMidYMid" fill-rule="evenodd" stroke-width="28.222" stroke-linejoin="round" xmlns="http://www.w3.org/2000/svg" xmlns:ooo="http://xml.openoffice.org/svg/export" xmlns:xlink="http://www.w3.org/1999/xlink" xmlns:presentation="http://sun.com/xmlns/staroffice/presentation" xmlns:smil="http://www.w3.org/2001/SMIL20/" xmlns:anim="urn:oasis:names:tc:opendocument:xmlns:animation:1.0" xmlns:svg="urn:oasis:names:tc:opendocument:xmlns:svg-compatible:1.0" xml:space="preserve">
 <defs class="EmbeddedBulletChars">
  <g id="bullet-char-template-57356" transform="scale(0.00048828125,-0.00048828125)">
   <path d="M 580,1141 L 1163,571 580,0 -4,571 580,1141 Z"/>
  </g>
  <g id="bullet-char-template-57354" transform="scale(0.00048828125,-0.00048828125)">
   <path d="M 8,1128 L 1137,1128 1137,0 8,0 8,1128 Z"/>
  </g>
  <g id="bullet-char-template-10146" transform="scale(0.00048828125,-0.00048828125)">
   <path d="M 174,0 L 602,739 174,1481 1456,739 174,0 Z M 1358,739 L 309,1346 659,739 1358,739 Z"/>
  </g>
  <g id="bullet-char-template-10132" transform="scale(0.00048828125,-0.00048828125)">
   <path d="M 2015,739 L 1276,0 717,0 1260,543 174,543 174,936 1260,936 717,1481 1274,1481 2015,739 Z"/>
  </g>
  <g id="bullet-char-template-10007" transform="scale(0.00048828125,-0.00048828125)">
   <path d="M 0,-2 C -7,14 -16,27 -25,37 L 356,567 C 262,823 215,952 215,954 215,979 228,992 255,992 264,992 276,990 289,987 310,991 331,999 354,1012 L 381,999 492,748 772,1049 836,1024 860,1049 C 881,1039 901,1025 922,1006 886,937 835,863 770,784 769,783 710,716 594,584 L 774,223 C 774,196 753,168 711,139 L 727,119 C 717,90 699,76 672,76 641,76 570,178 457,381 L 164,-76 C 142,-110 111,-127 72,-127 30,-127 9,-110 8,-76 1,-67 -2,-52 -2,-32 -2,-23 -1,-13 0,-2 Z"/>
  </g>
  <g id="bullet-char-template-10004" transform="scale(0.00048828125,-0.00048828125)">
   <path d="M 285,-33 C 182,-33 111,30 74,156 52,228 41,333 41,471 41,549 55,616 82,672 116,743 169,778 240,778 293,778 328,747 346,684 L 369,508 C 377,444 397,411 428,410 L 1163,1116 C 1174,1127 1196,1133 1229,1133 1271,1133 1292,1118 1292,1087 L 1292,965 C 1292,929 1282,901 1262,881 L 442,47 C 390,-6 338,-33 285,-33 Z"/>
  </g>
  <g id="bullet-char-template-9679" transform="scale(0.00048828125,-0.00048828125)">
   <path d="M 813,0 C 632,0 489,54 383,161 276,268 223,411 223,592 223,773 276,916 383,1023 489,1130 632,1184 813,1184 992,1184 1136,1130 1245,1023 1353,916 1407,772 1407,592 1407,412 1353,268 1245,161 1136,54 992,0 813,0 Z"/>
  </g>
  <g id="bullet-char-template-8226" transform="scale(0.00048828125,-0.00048828125)">
   <path d="M 346,457 C 273,457 209,483 155,535 101,586 74,649 74,723 74,796 101,859 155,911 209,963 273,989 346,989 419,989 480,963 531,910 582,859 608,796 608,723 608,648 583,586 532,535 482,483 420,457 346,457 Z"/>
  </g>
  <g id="bullet-char-template-8211" transform="scale(0.00048828125,-0.00048828125)">
   <path d="M -4,459 L 1135,459 1135,606 -4,606 -4,459 Z"/>
  </g>
  <g id="bullet-char-template-61548" transform="scale(0.00048828125,-0.00048828125)">
   <path d="M 173,740 C 173,903 231,1043 346,1159 462,1274 601,1332 765,1332 928,1332 1067,1274 1183,1159 1299,1043 1357,903 1357,740 1357,577 1299,437 1183,322 1067,206 928,148 765,148 601,148 462,206 346,322 231,437 173,577 173,740 Z"/>
  </g>
 </defs>
 <g class="Page">
  <g class="com.sun.star.drawing.CustomShape">
   <g id="id3">
    <rect class="BoundingBox" stroke="none" fill="none" x="11131" y="34351" width="5118" height="6705"/>
    <path fill="rgb(255,245,206)" stroke="none" d="M 11995,34369 L 11996,34369 C 11847,34369 11701,34408 11572,34482 11444,34557 11337,34664 11262,34792 11188,34921 11149,35067 11149,35216 L 11149,40190 11149,40190 C 11149,40339 11188,40485 11262,40614 11337,40742 11444,40849 11572,40924 11701,40998 11847,41037 11996,41037 L 15383,41037 15383,41037 C 15532,41037 15678,40998 15807,40924 15935,40849 16042,40742 16117,40614 16191,40485 16230,40339 16230,40190 L 16230,35215 16230,35216 16230,35216 C 16230,35067 16191,34921 16117,34792 16042,34664 15935,34557 15807,34482 15678,34408 15532,34369 15383,34369 L 11995,34369 Z"/>
    <path fill="none" stroke="rgb(184,92,0)" stroke-width="35" stroke-linejoin="round" d="M 11995,34369 L 11996,34369 C 11847,34369 11701,34408 11572,34482 11444,34557 11337,34664 11262,34792 11188,34921 11149,35067 11149,35216 L 11149,40190 11149,40190 C 11149,40339 11188,40485 11262,40614 11337,40742 11444,40849 11572,40924 11701,40998 11847,41037 11996,41037 L 15383,41037 15383,41037 C 15532,41037 15678,40998 15807,40924 15935,40849 16042,40742 16117,40614 16191,40485 16230,40339 16230,40190 L 16230,35215 16230,35216 16230,35216 C 16230,35067 16191,34921 16117,34792 16042,34664 15935,34557 15807,34482 15678,34408 15532,34369 15383,34369 L 11995,34369 Z"/>
   </g>
  </g>
  <g class="com.sun.star.drawing.CustomShape">
   <g id="id4">
    <rect class="BoundingBox" stroke="none" fill="none" x="11413" y="35986" width="4552" height="1636"/>
    <g>
     <defs>
      <pattern id="pattern1" x="11466" y="36039" width="4446" height="1530" patternUnits="userSpaceOnUse">
       <g transform="translate(-11466,-36039)">
        <line fill="rgb(129,212,26)" stroke="rgb(129,212,26)" x1="11705" y1="36106" x2="11705" y2="37327"/>
        <line fill="rgb(129,212,26)" stroke="rgb(129,212,26)" x1="11970" y1="36067" x2="11970" y2="37290"/>
        <line fill="rgb(129,212,26)" stroke="rgb(129,212,26)" x1="12235" y1="36050" x2="12235" y2="37273"/>
        <line fill="rgb(129,212,26)" stroke="rgb(129,212,26)" x1="12500" y1="36042" x2="12500" y2="37262"/>
        <line fill="rgb(129,212,26)" stroke="rgb(129,212,26)" x1="12765" y1="36044" x2="12765" y2="37265"/>
        <line fill="rgb(129,212,26)" stroke="rgb(129,212,26)" x1="13030" y1="36057" x2="13030" y2="37278"/>
        <line fill="rgb(129,212,26)" stroke="rgb(129,212,26)" x1="13295" y1="36078" x2="13295" y2="37299"/>
        <line fill="rgb(129,212,26)" stroke="rgb(129,212,26)" x1="13560" y1="36127" x2="13560" y2="37345"/>
        <line fill="rgb(129,212,26)" stroke="rgb(129,212,26)" x1="13825" y1="36254" x2="13825" y2="37476"/>
        <line fill="rgb(129,212,26)" stroke="rgb(129,212,26)" x1="14090" y1="36301" x2="14090" y2="37522"/>
        <line fill="rgb(129,212,26)" stroke="rgb(129,212,26)" x1="14355" y1="36322" x2="14355" y2="37543"/>
        <line fill="rgb(129,212,26)" stroke="rgb(129,212,26)" x1="14620" y1="36338" x2="14620" y2="37558"/>
        <line fill="rgb(129,212,26)" stroke="rgb(129,212,26)" x1="14885" y1="36342" x2="14885" y2="37565"/>
        <line fill="rgb(129,212,26)" stroke="rgb(129,212,26)" x1="15150" y1="36326" x2="15150" y2="37550"/>
        <line fill="rgb(129,212,26)" stroke="rgb(129,212,26)" x1="15415" y1="36310" x2="15415" y2="37532"/>
        <line fill="rgb(129,212,26)" stroke="rgb(129,212,26)" x1="15680" y1="36277" x2="15680" y2="37498"/>
       </g>
      </pattern>
     </defs>
     <path style="fill:url(#pattern1)" d="M 15911,36196 L 15894,36207 15875,36218 15832,36237 15781,36254 15724,36269 15594,36292 15447,36308 14806,36347 14473,36330 14145,36308 13999,36290 13874,36267 13821,36253 13776,36237 13739,36219 13724,36209 13712,36199 13696,36186 13678,36174 13636,36153 13585,36134 13527,36117 13394,36090 13242,36071 12911,36049 12588,36039 12220,36050 12054,36060 11903,36073 11767,36092 11648,36118 11595,36134 11547,36152 11504,36173 11466,36196 11466,37413 11506,37389 11553,37368 11605,37350 11662,37335 11790,37310 11934,37292 12253,37272 12590,37259 12871,37268 13211,37289 13374,37308 13517,37334 13577,37350 13628,37369 13649,37379 13668,37390 13683,37402 13695,37414 13708,37425 13724,37436 13763,37455 13810,37472 13865,37486 13995,37511 14146,37529 14483,37552 14823,37568 15155,37550 15480,37527 15624,37509 15748,37485 15801,37470 15846,37453 15883,37434 15898,37424 15911,37413 15911,36196 Z"/>
    </g>
    <path fill="none" stroke="rgb(129,212,26)" stroke-width="106" stroke-linejoin="round" d="M 15911,36196 C 15743,36321 15210,36320 14806,36347 14383,36324 13831,36314 13712,36199 13557,36060 12989,36050 12588,36039 12069,36051 11654,36066 11466,36196 L 11466,37413 C 11664,37278 12141,37277 12590,37259 12884,37268 13584,37278 13695,37414 13823,37536 14393,37546 14823,37568 15249,37543 15786,37534 15911,37413 L 15911,36196 Z"/>
   </g>
  </g>
  <g class="com.sun.star.drawing.CustomShape">
   <g id="id5">
    <rect class="BoundingBox" stroke="none" fill="none" x="11413" y="37787" width="4552" height="1636"/>
    <g>
     <defs>
      <pattern id="pattern2" x="11466" y="37840" width="4446" height="1530" patternUnits="userSpaceOnUse">
       <g transform="translate(-11466,-37840)">
        <line fill="rgb(129,212,26)" stroke="rgb(129,212,26)" x1="11705" y1="37907" x2="11705" y2="39128"/>
        <line fill="rgb(129,212,26)" stroke="rgb(129,212,26)" x1="11970" y1="37868" x2="11970" y2="39091"/>
        <line fill="rgb(129,212,26)" stroke="rgb(129,212,26)" x1="12235" y1="37851" x2="12235" y2="39074"/>
        <line fill="rgb(129,212,26)" stroke="rgb(129,212,26)" x1="12500" y1="37843" x2="12500" y2="39063"/>
        <line fill="rgb(129,212,26)" stroke="rgb(129,212,26)" x1="12765" y1="37845" x2="12765" y2="39066"/>
        <line fill="rgb(129,212,26)" stroke="rgb(129,212,26)" x1="13030" y1="37858" x2="13030" y2="39079"/>
        <line fill="rgb(129,212,26)" stroke="rgb(129,212,26)" x1="13295" y1="37879" x2="13295" y2="39100"/>
        <line fill="rgb(129,212,26)" stroke="rgb(129,212,26)" x1="13560" y1="37928" x2="13560" y2="39146"/>
        <line fill="rgb(129,212,26)" stroke="rgb(129,212,26)" x1="13825" y1="38055" x2="13825" y2="39277"/>
        <line fill="rgb(129,212,26)" stroke="rgb(129,212,26)" x1="14090" y1="38102" x2="14090" y2="39323"/>
        <line fill="rgb(129,212,26)" stroke="rgb(129,212,26)" x1="14355" y1="38123" x2="14355" y2="39344"/>
        <line fill="rgb(129,212,26)" stroke="rgb(129,212,26)" x1="14620" y1="38139" x2="14620" y2="39359"/>
        <line fill="rgb(129,212,26)" stroke="rgb(129,212,26)" x1="14885" y1="38143" x2="14885" y2="39366"/>
        <line fill="rgb(129,212,26)" stroke="rgb(129,212,26)" x1="15150" y1="38127" x2="15150" y2="39351"/>
        <line fill="rgb(129,212,26)" stroke="rgb(129,212,26)" x1="15415" y1="38111" x2="15415" y2="39333"/>
        <line fill="rgb(129,212,26)" stroke="rgb(129,212,26)" x1="15680" y1="38078" x2="15680" y2="39299"/>
       </g>
      </pattern>
     </defs>
     <path style="fill:url(#pattern2)" d="M 15911,37997 L 15894,38008 15875,38019 15832,38038 15781,38055 15724,38070 15594,38093 15447,38109 14806,38148 14473,38131 14145,38109 13999,38091 13874,38068 13821,38054 13776,38038 13739,38020 13724,38010 13712,38000 13696,37987 13678,37975 13636,37954 13585,37935 13527,37918 13394,37891 13242,37872 12911,37850 12588,37840 12220,37851 12054,37861 11903,37874 11767,37893 11648,37919 11595,37935 11547,37953 11504,37974 11466,37997 11466,39214 11506,39190 11553,39169 11605,39151 11662,39136 11790,39111 11934,39093 12253,39073 12590,39060 12871,39069 13211,39090 13374,39109 13517,39135 13577,39151 13628,39170 13649,39180 13668,39191 13683,39203 13695,39215 13708,39226 13724,39237 13763,39256 13810,39273 13865,39287 13995,39312 14146,39330 14483,39353 14823,39369 15155,39351 15480,39328 15624,39310 15748,39286 15801,39271 15846,39254 15883,39235 15898,39225 15911,39214 15911,37997 Z"/>
    </g>
    <path fill="none" stroke="rgb(129,212,26)" stroke-width="106" stroke-linejoin="round" d="M 15911,37997 C 15743,38122 15210,38121 14806,38148 14383,38125 13831,38115 13712,38000 13557,37861 12989,37851 12588,37840 12069,37852 11654,37867 11466,37997 L 11466,39214 C 11664,39079 12141,39078 12590,39060 12884,39069 13584,39079 13695,39215 13823,39337 14393,39347 14823,39369 15249,39344 15786,39335 15911,39214 L 15911,37997 Z"/>
   </g>
  </g>
 </g>
</svg>