<?xml version="1.0" encoding="UTF-8"?>
<!DOCTYPE svg PUBLIC "-//W3C//DTD SVG 1.1//EN" "http://www.w3.org/Graphics/SVG/1.1/DTD/svg11.dtd">
<svg version="1.2" width="51.18mm" height="67.05mm" viewBox="45433 34351 5118 6705" preserveAspectRatio="xMidYMid" fill-rule="evenodd" stroke-width="28.222" stroke-linejoin="round" xmlns="http://www.w3.org/2000/svg" xmlns:ooo="http://xml.openoffice.org/svg/export" xmlns:xlink="http://www.w3.org/1999/xlink" xmlns:presentation="http://sun.com/xmlns/staroffice/presentation" xmlns:smil="http://www.w3.org/2001/SMIL20/" xmlns:anim="urn:oasis:names:tc:opendocument:xmlns:animation:1.0" xmlns:svg="urn:oasis:names:tc:opendocument:xmlns:svg-compatible:1.0" xml:space="preserve">
 <defs class="EmbeddedBulletChars">
  <g id="bullet-char-template-57356" transform="scale(0.00048828125,-0.00048828125)">
   <path d="M 580,1141 L 1163,571 580,0 -4,571 580,1141 Z"/>
  </g>
  <g id="bullet-char-template-57354" transform="scale(0.00048828125,-0.00048828125)">
   <path d="M 8,1128 L 1137,1128 1137,0 8,0 8,1128 Z"/>
  </g>
  <g id="bullet-char-template-10146" transform="scale(0.00048828125,-0.00048828125)">
   <path d="M 174,0 L 602,739 174,1481 1456,739 174,0 Z M 1358,739 L 309,1346 659,739 1358,739 Z"/>
  </g>
  <g id="bullet-char-template-10132" transform="scale(0.00048828125,-0.00048828125)">
   <path d="M 2015,739 L 1276,0 717,0 1260,543 174,543 174,936 1260,936 717,1481 1274,1481 2015,739 Z"/>
  </g>
  <g id="bullet-char-template-10007" transform="scale(0.00048828125,-0.00048828125)">
   <path d="M 0,-2 C -7,14 -16,27 -25,37 L 356,567 C 262,823 215,952 215,954 215,979 228,992 255,992 264,992 276,990 289,987 310,991 331,999 354,1012 L 381,999 492,748 772,1049 836,1024 860,1049 C 881,1039 901,1025 922,1006 886,937 835,863 770,784 769,783 710,716 594,584 L 774,223 C 774,196 753,168 711,139 L 727,119 C 717,90 699,76 672,76 641,76 570,178 457,381 L 164,-76 C 142,-110 111,-127 72,-127 30,-127 9,-110 8,-76 1,-67 -2,-52 -2,-32 -2,-23 -1,-13 0,-2 Z"/>
  </g>
  <g id="bullet-char-template-10004" transform="scale(0.00048828125,-0.00048828125)">
   <path d="M 285,-33 C 182,-33 111,30 74,156 52,228 41,333 41,471 41,549 55,616 82,672 116,743 169,778 240,778 293,778 328,747 346,684 L 369,508 C 377,444 397,411 428,410 L 1163,1116 C 1174,1127 1196,1133 1229,1133 1271,1133 1292,1118 1292,1087 L 1292,965 C 1292,929 1282,901 1262,881 L 442,47 C 390,-6 338,-33 285,-33 Z"/>
  </g>
  <g id="bullet-char-template-9679" transform="scale(0.00048828125,-0.00048828125)">
   <path d="M 813,0 C 632,0 489,54 383,161 276,268 223,411 223,592 223,773 276,916 383,1023 489,1130 632,1184 813,1184 992,1184 1136,1130 1245,1023 1353,916 1407,772 1407,592 1407,412 1353,268 1245,161 1136,54 992,0 813,0 Z"/>
  </g>
  <g id="bullet-char-template-8226" transform="scale(0.00048828125,-0.00048828125)">
   <path d="M 346,457 C 273,457 209,483 155,535 101,586 74,649 74,723 74,796 101,859 155,911 209,963 273,989 346,989 419,989 480,963 531,910 582,859 608,796 608,723 608,648 583,586 532,535 482,483 420,457 346,457 Z"/>
  </g>
  <g id="bullet-char-template-8211" transform="scale(0.00048828125,-0.00048828125)">
   <path d="M -4,459 L 1135,459 1135,606 -4,606 -4,459 Z"/>
  </g>
  <g id="bullet-char-template-61548" transform="scale(0.00048828125,-0.00048828125)">
   <path d="M 173,740 C 173,903 231,1043 346,1159 462,1274 601,1332 765,1332 928,1332 1067,1274 1183,1159 1299,1043 1357,903 1357,740 1357,577 1299,437 1183,322 1067,206 928,148 765,148 601,148 462,206 346,322 231,437 173,577 173,740 Z"/>
  </g>
 </defs>
 <g class="Page">
  <g class="com.sun.star.drawing.CustomShape">
   <g id="id3">
    <rect class="BoundingBox" stroke="none" fill="none" x="45433" y="34351" width="5118" height="6705"/>
    <path fill="rgb(255,245,206)" stroke="none" d="M 46297,34369 L 46298,34369 C 46149,34369 46003,34408 45874,34482 45746,34557 45639,34664 45564,34792 45490,34921 45451,35067 45451,35216 L 45451,40190 45451,40190 C 45451,40339 45490,40485 45564,40614 45639,40742 45746,40849 45874,40924 46003,40998 46149,41037 46298,41037 L 49685,41037 49685,41037 C 49834,41037 49980,40998 50109,40924 50237,40849 50344,40742 50419,40614 50493,40485 50532,40339 50532,40190 L 50532,35215 50532,35216 50532,35216 C 50532,35067 50493,34921 50419,34792 50344,34664 50237,34557 50109,34482 49980,34408 49834,34369 49685,34369 L 46297,34369 Z"/>
    <path fill="none" stroke="rgb(184,92,0)" stroke-width="35" stroke-linejoin="round" d="M 46297,34369 L 46298,34369 C 46149,34369 46003,34408 45874,34482 45746,34557 45639,34664 45564,34792 45490,34921 45451,35067 45451,35216 L 45451,40190 45451,40190 C 45451,40339 45490,40485 45564,40614 45639,40742 45746,40849 45874,40924 46003,40998 46149,41037 46298,41037 L 49685,41037 49685,41037 C 49834,41037 49980,40998 50109,40924 50237,40849 50344,40742 50419,40614 50493,40485 50532,40339 50532,40190 L 50532,35215 50532,35216 50532,35216 C 50532,35067 50493,34921 50419,34792 50344,34664 50237,34557 50109,34482 49980,34408 49834,34369 49685,34369 L 46297,34369 Z"/>
   </g>
  </g>
  <g class="com.sun.star.drawing.CustomShape">
   <g id="id4">
    <rect class="BoundingBox" stroke="none" fill="none" x="45713" y="35986" width="4552" height="1636"/>
    <g>
     <defs>
      <pattern id="pattern1" x="45766" y="36039" width="4446" height="1530" patternUnits="userSpaceOnUse">
       <g transform="translate(-45766,-36039)">
        <line fill="rgb(255,64,0)" stroke="rgb(255,64,0)" x1="46005" y1="36106" x2="46005" y2="37327"/>
        <line fill="rgb(255,64,0)" stroke="rgb(255,64,0)" x1="46270" y1="36067" x2="46270" y2="37290"/>
        <line fill="rgb(255,64,0)" stroke="rgb(255,64,0)" x1="46535" y1="36050" x2="46535" y2="37273"/>
        <line fill="rgb(255,64,0)" stroke="rgb(255,64,0)" x1="46800" y1="36042" x2="46800" y2="37262"/>
        <line fill="rgb(255,64,0)" stroke="rgb(255,64,0)" x1="47065" y1="36044" x2="47065" y2="37265"/>
        <line fill="rgb(255,64,0)" stroke="rgb(255,64,0)" x1="47330" y1="36057" x2="47330" y2="37278"/>
        <line fill="rgb(255,64,0)" stroke="rgb(255,64,0)" x1="47595" y1="36078" x2="47595" y2="37299"/>
        <line fill="rgb(255,64,0)" stroke="rgb(255,64,0)" x1="47860" y1="36127" x2="47860" y2="37345"/>
        <line fill="rgb(255,64,0)" stroke="rgb(255,64,0)" x1="48125" y1="36254" x2="48125" y2="37476"/>
        <line fill="rgb(255,64,0)" stroke="rgb(255,64,0)" x1="48390" y1="36301" x2="48390" y2="37522"/>
        <line fill="rgb(255,64,0)" stroke="rgb(255,64,0)" x1="48655" y1="36322" x2="48655" y2="37543"/>
        <line fill="rgb(255,64,0)" stroke="rgb(255,64,0)" x1="48920" y1="36338" x2="48920" y2="37558"/>
        <line fill="rgb(255,64,0)" stroke="rgb(255,64,0)" x1="49185" y1="36342" x2="49185" y2="37565"/>
        <line fill="rgb(255,64,0)" stroke="rgb(255,64,0)" x1="49450" y1="36326" x2="49450" y2="37550"/>
        <line fill="rgb(255,64,0)" stroke="rgb(255,64,0)" x1="49715" y1="36310" x2="49715" y2="37532"/>
        <line fill="rgb(255,64,0)" stroke="rgb(255,64,0)" x1="49980" y1="36277" x2="49980" y2="37498"/>
       </g>
      </pattern>
     </defs>
     <path style="fill:url(#pattern1)" d="M 50211,36196 L 50194,36207 50175,36218 50132,36237 50081,36254 50024,36269 49894,36292 49747,36308 49106,36347 48773,36330 48445,36308 48299,36290 48174,36267 48121,36253 48076,36237 48039,36219 48024,36209 48012,36199 47996,36186 47978,36174 47936,36153 47885,36134 47827,36117 47694,36090 47542,36071 47211,36049 46888,36039 46520,36050 46354,36060 46203,36073 46067,36092 45948,36118 45895,36134 45847,36152 45804,36173 45766,36196 45766,37413 45806,37389 45853,37368 45905,37350 45962,37335 46090,37310 46234,37292 46553,37272 46890,37259 47171,37268 47511,37289 47674,37308 47817,37334 47877,37350 47928,37369 47949,37379 47968,37390 47983,37402 47995,37414 48008,37425 48024,37436 48063,37455 48110,37472 48165,37486 48295,37511 48446,37529 48783,37552 49123,37568 49455,37550 49780,37527 49924,37509 50048,37485 50101,37470 50146,37453 50183,37434 50198,37424 50211,37413 50211,36196 Z"/>
    </g>
    <path fill="none" stroke="rgb(255,64,0)" stroke-width="106" stroke-linejoin="round" d="M 50211,36196 C 50043,36321 49510,36320 49106,36347 48683,36324 48131,36314 48012,36199 47857,36060 47289,36050 46888,36039 46369,36051 45954,36066 45766,36196 L 45766,37413 C 45964,37278 46441,37277 46890,37259 47184,37268 47884,37278 47995,37414 48123,37536 48693,37546 49123,37568 49549,37543 50086,37534 50211,37413 L 50211,36196 Z"/>
   </g>
  </g>
  <g class="com.sun.star.drawing.CustomShape">
   <g id="id5">
    <rect class="BoundingBox" stroke="none" fill="none" x="45713" y="37787" width="4552" height="1636"/>
    <g>
     <defs>
      <pattern id="pattern2" x="45766" y="37840" width="4446" height="1530" patternUnits="userSpaceOnUse">
       <g transform="translate(-45766,-37840)">
        <line fill="rgb(255,64,0)" stroke="rgb(255,64,0)" x1="46005" y1="37907" x2="46005" y2="39128"/>
        <line fill="rgb(255,64,0)" stroke="rgb(255,64,0)" x1="46270" y1="37868" x2="46270" y2="39091"/>
        <line fill="rgb(255,64,0)" stroke="rgb(255,64,0)" x1="46535" y1="37851" x2="46535" y2="39074"/>
        <line fill="rgb(255,64,0)" stroke="rgb(255,64,0)" x1="46800" y1="37843" x2="46800" y2="39063"/>
        <line fill="rgb(255,64,0)" stroke="rgb(255,64,0)" x1="47065" y1="37845" x2="47065" y2="39066"/>
        <line fill="rgb(255,64,0)" stroke="rgb(255,64,0)" x1="47330" y1="37858" x2="47330" y2="39079"/>
        <line fill="rgb(255,64,0)" stroke="rgb(255,64,0)" x1="47595" y1="37879" x2="47595" y2="39100"/>
        <line fill="rgb(255,64,0)" stroke="rgb(255,64,0)" x1="47860" y1="37928" x2="47860" y2="39146"/>
        <line fill="rgb(255,64,0)" stroke="rgb(255,64,0)" x1="48125" y1="38055" x2="48125" y2="39277"/>
        <line fill="rgb(255,64,0)" stroke="rgb(255,64,0)" x1="48390" y1="38102" x2="48390" y2="39323"/>
        <line fill="rgb(255,64,0)" stroke="rgb(255,64,0)" x1="48655" y1="38123" x2="48655" y2="39344"/>
        <line fill="rgb(255,64,0)" stroke="rgb(255,64,0)" x1="48920" y1="38139" x2="48920" y2="39359"/>
        <line fill="rgb(255,64,0)" stroke="rgb(255,64,0)" x1="49185" y1="38143" x2="49185" y2="39366"/>
        <line fill="rgb(255,64,0)" stroke="rgb(255,64,0)" x1="49450" y1="38127" x2="49450" y2="39351"/>
        <line fill="rgb(255,64,0)" stroke="rgb(255,64,0)" x1="49715" y1="38111" x2="49715" y2="39333"/>
        <line fill="rgb(255,64,0)" stroke="rgb(255,64,0)" x1="49980" y1="38078" x2="49980" y2="39299"/>
       </g>
      </pattern>
     </defs>
     <path style="fill:url(#pattern2)" d="M 50211,37997 L 50194,38008 50175,38019 50132,38038 50081,38055 50024,38070 49894,38093 49747,38109 49106,38148 48773,38131 48445,38109 48299,38091 48174,38068 48121,38054 48076,38038 48039,38020 48024,38010 48012,38000 47996,37987 47978,37975 47936,37954 47885,37935 47827,37918 47694,37891 47542,37872 47211,37850 46888,37840 46520,37851 46354,37861 46203,37874 46067,37893 45948,37919 45895,37935 45847,37953 45804,37974 45766,37997 45766,39214 45806,39190 45853,39169 45905,39151 45962,39136 46090,39111 46234,39093 46553,39073 46890,39060 47171,39069 47511,39090 47674,39109 47817,39135 47877,39151 47928,39170 47949,39180 47968,39191 47983,39203 47995,39215 48008,39226 48024,39237 48063,39256 48110,39273 48165,39287 48295,39312 48446,39330 48783,39353 49123,39369 49455,39351 49780,39328 49924,39310 50048,39286 50101,39271 50146,39254 50183,39235 50198,39225 50211,39214 50211,37997 Z"/>
    </g>
    <path fill="none" stroke="rgb(255,64,0)" stroke-width="106" stroke-linejoin="round" d="M 50211,37997 C 50043,38122 49510,38121 49106,38148 48683,38125 48131,38115 48012,38000 47857,37861 47289,37851 46888,37840 46369,37852 45954,37867 45766,37997 L 45766,39214 C 45964,39079 46441,39078 46890,39060 47184,39069 47884,39079 47995,39215 48123,39337 48693,39347 49123,39369 49549,39344 50086,39335 50211,39214 L 50211,37997 Z"/>
   </g>
  </g>
 </g>
</svg>