<?xml version="1.0" encoding="UTF-8"?>
<!DOCTYPE svg PUBLIC "-//W3C//DTD SVG 1.1//EN" "http://www.w3.org/Graphics/SVG/1.1/DTD/svg11.dtd">
<svg version="1.2" width="51.18mm" height="67.05mm" viewBox="22532 64151 5118 6705" preserveAspectRatio="xMidYMid" fill-rule="evenodd" stroke-width="28.222" stroke-linejoin="round" xmlns="http://www.w3.org/2000/svg" xmlns:ooo="http://xml.openoffice.org/svg/export" xmlns:xlink="http://www.w3.org/1999/xlink" xmlns:presentation="http://sun.com/xmlns/staroffice/presentation" xmlns:smil="http://www.w3.org/2001/SMIL20/" xmlns:anim="urn:oasis:names:tc:opendocument:xmlns:animation:1.0" xmlns:svg="urn:oasis:names:tc:opendocument:xmlns:svg-compatible:1.0" xml:space="preserve">
 <defs class="EmbeddedBulletChars">
  <g id="bullet-char-template-57356" transform="scale(0.00048828125,-0.00048828125)">
   <path d="M 580,1141 L 1163,571 580,0 -4,571 580,1141 Z"/>
  </g>
  <g id="bullet-char-template-57354" transform="scale(0.00048828125,-0.00048828125)">
   <path d="M 8,1128 L 1137,1128 1137,0 8,0 8,1128 Z"/>
  </g>
  <g id="bullet-char-template-10146" transform="scale(0.00048828125,-0.00048828125)">
   <path d="M 174,0 L 602,739 174,1481 1456,739 174,0 Z M 1358,739 L 309,1346 659,739 1358,739 Z"/>
  </g>
  <g id="bullet-char-template-10132" transform="scale(0.00048828125,-0.00048828125)">
   <path d="M 2015,739 L 1276,0 717,0 1260,543 174,543 174,936 1260,936 717,1481 1274,1481 2015,739 Z"/>
  </g>
  <g id="bullet-char-template-10007" transform="scale(0.00048828125,-0.00048828125)">
   <path d="M 0,-2 C -7,14 -16,27 -25,37 L 356,567 C 262,823 215,952 215,954 215,979 228,992 255,992 264,992 276,990 289,987 310,991 331,999 354,1012 L 381,999 492,748 772,1049 836,1024 860,1049 C 881,1039 901,1025 922,1006 886,937 835,863 770,784 769,783 710,716 594,584 L 774,223 C 774,196 753,168 711,139 L 727,119 C 717,90 699,76 672,76 641,76 570,178 457,381 L 164,-76 C 142,-110 111,-127 72,-127 30,-127 9,-110 8,-76 1,-67 -2,-52 -2,-32 -2,-23 -1,-13 0,-2 Z"/>
  </g>
  <g id="bullet-char-template-10004" transform="scale(0.00048828125,-0.00048828125)">
   <path d="M 285,-33 C 182,-33 111,30 74,156 52,228 41,333 41,471 41,549 55,616 82,672 116,743 169,778 240,778 293,778 328,747 346,684 L 369,508 C 377,444 397,411 428,410 L 1163,1116 C 1174,1127 1196,1133 1229,1133 1271,1133 1292,1118 1292,1087 L 1292,965 C 1292,929 1282,901 1262,881 L 442,47 C 390,-6 338,-33 285,-33 Z"/>
  </g>
  <g id="bullet-char-template-9679" transform="scale(0.00048828125,-0.00048828125)">
   <path d="M 813,0 C 632,0 489,54 383,161 276,268 223,411 223,592 223,773 276,916 383,1023 489,1130 632,1184 813,1184 992,1184 1136,1130 1245,1023 1353,916 1407,772 1407,592 1407,412 1353,268 1245,161 1136,54 992,0 813,0 Z"/>
  </g>
  <g id="bullet-char-template-8226" transform="scale(0.00048828125,-0.00048828125)">
   <path d="M 346,457 C 273,457 209,483 155,535 101,586 74,649 74,723 74,796 101,859 155,911 209,963 273,989 346,989 419,989 480,963 531,910 582,859 608,796 608,723 608,648 583,586 532,535 482,483 420,457 346,457 Z"/>
  </g>
  <g id="bullet-char-template-8211" transform="scale(0.00048828125,-0.00048828125)">
   <path d="M -4,459 L 1135,459 1135,606 -4,606 -4,459 Z"/>
  </g>
  <g id="bullet-char-template-61548" transform="scale(0.00048828125,-0.00048828125)">
   <path d="M 173,740 C 173,903 231,1043 346,1159 462,1274 601,1332 765,1332 928,1332 1067,1274 1183,1159 1299,1043 1357,903 1357,740 1357,577 1299,437 1183,322 1067,206 928,148 765,148 601,148 462,206 346,322 231,437 173,577 173,740 Z"/>
  </g>
 </defs>
 <g class="Page">
  <g class="com.sun.star.drawing.CustomShape">
   <g id="id3">
    <rect class="BoundingBox" stroke="none" fill="none" x="22532" y="64151" width="5118" height="6705"/>
    <path fill="rgb(255,245,206)" stroke="none" d="M 23396,64169 L 23397,64169 C 23248,64169 23102,64208 22973,64282 22845,64357 22738,64464 22663,64592 22589,64721 22550,64867 22550,65016 L 22550,69990 22550,69990 C 22550,70139 22589,70285 22663,70414 22738,70542 22845,70649 22973,70724 23102,70798 23248,70837 23397,70837 L 26784,70837 26784,70837 C 26933,70837 27079,70798 27208,70724 27336,70649 27443,70542 27518,70414 27592,70285 27631,70139 27631,69990 L 27631,65015 27631,65016 27631,65016 C 27631,64867 27592,64721 27518,64592 27443,64464 27336,64357 27208,64282 27079,64208 26933,64169 26784,64169 L 23396,64169 Z"/>
    <path fill="none" stroke="rgb(184,92,0)" stroke-width="35" stroke-linejoin="round" d="M 23396,64169 L 23397,64169 C 23248,64169 23102,64208 22973,64282 22845,64357 22738,64464 22663,64592 22589,64721 22550,64867 22550,65016 L 22550,69990 22550,69990 C 22550,70139 22589,70285 22663,70414 22738,70542 22845,70649 22973,70724 23102,70798 23248,70837 23397,70837 L 26784,70837 26784,70837 C 26933,70837 27079,70798 27208,70724 27336,70649 27443,70542 27518,70414 27592,70285 27631,70139 27631,69990 L 27631,65015 27631,65016 27631,65016 C 27631,64867 27592,64721 27518,64592 27443,64464 27336,64357 27208,64282 27079,64208 26933,64169 26784,64169 L 23396,64169 Z"/>
   </g>
  </g>
  <g class="com.sun.star.drawing.CustomShape">
   <g id="id4">
    <rect class="BoundingBox" stroke="none" fill="none" x="22812" y="64756" width="4554" height="1696"/>
    <path fill="none" stroke="rgb(42,96,153)" stroke-width="106" stroke-linejoin="round" d="M 23660,64809 L 23660,64809 C 23521,64809 23384,64846 23263,64915 23142,64985 23042,65085 22972,65206 22903,65327 22866,65464 22866,65604 L 22866,65603 22866,65604 C 22866,65743 22903,65880 22972,66001 23042,66122 23142,66222 23263,66292 23384,66361 23521,66398 23660,66398 L 26517,66398 26517,66398 C 26657,66398 26794,66361 26915,66292 27036,66222 27136,66122 27206,66001 27275,65880 27312,65743 27312,65604 L 27312,65603 27312,65604 27312,65604 C 27312,65464 27275,65327 27206,65206 27136,65085 27036,64985 26915,64915 26794,64846 26657,64809 26517,64809 L 23660,64809 Z"/>
   </g>
  </g>
  <g class="com.sun.star.drawing.CustomShape">
   <g id="id5">
    <rect class="BoundingBox" stroke="none" fill="none" x="22812" y="66757" width="4554" height="1696"/>
    <path fill="none" stroke="rgb(42,96,153)" stroke-width="106" stroke-linejoin="round" d="M 23660,66810 L 23660,66810 C 23521,66810 23384,66847 23263,66916 23142,66986 23042,67086 22972,67207 22903,67328 22866,67465 22866,67605 L 22866,67604 22866,67605 C 22866,67744 22903,67881 22972,68002 23042,68123 23142,68223 23263,68293 23384,68362 23521,68399 23660,68399 L 26517,68399 26517,68399 C 26657,68399 26794,68362 26915,68293 27036,68223 27136,68123 27206,68002 27275,67881 27312,67744 27312,67605 L 27312,67604 27312,67605 27312,67605 C 27312,67465 27275,67328 27206,67207 27136,67086 27036,66986 26915,66916 26794,66847 26657,66810 26517,66810 L 23660,66810 Z"/>
   </g>
  </g>
  <g class="com.sun.star.drawing.CustomShape">
   <g id="id6">
    <rect class="BoundingBox" stroke="none" fill="none" x="22812" y="68758" width="4554" height="1696"/>
    <path fill="none" stroke="rgb(42,96,153)" stroke-width="106" stroke-linejoin="round" d="M 23660,68811 L 23660,68811 C 23521,68811 23384,68848 23263,68917 23142,68987 23042,69087 22972,69208 22903,69329 22866,69466 22866,69606 L 22866,69605 22866,69606 C 22866,69745 22903,69882 22972,70003 23042,70124 23142,70224 23263,70294 23384,70363 23521,70400 23660,70400 L 26517,70400 26517,70400 C 26657,70400 26794,70363 26915,70294 27036,70224 27136,70124 27206,70003 27275,69882 27312,69745 27312,69606 L 27312,69605 27312,69606 27312,69606 C 27312,69466 27275,69329 27206,69208 27136,69087 27036,68987 26915,68917 26794,68848 26657,68811 26517,68811 L 23660,68811 Z"/>
   </g>
  </g>
 </g>
</svg>