<?xml version="1.0" encoding="UTF-8"?>
<!DOCTYPE svg PUBLIC "-//W3C//DTD SVG 1.1//EN" "http://www.w3.org/Graphics/SVG/1.1/DTD/svg11.dtd">
<svg version="1.2" width="51.18mm" height="67.05mm" viewBox="33934 64151 5118 6705" preserveAspectRatio="xMidYMid" fill-rule="evenodd" stroke-width="28.222" stroke-linejoin="round" xmlns="http://www.w3.org/2000/svg" xmlns:ooo="http://xml.openoffice.org/svg/export" xmlns:xlink="http://www.w3.org/1999/xlink" xmlns:presentation="http://sun.com/xmlns/staroffice/presentation" xmlns:smil="http://www.w3.org/2001/SMIL20/" xmlns:anim="urn:oasis:names:tc:opendocument:xmlns:animation:1.0" xmlns:svg="urn:oasis:names:tc:opendocument:xmlns:svg-compatible:1.0" xml:space="preserve">
 <defs class="EmbeddedBulletChars">
  <g id="bullet-char-template-57356" transform="scale(0.00048828125,-0.00048828125)">
   <path d="M 580,1141 L 1163,571 580,0 -4,571 580,1141 Z"/>
  </g>
  <g id="bullet-char-template-57354" transform="scale(0.00048828125,-0.00048828125)">
   <path d="M 8,1128 L 1137,1128 1137,0 8,0 8,1128 Z"/>
  </g>
  <g id="bullet-char-template-10146" transform="scale(0.00048828125,-0.00048828125)">
   <path d="M 174,0 L 602,739 174,1481 1456,739 174,0 Z M 1358,739 L 309,1346 659,739 1358,739 Z"/>
  </g>
  <g id="bullet-char-template-10132" transform="scale(0.00048828125,-0.00048828125)">
   <path d="M 2015,739 L 1276,0 717,0 1260,543 174,543 174,936 1260,936 717,1481 1274,1481 2015,739 Z"/>
  </g>
  <g id="bullet-char-template-10007" transform="scale(0.00048828125,-0.00048828125)">
   <path d="M 0,-2 C -7,14 -16,27 -25,37 L 356,567 C 262,823 215,952 215,954 215,979 228,992 255,992 264,992 276,990 289,987 310,991 331,999 354,1012 L 381,999 492,748 772,1049 836,1024 860,1049 C 881,1039 901,1025 922,1006 886,937 835,863 770,784 769,783 710,716 594,584 L 774,223 C 774,196 753,168 711,139 L 727,119 C 717,90 699,76 672,76 641,76 570,178 457,381 L 164,-76 C 142,-110 111,-127 72,-127 30,-127 9,-110 8,-76 1,-67 -2,-52 -2,-32 -2,-23 -1,-13 0,-2 Z"/>
  </g>
  <g id="bullet-char-template-10004" transform="scale(0.00048828125,-0.00048828125)">
   <path d="M 285,-33 C 182,-33 111,30 74,156 52,228 41,333 41,471 41,549 55,616 82,672 116,743 169,778 240,778 293,778 328,747 346,684 L 369,508 C 377,444 397,411 428,410 L 1163,1116 C 1174,1127 1196,1133 1229,1133 1271,1133 1292,1118 1292,1087 L 1292,965 C 1292,929 1282,901 1262,881 L 442,47 C 390,-6 338,-33 285,-33 Z"/>
  </g>
  <g id="bullet-char-template-9679" transform="scale(0.00048828125,-0.00048828125)">
   <path d="M 813,0 C 632,0 489,54 383,161 276,268 223,411 223,592 223,773 276,916 383,1023 489,1130 632,1184 813,1184 992,1184 1136,1130 1245,1023 1353,916 1407,772 1407,592 1407,412 1353,268 1245,161 1136,54 992,0 813,0 Z"/>
  </g>
  <g id="bullet-char-template-8226" transform="scale(0.00048828125,-0.00048828125)">
   <path d="M 346,457 C 273,457 209,483 155,535 101,586 74,649 74,723 74,796 101,859 155,911 209,963 273,989 346,989 419,989 480,963 531,910 582,859 608,796 608,723 608,648 583,586 532,535 482,483 420,457 346,457 Z"/>
  </g>
  <g id="bullet-char-template-8211" transform="scale(0.00048828125,-0.00048828125)">
   <path d="M -4,459 L 1135,459 1135,606 -4,606 -4,459 Z"/>
  </g>
  <g id="bullet-char-template-61548" transform="scale(0.00048828125,-0.00048828125)">
   <path d="M 173,740 C 173,903 231,1043 346,1159 462,1274 601,1332 765,1332 928,1332 1067,1274 1183,1159 1299,1043 1357,903 1357,740 1357,577 1299,437 1183,322 1067,206 928,148 765,148 601,148 462,206 346,322 231,437 173,577 173,740 Z"/>
  </g>
 </defs>
 <g class="Page">
  <g class="com.sun.star.drawing.CustomShape">
   <g id="id3">
    <rect class="BoundingBox" stroke="none" fill="none" x="33934" y="64151" width="5118" height="6705"/>
    <path fill="rgb(255,245,206)" stroke="none" d="M 34798,64169 L 34799,64169 C 34650,64169 34504,64208 34375,64282 34247,64357 34140,64464 34065,64592 33991,64721 33952,64867 33952,65016 L 33952,69990 33952,69990 C 33952,70139 33991,70285 34065,70414 34140,70542 34247,70649 34375,70724 34504,70798 34650,70837 34799,70837 L 38186,70837 38186,70837 C 38335,70837 38481,70798 38610,70724 38738,70649 38845,70542 38920,70414 38994,70285 39033,70139 39033,69990 L 39033,65015 39033,65016 39033,65016 C 39033,64867 38994,64721 38920,64592 38845,64464 38738,64357 38610,64282 38481,64208 38335,64169 38186,64169 L 34798,64169 Z"/>
    <path fill="none" stroke="rgb(184,92,0)" stroke-width="35" stroke-linejoin="round" d="M 34798,64169 L 34799,64169 C 34650,64169 34504,64208 34375,64282 34247,64357 34140,64464 34065,64592 33991,64721 33952,64867 33952,65016 L 33952,69990 33952,69990 C 33952,70139 33991,70285 34065,70414 34140,70542 34247,70649 34375,70724 34504,70798 34650,70837 34799,70837 L 38186,70837 38186,70837 C 38335,70837 38481,70798 38610,70724 38738,70649 38845,70542 38920,70414 38994,70285 39033,70139 39033,69990 L 39033,65015 39033,65016 39033,65016 C 39033,64867 38994,64721 38920,64592 38845,64464 38738,64357 38610,64282 38481,64208 38335,64169 38186,64169 L 34798,64169 Z"/>
   </g>
  </g>
  <g class="com.sun.star.drawing.CustomShape">
   <g id="id4">
    <rect class="BoundingBox" stroke="none" fill="none" x="34215" y="64756" width="4553" height="1696"/>
    <path fill="rgb(42,96,153)" stroke="none" d="M 35062,64809 L 35063,64809 C 34923,64809 34786,64846 34665,64915 34544,64985 34444,65085 34374,65206 34305,65327 34268,65464 34268,65604 L 34268,65603 34268,65604 C 34268,65743 34305,65880 34374,66001 34444,66122 34544,66222 34665,66292 34786,66361 34923,66398 35063,66398 L 37919,66398 37919,66398 C 38059,66398 38196,66361 38317,66292 38438,66222 38538,66122 38608,66001 38677,65880 38714,65743 38714,65604 L 38714,65603 38714,65604 38714,65604 C 38714,65464 38677,65327 38608,65206 38538,65085 38438,64985 38317,64915 38196,64846 38059,64809 37919,64809 L 35062,64809 Z"/>
    <path fill="none" stroke="rgb(42,96,153)" stroke-width="106" stroke-linejoin="round" d="M 35062,64809 L 35063,64809 C 34923,64809 34786,64846 34665,64915 34544,64985 34444,65085 34374,65206 34305,65327 34268,65464 34268,65604 L 34268,65603 34268,65604 C 34268,65743 34305,65880 34374,66001 34444,66122 34544,66222 34665,66292 34786,66361 34923,66398 35063,66398 L 37919,66398 37919,66398 C 38059,66398 38196,66361 38317,66292 38438,66222 38538,66122 38608,66001 38677,65880 38714,65743 38714,65604 L 38714,65603 38714,65604 38714,65604 C 38714,65464 38677,65327 38608,65206 38538,65085 38438,64985 38317,64915 38196,64846 38059,64809 37919,64809 L 35062,64809 Z"/>
   </g>
  </g>
  <g class="com.sun.star.drawing.CustomShape">
   <g id="id5">
    <rect class="BoundingBox" stroke="none" fill="none" x="34215" y="66757" width="4553" height="1696"/>
    <path fill="rgb(42,96,153)" stroke="none" d="M 35062,66810 L 35063,66810 C 34923,66810 34786,66847 34665,66916 34544,66986 34444,67086 34374,67207 34305,67328 34268,67465 34268,67605 L 34268,67604 34268,67605 C 34268,67744 34305,67881 34374,68002 34444,68123 34544,68223 34665,68293 34786,68362 34923,68399 35063,68399 L 37919,68399 37919,68399 C 38059,68399 38196,68362 38317,68293 38438,68223 38538,68123 38608,68002 38677,67881 38714,67744 38714,67605 L 38714,67604 38714,67605 38714,67605 C 38714,67465 38677,67328 38608,67207 38538,67086 38438,66986 38317,66916 38196,66847 38059,66810 37919,66810 L 35062,66810 Z"/>
    <path fill="none" stroke="rgb(42,96,153)" stroke-width="106" stroke-linejoin="round" d="M 35062,66810 L 35063,66810 C 34923,66810 34786,66847 34665,66916 34544,66986 34444,67086 34374,67207 34305,67328 34268,67465 34268,67605 L 34268,67604 34268,67605 C 34268,67744 34305,67881 34374,68002 34444,68123 34544,68223 34665,68293 34786,68362 34923,68399 35063,68399 L 37919,68399 37919,68399 C 38059,68399 38196,68362 38317,68293 38438,68223 38538,68123 38608,68002 38677,67881 38714,67744 38714,67605 L 38714,67604 38714,67605 38714,67605 C 38714,67465 38677,67328 38608,67207 38538,67086 38438,66986 38317,66916 38196,66847 38059,66810 37919,66810 L 35062,66810 Z"/>
   </g>
  </g>
  <g class="com.sun.star.drawing.CustomShape">
   <g id="id6">
    <rect class="BoundingBox" stroke="none" fill="none" x="34215" y="68758" width="4553" height="1696"/>
    <path fill="rgb(42,96,153)" stroke="none" d="M 35062,68811 L 35063,68811 C 34923,68811 34786,68848 34665,68917 34544,68987 34444,69087 34374,69208 34305,69329 34268,69466 34268,69606 L 34268,69605 34268,69606 C 34268,69745 34305,69882 34374,70003 34444,70124 34544,70224 34665,70294 34786,70363 34923,70400 35063,70400 L 37919,70400 37919,70400 C 38059,70400 38196,70363 38317,70294 38438,70224 38538,70124 38608,70003 38677,69882 38714,69745 38714,69606 L 38714,69605 38714,69606 38714,69606 C 38714,69466 38677,69329 38608,69208 38538,69087 38438,68987 38317,68917 38196,68848 38059,68811 37919,68811 L 35062,68811 Z"/>
    <path fill="none" stroke="rgb(42,96,153)" stroke-width="106" stroke-linejoin="round" d="M 35062,68811 L 35063,68811 C 34923,68811 34786,68848 34665,68917 34544,68987 34444,69087 34374,69208 34305,69329 34268,69466 34268,69606 L 34268,69605 34268,69606 C 34268,69745 34305,69882 34374,70003 34444,70124 34544,70224 34665,70294 34786,70363 34923,70400 35063,70400 L 37919,70400 37919,70400 C 38059,70400 38196,70363 38317,70294 38438,70224 38538,70124 38608,70003 38677,69882 38714,69745 38714,69606 L 38714,69605 38714,69606 38714,69606 C 38714,69466 38677,69329 38608,69208 38538,69087 38438,68987 38317,68917 38196,68848 38059,68811 37919,68811 L 35062,68811 Z"/>
   </g>
  </g>
 </g>
</svg>