<?xml version="1.0" encoding="UTF-8"?>
<!DOCTYPE svg PUBLIC "-//W3C//DTD SVG 1.1//EN" "http://www.w3.org/Graphics/SVG/1.1/DTD/svg11.dtd">
<svg version="1.2" width="51.18mm" height="67.05mm" viewBox="16833 64151 5118 6705" preserveAspectRatio="xMidYMid" fill-rule="evenodd" stroke-width="28.222" stroke-linejoin="round" xmlns="http://www.w3.org/2000/svg" xmlns:ooo="http://xml.openoffice.org/svg/export" xmlns:xlink="http://www.w3.org/1999/xlink" xmlns:presentation="http://sun.com/xmlns/staroffice/presentation" xmlns:smil="http://www.w3.org/2001/SMIL20/" xmlns:anim="urn:oasis:names:tc:opendocument:xmlns:animation:1.0" xmlns:svg="urn:oasis:names:tc:opendocument:xmlns:svg-compatible:1.0" xml:space="preserve">
 <defs class="EmbeddedBulletChars">
  <g id="bullet-char-template-57356" transform="scale(0.00048828125,-0.00048828125)">
   <path d="M 580,1141 L 1163,571 580,0 -4,571 580,1141 Z"/>
  </g>
  <g id="bullet-char-template-57354" transform="scale(0.00048828125,-0.00048828125)">
   <path d="M 8,1128 L 1137,1128 1137,0 8,0 8,1128 Z"/>
  </g>
  <g id="bullet-char-template-10146" transform="scale(0.00048828125,-0.00048828125)">
   <path d="M 174,0 L 602,739 174,1481 1456,739 174,0 Z M 1358,739 L 309,1346 659,739 1358,739 Z"/>
  </g>
  <g id="bullet-char-template-10132" transform="scale(0.00048828125,-0.00048828125)">
   <path d="M 2015,739 L 1276,0 717,0 1260,543 174,543 174,936 1260,936 717,1481 1274,1481 2015,739 Z"/>
  </g>
  <g id="bullet-char-template-10007" transform="scale(0.00048828125,-0.00048828125)">
   <path d="M 0,-2 C -7,14 -16,27 -25,37 L 356,567 C 262,823 215,952 215,954 215,979 228,992 255,992 264,992 276,990 289,987 310,991 331,999 354,1012 L 381,999 492,748 772,1049 836,1024 860,1049 C 881,1039 901,1025 922,1006 886,937 835,863 770,784 769,783 710,716 594,584 L 774,223 C 774,196 753,168 711,139 L 727,119 C 717,90 699,76 672,76 641,76 570,178 457,381 L 164,-76 C 142,-110 111,-127 72,-127 30,-127 9,-110 8,-76 1,-67 -2,-52 -2,-32 -2,-23 -1,-13 0,-2 Z"/>
  </g>
  <g id="bullet-char-template-10004" transform="scale(0.00048828125,-0.00048828125)">
   <path d="M 285,-33 C 182,-33 111,30 74,156 52,228 41,333 41,471 41,549 55,616 82,672 116,743 169,778 240,778 293,778 328,747 346,684 L 369,508 C 377,444 397,411 428,410 L 1163,1116 C 1174,1127 1196,1133 1229,1133 1271,1133 1292,1118 1292,1087 L 1292,965 C 1292,929 1282,901 1262,881 L 442,47 C 390,-6 338,-33 285,-33 Z"/>
  </g>
  <g id="bullet-char-template-9679" transform="scale(0.00048828125,-0.00048828125)">
   <path d="M 813,0 C 632,0 489,54 383,161 276,268 223,411 223,592 223,773 276,916 383,1023 489,1130 632,1184 813,1184 992,1184 1136,1130 1245,1023 1353,916 1407,772 1407,592 1407,412 1353,268 1245,161 1136,54 992,0 813,0 Z"/>
  </g>
  <g id="bullet-char-template-8226" transform="scale(0.00048828125,-0.00048828125)">
   <path d="M 346,457 C 273,457 209,483 155,535 101,586 74,649 74,723 74,796 101,859 155,911 209,963 273,989 346,989 419,989 480,963 531,910 582,859 608,796 608,723 608,648 583,586 532,535 482,483 420,457 346,457 Z"/>
  </g>
  <g id="bullet-char-template-8211" transform="scale(0.00048828125,-0.00048828125)">
   <path d="M -4,459 L 1135,459 1135,606 -4,606 -4,459 Z"/>
  </g>
  <g id="bullet-char-template-61548" transform="scale(0.00048828125,-0.00048828125)">
   <path d="M 173,740 C 173,903 231,1043 346,1159 462,1274 601,1332 765,1332 928,1332 1067,1274 1183,1159 1299,1043 1357,903 1357,740 1357,577 1299,437 1183,322 1067,206 928,148 765,148 601,148 462,206 346,322 231,437 173,577 173,740 Z"/>
  </g>
 </defs>
 <g class="Page">
  <g class="com.sun.star.drawing.CustomShape">
   <g id="id3">
    <rect class="BoundingBox" stroke="none" fill="none" x="16833" y="64151" width="5118" height="6705"/>
    <path fill="rgb(255,245,206)" stroke="none" d="M 17697,64169 L 17698,64169 C 17549,64169 17403,64208 17274,64282 17146,64357 17039,64464 16964,64592 16890,64721 16851,64867 16851,65016 L 16851,69990 16851,69990 C 16851,70139 16890,70285 16964,70414 17039,70542 17146,70649 17274,70724 17403,70798 17549,70837 17698,70837 L 21085,70837 21085,70837 C 21234,70837 21380,70798 21509,70724 21637,70649 21744,70542 21819,70414 21893,70285 21932,70139 21932,69990 L 21932,65015 21932,65016 21932,65016 C 21932,64867 21893,64721 21819,64592 21744,64464 21637,64357 21509,64282 21380,64208 21234,64169 21085,64169 L 17697,64169 Z"/>
    <path fill="none" stroke="rgb(184,92,0)" stroke-width="35" stroke-linejoin="round" d="M 17697,64169 L 17698,64169 C 17549,64169 17403,64208 17274,64282 17146,64357 17039,64464 16964,64592 16890,64721 16851,64867 16851,65016 L 16851,69990 16851,69990 C 16851,70139 16890,70285 16964,70414 17039,70542 17146,70649 17274,70724 17403,70798 17549,70837 17698,70837 L 21085,70837 21085,70837 C 21234,70837 21380,70798 21509,70724 21637,70649 21744,70542 21819,70414 21893,70285 21932,70139 21932,69990 L 21932,65015 21932,65016 21932,65016 C 21932,64867 21893,64721 21819,64592 21744,64464 21637,64357 21509,64282 21380,64208 21234,64169 21085,64169 L 17697,64169 Z"/>
   </g>
  </g>
  <g class="com.sun.star.drawing.CustomShape">
   <g id="id4">
    <rect class="BoundingBox" stroke="none" fill="none" x="17114" y="64756" width="4554" height="1696"/>
    <path fill="rgb(129,212,26)" stroke="none" d="M 17962,64809 L 17962,64809 C 17823,64809 17686,64846 17565,64915 17444,64985 17344,65085 17274,65206 17205,65327 17168,65464 17168,65604 L 17168,65603 17168,65604 C 17168,65743 17205,65880 17274,66001 17344,66122 17444,66222 17565,66292 17686,66361 17823,66398 17962,66398 L 20819,66398 20820,66398 C 20959,66398 21096,66361 21217,66292 21338,66222 21438,66122 21508,66001 21577,65880 21614,65743 21614,65604 L 21614,65603 21614,65604 21614,65604 C 21614,65464 21577,65327 21508,65206 21438,65085 21338,64985 21217,64915 21096,64846 20959,64809 20820,64809 L 17962,64809 Z"/>
    <path fill="none" stroke="rgb(129,212,26)" stroke-width="106" stroke-linejoin="round" d="M 17962,64809 L 17962,64809 C 17823,64809 17686,64846 17565,64915 17444,64985 17344,65085 17274,65206 17205,65327 17168,65464 17168,65604 L 17168,65603 17168,65604 C 17168,65743 17205,65880 17274,66001 17344,66122 17444,66222 17565,66292 17686,66361 17823,66398 17962,66398 L 20819,66398 20820,66398 C 20959,66398 21096,66361 21217,66292 21338,66222 21438,66122 21508,66001 21577,65880 21614,65743 21614,65604 L 21614,65603 21614,65604 21614,65604 C 21614,65464 21577,65327 21508,65206 21438,65085 21338,64985 21217,64915 21096,64846 20959,64809 20820,64809 L 17962,64809 Z"/>
   </g>
  </g>
  <g class="com.sun.star.drawing.CustomShape">
   <g id="id5">
    <rect class="BoundingBox" stroke="none" fill="none" x="17114" y="66757" width="4554" height="1696"/>
    <path fill="rgb(129,212,26)" stroke="none" d="M 17962,66810 L 17962,66810 C 17823,66810 17686,66847 17565,66916 17444,66986 17344,67086 17274,67207 17205,67328 17168,67465 17168,67605 L 17168,67604 17168,67605 C 17168,67744 17205,67881 17274,68002 17344,68123 17444,68223 17565,68293 17686,68362 17823,68399 17962,68399 L 20819,68399 20820,68399 C 20959,68399 21096,68362 21217,68293 21338,68223 21438,68123 21508,68002 21577,67881 21614,67744 21614,67605 L 21614,67604 21614,67605 21614,67605 C 21614,67465 21577,67328 21508,67207 21438,67086 21338,66986 21217,66916 21096,66847 20959,66810 20820,66810 L 17962,66810 Z"/>
    <path fill="none" stroke="rgb(129,212,26)" stroke-width="106" stroke-linejoin="round" d="M 17962,66810 L 17962,66810 C 17823,66810 17686,66847 17565,66916 17444,66986 17344,67086 17274,67207 17205,67328 17168,67465 17168,67605 L 17168,67604 17168,67605 C 17168,67744 17205,67881 17274,68002 17344,68123 17444,68223 17565,68293 17686,68362 17823,68399 17962,68399 L 20819,68399 20820,68399 C 20959,68399 21096,68362 21217,68293 21338,68223 21438,68123 21508,68002 21577,67881 21614,67744 21614,67605 L 21614,67604 21614,67605 21614,67605 C 21614,67465 21577,67328 21508,67207 21438,67086 21338,66986 21217,66916 21096,66847 20959,66810 20820,66810 L 17962,66810 Z"/>
   </g>
  </g>
  <g class="com.sun.star.drawing.CustomShape">
   <g id="id6">
    <rect class="BoundingBox" stroke="none" fill="none" x="17114" y="68758" width="4554" height="1696"/>
    <path fill="rgb(129,212,26)" stroke="none" d="M 17962,68811 L 17962,68811 C 17823,68811 17686,68848 17565,68917 17444,68987 17344,69087 17274,69208 17205,69329 17168,69466 17168,69606 L 17168,69605 17168,69606 C 17168,69745 17205,69882 17274,70003 17344,70124 17444,70224 17565,70294 17686,70363 17823,70400 17962,70400 L 20819,70400 20820,70400 C 20959,70400 21096,70363 21217,70294 21338,70224 21438,70124 21508,70003 21577,69882 21614,69745 21614,69606 L 21614,69605 21614,69606 21614,69606 C 21614,69466 21577,69329 21508,69208 21438,69087 21338,68987 21217,68917 21096,68848 20959,68811 20820,68811 L 17962,68811 Z"/>
    <path fill="none" stroke="rgb(129,212,26)" stroke-width="106" stroke-linejoin="round" d="M 17962,68811 L 17962,68811 C 17823,68811 17686,68848 17565,68917 17444,68987 17344,69087 17274,69208 17205,69329 17168,69466 17168,69606 L 17168,69605 17168,69606 C 17168,69745 17205,69882 17274,70003 17344,70124 17444,70224 17565,70294 17686,70363 17823,70400 17962,70400 L 20819,70400 20820,70400 C 20959,70400 21096,70363 21217,70294 21338,70224 21438,70124 21508,70003 21577,69882 21614,69745 21614,69606 L 21614,69605 21614,69606 21614,69606 C 21614,69466 21577,69329 21508,69208 21438,69087 21338,68987 21217,68917 21096,68848 20959,68811 20820,68811 L 17962,68811 Z"/>
   </g>
  </g>
 </g>
</svg>