<?xml version="1.0" encoding="UTF-8"?>
<!DOCTYPE svg PUBLIC "-//W3C//DTD SVG 1.1//EN" "http://www.w3.org/Graphics/SVG/1.1/DTD/svg11.dtd">
<svg version="1.2" width="51.18mm" height="67.05mm" viewBox="28233 64151 5118 6705" preserveAspectRatio="xMidYMid" fill-rule="evenodd" stroke-width="28.222" stroke-linejoin="round" xmlns="http://www.w3.org/2000/svg" xmlns:ooo="http://xml.openoffice.org/svg/export" xmlns:xlink="http://www.w3.org/1999/xlink" xmlns:presentation="http://sun.com/xmlns/staroffice/presentation" xmlns:smil="http://www.w3.org/2001/SMIL20/" xmlns:anim="urn:oasis:names:tc:opendocument:xmlns:animation:1.0" xmlns:svg="urn:oasis:names:tc:opendocument:xmlns:svg-compatible:1.0" xml:space="preserve">
 <defs class="EmbeddedBulletChars">
  <g id="bullet-char-template-57356" transform="scale(0.00048828125,-0.00048828125)">
   <path d="M 580,1141 L 1163,571 580,0 -4,571 580,1141 Z"/>
  </g>
  <g id="bullet-char-template-57354" transform="scale(0.00048828125,-0.00048828125)">
   <path d="M 8,1128 L 1137,1128 1137,0 8,0 8,1128 Z"/>
  </g>
  <g id="bullet-char-template-10146" transform="scale(0.00048828125,-0.00048828125)">
   <path d="M 174,0 L 602,739 174,1481 1456,739 174,0 Z M 1358,739 L 309,1346 659,739 1358,739 Z"/>
  </g>
  <g id="bullet-char-template-10132" transform="scale(0.00048828125,-0.00048828125)">
   <path d="M 2015,739 L 1276,0 717,0 1260,543 174,543 174,936 1260,936 717,1481 1274,1481 2015,739 Z"/>
  </g>
  <g id="bullet-char-template-10007" transform="scale(0.00048828125,-0.00048828125)">
   <path d="M 0,-2 C -7,14 -16,27 -25,37 L 356,567 C 262,823 215,952 215,954 215,979 228,992 255,992 264,992 276,990 289,987 310,991 331,999 354,1012 L 381,999 492,748 772,1049 836,1024 860,1049 C 881,1039 901,1025 922,1006 886,937 835,863 770,784 769,783 710,716 594,584 L 774,223 C 774,196 753,168 711,139 L 727,119 C 717,90 699,76 672,76 641,76 570,178 457,381 L 164,-76 C 142,-110 111,-127 72,-127 30,-127 9,-110 8,-76 1,-67 -2,-52 -2,-32 -2,-23 -1,-13 0,-2 Z"/>
  </g>
  <g id="bullet-char-template-10004" transform="scale(0.00048828125,-0.00048828125)">
   <path d="M 285,-33 C 182,-33 111,30 74,156 52,228 41,333 41,471 41,549 55,616 82,672 116,743 169,778 240,778 293,778 328,747 346,684 L 369,508 C 377,444 397,411 428,410 L 1163,1116 C 1174,1127 1196,1133 1229,1133 1271,1133 1292,1118 1292,1087 L 1292,965 C 1292,929 1282,901 1262,881 L 442,47 C 390,-6 338,-33 285,-33 Z"/>
  </g>
  <g id="bullet-char-template-9679" transform="scale(0.00048828125,-0.00048828125)">
   <path d="M 813,0 C 632,0 489,54 383,161 276,268 223,411 223,592 223,773 276,916 383,1023 489,1130 632,1184 813,1184 992,1184 1136,1130 1245,1023 1353,916 1407,772 1407,592 1407,412 1353,268 1245,161 1136,54 992,0 813,0 Z"/>
  </g>
  <g id="bullet-char-template-8226" transform="scale(0.00048828125,-0.00048828125)">
   <path d="M 346,457 C 273,457 209,483 155,535 101,586 74,649 74,723 74,796 101,859 155,911 209,963 273,989 346,989 419,989 480,963 531,910 582,859 608,796 608,723 608,648 583,586 532,535 482,483 420,457 346,457 Z"/>
  </g>
  <g id="bullet-char-template-8211" transform="scale(0.00048828125,-0.00048828125)">
   <path d="M -4,459 L 1135,459 1135,606 -4,606 -4,459 Z"/>
  </g>
  <g id="bullet-char-template-61548" transform="scale(0.00048828125,-0.00048828125)">
   <path d="M 173,740 C 173,903 231,1043 346,1159 462,1274 601,1332 765,1332 928,1332 1067,1274 1183,1159 1299,1043 1357,903 1357,740 1357,577 1299,437 1183,322 1067,206 928,148 765,148 601,148 462,206 346,322 231,437 173,577 173,740 Z"/>
  </g>
 </defs>
 <g class="Page">
  <g class="com.sun.star.drawing.CustomShape">
   <g id="id3">
    <rect class="BoundingBox" stroke="none" fill="none" x="28233" y="64151" width="5118" height="6705"/>
    <path fill="rgb(255,245,206)" stroke="none" d="M 29097,64169 L 29098,64169 C 28949,64169 28803,64208 28674,64282 28546,64357 28439,64464 28364,64592 28290,64721 28251,64867 28251,65016 L 28251,69990 28251,69990 C 28251,70139 28290,70285 28364,70414 28439,70542 28546,70649 28674,70724 28803,70798 28949,70837 29098,70837 L 32485,70837 32485,70837 C 32634,70837 32780,70798 32909,70724 33037,70649 33144,70542 33219,70414 33293,70285 33332,70139 33332,69990 L 33332,65015 33332,65016 33332,65016 C 33332,64867 33293,64721 33219,64592 33144,64464 33037,64357 32909,64282 32780,64208 32634,64169 32485,64169 L 29097,64169 Z"/>
    <path fill="none" stroke="rgb(184,92,0)" stroke-width="35" stroke-linejoin="round" d="M 29097,64169 L 29098,64169 C 28949,64169 28803,64208 28674,64282 28546,64357 28439,64464 28364,64592 28290,64721 28251,64867 28251,65016 L 28251,69990 28251,69990 C 28251,70139 28290,70285 28364,70414 28439,70542 28546,70649 28674,70724 28803,70798 28949,70837 29098,70837 L 32485,70837 32485,70837 C 32634,70837 32780,70798 32909,70724 33037,70649 33144,70542 33219,70414 33293,70285 33332,70139 33332,69990 L 33332,65015 33332,65016 33332,65016 C 33332,64867 33293,64721 33219,64592 33144,64464 33037,64357 32909,64282 32780,64208 32634,64169 32485,64169 L 29097,64169 Z"/>
   </g>
  </g>
  <g class="com.sun.star.drawing.CustomShape">
   <g id="id4">
    <rect class="BoundingBox" stroke="none" fill="none" x="28514" y="64756" width="4553" height="1696"/>
    <g>
     <defs>
      <pattern id="pattern1" x="28567" y="64809" width="4447" height="1590" patternUnits="userSpaceOnUse">
       <g transform="translate(-28567,-64809)">
        <line fill="rgb(42,96,153)" stroke="rgb(42,96,153)" x1="28806" y1="65036" x2="28806" y2="66171"/>
        <line fill="rgb(42,96,153)" stroke="rgb(42,96,153)" x1="29071" y1="64864" x2="29071" y2="66343"/>
        <line fill="rgb(42,96,153)" stroke="rgb(42,96,153)" x1="29336" y1="64810" x2="29336" y2="66397"/>
        <line fill="rgb(42,96,153)" stroke="rgb(42,96,153)" x1="29601" y1="64809" x2="29601" y2="66398"/>
        <line fill="rgb(42,96,153)" stroke="rgb(42,96,153)" x1="29866" y1="64809" x2="29866" y2="66398"/>
        <line fill="rgb(42,96,153)" stroke="rgb(42,96,153)" x1="30131" y1="64809" x2="30131" y2="66398"/>
        <line fill="rgb(42,96,153)" stroke="rgb(42,96,153)" x1="30396" y1="64809" x2="30396" y2="66398"/>
        <line fill="rgb(42,96,153)" stroke="rgb(42,96,153)" x1="30661" y1="64809" x2="30661" y2="66398"/>
        <line fill="rgb(42,96,153)" stroke="rgb(42,96,153)" x1="30926" y1="64809" x2="30926" y2="66398"/>
        <line fill="rgb(42,96,153)" stroke="rgb(42,96,153)" x1="31191" y1="64809" x2="31191" y2="66398"/>
        <line fill="rgb(42,96,153)" stroke="rgb(42,96,153)" x1="31456" y1="64809" x2="31456" y2="66398"/>
        <line fill="rgb(42,96,153)" stroke="rgb(42,96,153)" x1="31721" y1="64809" x2="31721" y2="66398"/>
        <line fill="rgb(42,96,153)" stroke="rgb(42,96,153)" x1="31986" y1="64809" x2="31986" y2="66398"/>
        <line fill="rgb(42,96,153)" stroke="rgb(42,96,153)" x1="32251" y1="64810" x2="32251" y2="66397"/>
        <line fill="rgb(42,96,153)" stroke="rgb(42,96,153)" x1="32516" y1="64867" x2="32516" y2="66340"/>
        <line fill="rgb(42,96,153)" stroke="rgb(42,96,153)" x1="32781" y1="65043" x2="32781" y2="66164"/>
       </g>
      </pattern>
     </defs>
     <path style="fill:url(#pattern1)" d="M 29361,64809 L 29362,64809 29309,64811 29258,64816 29206,64824 29156,64836 29106,64851 29058,64869 29010,64891 28964,64915 28920,64943 28878,64973 28838,65006 28800,65042 28764,65080 28731,65120 28701,65162 28673,65206 28649,65252 28627,65300 28609,65348 28594,65398 28582,65448 28574,65500 28569,65551 28567,65604 28567,65603 28567,65604 28569,65656 28574,65707 28582,65759 28594,65809 28609,65859 28627,65907 28649,65955 28673,66001 28701,66045 28731,66087 28764,66127 28800,66165 28838,66201 28878,66234 28920,66264 28964,66292 29010,66316 29058,66338 29106,66356 29156,66371 29206,66383 29258,66391 29309,66396 29362,66398 32218,66398 32219,66398 32271,66396 32322,66391 32374,66383 32424,66371 32474,66356 32522,66338 32570,66316 32616,66292 32660,66264 32702,66234 32742,66201 32780,66165 32816,66127 32849,66087 32879,66045 32907,66001 32931,65955 32953,65907 32971,65859 32986,65809 32998,65759 33006,65707 33011,65656 33013,65604 33013,65603 33013,65604 33013,65604 33011,65551 33006,65500 32998,65448 32986,65398 32971,65348 32953,65300 32931,65252 32907,65206 32879,65162 32849,65120 32816,65080 32780,65042 32742,65006 32702,64973 32660,64943 32616,64915 32570,64891 32522,64869 32474,64851 32424,64836 32374,64824 32322,64816 32271,64811 32219,64809 29361,64809 Z"/>
    </g>
    <path fill="none" stroke="rgb(42,96,153)" stroke-width="106" stroke-linejoin="round" d="M 29361,64809 L 29362,64809 C 29222,64809 29085,64846 28964,64915 28843,64985 28743,65085 28673,65206 28604,65327 28567,65464 28567,65604 L 28567,65603 28567,65604 C 28567,65743 28604,65880 28673,66001 28743,66122 28843,66222 28964,66292 29085,66361 29222,66398 29362,66398 L 32218,66398 32219,66398 C 32358,66398 32495,66361 32616,66292 32737,66222 32837,66122 32907,66001 32976,65880 33013,65743 33013,65604 L 33013,65603 33013,65604 33013,65604 C 33013,65464 32976,65327 32907,65206 32837,65085 32737,64985 32616,64915 32495,64846 32358,64809 32219,64809 L 29361,64809 Z"/>
   </g>
  </g>
  <g class="com.sun.star.drawing.CustomShape">
   <g id="id5">
    <rect class="BoundingBox" stroke="none" fill="none" x="28514" y="66757" width="4553" height="1696"/>
    <g>
     <defs>
      <pattern id="pattern2" x="28567" y="66810" width="4447" height="1590" patternUnits="userSpaceOnUse">
       <g transform="translate(-28567,-66810)">
        <line fill="rgb(42,96,153)" stroke="rgb(42,96,153)" x1="28806" y1="67037" x2="28806" y2="68172"/>
        <line fill="rgb(42,96,153)" stroke="rgb(42,96,153)" x1="29071" y1="66865" x2="29071" y2="68344"/>
        <line fill="rgb(42,96,153)" stroke="rgb(42,96,153)" x1="29336" y1="66811" x2="29336" y2="68398"/>
        <line fill="rgb(42,96,153)" stroke="rgb(42,96,153)" x1="29601" y1="66810" x2="29601" y2="68399"/>
        <line fill="rgb(42,96,153)" stroke="rgb(42,96,153)" x1="29866" y1="66810" x2="29866" y2="68399"/>
        <line fill="rgb(42,96,153)" stroke="rgb(42,96,153)" x1="30131" y1="66810" x2="30131" y2="68399"/>
        <line fill="rgb(42,96,153)" stroke="rgb(42,96,153)" x1="30396" y1="66810" x2="30396" y2="68399"/>
        <line fill="rgb(42,96,153)" stroke="rgb(42,96,153)" x1="30661" y1="66810" x2="30661" y2="68399"/>
        <line fill="rgb(42,96,153)" stroke="rgb(42,96,153)" x1="30926" y1="66810" x2="30926" y2="68399"/>
        <line fill="rgb(42,96,153)" stroke="rgb(42,96,153)" x1="31191" y1="66810" x2="31191" y2="68399"/>
        <line fill="rgb(42,96,153)" stroke="rgb(42,96,153)" x1="31456" y1="66810" x2="31456" y2="68399"/>
        <line fill="rgb(42,96,153)" stroke="rgb(42,96,153)" x1="31721" y1="66810" x2="31721" y2="68399"/>
        <line fill="rgb(42,96,153)" stroke="rgb(42,96,153)" x1="31986" y1="66810" x2="31986" y2="68399"/>
        <line fill="rgb(42,96,153)" stroke="rgb(42,96,153)" x1="32251" y1="66811" x2="32251" y2="68398"/>
        <line fill="rgb(42,96,153)" stroke="rgb(42,96,153)" x1="32516" y1="66868" x2="32516" y2="68341"/>
        <line fill="rgb(42,96,153)" stroke="rgb(42,96,153)" x1="32781" y1="67044" x2="32781" y2="68165"/>
       </g>
      </pattern>
     </defs>
     <path style="fill:url(#pattern2)" d="M 29361,66810 L 29362,66810 29309,66812 29258,66817 29206,66825 29156,66837 29106,66852 29058,66870 29010,66892 28964,66916 28920,66944 28878,66974 28838,67007 28800,67043 28764,67081 28731,67121 28701,67163 28673,67207 28649,67253 28627,67301 28609,67349 28594,67399 28582,67449 28574,67501 28569,67552 28567,67605 28567,67604 28567,67605 28569,67657 28574,67708 28582,67760 28594,67810 28609,67860 28627,67908 28649,67956 28673,68002 28701,68046 28731,68088 28764,68128 28800,68166 28838,68202 28878,68235 28920,68265 28964,68293 29010,68317 29058,68339 29106,68357 29156,68372 29206,68384 29258,68392 29309,68397 29362,68399 32218,68399 32219,68399 32271,68397 32322,68392 32374,68384 32424,68372 32474,68357 32522,68339 32570,68317 32616,68293 32660,68265 32702,68235 32742,68202 32780,68166 32816,68128 32849,68088 32879,68046 32907,68002 32931,67956 32953,67908 32971,67860 32986,67810 32998,67760 33006,67708 33011,67657 33013,67605 33013,67604 33013,67605 33013,67605 33011,67552 33006,67501 32998,67449 32986,67399 32971,67349 32953,67301 32931,67253 32907,67207 32879,67163 32849,67121 32816,67081 32780,67043 32742,67007 32702,66974 32660,66944 32616,66916 32570,66892 32522,66870 32474,66852 32424,66837 32374,66825 32322,66817 32271,66812 32219,66810 29361,66810 Z"/>
    </g>
    <path fill="none" stroke="rgb(42,96,153)" stroke-width="106" stroke-linejoin="round" d="M 29361,66810 L 29362,66810 C 29222,66810 29085,66847 28964,66916 28843,66986 28743,67086 28673,67207 28604,67328 28567,67465 28567,67605 L 28567,67604 28567,67605 C 28567,67744 28604,67881 28673,68002 28743,68123 28843,68223 28964,68293 29085,68362 29222,68399 29362,68399 L 32218,68399 32219,68399 C 32358,68399 32495,68362 32616,68293 32737,68223 32837,68123 32907,68002 32976,67881 33013,67744 33013,67605 L 33013,67604 33013,67605 33013,67605 C 33013,67465 32976,67328 32907,67207 32837,67086 32737,66986 32616,66916 32495,66847 32358,66810 32219,66810 L 29361,66810 Z"/>
   </g>
  </g>
  <g class="com.sun.star.drawing.CustomShape">
   <g id="id6">
    <rect class="BoundingBox" stroke="none" fill="none" x="28514" y="68758" width="4553" height="1696"/>
    <g>
     <defs>
      <pattern id="pattern3" x="28567" y="68811" width="4447" height="1590" patternUnits="userSpaceOnUse">
       <g transform="translate(-28567,-68811)">
        <line fill="rgb(42,96,153)" stroke="rgb(42,96,153)" x1="28806" y1="69038" x2="28806" y2="70173"/>
        <line fill="rgb(42,96,153)" stroke="rgb(42,96,153)" x1="29071" y1="68866" x2="29071" y2="70345"/>
        <line fill="rgb(42,96,153)" stroke="rgb(42,96,153)" x1="29336" y1="68812" x2="29336" y2="70399"/>
        <line fill="rgb(42,96,153)" stroke="rgb(42,96,153)" x1="29601" y1="68811" x2="29601" y2="70400"/>
        <line fill="rgb(42,96,153)" stroke="rgb(42,96,153)" x1="29866" y1="68811" x2="29866" y2="70400"/>
        <line fill="rgb(42,96,153)" stroke="rgb(42,96,153)" x1="30131" y1="68811" x2="30131" y2="70400"/>
        <line fill="rgb(42,96,153)" stroke="rgb(42,96,153)" x1="30396" y1="68811" x2="30396" y2="70400"/>
        <line fill="rgb(42,96,153)" stroke="rgb(42,96,153)" x1="30661" y1="68811" x2="30661" y2="70400"/>
        <line fill="rgb(42,96,153)" stroke="rgb(42,96,153)" x1="30926" y1="68811" x2="30926" y2="70400"/>
        <line fill="rgb(42,96,153)" stroke="rgb(42,96,153)" x1="31191" y1="68811" x2="31191" y2="70400"/>
        <line fill="rgb(42,96,153)" stroke="rgb(42,96,153)" x1="31456" y1="68811" x2="31456" y2="70400"/>
        <line fill="rgb(42,96,153)" stroke="rgb(42,96,153)" x1="31721" y1="68811" x2="31721" y2="70400"/>
        <line fill="rgb(42,96,153)" stroke="rgb(42,96,153)" x1="31986" y1="68811" x2="31986" y2="70400"/>
        <line fill="rgb(42,96,153)" stroke="rgb(42,96,153)" x1="32251" y1="68812" x2="32251" y2="70399"/>
        <line fill="rgb(42,96,153)" stroke="rgb(42,96,153)" x1="32516" y1="68869" x2="32516" y2="70342"/>
        <line fill="rgb(42,96,153)" stroke="rgb(42,96,153)" x1="32781" y1="69045" x2="32781" y2="70166"/>
       </g>
      </pattern>
     </defs>
     <path style="fill:url(#pattern3)" d="M 29361,68811 L 29362,68811 29309,68813 29258,68818 29206,68826 29156,68838 29106,68853 29058,68871 29010,68893 28964,68917 28920,68945 28878,68975 28838,69008 28800,69044 28764,69082 28731,69122 28701,69164 28673,69208 28649,69254 28627,69302 28609,69350 28594,69400 28582,69450 28574,69502 28569,69553 28567,69606 28567,69605 28567,69606 28569,69658 28574,69709 28582,69761 28594,69811 28609,69861 28627,69909 28649,69957 28673,70003 28701,70047 28731,70089 28764,70129 28800,70167 28838,70203 28878,70236 28920,70266 28964,70294 29010,70318 29058,70340 29106,70358 29156,70373 29206,70385 29258,70393 29309,70398 29362,70400 32218,70400 32219,70400 32271,70398 32322,70393 32374,70385 32424,70373 32474,70358 32522,70340 32570,70318 32616,70294 32660,70266 32702,70236 32742,70203 32780,70167 32816,70129 32849,70089 32879,70047 32907,70003 32931,69957 32953,69909 32971,69861 32986,69811 32998,69761 33006,69709 33011,69658 33013,69606 33013,69605 33013,69606 33013,69606 33011,69553 33006,69502 32998,69450 32986,69400 32971,69350 32953,69302 32931,69254 32907,69208 32879,69164 32849,69122 32816,69082 32780,69044 32742,69008 32702,68975 32660,68945 32616,68917 32570,68893 32522,68871 32474,68853 32424,68838 32374,68826 32322,68818 32271,68813 32219,68811 29361,68811 Z"/>
    </g>
    <path fill="none" stroke="rgb(42,96,153)" stroke-width="106" stroke-linejoin="round" d="M 29361,68811 L 29362,68811 C 29222,68811 29085,68848 28964,68917 28843,68987 28743,69087 28673,69208 28604,69329 28567,69466 28567,69606 L 28567,69605 28567,69606 C 28567,69745 28604,69882 28673,70003 28743,70124 28843,70224 28964,70294 29085,70363 29222,70400 29362,70400 L 32218,70400 32219,70400 C 32358,70400 32495,70363 32616,70294 32737,70224 32837,70124 32907,70003 32976,69882 33013,69745 33013,69606 L 33013,69605 33013,69606 33013,69606 C 33013,69466 32976,69329 32907,69208 32837,69087 32737,68987 32616,68917 32495,68848 32358,68811 32219,68811 L 29361,68811 Z"/>
   </g>
  </g>
 </g>
</svg>