<?xml version="1.0" encoding="UTF-8"?>
<!DOCTYPE svg PUBLIC "-//W3C//DTD SVG 1.1//EN" "http://www.w3.org/Graphics/SVG/1.1/DTD/svg11.dtd">
<svg version="1.2" width="51.18mm" height="67.05mm" viewBox="11132 64151 5118 6705" preserveAspectRatio="xMidYMid" fill-rule="evenodd" stroke-width="28.222" stroke-linejoin="round" xmlns="http://www.w3.org/2000/svg" xmlns:ooo="http://xml.openoffice.org/svg/export" xmlns:xlink="http://www.w3.org/1999/xlink" xmlns:presentation="http://sun.com/xmlns/staroffice/presentation" xmlns:smil="http://www.w3.org/2001/SMIL20/" xmlns:anim="urn:oasis:names:tc:opendocument:xmlns:animation:1.0" xmlns:svg="urn:oasis:names:tc:opendocument:xmlns:svg-compatible:1.0" xml:space="preserve">
 <defs class="EmbeddedBulletChars">
  <g id="bullet-char-template-57356" transform="scale(0.00048828125,-0.00048828125)">
   <path d="M 580,1141 L 1163,571 580,0 -4,571 580,1141 Z"/>
  </g>
  <g id="bullet-char-template-57354" transform="scale(0.00048828125,-0.00048828125)">
   <path d="M 8,1128 L 1137,1128 1137,0 8,0 8,1128 Z"/>
  </g>
  <g id="bullet-char-template-10146" transform="scale(0.00048828125,-0.00048828125)">
   <path d="M 174,0 L 602,739 174,1481 1456,739 174,0 Z M 1358,739 L 309,1346 659,739 1358,739 Z"/>
  </g>
  <g id="bullet-char-template-10132" transform="scale(0.00048828125,-0.00048828125)">
   <path d="M 2015,739 L 1276,0 717,0 1260,543 174,543 174,936 1260,936 717,1481 1274,1481 2015,739 Z"/>
  </g>
  <g id="bullet-char-template-10007" transform="scale(0.00048828125,-0.00048828125)">
   <path d="M 0,-2 C -7,14 -16,27 -25,37 L 356,567 C 262,823 215,952 215,954 215,979 228,992 255,992 264,992 276,990 289,987 310,991 331,999 354,1012 L 381,999 492,748 772,1049 836,1024 860,1049 C 881,1039 901,1025 922,1006 886,937 835,863 770,784 769,783 710,716 594,584 L 774,223 C 774,196 753,168 711,139 L 727,119 C 717,90 699,76 672,76 641,76 570,178 457,381 L 164,-76 C 142,-110 111,-127 72,-127 30,-127 9,-110 8,-76 1,-67 -2,-52 -2,-32 -2,-23 -1,-13 0,-2 Z"/>
  </g>
  <g id="bullet-char-template-10004" transform="scale(0.00048828125,-0.00048828125)">
   <path d="M 285,-33 C 182,-33 111,30 74,156 52,228 41,333 41,471 41,549 55,616 82,672 116,743 169,778 240,778 293,778 328,747 346,684 L 369,508 C 377,444 397,411 428,410 L 1163,1116 C 1174,1127 1196,1133 1229,1133 1271,1133 1292,1118 1292,1087 L 1292,965 C 1292,929 1282,901 1262,881 L 442,47 C 390,-6 338,-33 285,-33 Z"/>
  </g>
  <g id="bullet-char-template-9679" transform="scale(0.00048828125,-0.00048828125)">
   <path d="M 813,0 C 632,0 489,54 383,161 276,268 223,411 223,592 223,773 276,916 383,1023 489,1130 632,1184 813,1184 992,1184 1136,1130 1245,1023 1353,916 1407,772 1407,592 1407,412 1353,268 1245,161 1136,54 992,0 813,0 Z"/>
  </g>
  <g id="bullet-char-template-8226" transform="scale(0.00048828125,-0.00048828125)">
   <path d="M 346,457 C 273,457 209,483 155,535 101,586 74,649 74,723 74,796 101,859 155,911 209,963 273,989 346,989 419,989 480,963 531,910 582,859 608,796 608,723 608,648 583,586 532,535 482,483 420,457 346,457 Z"/>
  </g>
  <g id="bullet-char-template-8211" transform="scale(0.00048828125,-0.00048828125)">
   <path d="M -4,459 L 1135,459 1135,606 -4,606 -4,459 Z"/>
  </g>
  <g id="bullet-char-template-61548" transform="scale(0.00048828125,-0.00048828125)">
   <path d="M 173,740 C 173,903 231,1043 346,1159 462,1274 601,1332 765,1332 928,1332 1067,1274 1183,1159 1299,1043 1357,903 1357,740 1357,577 1299,437 1183,322 1067,206 928,148 765,148 601,148 462,206 346,322 231,437 173,577 173,740 Z"/>
  </g>
 </defs>
 <g class="Page">
  <g class="com.sun.star.drawing.CustomShape">
   <g id="id3">
    <rect class="BoundingBox" stroke="none" fill="none" x="11132" y="64151" width="5118" height="6705"/>
    <path fill="rgb(255,245,206)" stroke="none" d="M 11996,64169 L 11997,64169 C 11848,64169 11702,64208 11573,64282 11445,64357 11338,64464 11263,64592 11189,64721 11150,64867 11150,65016 L 11150,69990 11150,69990 C 11150,70139 11189,70285 11263,70414 11338,70542 11445,70649 11573,70724 11702,70798 11848,70837 11997,70837 L 15384,70837 15384,70837 C 15533,70837 15679,70798 15808,70724 15936,70649 16043,70542 16118,70414 16192,70285 16231,70139 16231,69990 L 16231,65015 16231,65016 16231,65016 C 16231,64867 16192,64721 16118,64592 16043,64464 15936,64357 15808,64282 15679,64208 15533,64169 15384,64169 L 11996,64169 Z"/>
    <path fill="none" stroke="rgb(184,92,0)" stroke-width="35" stroke-linejoin="round" d="M 11996,64169 L 11997,64169 C 11848,64169 11702,64208 11573,64282 11445,64357 11338,64464 11263,64592 11189,64721 11150,64867 11150,65016 L 11150,69990 11150,69990 C 11150,70139 11189,70285 11263,70414 11338,70542 11445,70649 11573,70724 11702,70798 11848,70837 11997,70837 L 15384,70837 15384,70837 C 15533,70837 15679,70798 15808,70724 15936,70649 16043,70542 16118,70414 16192,70285 16231,70139 16231,69990 L 16231,65015 16231,65016 16231,65016 C 16231,64867 16192,64721 16118,64592 16043,64464 15936,64357 15808,64282 15679,64208 15533,64169 15384,64169 L 11996,64169 Z"/>
   </g>
  </g>
  <g class="com.sun.star.drawing.CustomShape">
   <g id="id4">
    <rect class="BoundingBox" stroke="none" fill="none" x="11414" y="64756" width="4553" height="1696"/>
    <g>
     <defs>
      <pattern id="pattern1" x="11467" y="64809" width="4447" height="1590" patternUnits="userSpaceOnUse">
       <g transform="translate(-11467,-64809)">
        <line fill="rgb(129,212,26)" stroke="rgb(129,212,26)" x1="11706" y1="65036" x2="11706" y2="66171"/>
        <line fill="rgb(129,212,26)" stroke="rgb(129,212,26)" x1="11971" y1="64864" x2="11971" y2="66343"/>
        <line fill="rgb(129,212,26)" stroke="rgb(129,212,26)" x1="12236" y1="64810" x2="12236" y2="66397"/>
        <line fill="rgb(129,212,26)" stroke="rgb(129,212,26)" x1="12501" y1="64809" x2="12501" y2="66398"/>
        <line fill="rgb(129,212,26)" stroke="rgb(129,212,26)" x1="12766" y1="64809" x2="12766" y2="66398"/>
        <line fill="rgb(129,212,26)" stroke="rgb(129,212,26)" x1="13031" y1="64809" x2="13031" y2="66398"/>
        <line fill="rgb(129,212,26)" stroke="rgb(129,212,26)" x1="13296" y1="64809" x2="13296" y2="66398"/>
        <line fill="rgb(129,212,26)" stroke="rgb(129,212,26)" x1="13561" y1="64809" x2="13561" y2="66398"/>
        <line fill="rgb(129,212,26)" stroke="rgb(129,212,26)" x1="13826" y1="64809" x2="13826" y2="66398"/>
        <line fill="rgb(129,212,26)" stroke="rgb(129,212,26)" x1="14091" y1="64809" x2="14091" y2="66398"/>
        <line fill="rgb(129,212,26)" stroke="rgb(129,212,26)" x1="14356" y1="64809" x2="14356" y2="66398"/>
        <line fill="rgb(129,212,26)" stroke="rgb(129,212,26)" x1="14621" y1="64809" x2="14621" y2="66398"/>
        <line fill="rgb(129,212,26)" stroke="rgb(129,212,26)" x1="14886" y1="64809" x2="14886" y2="66398"/>
        <line fill="rgb(129,212,26)" stroke="rgb(129,212,26)" x1="15151" y1="64810" x2="15151" y2="66397"/>
        <line fill="rgb(129,212,26)" stroke="rgb(129,212,26)" x1="15416" y1="64867" x2="15416" y2="66340"/>
        <line fill="rgb(129,212,26)" stroke="rgb(129,212,26)" x1="15681" y1="65043" x2="15681" y2="66164"/>
       </g>
      </pattern>
     </defs>
     <path style="fill:url(#pattern1)" d="M 12261,64809 L 12261,64809 12209,64811 12158,64816 12106,64824 12056,64836 12006,64851 11958,64869 11910,64891 11864,64915 11820,64943 11778,64973 11738,65006 11700,65042 11664,65080 11631,65120 11601,65162 11573,65206 11549,65252 11527,65300 11509,65348 11494,65398 11482,65448 11474,65500 11469,65551 11467,65604 11467,65603 11467,65604 11469,65656 11474,65707 11482,65759 11494,65809 11509,65859 11527,65907 11549,65955 11573,66001 11601,66045 11631,66087 11664,66127 11700,66165 11738,66201 11778,66234 11820,66264 11864,66292 11910,66316 11958,66338 12006,66356 12056,66371 12106,66383 12158,66391 12209,66396 12261,66398 15118,66398 15119,66398 15171,66396 15222,66391 15274,66383 15324,66371 15374,66356 15422,66338 15470,66316 15516,66292 15560,66264 15602,66234 15642,66201 15680,66165 15716,66127 15749,66087 15779,66045 15807,66001 15831,65955 15853,65907 15871,65859 15886,65809 15898,65759 15906,65707 15911,65656 15913,65604 15913,65603 15913,65604 15913,65604 15911,65551 15906,65500 15898,65448 15886,65398 15871,65348 15853,65300 15831,65252 15807,65206 15779,65162 15749,65120 15716,65080 15680,65042 15642,65006 15602,64973 15560,64943 15516,64915 15470,64891 15422,64869 15374,64851 15324,64836 15274,64824 15222,64816 15171,64811 15119,64809 12261,64809 Z"/>
    </g>
    <path fill="none" stroke="rgb(129,212,26)" stroke-width="106" stroke-linejoin="round" d="M 12261,64809 L 12261,64809 C 12122,64809 11985,64846 11864,64915 11743,64985 11643,65085 11573,65206 11504,65327 11467,65464 11467,65604 L 11467,65603 11467,65604 C 11467,65743 11504,65880 11573,66001 11643,66122 11743,66222 11864,66292 11985,66361 12122,66398 12261,66398 L 15118,66398 15119,66398 C 15258,66398 15395,66361 15516,66292 15637,66222 15737,66122 15807,66001 15876,65880 15913,65743 15913,65604 L 15913,65603 15913,65604 15913,65604 C 15913,65464 15876,65327 15807,65206 15737,65085 15637,64985 15516,64915 15395,64846 15258,64809 15119,64809 L 12261,64809 Z"/>
   </g>
  </g>
  <g class="com.sun.star.drawing.CustomShape">
   <g id="id5">
    <rect class="BoundingBox" stroke="none" fill="none" x="11414" y="66757" width="4553" height="1696"/>
    <g>
     <defs>
      <pattern id="pattern2" x="11467" y="66810" width="4447" height="1590" patternUnits="userSpaceOnUse">
       <g transform="translate(-11467,-66810)">
        <line fill="rgb(129,212,26)" stroke="rgb(129,212,26)" x1="11706" y1="67037" x2="11706" y2="68172"/>
        <line fill="rgb(129,212,26)" stroke="rgb(129,212,26)" x1="11971" y1="66865" x2="11971" y2="68344"/>
        <line fill="rgb(129,212,26)" stroke="rgb(129,212,26)" x1="12236" y1="66811" x2="12236" y2="68398"/>
        <line fill="rgb(129,212,26)" stroke="rgb(129,212,26)" x1="12501" y1="66810" x2="12501" y2="68399"/>
        <line fill="rgb(129,212,26)" stroke="rgb(129,212,26)" x1="12766" y1="66810" x2="12766" y2="68399"/>
        <line fill="rgb(129,212,26)" stroke="rgb(129,212,26)" x1="13031" y1="66810" x2="13031" y2="68399"/>
        <line fill="rgb(129,212,26)" stroke="rgb(129,212,26)" x1="13296" y1="66810" x2="13296" y2="68399"/>
        <line fill="rgb(129,212,26)" stroke="rgb(129,212,26)" x1="13561" y1="66810" x2="13561" y2="68399"/>
        <line fill="rgb(129,212,26)" stroke="rgb(129,212,26)" x1="13826" y1="66810" x2="13826" y2="68399"/>
        <line fill="rgb(129,212,26)" stroke="rgb(129,212,26)" x1="14091" y1="66810" x2="14091" y2="68399"/>
        <line fill="rgb(129,212,26)" stroke="rgb(129,212,26)" x1="14356" y1="66810" x2="14356" y2="68399"/>
        <line fill="rgb(129,212,26)" stroke="rgb(129,212,26)" x1="14621" y1="66810" x2="14621" y2="68399"/>
        <line fill="rgb(129,212,26)" stroke="rgb(129,212,26)" x1="14886" y1="66810" x2="14886" y2="68399"/>
        <line fill="rgb(129,212,26)" stroke="rgb(129,212,26)" x1="15151" y1="66811" x2="15151" y2="68398"/>
        <line fill="rgb(129,212,26)" stroke="rgb(129,212,26)" x1="15416" y1="66868" x2="15416" y2="68341"/>
        <line fill="rgb(129,212,26)" stroke="rgb(129,212,26)" x1="15681" y1="67044" x2="15681" y2="68165"/>
       </g>
      </pattern>
     </defs>
     <path style="fill:url(#pattern2)" d="M 12261,66810 L 12261,66810 12209,66812 12158,66817 12106,66825 12056,66837 12006,66852 11958,66870 11910,66892 11864,66916 11820,66944 11778,66974 11738,67007 11700,67043 11664,67081 11631,67121 11601,67163 11573,67207 11549,67253 11527,67301 11509,67349 11494,67399 11482,67449 11474,67501 11469,67552 11467,67605 11467,67604 11467,67605 11469,67657 11474,67708 11482,67760 11494,67810 11509,67860 11527,67908 11549,67956 11573,68002 11601,68046 11631,68088 11664,68128 11700,68166 11738,68202 11778,68235 11820,68265 11864,68293 11910,68317 11958,68339 12006,68357 12056,68372 12106,68384 12158,68392 12209,68397 12261,68399 15118,68399 15119,68399 15171,68397 15222,68392 15274,68384 15324,68372 15374,68357 15422,68339 15470,68317 15516,68293 15560,68265 15602,68235 15642,68202 15680,68166 15716,68128 15749,68088 15779,68046 15807,68002 15831,67956 15853,67908 15871,67860 15886,67810 15898,67760 15906,67708 15911,67657 15913,67605 15913,67604 15913,67605 15913,67605 15911,67552 15906,67501 15898,67449 15886,67399 15871,67349 15853,67301 15831,67253 15807,67207 15779,67163 15749,67121 15716,67081 15680,67043 15642,67007 15602,66974 15560,66944 15516,66916 15470,66892 15422,66870 15374,66852 15324,66837 15274,66825 15222,66817 15171,66812 15119,66810 12261,66810 Z"/>
    </g>
    <path fill="none" stroke="rgb(129,212,26)" stroke-width="106" stroke-linejoin="round" d="M 12261,66810 L 12261,66810 C 12122,66810 11985,66847 11864,66916 11743,66986 11643,67086 11573,67207 11504,67328 11467,67465 11467,67605 L 11467,67604 11467,67605 C 11467,67744 11504,67881 11573,68002 11643,68123 11743,68223 11864,68293 11985,68362 12122,68399 12261,68399 L 15118,68399 15119,68399 C 15258,68399 15395,68362 15516,68293 15637,68223 15737,68123 15807,68002 15876,67881 15913,67744 15913,67605 L 15913,67604 15913,67605 15913,67605 C 15913,67465 15876,67328 15807,67207 15737,67086 15637,66986 15516,66916 15395,66847 15258,66810 15119,66810 L 12261,66810 Z"/>
   </g>
  </g>
  <g class="com.sun.star.drawing.CustomShape">
   <g id="id6">
    <rect class="BoundingBox" stroke="none" fill="none" x="11414" y="68758" width="4553" height="1696"/>
    <g>
     <defs>
      <pattern id="pattern3" x="11467" y="68811" width="4447" height="1590" patternUnits="userSpaceOnUse">
       <g transform="translate(-11467,-68811)">
        <line fill="rgb(129,212,26)" stroke="rgb(129,212,26)" x1="11706" y1="69038" x2="11706" y2="70173"/>
        <line fill="rgb(129,212,26)" stroke="rgb(129,212,26)" x1="11971" y1="68866" x2="11971" y2="70345"/>
        <line fill="rgb(129,212,26)" stroke="rgb(129,212,26)" x1="12236" y1="68812" x2="12236" y2="70399"/>
        <line fill="rgb(129,212,26)" stroke="rgb(129,212,26)" x1="12501" y1="68811" x2="12501" y2="70400"/>
        <line fill="rgb(129,212,26)" stroke="rgb(129,212,26)" x1="12766" y1="68811" x2="12766" y2="70400"/>
        <line fill="rgb(129,212,26)" stroke="rgb(129,212,26)" x1="13031" y1="68811" x2="13031" y2="70400"/>
        <line fill="rgb(129,212,26)" stroke="rgb(129,212,26)" x1="13296" y1="68811" x2="13296" y2="70400"/>
        <line fill="rgb(129,212,26)" stroke="rgb(129,212,26)" x1="13561" y1="68811" x2="13561" y2="70400"/>
        <line fill="rgb(129,212,26)" stroke="rgb(129,212,26)" x1="13826" y1="68811" x2="13826" y2="70400"/>
        <line fill="rgb(129,212,26)" stroke="rgb(129,212,26)" x1="14091" y1="68811" x2="14091" y2="70400"/>
        <line fill="rgb(129,212,26)" stroke="rgb(129,212,26)" x1="14356" y1="68811" x2="14356" y2="70400"/>
        <line fill="rgb(129,212,26)" stroke="rgb(129,212,26)" x1="14621" y1="68811" x2="14621" y2="70400"/>
        <line fill="rgb(129,212,26)" stroke="rgb(129,212,26)" x1="14886" y1="68811" x2="14886" y2="70400"/>
        <line fill="rgb(129,212,26)" stroke="rgb(129,212,26)" x1="15151" y1="68812" x2="15151" y2="70399"/>
        <line fill="rgb(129,212,26)" stroke="rgb(129,212,26)" x1="15416" y1="68869" x2="15416" y2="70342"/>
        <line fill="rgb(129,212,26)" stroke="rgb(129,212,26)" x1="15681" y1="69045" x2="15681" y2="70166"/>
       </g>
      </pattern>
     </defs>
     <path style="fill:url(#pattern3)" d="M 12261,68811 L 12261,68811 12209,68813 12158,68818 12106,68826 12056,68838 12006,68853 11958,68871 11910,68893 11864,68917 11820,68945 11778,68975 11738,69008 11700,69044 11664,69082 11631,69122 11601,69164 11573,69208 11549,69254 11527,69302 11509,69350 11494,69400 11482,69450 11474,69502 11469,69553 11467,69606 11467,69605 11467,69606 11469,69658 11474,69709 11482,69761 11494,69811 11509,69861 11527,69909 11549,69957 11573,70003 11601,70047 11631,70089 11664,70129 11700,70167 11738,70203 11778,70236 11820,70266 11864,70294 11910,70318 11958,70340 12006,70358 12056,70373 12106,70385 12158,70393 12209,70398 12261,70400 15118,70400 15119,70400 15171,70398 15222,70393 15274,70385 15324,70373 15374,70358 15422,70340 15470,70318 15516,70294 15560,70266 15602,70236 15642,70203 15680,70167 15716,70129 15749,70089 15779,70047 15807,70003 15831,69957 15853,69909 15871,69861 15886,69811 15898,69761 15906,69709 15911,69658 15913,69606 15913,69605 15913,69606 15913,69606 15911,69553 15906,69502 15898,69450 15886,69400 15871,69350 15853,69302 15831,69254 15807,69208 15779,69164 15749,69122 15716,69082 15680,69044 15642,69008 15602,68975 15560,68945 15516,68917 15470,68893 15422,68871 15374,68853 15324,68838 15274,68826 15222,68818 15171,68813 15119,68811 12261,68811 Z"/>
    </g>
    <path fill="none" stroke="rgb(129,212,26)" stroke-width="106" stroke-linejoin="round" d="M 12261,68811 L 12261,68811 C 12122,68811 11985,68848 11864,68917 11743,68987 11643,69087 11573,69208 11504,69329 11467,69466 11467,69606 L 11467,69605 11467,69606 C 11467,69745 11504,69882 11573,70003 11643,70124 11743,70224 11864,70294 11985,70363 12122,70400 12261,70400 L 15118,70400 15119,70400 C 15258,70400 15395,70363 15516,70294 15637,70224 15737,70124 15807,70003 15876,69882 15913,69745 15913,69606 L 15913,69605 15913,69606 15913,69606 C 15913,69466 15876,69329 15807,69208 15737,69087 15637,68987 15516,68917 15395,68848 15258,68811 15119,68811 L 12261,68811 Z"/>
   </g>
  </g>
 </g>
</svg>