<?xml version="1.0" encoding="UTF-8"?>
<!DOCTYPE svg PUBLIC "-//W3C//DTD SVG 1.1//EN" "http://www.w3.org/Graphics/SVG/1.1/DTD/svg11.dtd">
<svg version="1.2" width="51.18mm" height="67.05mm" viewBox="5431 56851 5118 6705" preserveAspectRatio="xMidYMid" fill-rule="evenodd" stroke-width="28.222" stroke-linejoin="round" xmlns="http://www.w3.org/2000/svg" xmlns:ooo="http://xml.openoffice.org/svg/export" xmlns:xlink="http://www.w3.org/1999/xlink" xmlns:presentation="http://sun.com/xmlns/staroffice/presentation" xmlns:smil="http://www.w3.org/2001/SMIL20/" xmlns:anim="urn:oasis:names:tc:opendocument:xmlns:animation:1.0" xmlns:svg="urn:oasis:names:tc:opendocument:xmlns:svg-compatible:1.0" xml:space="preserve">
 <defs class="EmbeddedBulletChars">
  <g id="bullet-char-template-57356" transform="scale(0.00048828125,-0.00048828125)">
   <path d="M 580,1141 L 1163,571 580,0 -4,571 580,1141 Z"/>
  </g>
  <g id="bullet-char-template-57354" transform="scale(0.00048828125,-0.00048828125)">
   <path d="M 8,1128 L 1137,1128 1137,0 8,0 8,1128 Z"/>
  </g>
  <g id="bullet-char-template-10146" transform="scale(0.00048828125,-0.00048828125)">
   <path d="M 174,0 L 602,739 174,1481 1456,739 174,0 Z M 1358,739 L 309,1346 659,739 1358,739 Z"/>
  </g>
  <g id="bullet-char-template-10132" transform="scale(0.00048828125,-0.00048828125)">
   <path d="M 2015,739 L 1276,0 717,0 1260,543 174,543 174,936 1260,936 717,1481 1274,1481 2015,739 Z"/>
  </g>
  <g id="bullet-char-template-10007" transform="scale(0.00048828125,-0.00048828125)">
   <path d="M 0,-2 C -7,14 -16,27 -25,37 L 356,567 C 262,823 215,952 215,954 215,979 228,992 255,992 264,992 276,990 289,987 310,991 331,999 354,1012 L 381,999 492,748 772,1049 836,1024 860,1049 C 881,1039 901,1025 922,1006 886,937 835,863 770,784 769,783 710,716 594,584 L 774,223 C 774,196 753,168 711,139 L 727,119 C 717,90 699,76 672,76 641,76 570,178 457,381 L 164,-76 C 142,-110 111,-127 72,-127 30,-127 9,-110 8,-76 1,-67 -2,-52 -2,-32 -2,-23 -1,-13 0,-2 Z"/>
  </g>
  <g id="bullet-char-template-10004" transform="scale(0.00048828125,-0.00048828125)">
   <path d="M 285,-33 C 182,-33 111,30 74,156 52,228 41,333 41,471 41,549 55,616 82,672 116,743 169,778 240,778 293,778 328,747 346,684 L 369,508 C 377,444 397,411 428,410 L 1163,1116 C 1174,1127 1196,1133 1229,1133 1271,1133 1292,1118 1292,1087 L 1292,965 C 1292,929 1282,901 1262,881 L 442,47 C 390,-6 338,-33 285,-33 Z"/>
  </g>
  <g id="bullet-char-template-9679" transform="scale(0.00048828125,-0.00048828125)">
   <path d="M 813,0 C 632,0 489,54 383,161 276,268 223,411 223,592 223,773 276,916 383,1023 489,1130 632,1184 813,1184 992,1184 1136,1130 1245,1023 1353,916 1407,772 1407,592 1407,412 1353,268 1245,161 1136,54 992,0 813,0 Z"/>
  </g>
  <g id="bullet-char-template-8226" transform="scale(0.00048828125,-0.00048828125)">
   <path d="M 346,457 C 273,457 209,483 155,535 101,586 74,649 74,723 74,796 101,859 155,911 209,963 273,989 346,989 419,989 480,963 531,910 582,859 608,796 608,723 608,648 583,586 532,535 482,483 420,457 346,457 Z"/>
  </g>
  <g id="bullet-char-template-8211" transform="scale(0.00048828125,-0.00048828125)">
   <path d="M -4,459 L 1135,459 1135,606 -4,606 -4,459 Z"/>
  </g>
  <g id="bullet-char-template-61548" transform="scale(0.00048828125,-0.00048828125)">
   <path d="M 173,740 C 173,903 231,1043 346,1159 462,1274 601,1332 765,1332 928,1332 1067,1274 1183,1159 1299,1043 1357,903 1357,740 1357,577 1299,437 1183,322 1067,206 928,148 765,148 601,148 462,206 346,322 231,437 173,577 173,740 Z"/>
  </g>
 </defs>
 <g class="Page">
  <g class="com.sun.star.drawing.CustomShape">
   <g id="id3">
    <rect class="BoundingBox" stroke="none" fill="none" x="5431" y="56851" width="5118" height="6705"/>
    <path fill="rgb(255,245,206)" stroke="none" d="M 6295,56869 L 6296,56869 C 6147,56869 6001,56908 5872,56982 5744,57057 5637,57164 5562,57292 5488,57421 5449,57567 5449,57716 L 5449,62690 5449,62690 C 5449,62839 5488,62985 5562,63114 5637,63242 5744,63349 5872,63424 6001,63498 6147,63537 6296,63537 L 9683,63537 9683,63537 C 9832,63537 9978,63498 10107,63424 10235,63349 10342,63242 10417,63114 10491,62985 10530,62839 10530,62690 L 10530,57715 10530,57716 10530,57716 C 10530,57567 10491,57421 10417,57292 10342,57164 10235,57057 10107,56982 9978,56908 9832,56869 9683,56869 L 6295,56869 Z"/>
    <path fill="none" stroke="rgb(184,92,0)" stroke-width="35" stroke-linejoin="round" d="M 6295,56869 L 6296,56869 C 6147,56869 6001,56908 5872,56982 5744,57057 5637,57164 5562,57292 5488,57421 5449,57567 5449,57716 L 5449,62690 5449,62690 C 5449,62839 5488,62985 5562,63114 5637,63242 5744,63349 5872,63424 6001,63498 6147,63537 6296,63537 L 9683,63537 9683,63537 C 9832,63537 9978,63498 10107,63424 10235,63349 10342,63242 10417,63114 10491,62985 10530,62839 10530,62690 L 10530,57715 10530,57716 10530,57716 C 10530,57567 10491,57421 10417,57292 10342,57164 10235,57057 10107,56982 9978,56908 9832,56869 9683,56869 L 6295,56869 Z"/>
   </g>
  </g>
  <g class="com.sun.star.drawing.CustomShape">
   <g id="id4">
    <rect class="BoundingBox" stroke="none" fill="none" x="5713" y="57686" width="4552" height="1636"/>
    <path fill="none" stroke="rgb(129,212,26)" stroke-width="106" stroke-linejoin="round" d="M 10211,57896 C 10043,58021 9510,58020 9106,58047 8683,58024 8131,58014 8012,57899 7857,57760 7289,57750 6888,57739 6369,57751 5954,57766 5766,57896 L 5766,59113 C 5964,58978 6441,58977 6890,58959 7184,58968 7884,58978 7995,59114 8123,59236 8693,59246 9123,59268 9549,59243 10086,59234 10211,59113 L 10211,57896 Z"/>
   </g>
  </g>
  <g class="com.sun.star.drawing.CustomShape">
   <g id="id5">
    <rect class="BoundingBox" stroke="none" fill="none" x="5713" y="59487" width="4552" height="1636"/>
    <path fill="none" stroke="rgb(129,212,26)" stroke-width="106" stroke-linejoin="round" d="M 10211,59697 C 10043,59822 9510,59821 9106,59848 8683,59825 8131,59815 8012,59700 7857,59561 7289,59551 6888,59540 6369,59552 5954,59567 5766,59697 L 5766,60914 C 5964,60779 6441,60778 6890,60760 7184,60769 7884,60779 7995,60915 8123,61037 8693,61047 9123,61069 9549,61044 10086,61035 10211,60914 L 10211,59697 Z"/>
   </g>
  </g>
  <g class="com.sun.star.drawing.CustomShape">
   <g id="id6">
    <rect class="BoundingBox" stroke="none" fill="none" x="5713" y="61188" width="4552" height="1636"/>
    <path fill="none" stroke="rgb(129,212,26)" stroke-width="106" stroke-linejoin="round" d="M 10211,61398 C 10043,61523 9510,61522 9106,61549 8683,61526 8131,61516 8012,61401 7857,61262 7289,61252 6888,61241 6369,61253 5954,61268 5766,61398 L 5766,62615 C 5964,62480 6441,62479 6890,62461 7184,62470 7884,62480 7995,62616 8123,62738 8693,62748 9123,62770 9549,62745 10086,62736 10211,62615 L 10211,61398 Z"/>
   </g>
  </g>
 </g>
</svg>