<?xml version="1.0" encoding="UTF-8"?>
<!DOCTYPE svg PUBLIC "-//W3C//DTD SVG 1.1//EN" "http://www.w3.org/Graphics/SVG/1.1/DTD/svg11.dtd">
<svg version="1.2" width="51.18mm" height="67.05mm" viewBox="51135 56851 5118 6705" preserveAspectRatio="xMidYMid" fill-rule="evenodd" stroke-width="28.222" stroke-linejoin="round" xmlns="http://www.w3.org/2000/svg" xmlns:ooo="http://xml.openoffice.org/svg/export" xmlns:xlink="http://www.w3.org/1999/xlink" xmlns:presentation="http://sun.com/xmlns/staroffice/presentation" xmlns:smil="http://www.w3.org/2001/SMIL20/" xmlns:anim="urn:oasis:names:tc:opendocument:xmlns:animation:1.0" xmlns:svg="urn:oasis:names:tc:opendocument:xmlns:svg-compatible:1.0" xml:space="preserve">
 <defs class="EmbeddedBulletChars">
  <g id="bullet-char-template-57356" transform="scale(0.00048828125,-0.00048828125)">
   <path d="M 580,1141 L 1163,571 580,0 -4,571 580,1141 Z"/>
  </g>
  <g id="bullet-char-template-57354" transform="scale(0.00048828125,-0.00048828125)">
   <path d="M 8,1128 L 1137,1128 1137,0 8,0 8,1128 Z"/>
  </g>
  <g id="bullet-char-template-10146" transform="scale(0.00048828125,-0.00048828125)">
   <path d="M 174,0 L 602,739 174,1481 1456,739 174,0 Z M 1358,739 L 309,1346 659,739 1358,739 Z"/>
  </g>
  <g id="bullet-char-template-10132" transform="scale(0.00048828125,-0.00048828125)">
   <path d="M 2015,739 L 1276,0 717,0 1260,543 174,543 174,936 1260,936 717,1481 1274,1481 2015,739 Z"/>
  </g>
  <g id="bullet-char-template-10007" transform="scale(0.00048828125,-0.00048828125)">
   <path d="M 0,-2 C -7,14 -16,27 -25,37 L 356,567 C 262,823 215,952 215,954 215,979 228,992 255,992 264,992 276,990 289,987 310,991 331,999 354,1012 L 381,999 492,748 772,1049 836,1024 860,1049 C 881,1039 901,1025 922,1006 886,937 835,863 770,784 769,783 710,716 594,584 L 774,223 C 774,196 753,168 711,139 L 727,119 C 717,90 699,76 672,76 641,76 570,178 457,381 L 164,-76 C 142,-110 111,-127 72,-127 30,-127 9,-110 8,-76 1,-67 -2,-52 -2,-32 -2,-23 -1,-13 0,-2 Z"/>
  </g>
  <g id="bullet-char-template-10004" transform="scale(0.00048828125,-0.00048828125)">
   <path d="M 285,-33 C 182,-33 111,30 74,156 52,228 41,333 41,471 41,549 55,616 82,672 116,743 169,778 240,778 293,778 328,747 346,684 L 369,508 C 377,444 397,411 428,410 L 1163,1116 C 1174,1127 1196,1133 1229,1133 1271,1133 1292,1118 1292,1087 L 1292,965 C 1292,929 1282,901 1262,881 L 442,47 C 390,-6 338,-33 285,-33 Z"/>
  </g>
  <g id="bullet-char-template-9679" transform="scale(0.00048828125,-0.00048828125)">
   <path d="M 813,0 C 632,0 489,54 383,161 276,268 223,411 223,592 223,773 276,916 383,1023 489,1130 632,1184 813,1184 992,1184 1136,1130 1245,1023 1353,916 1407,772 1407,592 1407,412 1353,268 1245,161 1136,54 992,0 813,0 Z"/>
  </g>
  <g id="bullet-char-template-8226" transform="scale(0.00048828125,-0.00048828125)">
   <path d="M 346,457 C 273,457 209,483 155,535 101,586 74,649 74,723 74,796 101,859 155,911 209,963 273,989 346,989 419,989 480,963 531,910 582,859 608,796 608,723 608,648 583,586 532,535 482,483 420,457 346,457 Z"/>
  </g>
  <g id="bullet-char-template-8211" transform="scale(0.00048828125,-0.00048828125)">
   <path d="M -4,459 L 1135,459 1135,606 -4,606 -4,459 Z"/>
  </g>
  <g id="bullet-char-template-61548" transform="scale(0.00048828125,-0.00048828125)">
   <path d="M 173,740 C 173,903 231,1043 346,1159 462,1274 601,1332 765,1332 928,1332 1067,1274 1183,1159 1299,1043 1357,903 1357,740 1357,577 1299,437 1183,322 1067,206 928,148 765,148 601,148 462,206 346,322 231,437 173,577 173,740 Z"/>
  </g>
 </defs>
 <g class="Page">
  <g class="com.sun.star.drawing.CustomShape">
   <g id="id3">
    <rect class="BoundingBox" stroke="none" fill="none" x="51135" y="56851" width="5118" height="6705"/>
    <path fill="rgb(255,245,206)" stroke="none" d="M 51999,56869 L 52000,56869 C 51851,56869 51705,56908 51576,56982 51448,57057 51341,57164 51266,57292 51192,57421 51153,57567 51153,57716 L 51153,62690 51153,62690 C 51153,62839 51192,62985 51266,63114 51341,63242 51448,63349 51576,63424 51705,63498 51851,63537 52000,63537 L 55387,63537 55387,63537 C 55536,63537 55682,63498 55811,63424 55939,63349 56046,63242 56121,63114 56195,62985 56234,62839 56234,62690 L 56234,57715 56234,57716 56234,57716 C 56234,57567 56195,57421 56121,57292 56046,57164 55939,57057 55811,56982 55682,56908 55536,56869 55387,56869 L 51999,56869 Z"/>
    <path fill="none" stroke="rgb(184,92,0)" stroke-width="35" stroke-linejoin="round" d="M 51999,56869 L 52000,56869 C 51851,56869 51705,56908 51576,56982 51448,57057 51341,57164 51266,57292 51192,57421 51153,57567 51153,57716 L 51153,62690 51153,62690 C 51153,62839 51192,62985 51266,63114 51341,63242 51448,63349 51576,63424 51705,63498 51851,63537 52000,63537 L 55387,63537 55387,63537 C 55536,63537 55682,63498 55811,63424 55939,63349 56046,63242 56121,63114 56195,62985 56234,62839 56234,62690 L 56234,57715 56234,57716 56234,57716 C 56234,57567 56195,57421 56121,57292 56046,57164 55939,57057 55811,56982 55682,56908 55536,56869 55387,56869 L 51999,56869 Z"/>
   </g>
  </g>
  <g class="com.sun.star.drawing.CustomShape">
   <g id="id4">
    <rect class="BoundingBox" stroke="none" fill="none" x="51415" y="57686" width="4552" height="1636"/>
    <path fill="rgb(255,64,0)" stroke="none" d="M 55913,57896 C 55745,58021 55212,58020 54808,58047 54385,58024 53833,58014 53714,57899 53559,57760 52991,57750 52590,57739 52071,57751 51656,57766 51468,57896 L 51468,59113 C 51666,58978 52143,58977 52592,58959 52886,58968 53586,58978 53697,59114 53825,59236 54395,59246 54825,59268 55251,59243 55788,59234 55913,59113 L 55913,57896 Z"/>
    <path fill="none" stroke="rgb(255,64,0)" stroke-width="106" stroke-linejoin="round" d="M 55913,57896 C 55745,58021 55212,58020 54808,58047 54385,58024 53833,58014 53714,57899 53559,57760 52991,57750 52590,57739 52071,57751 51656,57766 51468,57896 L 51468,59113 C 51666,58978 52143,58977 52592,58959 52886,58968 53586,58978 53697,59114 53825,59236 54395,59246 54825,59268 55251,59243 55788,59234 55913,59113 L 55913,57896 Z"/>
   </g>
  </g>
  <g class="com.sun.star.drawing.CustomShape">
   <g id="id5">
    <rect class="BoundingBox" stroke="none" fill="none" x="51415" y="59487" width="4552" height="1636"/>
    <path fill="rgb(255,64,0)" stroke="none" d="M 55913,59697 C 55745,59822 55212,59821 54808,59848 54385,59825 53833,59815 53714,59700 53559,59561 52991,59551 52590,59540 52071,59552 51656,59567 51468,59697 L 51468,60914 C 51666,60779 52143,60778 52592,60760 52886,60769 53586,60779 53697,60915 53825,61037 54395,61047 54825,61069 55251,61044 55788,61035 55913,60914 L 55913,59697 Z"/>
    <path fill="none" stroke="rgb(255,64,0)" stroke-width="106" stroke-linejoin="round" d="M 55913,59697 C 55745,59822 55212,59821 54808,59848 54385,59825 53833,59815 53714,59700 53559,59561 52991,59551 52590,59540 52071,59552 51656,59567 51468,59697 L 51468,60914 C 51666,60779 52143,60778 52592,60760 52886,60769 53586,60779 53697,60915 53825,61037 54395,61047 54825,61069 55251,61044 55788,61035 55913,60914 L 55913,59697 Z"/>
   </g>
  </g>
  <g class="com.sun.star.drawing.CustomShape">
   <g id="id6">
    <rect class="BoundingBox" stroke="none" fill="none" x="51415" y="61188" width="4552" height="1636"/>
    <path fill="rgb(255,64,0)" stroke="none" d="M 55913,61398 C 55745,61523 55212,61522 54808,61549 54385,61526 53833,61516 53714,61401 53559,61262 52991,61252 52590,61241 52071,61253 51656,61268 51468,61398 L 51468,62615 C 51666,62480 52143,62479 52592,62461 52886,62470 53586,62480 53697,62616 53825,62738 54395,62748 54825,62770 55251,62745 55788,62736 55913,62615 L 55913,61398 Z"/>
    <path fill="none" stroke="rgb(255,64,0)" stroke-width="106" stroke-linejoin="round" d="M 55913,61398 C 55745,61523 55212,61522 54808,61549 54385,61526 53833,61516 53714,61401 53559,61262 52991,61252 52590,61241 52071,61253 51656,61268 51468,61398 L 51468,62615 C 51666,62480 52143,62479 52592,62461 52886,62470 53586,62480 53697,62616 53825,62738 54395,62748 54825,62770 55251,62745 55788,62736 55913,62615 L 55913,61398 Z"/>
   </g>
  </g>
 </g>
</svg>