<?xml version="1.0" encoding="UTF-8"?>
<!DOCTYPE svg PUBLIC "-//W3C//DTD SVG 1.1//EN" "http://www.w3.org/Graphics/SVG/1.1/DTD/svg11.dtd">
<svg version="1.2" width="51.18mm" height="67.05mm" viewBox="28233 56851 5118 6705" preserveAspectRatio="xMidYMid" fill-rule="evenodd" stroke-width="28.222" stroke-linejoin="round" xmlns="http://www.w3.org/2000/svg" xmlns:ooo="http://xml.openoffice.org/svg/export" xmlns:xlink="http://www.w3.org/1999/xlink" xmlns:presentation="http://sun.com/xmlns/staroffice/presentation" xmlns:smil="http://www.w3.org/2001/SMIL20/" xmlns:anim="urn:oasis:names:tc:opendocument:xmlns:animation:1.0" xmlns:svg="urn:oasis:names:tc:opendocument:xmlns:svg-compatible:1.0" xml:space="preserve">
 <defs class="EmbeddedBulletChars">
  <g id="bullet-char-template-57356" transform="scale(0.00048828125,-0.00048828125)">
   <path d="M 580,1141 L 1163,571 580,0 -4,571 580,1141 Z"/>
  </g>
  <g id="bullet-char-template-57354" transform="scale(0.00048828125,-0.00048828125)">
   <path d="M 8,1128 L 1137,1128 1137,0 8,0 8,1128 Z"/>
  </g>
  <g id="bullet-char-template-10146" transform="scale(0.00048828125,-0.00048828125)">
   <path d="M 174,0 L 602,739 174,1481 1456,739 174,0 Z M 1358,739 L 309,1346 659,739 1358,739 Z"/>
  </g>
  <g id="bullet-char-template-10132" transform="scale(0.00048828125,-0.00048828125)">
   <path d="M 2015,739 L 1276,0 717,0 1260,543 174,543 174,936 1260,936 717,1481 1274,1481 2015,739 Z"/>
  </g>
  <g id="bullet-char-template-10007" transform="scale(0.00048828125,-0.00048828125)">
   <path d="M 0,-2 C -7,14 -16,27 -25,37 L 356,567 C 262,823 215,952 215,954 215,979 228,992 255,992 264,992 276,990 289,987 310,991 331,999 354,1012 L 381,999 492,748 772,1049 836,1024 860,1049 C 881,1039 901,1025 922,1006 886,937 835,863 770,784 769,783 710,716 594,584 L 774,223 C 774,196 753,168 711,139 L 727,119 C 717,90 699,76 672,76 641,76 570,178 457,381 L 164,-76 C 142,-110 111,-127 72,-127 30,-127 9,-110 8,-76 1,-67 -2,-52 -2,-32 -2,-23 -1,-13 0,-2 Z"/>
  </g>
  <g id="bullet-char-template-10004" transform="scale(0.00048828125,-0.00048828125)">
   <path d="M 285,-33 C 182,-33 111,30 74,156 52,228 41,333 41,471 41,549 55,616 82,672 116,743 169,778 240,778 293,778 328,747 346,684 L 369,508 C 377,444 397,411 428,410 L 1163,1116 C 1174,1127 1196,1133 1229,1133 1271,1133 1292,1118 1292,1087 L 1292,965 C 1292,929 1282,901 1262,881 L 442,47 C 390,-6 338,-33 285,-33 Z"/>
  </g>
  <g id="bullet-char-template-9679" transform="scale(0.00048828125,-0.00048828125)">
   <path d="M 813,0 C 632,0 489,54 383,161 276,268 223,411 223,592 223,773 276,916 383,1023 489,1130 632,1184 813,1184 992,1184 1136,1130 1245,1023 1353,916 1407,772 1407,592 1407,412 1353,268 1245,161 1136,54 992,0 813,0 Z"/>
  </g>
  <g id="bullet-char-template-8226" transform="scale(0.00048828125,-0.00048828125)">
   <path d="M 346,457 C 273,457 209,483 155,535 101,586 74,649 74,723 74,796 101,859 155,911 209,963 273,989 346,989 419,989 480,963 531,910 582,859 608,796 608,723 608,648 583,586 532,535 482,483 420,457 346,457 Z"/>
  </g>
  <g id="bullet-char-template-8211" transform="scale(0.00048828125,-0.00048828125)">
   <path d="M -4,459 L 1135,459 1135,606 -4,606 -4,459 Z"/>
  </g>
  <g id="bullet-char-template-61548" transform="scale(0.00048828125,-0.00048828125)">
   <path d="M 173,740 C 173,903 231,1043 346,1159 462,1274 601,1332 765,1332 928,1332 1067,1274 1183,1159 1299,1043 1357,903 1357,740 1357,577 1299,437 1183,322 1067,206 928,148 765,148 601,148 462,206 346,322 231,437 173,577 173,740 Z"/>
  </g>
 </defs>
 <g class="Page">
  <g class="com.sun.star.drawing.CustomShape">
   <g id="id3">
    <rect class="BoundingBox" stroke="none" fill="none" x="28233" y="56851" width="5118" height="6705"/>
    <path fill="rgb(255,245,206)" stroke="none" d="M 29097,56869 L 29098,56869 C 28949,56869 28803,56908 28674,56982 28546,57057 28439,57164 28364,57292 28290,57421 28251,57567 28251,57716 L 28251,62690 28251,62690 C 28251,62839 28290,62985 28364,63114 28439,63242 28546,63349 28674,63424 28803,63498 28949,63537 29098,63537 L 32485,63537 32485,63537 C 32634,63537 32780,63498 32909,63424 33037,63349 33144,63242 33219,63114 33293,62985 33332,62839 33332,62690 L 33332,57715 33332,57716 33332,57716 C 33332,57567 33293,57421 33219,57292 33144,57164 33037,57057 32909,56982 32780,56908 32634,56869 32485,56869 L 29097,56869 Z"/>
    <path fill="none" stroke="rgb(184,92,0)" stroke-width="35" stroke-linejoin="round" d="M 29097,56869 L 29098,56869 C 28949,56869 28803,56908 28674,56982 28546,57057 28439,57164 28364,57292 28290,57421 28251,57567 28251,57716 L 28251,62690 28251,62690 C 28251,62839 28290,62985 28364,63114 28439,63242 28546,63349 28674,63424 28803,63498 28949,63537 29098,63537 L 32485,63537 32485,63537 C 32634,63537 32780,63498 32909,63424 33037,63349 33144,63242 33219,63114 33293,62985 33332,62839 33332,62690 L 33332,57715 33332,57716 33332,57716 C 33332,57567 33293,57421 33219,57292 33144,57164 33037,57057 32909,56982 32780,56908 32634,56869 32485,56869 L 29097,56869 Z"/>
   </g>
  </g>
  <g class="com.sun.star.drawing.CustomShape">
   <g id="id4">
    <rect class="BoundingBox" stroke="none" fill="none" x="28514" y="57686" width="4552" height="1636"/>
    <g>
     <defs>
      <pattern id="pattern1" x="28567" y="57739" width="4446" height="1530" patternUnits="userSpaceOnUse">
       <g transform="translate(-28567,-57739)">
        <line fill="rgb(42,96,153)" stroke="rgb(42,96,153)" x1="28806" y1="57806" x2="28806" y2="59027"/>
        <line fill="rgb(42,96,153)" stroke="rgb(42,96,153)" x1="29071" y1="57767" x2="29071" y2="58990"/>
        <line fill="rgb(42,96,153)" stroke="rgb(42,96,153)" x1="29336" y1="57750" x2="29336" y2="58973"/>
        <line fill="rgb(42,96,153)" stroke="rgb(42,96,153)" x1="29601" y1="57742" x2="29601" y2="58962"/>
        <line fill="rgb(42,96,153)" stroke="rgb(42,96,153)" x1="29866" y1="57744" x2="29866" y2="58965"/>
        <line fill="rgb(42,96,153)" stroke="rgb(42,96,153)" x1="30131" y1="57757" x2="30131" y2="58978"/>
        <line fill="rgb(42,96,153)" stroke="rgb(42,96,153)" x1="30396" y1="57778" x2="30396" y2="58999"/>
        <line fill="rgb(42,96,153)" stroke="rgb(42,96,153)" x1="30661" y1="57827" x2="30661" y2="59045"/>
        <line fill="rgb(42,96,153)" stroke="rgb(42,96,153)" x1="30926" y1="57954" x2="30926" y2="59176"/>
        <line fill="rgb(42,96,153)" stroke="rgb(42,96,153)" x1="31191" y1="58001" x2="31191" y2="59222"/>
        <line fill="rgb(42,96,153)" stroke="rgb(42,96,153)" x1="31456" y1="58022" x2="31456" y2="59243"/>
        <line fill="rgb(42,96,153)" stroke="rgb(42,96,153)" x1="31721" y1="58038" x2="31721" y2="59258"/>
        <line fill="rgb(42,96,153)" stroke="rgb(42,96,153)" x1="31986" y1="58042" x2="31986" y2="59265"/>
        <line fill="rgb(42,96,153)" stroke="rgb(42,96,153)" x1="32251" y1="58026" x2="32251" y2="59250"/>
        <line fill="rgb(42,96,153)" stroke="rgb(42,96,153)" x1="32516" y1="58010" x2="32516" y2="59232"/>
        <line fill="rgb(42,96,153)" stroke="rgb(42,96,153)" x1="32781" y1="57977" x2="32781" y2="59198"/>
       </g>
      </pattern>
     </defs>
     <path style="fill:url(#pattern1)" d="M 33012,57896 L 32995,57907 32976,57918 32933,57937 32882,57954 32825,57969 32695,57992 32548,58008 31907,58047 31574,58030 31246,58008 31100,57990 30975,57967 30922,57953 30877,57937 30840,57919 30825,57909 30813,57899 30797,57886 30779,57874 30737,57853 30686,57834 30628,57817 30495,57790 30343,57771 30012,57749 29689,57739 29321,57750 29155,57760 29004,57773 28868,57792 28749,57818 28696,57834 28648,57852 28605,57873 28567,57896 28567,59113 28607,59089 28654,59068 28706,59050 28763,59035 28891,59010 29035,58992 29354,58972 29691,58959 29972,58968 30312,58989 30475,59008 30618,59034 30678,59050 30729,59069 30750,59079 30769,59090 30784,59102 30796,59114 30809,59125 30825,59136 30864,59155 30911,59172 30966,59186 31096,59211 31247,59229 31584,59252 31924,59268 32256,59250 32581,59227 32725,59209 32849,59185 32902,59170 32947,59153 32984,59134 32999,59124 33012,59113 33012,57896 Z"/>
    </g>
    <path fill="none" stroke="rgb(42,96,153)" stroke-width="106" stroke-linejoin="round" d="M 33012,57896 C 32844,58021 32311,58020 31907,58047 31484,58024 30932,58014 30813,57899 30658,57760 30090,57750 29689,57739 29170,57751 28755,57766 28567,57896 L 28567,59113 C 28765,58978 29242,58977 29691,58959 29985,58968 30685,58978 30796,59114 30924,59236 31494,59246 31924,59268 32350,59243 32887,59234 33012,59113 L 33012,57896 Z"/>
   </g>
  </g>
  <g class="com.sun.star.drawing.CustomShape">
   <g id="id5">
    <rect class="BoundingBox" stroke="none" fill="none" x="28514" y="59487" width="4552" height="1636"/>
    <g>
     <defs>
      <pattern id="pattern2" x="28567" y="59540" width="4446" height="1530" patternUnits="userSpaceOnUse">
       <g transform="translate(-28567,-59540)">
        <line fill="rgb(42,96,153)" stroke="rgb(42,96,153)" x1="28806" y1="59607" x2="28806" y2="60828"/>
        <line fill="rgb(42,96,153)" stroke="rgb(42,96,153)" x1="29071" y1="59568" x2="29071" y2="60791"/>
        <line fill="rgb(42,96,153)" stroke="rgb(42,96,153)" x1="29336" y1="59551" x2="29336" y2="60774"/>
        <line fill="rgb(42,96,153)" stroke="rgb(42,96,153)" x1="29601" y1="59543" x2="29601" y2="60763"/>
        <line fill="rgb(42,96,153)" stroke="rgb(42,96,153)" x1="29866" y1="59545" x2="29866" y2="60766"/>
        <line fill="rgb(42,96,153)" stroke="rgb(42,96,153)" x1="30131" y1="59558" x2="30131" y2="60779"/>
        <line fill="rgb(42,96,153)" stroke="rgb(42,96,153)" x1="30396" y1="59579" x2="30396" y2="60800"/>
        <line fill="rgb(42,96,153)" stroke="rgb(42,96,153)" x1="30661" y1="59628" x2="30661" y2="60846"/>
        <line fill="rgb(42,96,153)" stroke="rgb(42,96,153)" x1="30926" y1="59755" x2="30926" y2="60977"/>
        <line fill="rgb(42,96,153)" stroke="rgb(42,96,153)" x1="31191" y1="59802" x2="31191" y2="61023"/>
        <line fill="rgb(42,96,153)" stroke="rgb(42,96,153)" x1="31456" y1="59823" x2="31456" y2="61044"/>
        <line fill="rgb(42,96,153)" stroke="rgb(42,96,153)" x1="31721" y1="59839" x2="31721" y2="61059"/>
        <line fill="rgb(42,96,153)" stroke="rgb(42,96,153)" x1="31986" y1="59843" x2="31986" y2="61066"/>
        <line fill="rgb(42,96,153)" stroke="rgb(42,96,153)" x1="32251" y1="59827" x2="32251" y2="61051"/>
        <line fill="rgb(42,96,153)" stroke="rgb(42,96,153)" x1="32516" y1="59811" x2="32516" y2="61033"/>
        <line fill="rgb(42,96,153)" stroke="rgb(42,96,153)" x1="32781" y1="59778" x2="32781" y2="60999"/>
       </g>
      </pattern>
     </defs>
     <path style="fill:url(#pattern2)" d="M 33012,59697 L 32995,59708 32976,59719 32933,59738 32882,59755 32825,59770 32695,59793 32548,59809 31907,59848 31574,59831 31246,59808 31100,59791 30975,59768 30922,59754 30877,59738 30840,59720 30825,59710 30813,59700 30797,59687 30779,59675 30737,59654 30686,59635 30628,59618 30495,59591 30343,59572 30012,59550 29689,59540 29321,59551 29155,59561 29004,59574 28868,59593 28749,59619 28696,59635 28648,59653 28605,59674 28567,59697 28567,60914 28607,60890 28654,60869 28706,60851 28763,60836 28891,60811 29035,60793 29354,60773 29691,60760 29972,60769 30312,60790 30475,60809 30618,60835 30678,60851 30729,60870 30750,60880 30769,60891 30784,60903 30796,60915 30809,60926 30825,60937 30864,60956 30911,60973 30966,60987 31096,61012 31247,61030 31584,61053 31924,61069 32256,61051 32581,61028 32725,61010 32849,60986 32902,60971 32947,60954 32984,60935 32999,60925 33012,60914 33012,59697 Z"/>
    </g>
    <path fill="none" stroke="rgb(42,96,153)" stroke-width="106" stroke-linejoin="round" d="M 33012,59697 C 32844,59822 32311,59821 31907,59848 31484,59825 30932,59815 30813,59700 30658,59561 30090,59551 29689,59540 29170,59552 28755,59567 28567,59697 L 28567,60914 C 28765,60779 29242,60778 29691,60760 29985,60769 30685,60779 30796,60915 30924,61037 31494,61047 31924,61069 32350,61044 32887,61035 33012,60914 L 33012,59697 Z"/>
   </g>
  </g>
  <g class="com.sun.star.drawing.CustomShape">
   <g id="id6">
    <rect class="BoundingBox" stroke="none" fill="none" x="28514" y="61188" width="4552" height="1636"/>
    <g>
     <defs>
      <pattern id="pattern3" x="28567" y="61241" width="4446" height="1530" patternUnits="userSpaceOnUse">
       <g transform="translate(-28567,-61241)">
        <line fill="rgb(42,96,153)" stroke="rgb(42,96,153)" x1="28806" y1="61308" x2="28806" y2="62529"/>
        <line fill="rgb(42,96,153)" stroke="rgb(42,96,153)" x1="29071" y1="61269" x2="29071" y2="62492"/>
        <line fill="rgb(42,96,153)" stroke="rgb(42,96,153)" x1="29336" y1="61252" x2="29336" y2="62475"/>
        <line fill="rgb(42,96,153)" stroke="rgb(42,96,153)" x1="29601" y1="61244" x2="29601" y2="62464"/>
        <line fill="rgb(42,96,153)" stroke="rgb(42,96,153)" x1="29866" y1="61246" x2="29866" y2="62467"/>
        <line fill="rgb(42,96,153)" stroke="rgb(42,96,153)" x1="30131" y1="61259" x2="30131" y2="62480"/>
        <line fill="rgb(42,96,153)" stroke="rgb(42,96,153)" x1="30396" y1="61280" x2="30396" y2="62501"/>
        <line fill="rgb(42,96,153)" stroke="rgb(42,96,153)" x1="30661" y1="61329" x2="30661" y2="62547"/>
        <line fill="rgb(42,96,153)" stroke="rgb(42,96,153)" x1="30926" y1="61456" x2="30926" y2="62678"/>
        <line fill="rgb(42,96,153)" stroke="rgb(42,96,153)" x1="31191" y1="61503" x2="31191" y2="62724"/>
        <line fill="rgb(42,96,153)" stroke="rgb(42,96,153)" x1="31456" y1="61524" x2="31456" y2="62745"/>
        <line fill="rgb(42,96,153)" stroke="rgb(42,96,153)" x1="31721" y1="61540" x2="31721" y2="62760"/>
        <line fill="rgb(42,96,153)" stroke="rgb(42,96,153)" x1="31986" y1="61544" x2="31986" y2="62767"/>
        <line fill="rgb(42,96,153)" stroke="rgb(42,96,153)" x1="32251" y1="61528" x2="32251" y2="62752"/>
        <line fill="rgb(42,96,153)" stroke="rgb(42,96,153)" x1="32516" y1="61512" x2="32516" y2="62734"/>
        <line fill="rgb(42,96,153)" stroke="rgb(42,96,153)" x1="32781" y1="61479" x2="32781" y2="62700"/>
       </g>
      </pattern>
     </defs>
     <path style="fill:url(#pattern3)" d="M 33012,61398 L 32995,61409 32976,61420 32933,61439 32882,61456 32825,61471 32695,61494 32548,61510 31907,61549 31574,61532 31246,61510 31100,61492 30975,61469 30922,61455 30877,61439 30840,61421 30825,61411 30813,61401 30797,61388 30779,61376 30737,61355 30686,61336 30628,61319 30495,61292 30343,61273 30012,61251 29689,61241 29321,61252 29155,61262 29004,61275 28868,61294 28749,61320 28696,61336 28648,61354 28605,61375 28567,61398 28567,62615 28607,62591 28654,62570 28706,62552 28763,62537 28891,62512 29035,62494 29354,62474 29691,62461 29972,62470 30312,62491 30475,62510 30618,62536 30678,62552 30729,62571 30750,62581 30769,62592 30784,62604 30796,62616 30809,62627 30825,62638 30864,62657 30911,62674 30966,62688 31096,62713 31247,62731 31584,62754 31924,62770 32256,62752 32581,62729 32725,62711 32849,62687 32902,62672 32947,62655 32984,62636 32999,62626 33012,62615 33012,61398 Z"/>
    </g>
    <path fill="none" stroke="rgb(42,96,153)" stroke-width="106" stroke-linejoin="round" d="M 33012,61398 C 32844,61523 32311,61522 31907,61549 31484,61526 30932,61516 30813,61401 30658,61262 30090,61252 29689,61241 29170,61253 28755,61268 28567,61398 L 28567,62615 C 28765,62480 29242,62479 29691,62461 29985,62470 30685,62480 30796,62616 30924,62738 31494,62748 31924,62770 32350,62745 32887,62736 33012,62615 L 33012,61398 Z"/>
   </g>
  </g>
 </g>
</svg>