<?xml version="1.0" encoding="UTF-8"?>
<!DOCTYPE svg PUBLIC "-//W3C//DTD SVG 1.1//EN" "http://www.w3.org/Graphics/SVG/1.1/DTD/svg11.dtd">
<svg version="1.2" width="51.18mm" height="67.05mm" viewBox="11132 56851 5118 6705" preserveAspectRatio="xMidYMid" fill-rule="evenodd" stroke-width="28.222" stroke-linejoin="round" xmlns="http://www.w3.org/2000/svg" xmlns:ooo="http://xml.openoffice.org/svg/export" xmlns:xlink="http://www.w3.org/1999/xlink" xmlns:presentation="http://sun.com/xmlns/staroffice/presentation" xmlns:smil="http://www.w3.org/2001/SMIL20/" xmlns:anim="urn:oasis:names:tc:opendocument:xmlns:animation:1.0" xmlns:svg="urn:oasis:names:tc:opendocument:xmlns:svg-compatible:1.0" xml:space="preserve">
 <defs class="EmbeddedBulletChars">
  <g id="bullet-char-template-57356" transform="scale(0.00048828125,-0.00048828125)">
   <path d="M 580,1141 L 1163,571 580,0 -4,571 580,1141 Z"/>
  </g>
  <g id="bullet-char-template-57354" transform="scale(0.00048828125,-0.00048828125)">
   <path d="M 8,1128 L 1137,1128 1137,0 8,0 8,1128 Z"/>
  </g>
  <g id="bullet-char-template-10146" transform="scale(0.00048828125,-0.00048828125)">
   <path d="M 174,0 L 602,739 174,1481 1456,739 174,0 Z M 1358,739 L 309,1346 659,739 1358,739 Z"/>
  </g>
  <g id="bullet-char-template-10132" transform="scale(0.00048828125,-0.00048828125)">
   <path d="M 2015,739 L 1276,0 717,0 1260,543 174,543 174,936 1260,936 717,1481 1274,1481 2015,739 Z"/>
  </g>
  <g id="bullet-char-template-10007" transform="scale(0.00048828125,-0.00048828125)">
   <path d="M 0,-2 C -7,14 -16,27 -25,37 L 356,567 C 262,823 215,952 215,954 215,979 228,992 255,992 264,992 276,990 289,987 310,991 331,999 354,1012 L 381,999 492,748 772,1049 836,1024 860,1049 C 881,1039 901,1025 922,1006 886,937 835,863 770,784 769,783 710,716 594,584 L 774,223 C 774,196 753,168 711,139 L 727,119 C 717,90 699,76 672,76 641,76 570,178 457,381 L 164,-76 C 142,-110 111,-127 72,-127 30,-127 9,-110 8,-76 1,-67 -2,-52 -2,-32 -2,-23 -1,-13 0,-2 Z"/>
  </g>
  <g id="bullet-char-template-10004" transform="scale(0.00048828125,-0.00048828125)">
   <path d="M 285,-33 C 182,-33 111,30 74,156 52,228 41,333 41,471 41,549 55,616 82,672 116,743 169,778 240,778 293,778 328,747 346,684 L 369,508 C 377,444 397,411 428,410 L 1163,1116 C 1174,1127 1196,1133 1229,1133 1271,1133 1292,1118 1292,1087 L 1292,965 C 1292,929 1282,901 1262,881 L 442,47 C 390,-6 338,-33 285,-33 Z"/>
  </g>
  <g id="bullet-char-template-9679" transform="scale(0.00048828125,-0.00048828125)">
   <path d="M 813,0 C 632,0 489,54 383,161 276,268 223,411 223,592 223,773 276,916 383,1023 489,1130 632,1184 813,1184 992,1184 1136,1130 1245,1023 1353,916 1407,772 1407,592 1407,412 1353,268 1245,161 1136,54 992,0 813,0 Z"/>
  </g>
  <g id="bullet-char-template-8226" transform="scale(0.00048828125,-0.00048828125)">
   <path d="M 346,457 C 273,457 209,483 155,535 101,586 74,649 74,723 74,796 101,859 155,911 209,963 273,989 346,989 419,989 480,963 531,910 582,859 608,796 608,723 608,648 583,586 532,535 482,483 420,457 346,457 Z"/>
  </g>
  <g id="bullet-char-template-8211" transform="scale(0.00048828125,-0.00048828125)">
   <path d="M -4,459 L 1135,459 1135,606 -4,606 -4,459 Z"/>
  </g>
  <g id="bullet-char-template-61548" transform="scale(0.00048828125,-0.00048828125)">
   <path d="M 173,740 C 173,903 231,1043 346,1159 462,1274 601,1332 765,1332 928,1332 1067,1274 1183,1159 1299,1043 1357,903 1357,740 1357,577 1299,437 1183,322 1067,206 928,148 765,148 601,148 462,206 346,322 231,437 173,577 173,740 Z"/>
  </g>
 </defs>
 <g class="Page">
  <g class="com.sun.star.drawing.CustomShape">
   <g id="id3">
    <rect class="BoundingBox" stroke="none" fill="none" x="11132" y="56851" width="5118" height="6705"/>
    <path fill="rgb(255,245,206)" stroke="none" d="M 11996,56869 L 11997,56869 C 11848,56869 11702,56908 11573,56982 11445,57057 11338,57164 11263,57292 11189,57421 11150,57567 11150,57716 L 11150,62690 11150,62690 C 11150,62839 11189,62985 11263,63114 11338,63242 11445,63349 11573,63424 11702,63498 11848,63537 11997,63537 L 15384,63537 15384,63537 C 15533,63537 15679,63498 15808,63424 15936,63349 16043,63242 16118,63114 16192,62985 16231,62839 16231,62690 L 16231,57715 16231,57716 16231,57716 C 16231,57567 16192,57421 16118,57292 16043,57164 15936,57057 15808,56982 15679,56908 15533,56869 15384,56869 L 11996,56869 Z"/>
    <path fill="none" stroke="rgb(184,92,0)" stroke-width="35" stroke-linejoin="round" d="M 11996,56869 L 11997,56869 C 11848,56869 11702,56908 11573,56982 11445,57057 11338,57164 11263,57292 11189,57421 11150,57567 11150,57716 L 11150,62690 11150,62690 C 11150,62839 11189,62985 11263,63114 11338,63242 11445,63349 11573,63424 11702,63498 11848,63537 11997,63537 L 15384,63537 15384,63537 C 15533,63537 15679,63498 15808,63424 15936,63349 16043,63242 16118,63114 16192,62985 16231,62839 16231,62690 L 16231,57715 16231,57716 16231,57716 C 16231,57567 16192,57421 16118,57292 16043,57164 15936,57057 15808,56982 15679,56908 15533,56869 15384,56869 L 11996,56869 Z"/>
   </g>
  </g>
  <g class="com.sun.star.drawing.CustomShape">
   <g id="id4">
    <rect class="BoundingBox" stroke="none" fill="none" x="11414" y="57686" width="4552" height="1636"/>
    <g>
     <defs>
      <pattern id="pattern1" x="11467" y="57739" width="4446" height="1530" patternUnits="userSpaceOnUse">
       <g transform="translate(-11467,-57739)">
        <line fill="rgb(129,212,26)" stroke="rgb(129,212,26)" x1="11706" y1="57806" x2="11706" y2="59027"/>
        <line fill="rgb(129,212,26)" stroke="rgb(129,212,26)" x1="11971" y1="57767" x2="11971" y2="58990"/>
        <line fill="rgb(129,212,26)" stroke="rgb(129,212,26)" x1="12236" y1="57750" x2="12236" y2="58973"/>
        <line fill="rgb(129,212,26)" stroke="rgb(129,212,26)" x1="12501" y1="57742" x2="12501" y2="58962"/>
        <line fill="rgb(129,212,26)" stroke="rgb(129,212,26)" x1="12766" y1="57744" x2="12766" y2="58965"/>
        <line fill="rgb(129,212,26)" stroke="rgb(129,212,26)" x1="13031" y1="57757" x2="13031" y2="58978"/>
        <line fill="rgb(129,212,26)" stroke="rgb(129,212,26)" x1="13296" y1="57778" x2="13296" y2="58999"/>
        <line fill="rgb(129,212,26)" stroke="rgb(129,212,26)" x1="13561" y1="57827" x2="13561" y2="59045"/>
        <line fill="rgb(129,212,26)" stroke="rgb(129,212,26)" x1="13826" y1="57954" x2="13826" y2="59176"/>
        <line fill="rgb(129,212,26)" stroke="rgb(129,212,26)" x1="14091" y1="58001" x2="14091" y2="59222"/>
        <line fill="rgb(129,212,26)" stroke="rgb(129,212,26)" x1="14356" y1="58022" x2="14356" y2="59243"/>
        <line fill="rgb(129,212,26)" stroke="rgb(129,212,26)" x1="14621" y1="58038" x2="14621" y2="59258"/>
        <line fill="rgb(129,212,26)" stroke="rgb(129,212,26)" x1="14886" y1="58042" x2="14886" y2="59265"/>
        <line fill="rgb(129,212,26)" stroke="rgb(129,212,26)" x1="15151" y1="58026" x2="15151" y2="59250"/>
        <line fill="rgb(129,212,26)" stroke="rgb(129,212,26)" x1="15416" y1="58010" x2="15416" y2="59232"/>
        <line fill="rgb(129,212,26)" stroke="rgb(129,212,26)" x1="15681" y1="57977" x2="15681" y2="59198"/>
       </g>
      </pattern>
     </defs>
     <path style="fill:url(#pattern1)" d="M 15912,57896 L 15895,57907 15876,57918 15833,57937 15782,57954 15725,57969 15595,57992 15448,58008 14807,58047 14474,58030 14146,58008 14000,57990 13875,57967 13822,57953 13777,57937 13740,57919 13725,57909 13713,57899 13697,57886 13679,57874 13637,57853 13586,57834 13528,57817 13395,57790 13243,57771 12912,57749 12589,57739 12221,57750 12055,57760 11904,57773 11768,57792 11649,57818 11596,57834 11548,57852 11505,57873 11467,57896 11467,59113 11507,59089 11554,59068 11606,59050 11663,59035 11791,59010 11935,58992 12254,58972 12591,58959 12872,58968 13212,58989 13375,59008 13518,59034 13578,59050 13629,59069 13650,59079 13669,59090 13684,59102 13696,59114 13709,59125 13725,59136 13764,59155 13811,59172 13866,59186 13996,59211 14147,59229 14484,59252 14824,59268 15156,59250 15481,59227 15625,59209 15749,59185 15802,59170 15847,59153 15884,59134 15899,59124 15912,59113 15912,57896 Z"/>
    </g>
    <path fill="none" stroke="rgb(129,212,26)" stroke-width="106" stroke-linejoin="round" d="M 15912,57896 C 15744,58021 15211,58020 14807,58047 14384,58024 13832,58014 13713,57899 13558,57760 12990,57750 12589,57739 12070,57751 11655,57766 11467,57896 L 11467,59113 C 11665,58978 12142,58977 12591,58959 12885,58968 13585,58978 13696,59114 13824,59236 14394,59246 14824,59268 15250,59243 15787,59234 15912,59113 L 15912,57896 Z"/>
   </g>
  </g>
  <g class="com.sun.star.drawing.CustomShape">
   <g id="id5">
    <rect class="BoundingBox" stroke="none" fill="none" x="11414" y="59487" width="4552" height="1636"/>
    <g>
     <defs>
      <pattern id="pattern2" x="11467" y="59540" width="4446" height="1530" patternUnits="userSpaceOnUse">
       <g transform="translate(-11467,-59540)">
        <line fill="rgb(129,212,26)" stroke="rgb(129,212,26)" x1="11706" y1="59607" x2="11706" y2="60828"/>
        <line fill="rgb(129,212,26)" stroke="rgb(129,212,26)" x1="11971" y1="59568" x2="11971" y2="60791"/>
        <line fill="rgb(129,212,26)" stroke="rgb(129,212,26)" x1="12236" y1="59551" x2="12236" y2="60774"/>
        <line fill="rgb(129,212,26)" stroke="rgb(129,212,26)" x1="12501" y1="59543" x2="12501" y2="60763"/>
        <line fill="rgb(129,212,26)" stroke="rgb(129,212,26)" x1="12766" y1="59545" x2="12766" y2="60766"/>
        <line fill="rgb(129,212,26)" stroke="rgb(129,212,26)" x1="13031" y1="59558" x2="13031" y2="60779"/>
        <line fill="rgb(129,212,26)" stroke="rgb(129,212,26)" x1="13296" y1="59579" x2="13296" y2="60800"/>
        <line fill="rgb(129,212,26)" stroke="rgb(129,212,26)" x1="13561" y1="59628" x2="13561" y2="60846"/>
        <line fill="rgb(129,212,26)" stroke="rgb(129,212,26)" x1="13826" y1="59755" x2="13826" y2="60977"/>
        <line fill="rgb(129,212,26)" stroke="rgb(129,212,26)" x1="14091" y1="59802" x2="14091" y2="61023"/>
        <line fill="rgb(129,212,26)" stroke="rgb(129,212,26)" x1="14356" y1="59823" x2="14356" y2="61044"/>
        <line fill="rgb(129,212,26)" stroke="rgb(129,212,26)" x1="14621" y1="59839" x2="14621" y2="61059"/>
        <line fill="rgb(129,212,26)" stroke="rgb(129,212,26)" x1="14886" y1="59843" x2="14886" y2="61066"/>
        <line fill="rgb(129,212,26)" stroke="rgb(129,212,26)" x1="15151" y1="59827" x2="15151" y2="61051"/>
        <line fill="rgb(129,212,26)" stroke="rgb(129,212,26)" x1="15416" y1="59811" x2="15416" y2="61033"/>
        <line fill="rgb(129,212,26)" stroke="rgb(129,212,26)" x1="15681" y1="59778" x2="15681" y2="60999"/>
       </g>
      </pattern>
     </defs>
     <path style="fill:url(#pattern2)" d="M 15912,59697 L 15895,59708 15876,59719 15833,59738 15782,59755 15725,59770 15595,59793 15448,59809 14807,59848 14474,59831 14146,59808 14000,59791 13875,59768 13822,59754 13777,59738 13740,59720 13725,59710 13713,59700 13697,59687 13679,59675 13637,59654 13586,59635 13528,59618 13395,59591 13243,59572 12912,59550 12589,59540 12221,59551 12055,59561 11904,59574 11768,59593 11649,59619 11596,59635 11548,59653 11505,59674 11467,59697 11467,60914 11507,60890 11554,60869 11606,60851 11663,60836 11791,60811 11935,60793 12254,60773 12591,60760 12872,60769 13212,60790 13375,60809 13518,60835 13578,60851 13629,60870 13650,60880 13669,60891 13684,60903 13696,60915 13709,60926 13725,60937 13764,60956 13811,60973 13866,60987 13996,61012 14147,61030 14484,61053 14824,61069 15156,61051 15481,61028 15625,61010 15749,60986 15802,60971 15847,60954 15884,60935 15899,60925 15912,60914 15912,59697 Z"/>
    </g>
    <path fill="none" stroke="rgb(129,212,26)" stroke-width="106" stroke-linejoin="round" d="M 15912,59697 C 15744,59822 15211,59821 14807,59848 14384,59825 13832,59815 13713,59700 13558,59561 12990,59551 12589,59540 12070,59552 11655,59567 11467,59697 L 11467,60914 C 11665,60779 12142,60778 12591,60760 12885,60769 13585,60779 13696,60915 13824,61037 14394,61047 14824,61069 15250,61044 15787,61035 15912,60914 L 15912,59697 Z"/>
   </g>
  </g>
  <g class="com.sun.star.drawing.CustomShape">
   <g id="id6">
    <rect class="BoundingBox" stroke="none" fill="none" x="11414" y="61188" width="4552" height="1636"/>
    <g>
     <defs>
      <pattern id="pattern3" x="11467" y="61241" width="4446" height="1530" patternUnits="userSpaceOnUse">
       <g transform="translate(-11467,-61241)">
        <line fill="rgb(129,212,26)" stroke="rgb(129,212,26)" x1="11706" y1="61308" x2="11706" y2="62529"/>
        <line fill="rgb(129,212,26)" stroke="rgb(129,212,26)" x1="11971" y1="61269" x2="11971" y2="62492"/>
        <line fill="rgb(129,212,26)" stroke="rgb(129,212,26)" x1="12236" y1="61252" x2="12236" y2="62475"/>
        <line fill="rgb(129,212,26)" stroke="rgb(129,212,26)" x1="12501" y1="61244" x2="12501" y2="62464"/>
        <line fill="rgb(129,212,26)" stroke="rgb(129,212,26)" x1="12766" y1="61246" x2="12766" y2="62467"/>
        <line fill="rgb(129,212,26)" stroke="rgb(129,212,26)" x1="13031" y1="61259" x2="13031" y2="62480"/>
        <line fill="rgb(129,212,26)" stroke="rgb(129,212,26)" x1="13296" y1="61280" x2="13296" y2="62501"/>
        <line fill="rgb(129,212,26)" stroke="rgb(129,212,26)" x1="13561" y1="61329" x2="13561" y2="62547"/>
        <line fill="rgb(129,212,26)" stroke="rgb(129,212,26)" x1="13826" y1="61456" x2="13826" y2="62678"/>
        <line fill="rgb(129,212,26)" stroke="rgb(129,212,26)" x1="14091" y1="61503" x2="14091" y2="62724"/>
        <line fill="rgb(129,212,26)" stroke="rgb(129,212,26)" x1="14356" y1="61524" x2="14356" y2="62745"/>
        <line fill="rgb(129,212,26)" stroke="rgb(129,212,26)" x1="14621" y1="61540" x2="14621" y2="62760"/>
        <line fill="rgb(129,212,26)" stroke="rgb(129,212,26)" x1="14886" y1="61544" x2="14886" y2="62767"/>
        <line fill="rgb(129,212,26)" stroke="rgb(129,212,26)" x1="15151" y1="61528" x2="15151" y2="62752"/>
        <line fill="rgb(129,212,26)" stroke="rgb(129,212,26)" x1="15416" y1="61512" x2="15416" y2="62734"/>
        <line fill="rgb(129,212,26)" stroke="rgb(129,212,26)" x1="15681" y1="61479" x2="15681" y2="62700"/>
       </g>
      </pattern>
     </defs>
     <path style="fill:url(#pattern3)" d="M 15912,61398 L 15895,61409 15876,61420 15833,61439 15782,61456 15725,61471 15595,61494 15448,61510 14807,61549 14474,61532 14146,61510 14000,61492 13875,61469 13822,61455 13777,61439 13740,61421 13725,61411 13713,61401 13697,61388 13679,61376 13637,61355 13586,61336 13528,61319 13395,61292 13243,61273 12912,61251 12589,61241 12221,61252 12055,61262 11904,61275 11768,61294 11649,61320 11596,61336 11548,61354 11505,61375 11467,61398 11467,62615 11507,62591 11554,62570 11606,62552 11663,62537 11791,62512 11935,62494 12254,62474 12591,62461 12872,62470 13212,62491 13375,62510 13518,62536 13578,62552 13629,62571 13650,62581 13669,62592 13684,62604 13696,62616 13709,62627 13725,62638 13764,62657 13811,62674 13866,62688 13996,62713 14147,62731 14484,62754 14824,62770 15156,62752 15481,62729 15625,62711 15749,62687 15802,62672 15847,62655 15884,62636 15899,62626 15912,62615 15912,61398 Z"/>
    </g>
    <path fill="none" stroke="rgb(129,212,26)" stroke-width="106" stroke-linejoin="round" d="M 15912,61398 C 15744,61523 15211,61522 14807,61549 14384,61526 13832,61516 13713,61401 13558,61262 12990,61252 12589,61241 12070,61253 11655,61268 11467,61398 L 11467,62615 C 11665,62480 12142,62479 12591,62461 12885,62470 13585,62480 13696,62616 13824,62738 14394,62748 14824,62770 15250,62745 15787,62736 15912,62615 L 15912,61398 Z"/>
   </g>
  </g>
 </g>
</svg>